<svg xmlns="http://www.w3.org/2000/svg" xmlns:xlink="http://www.w3.org/1999/xlink" contentStyleType="text/css" height="1032.3px" preserveAspectRatio="none" style="width:957px;height:1032px;background:#FFFFFF;" version="1.1" viewBox="0 0 957 1032" width="957.6px" zoomAndPan="magnify"><defs><filter height="300%" id="f1vcrpouzmdidh" width="300%" x="-1" y="-1"><feGaussianBlur result="blurOut" stdDeviation="1.8"/><feColorMatrix in="blurOut" result="blurOut2" type="matrix" values="0 0 0 0 0 0 0 0 0 0 0 0 0 0 0 0 0 0 .4 0"/><feOffset dx="3.6" dy="3.6" in="blurOut2" result="blurOut3"/><feBlend in="SourceGraphic" in2="blurOut3" mode="normal"/></filter></defs><g><rect fill="#5D6D7E" height="1022.2506" rx="2.25" ry="2.25" style="stroke:#181818;stroke-width:0.45;" width="157.6485" x="23.4" y="5.4"/><text fill="#000000" font-family="sans-serif" font-size="11.7" font-weight="bold" lengthAdjust="spacing" textLength="82.5855" x="60.9315" y="18.0255">patient-service</text><rect fill="#4A235A" height="1022.2506" rx="2.25" ry="2.25" style="stroke:#181818;stroke-width:0.45;" width="518.0339" x="266.9726" y="5.4"/><text fill="#000000" font-family="sans-serif" font-size="11.7" font-weight="bold" lengthAdjust="spacing" textLength="78.6779" x="486.6506" y="18.0255">billing-service</text><rect fill="#FFFFFF" filter="url(#f1vcrpouzmdidh)" height="538.824" style="stroke:#181818;stroke-width:0.9;" width="9" x="324.501" y="362.0848"/><rect fill="#FFFFFF" filter="url(#f1vcrpouzmdidh)" height="51.8238" style="stroke:#181818;stroke-width:0.9;" width="9" x="481.649" y="405.8086"/><rect fill="#FFFFFF" filter="url(#f1vcrpouzmdidh)" height="28.1619" style="stroke:#181818;stroke-width:0.9;" width="9" x="481.649" y="785.2992"/><rect fill="#FFFFFF" filter="url(#f1vcrpouzmdidh)" height="305.8049" style="stroke:#181818;stroke-width:0.9;" width="9" x="717.7891" y="535.8182"/><rect fill="#E0FFFF" filter="url(#f1vcrpouzmdidh)" height="870.3527" rx="2.25" ry="2.25" style="stroke:#000000;stroke-width:1.35;" width="938.0118" x="9" y="89.5799"/><rect fill="#FFE4E1" filter="url(#f1vcrpouzmdidh)" height="72.7857" rx="2.25" ry="2.25" style="stroke:#000000;stroke-width:1.35;" width="249.6023" x="18" y="246.4752"/><rect fill="#FFE4E1" filter="url(#f1vcrpouzmdidh)" height="45.5238" rx="2.25" ry="2.25" style="stroke:#000000;stroke-width:1.35;" width="521.5715" x="18" y="419.3086"/><line style="stroke:#181818;stroke-width:0.45;stroke-dasharray:5.0,5.0;" x1="101.7" x2="101.7" y1="74.2799" y2="975.2326"/><line style="stroke:#181818;stroke-width:0.45;stroke-dasharray:5.0,5.0;" x1="328.1726" x2="328.1726" y1="74.2799" y2="975.2326"/><line style="stroke:#181818;stroke-width:0.45;stroke-dasharray:5.0,5.0;" x1="485.8264" x2="485.8264" y1="74.2799" y2="975.2326"/><line style="stroke:#181818;stroke-width:0.45;stroke-dasharray:5.0,5.0;" x1="721.6717" x2="721.6717" y1="74.2799" y2="975.2326"/><rect fill="#FFFFFF" filter="url(#f1vcrpouzmdidh)" height="29.359" rx="2.25" ry="2.25" style="stroke:#181818;stroke-width:0.45;" width="147.7485" x="27" y="41.3209"/><text fill="#000000" font-family="sans-serif" font-size="12.6" lengthAdjust="spacing" textLength="135.1485" x="33.3" y="61.2176">BillingServiceGrpcClient</text><rect fill="#FFFFFF" filter="url(#f1vcrpouzmdidh)" height="29.359" rx="2.25" ry="2.25" style="stroke:#181818;stroke-width:0.45;" width="147.7485" x="27" y="974.3326"/><text fill="#000000" font-family="sans-serif" font-size="12.6" lengthAdjust="spacing" textLength="135.1485" x="33.3" y="994.2293">BillingServiceGrpcClient</text><rect fill="#FFFFFF" filter="url(#f1vcrpouzmdidh)" height="29.359" rx="2.25" ry="2.25" style="stroke:#181818;stroke-width:0.45;" width="114.1567" x="270.5726" y="41.3209"/><text fill="#000000" font-family="sans-serif" font-size="12.6" lengthAdjust="spacing" textLength="101.5567" x="276.8726" y="61.2176">grpc-netty-shaded</text><rect fill="#FFFFFF" filter="url(#f1vcrpouzmdidh)" height="29.359" rx="2.25" ry="2.25" style="stroke:#181818;stroke-width:0.45;" width="114.1567" x="270.5726" y="974.3326"/><text fill="#000000" font-family="sans-serif" font-size="12.6" lengthAdjust="spacing" textLength="101.5567" x="276.8726" y="994.2293">grpc-netty-shaded</text><rect fill="#FFFFFF" filter="url(#f1vcrpouzmdidh)" height="29.359" rx="2.25" ry="2.25" style="stroke:#181818;stroke-width:0.45;" width="86.1451" x="441.7264" y="41.3209"/><text fill="#000000" font-family="sans-serif" font-size="12.6" lengthAdjust="spacing" textLength="73.5451" x="448.0264" y="61.2176">protobuf-java</text><rect fill="#FFFFFF" filter="url(#f1vcrpouzmdidh)" height="29.359" rx="2.25" ry="2.25" style="stroke:#181818;stroke-width:0.45;" width="86.1451" x="441.7264" y="974.3326"/><text fill="#000000" font-family="sans-serif" font-size="12.6" lengthAdjust="spacing" textLength="73.5451" x="448.0264" y="994.2293">protobuf-java</text><rect fill="#FFFFFF" filter="url(#f1vcrpouzmdidh)" height="46.118" rx="2.25" ry="2.25" style="stroke:#181818;stroke-width:0.45;" width="115.5349" x="663.1717" y="24.5619"/><text fill="#000000" font-family="sans-serif" font-size="12.6" lengthAdjust="spacing" textLength="102.9349" x="669.4717" y="44.4586">BillingGrpcService</text><text fill="#000000" font-family="sans-serif" font-size="12.6" lengthAdjust="spacing" textLength="90.501" x="675.6886" y="61.2176">(@GrpcService)</text><rect fill="#FFFFFF" filter="url(#f1vcrpouzmdidh)" height="46.118" rx="2.25" ry="2.25" style="stroke:#181818;stroke-width:0.45;" width="115.5349" x="663.1717" y="974.3326"/><text fill="#000000" font-family="sans-serif" font-size="12.6" lengthAdjust="spacing" textLength="102.9349" x="669.4717" y="994.2293">BillingGrpcService</text><text fill="#000000" font-family="sans-serif" font-size="12.6" lengthAdjust="spacing" textLength="90.501" x="675.6886" y="1010.9883">(@GrpcService)</text><rect fill="#FFFFFF" filter="url(#f1vcrpouzmdidh)" height="538.824" style="stroke:#181818;stroke-width:0.9;" width="9" x="324.501" y="362.0848"/><rect fill="#FFFFFF" filter="url(#f1vcrpouzmdidh)" height="51.8238" style="stroke:#181818;stroke-width:0.9;" width="9" x="481.649" y="405.8086"/><rect fill="#FFFFFF" filter="url(#f1vcrpouzmdidh)" height="28.1619" style="stroke:#181818;stroke-width:0.9;" width="9" x="481.649" y="785.2992"/><rect fill="#FFFFFF" filter="url(#f1vcrpouzmdidh)" height="305.8049" style="stroke:#181818;stroke-width:0.9;" width="9" x="717.7891" y="535.8182"/><path d="M11.25,89.5799 L362.2008,89.5799 L362.2008,129.0656 L353.2008,138.0656 L9,138.0656 L9,91.8299 A2.25,2.25 0 0 1 11.25,89.5799 " fill="#EEEEEE" style="stroke:#000000;stroke-width:1.35;"/><rect fill="none" height="870.3527" rx="2.25" ry="2.25" style="stroke:#000000;stroke-width:1.35;" width="938.0118" x="9" y="89.5799"/><text fill="#000000" font-family="sans-serif" font-size="11.7" font-weight="bold" lengthAdjust="spacing" textLength="213.2565" x="22.5" y="103.1054">&#1055;&#1088;&#1086;&#1094;&#1077;&#1089;&#1089; &#1089;&#1086;&#1079;&#1076;&#1072;&#1085;&#1080;&#1103; &#1073;&#1080;&#1083;&#1083;&#1080;&#1085;&#1075;-&#1072;&#1082;&#1082;&#1072;&#1091;&#1085;&#1090;&#1072;</text><text fill="#000000" font-family="sans-serif" font-size="11.7" font-weight="bold" lengthAdjust="spacing" textLength="312.7008" x="22.5" y="118.6673">Unary gRPC: billing.BillingService/CreateBillingAccount</text><text fill="#000000" font-family="sans-serif" font-size="11.7" font-weight="bold" lengthAdjust="spacing" textLength="266.9348" x="22.5" y="134.2292">patient-service &#8594; billing-service:9001 (plaintext)</text><line style="stroke:#181818;stroke-width:0.9;" x1="102.2243" x2="140.0243" y1="221.2752" y2="221.2752"/><line style="stroke:#181818;stroke-width:0.9;" x1="140.0243" x2="140.0243" y1="221.2752" y2="232.9752"/><line style="stroke:#181818;stroke-width:0.9;" x1="103.1243" x2="140.0243" y1="232.9752" y2="232.9752"/><polygon fill="#181818" points="112.1243,229.3752,103.1243,232.9752,112.1243,236.5752,108.5243,232.9752" style="stroke:#181818;stroke-width:0.9;"/><text fill="#000000" font-family="sans-serif" font-size="11.7" font-weight="bold" lengthAdjust="spacing" textLength="14.2994" x="108.5243" y="154.2911">[1]</text><text fill="#000000" font-family="sans-serif" font-size="11.7" lengthAdjust="spacing" textLength="3.2506" x="122.8236" y="154.2911">&#160;</text><text fill="#000000" font-family="sans-serif" font-size="11.7" lengthAdjust="spacing" textLength="143.7192" x="126.0743" y="154.2911">BillingRequest.newBuilder()</text><text fill="#000000" font-family="sans-serif" font-size="11.7" lengthAdjust="spacing" textLength="117.7198" x="108.5243" y="169.853">.setPatientId(patientId)</text><text fill="#000000" font-family="sans-serif" font-size="11.7" lengthAdjust="spacing" textLength="87.1273" x="108.5243" y="185.4149">.setName(name)</text><text fill="#000000" font-family="sans-serif" font-size="11.7" lengthAdjust="spacing" textLength="83.8652" x="108.5243" y="200.9769">.setEmail(email)</text><text fill="#000000" font-family="sans-serif" font-size="11.7" lengthAdjust="spacing" textLength="35.7627" x="108.5243" y="216.5388">.build()</text><path d="M20.25,246.4752 L72.1538,246.4752 L72.1538,254.8371 L63.1538,263.8371 L18,263.8371 L18,248.7252 A2.25,2.25 0 0 1 20.25,246.4752 " fill="#EEEEEE" style="stroke:#000000;stroke-width:1.35;"/><rect fill="none" height="72.7857" rx="2.25" ry="2.25" style="stroke:#000000;stroke-width:1.35;" width="249.6023" x="18" y="246.4752"/><text fill="#000000" font-family="sans-serif" font-size="11.7" font-weight="bold" lengthAdjust="spacing" textLength="13.6538" x="31.5" y="260.0007">alt</text><text fill="#000000" font-family="sans-serif" font-size="9.9" font-weight="bold" lengthAdjust="spacing" textLength="133.0603" x="85.6538" y="258.9583">[billing-service &#1085;&#1077;&#1076;&#1086;&#1089;&#1090;&#1091;&#1087;&#1077;&#1085;]</text><line style="stroke:#FF0000;stroke-width:0.9;stroke-dasharray:2.0,2.0;" x1="102.2243" x2="140.0243" y1="300.3609" y2="300.3609"/><line style="stroke:#FF0000;stroke-width:0.9;stroke-dasharray:2.0,2.0;" x1="140.0243" x2="140.0243" y1="300.3609" y2="312.0609"/><line style="stroke:#FF0000;stroke-width:0.9;stroke-dasharray:2.0,2.0;" x1="103.1243" x2="140.0243" y1="312.0609" y2="312.0609"/><polygon fill="#FF0000" points="112.1243,308.4609,103.1243,312.0609,112.1243,315.6609,108.5243,312.0609" style="stroke:#FF0000;stroke-width:0.9;"/><text fill="#FF0000" font-family="sans-serif" font-size="11.7" lengthAdjust="spacing" textLength="128.1173" x="108.5243" y="280.0626">StatusRuntimeException</text><text fill="#FF0000" font-family="sans-serif" font-size="11.7" lengthAdjust="spacing" textLength="3.2506" x="236.6416" y="280.0626">&#160;</text><text fill="#FF0000" font-family="sans-serif" font-size="11.7" lengthAdjust="spacing" textLength="16.9102" x="239.8922" y="280.0626">(14</text><text fill="#FF0000" font-family="sans-serif" font-size="11.7" lengthAdjust="spacing" textLength="83.8824" x="108.5243" y="295.6245">UNAVAILABLE)</text><polygon fill="#181818" points="313.701,358.4848,322.701,362.0848,313.701,365.6848,317.301,362.0848" style="stroke:#181818;stroke-width:0.9;"/><line style="stroke:#181818;stroke-width:0.9;" x1="102.2243" x2="319.101" y1="362.0848" y2="362.0848"/><text fill="#000000" font-family="sans-serif" font-size="11.7" font-weight="bold" lengthAdjust="spacing" textLength="14.2994" x="108.5243" y="341.7864">[2]</text><text fill="#000000" font-family="sans-serif" font-size="11.7" lengthAdjust="spacing" textLength="3.2506" x="122.8236" y="341.7864">&#160;</text><text fill="#000000" font-family="sans-serif" font-size="11.7" lengthAdjust="spacing" textLength="40.3044" x="126.0743" y="341.7864">HTTP/2</text><text fill="#000000" font-family="sans-serif" font-size="11.7" lengthAdjust="spacing" textLength="3.2506" x="166.3787" y="341.7864">&#160;</text><text fill="#000000" font-family="sans-serif" font-size="11.7" lengthAdjust="spacing" textLength="57.1232" x="169.6293" y="341.7864">TCP-&#1087;&#1072;&#1082;&#1077;&#1090;</text><text fill="#000000" font-family="sans-serif" font-size="11.7" lengthAdjust="spacing" textLength="81.94" x="108.5243" y="357.3483">(BillingRequest,</text><text fill="#000000" font-family="sans-serif" font-size="11.7" lengthAdjust="spacing" textLength="3.2506" x="190.4643" y="357.3483">&#160;</text><text fill="#000000" font-family="sans-serif" font-size="11.7" lengthAdjust="spacing" textLength="44.2292" x="193.7149" y="357.3483">Protobuf</text><text fill="#000000" font-family="sans-serif" font-size="11.7" lengthAdjust="spacing" textLength="3.2506" x="237.9441" y="357.3483">&#160;</text><text fill="#000000" font-family="sans-serif" font-size="11.7" lengthAdjust="spacing" textLength="35.7627" x="241.1947" y="357.3483">binary)</text><polygon fill="#181818" points="470.849,402.2086,479.849,405.8086,470.849,409.4086,474.449,405.8086" style="stroke:#181818;stroke-width:0.9;"/><line style="stroke:#181818;stroke-width:0.9;" x1="333.501" x2="476.249" y1="405.8086" y2="405.8086"/><text fill="#000000" font-family="sans-serif" font-size="11.7" font-weight="bold" lengthAdjust="spacing" textLength="14.2994" x="339.801" y="385.5103">[3]</text><text fill="#000000" font-family="sans-serif" font-size="11.7" lengthAdjust="spacing" textLength="3.2506" x="354.1003" y="385.5103">&#160;</text><text fill="#000000" font-family="sans-serif" font-size="11.7" lengthAdjust="spacing" textLength="91.1435" x="357.351" y="385.5103">&#1044;&#1077;&#1089;&#1077;&#1088;&#1080;&#1072;&#1083;&#1080;&#1079;&#1072;&#1094;&#1080;&#1103;</text><text fill="#000000" font-family="sans-serif" font-size="11.7" lengthAdjust="spacing" textLength="35.7627" x="339.801" y="401.0722">(binary</text><text fill="#000000" font-family="sans-serif" font-size="11.7" lengthAdjust="spacing" textLength="3.2506" x="375.5637" y="401.0722">&#160;</text><text fill="#000000" font-family="sans-serif" font-size="11.7" lengthAdjust="spacing" textLength="10.0947" x="378.8143" y="401.0722">&#8594;</text><text fill="#000000" font-family="sans-serif" font-size="11.7" lengthAdjust="spacing" textLength="3.2506" x="388.909" y="401.0722">&#160;</text><text fill="#000000" font-family="sans-serif" font-size="11.7" lengthAdjust="spacing" textLength="78.6894" x="392.1596" y="401.0722">BillingRequest)</text><path d="M20.25,419.3086 L72.1538,419.3086 L72.1538,427.6705 L63.1538,436.6705 L18,436.6705 L18,421.5586 A2.25,2.25 0 0 1 20.25,419.3086 " fill="#EEEEEE" style="stroke:#000000;stroke-width:1.35;"/><rect fill="none" height="45.5238" rx="2.25" ry="2.25" style="stroke:#000000;stroke-width:1.35;" width="521.5715" x="18" y="419.3086"/><text fill="#000000" font-family="sans-serif" font-size="11.7" font-weight="bold" lengthAdjust="spacing" textLength="13.6538" x="31.5" y="432.8341">alt</text><text fill="#000000" font-family="sans-serif" font-size="9.9" font-weight="bold" lengthAdjust="spacing" textLength="171.4276" x="85.6538" y="431.7917">[&#1055;&#1086;&#1074;&#1088;&#1077;&#1078;&#1076;&#1105;&#1085;&#1085;&#1072;&#1103; &#1089;&#1090;&#1088;&#1091;&#1082;&#1090;&#1091;&#1088;&#1072; &#1076;&#1072;&#1085;&#1085;&#1099;&#1093;]</text><polygon fill="#FF0000" points="112.1243,454.0324,103.1243,457.6324,112.1243,461.2324,108.5243,457.6324" style="stroke:#FF0000;stroke-width:0.9;"/><line style="stroke:#FF0000;stroke-width:0.9;stroke-dasharray:2.0,2.0;" x1="106.7243" x2="485.249" y1="457.6324" y2="457.6324"/><text fill="#FF0000" font-family="sans-serif" font-size="11.7" lengthAdjust="spacing" textLength="13.014" x="117.5243" y="452.896">13</text><text fill="#FF0000" font-family="sans-serif" font-size="11.7" lengthAdjust="spacing" textLength="3.2506" x="130.5382" y="452.896">&#160;</text><text fill="#FF0000" font-family="sans-serif" font-size="11.7" lengthAdjust="spacing" textLength="57.8602" x="133.7889" y="452.896">INTERNAL</text><polygon fill="#181818" points="343.401,488.4943,334.401,492.0943,343.401,495.6943,339.801,492.0943" style="stroke:#181818;stroke-width:0.9;"/><line style="stroke:#181818;stroke-width:0.9;stroke-dasharray:2.0,2.0;" x1="338.001" x2="485.249" y1="492.0943" y2="492.0943"/><text fill="#000000" font-family="sans-serif" font-size="11.7" lengthAdjust="spacing" textLength="74.7932" x="348.801" y="487.3579">BillingRequest</text><polygon fill="#181818" points="706.9891,532.2182,715.9891,535.8182,706.9891,539.4182,710.5891,535.8182" style="stroke:#181818;stroke-width:0.9;"/><line style="stroke:#181818;stroke-width:0.9;" x1="333.501" x2="712.3891" y1="535.8182" y2="535.8182"/><text fill="#000000" font-family="sans-serif" font-size="11.7" font-weight="bold" lengthAdjust="spacing" textLength="14.2994" x="339.801" y="515.5198">[4]</text><text fill="#000000" font-family="sans-serif" font-size="11.7" lengthAdjust="spacing" textLength="3.2506" x="354.1003" y="515.5198">&#160;</text><text fill="#000000" font-family="sans-serif" font-size="11.7" lengthAdjust="spacing" textLength="106.0084" x="357.351" y="515.5198">createBillingAccount</text><text fill="#000000" font-family="sans-serif" font-size="11.7" lengthAdjust="spacing" textLength="80.6432" x="339.801" y="531.0817">(billingRequest,</text><text fill="#000000" font-family="sans-serif" font-size="11.7" lengthAdjust="spacing" textLength="3.2506" x="420.4441" y="531.0817">&#160;</text><text fill="#000000" font-family="sans-serif" font-size="11.7" lengthAdjust="spacing" textLength="100.1413" x="423.6948" y="531.0817">responseObserver)</text><path d="M730.8,549.7682 L730.8,584.8682 A2.25,2.25 0 0 0 733.05,587.1182 L932.85,587.1182 A2.25,2.25 0 0 0 935.1,584.8682 L935.1,556.5182 L926.1,547.5182 L733.05,547.5182 A2.25,2.25 0 0 0 730.8,549.7682 " fill="#FEFFDD" filter="url(#f1vcrpouzmdidh)" style="stroke:#181818;stroke-width:0.45;"/><path d="M926.1,547.5182 L926.1,555.3932 A1.125,1.125 0 0 0 927.225,556.5182 L935.1,556.5182 L926.1,547.5182 " fill="#FEFFDD" style="stroke:#181818;stroke-width:0.45;"/><text fill="#000000" font-family="sans-serif" font-size="11.7" lengthAdjust="spacing" textLength="151.7858" x="736.2" y="564.6437">log.info("createBillingAccount</text><text fill="#000000" font-family="sans-serif" font-size="11.7" lengthAdjust="spacing" textLength="185.6118" x="736.2" y="580.2056">request received {}", billingRequest)</text><line style="stroke:#181818;stroke-width:0.9;" x1="726.7891" x2="764.5891" y1="662.4896" y2="662.4896"/><line style="stroke:#181818;stroke-width:0.9;" x1="764.5891" x2="764.5891" y1="662.4896" y2="674.1896"/><line style="stroke:#181818;stroke-width:0.9;" x1="727.6891" x2="764.5891" y1="674.1896" y2="674.1896"/><polygon fill="#181818" points="736.6891,670.5896,727.6891,674.1896,736.6891,677.7896,733.0891,674.1896" style="stroke:#181818;stroke-width:0.9;"/><text fill="#000000" font-family="sans-serif" font-size="11.7" font-weight="bold" lengthAdjust="spacing" textLength="14.2994" x="733.0891" y="611.0675">[5]</text><text fill="#000000" font-family="sans-serif" font-size="11.7" lengthAdjust="spacing" textLength="3.2506" x="747.3885" y="611.0675">&#160;</text><text fill="#000000" font-family="sans-serif" font-size="11.7" lengthAdjust="spacing" textLength="152.8255" x="750.6391" y="611.0675">BillingResponse.newBuilder()</text><text fill="#000000" font-family="sans-serif" font-size="11.7" lengthAdjust="spacing" textLength="119.5251" x="733.0891" y="626.6294">.setAccountId("12345")</text><text fill="#000000" font-family="sans-serif" font-size="11.7" lengthAdjust="spacing" textLength="110.3845" x="733.0891" y="642.1913">.setStatus("ACTIVE")</text><text fill="#000000" font-family="sans-serif" font-size="11.7" lengthAdjust="spacing" textLength="35.7627" x="733.0891" y="657.7532">.build()</text><path d="M730.8,688.1396 L730.8,738.5396 A2.25,2.25 0 0 0 733.05,740.7896 L885.15,740.7896 A2.25,2.25 0 0 0 887.4,738.5396 L887.4,694.8896 L878.4,685.8896 L733.05,685.8896 A2.25,2.25 0 0 0 730.8,688.1396 " fill="#FEFFDD" filter="url(#f1vcrpouzmdidh)" style="stroke:#181818;stroke-width:0.45;"/><path d="M878.4,685.8896 L878.4,693.7646 A1.125,1.125 0 0 0 879.525,694.8896 L887.4,694.8896 L878.4,685.8896 " fill="#FEFFDD" style="stroke:#181818;stroke-width:0.45;"/><text fill="#000000" font-family="sans-serif" font-size="11.7" lengthAdjust="spacing" textLength="138.1663" x="736.2" y="703.0151">Mock &#8212; &#1089;&#1086;&#1093;&#1088;&#1072;&#1085;&#1077;&#1085;&#1080;&#1077; &#1074; &#1041;&#1044;</text><text fill="#000000" font-family="sans-serif" font-size="11.7" lengthAdjust="spacing" textLength="120.1021" x="736.2" y="718.5771">&#1080; &#1075;&#1077;&#1085;&#1077;&#1088;&#1072;&#1094;&#1080;&#1103; accountId</text><text fill="#000000" font-family="sans-serif" font-size="11.7" lengthAdjust="spacing" textLength="92.8802" x="736.2" y="734.139">&#1085;&#1077; &#1074;&#1099;&#1087;&#1086;&#1083;&#1085;&#1103;&#1102;&#1090;&#1089;&#1103;.</text><polygon fill="#181818" points="500.549,781.6992,491.549,785.2992,500.549,788.8992,496.949,785.2992" style="stroke:#181818;stroke-width:0.9;"/><line style="stroke:#181818;stroke-width:0.9;" x1="495.149" x2="716.8891" y1="785.2992" y2="785.2992"/><text fill="#000000" font-family="sans-serif" font-size="11.7" font-weight="bold" lengthAdjust="spacing" textLength="14.2994" x="505.949" y="765.0009">[6]</text><text fill="#000000" font-family="sans-serif" font-size="11.7" lengthAdjust="spacing" textLength="3.2506" x="520.2483" y="765.0009">&#160;</text><text fill="#000000" font-family="sans-serif" font-size="11.7" lengthAdjust="spacing" textLength="192.4901" x="523.499" y="765.0009">responseObserver.onNext(response)</text><text fill="#000000" font-family="sans-serif" font-size="11.7" lengthAdjust="spacing" textLength="87.7957" x="505.949" y="780.5628">(BillingResponse</text><text fill="#000000" font-family="sans-serif" font-size="11.7" lengthAdjust="spacing" textLength="3.2506" x="593.7447" y="780.5628">&#160;</text><text fill="#000000" font-family="sans-serif" font-size="11.7" lengthAdjust="spacing" textLength="10.0947" x="596.9953" y="780.5628">&#8594;</text><text fill="#000000" font-family="sans-serif" font-size="11.7" lengthAdjust="spacing" textLength="3.2506" x="607.09" y="780.5628">&#160;</text><text fill="#000000" font-family="sans-serif" font-size="11.7" lengthAdjust="spacing" textLength="35.7627" x="610.3406" y="780.5628">binary)</text><polygon fill="#181818" points="706.9891,809.8611,715.9891,813.4611,706.9891,817.0611,710.5891,813.4611" style="stroke:#181818;stroke-width:0.9;"/><line style="stroke:#181818;stroke-width:0.9;stroke-dasharray:2.0,2.0;" x1="486.149" x2="712.3891" y1="813.4611" y2="813.4611"/><text fill="#000000" font-family="sans-serif" font-size="11.7" lengthAdjust="spacing" textLength="49.4222" x="492.449" y="808.7247">serialized</text><polygon fill="#181818" points="343.401,838.023,334.401,841.623,343.401,845.223,339.801,841.623" style="stroke:#181818;stroke-width:0.9;"/><line style="stroke:#181818;stroke-width:0.9;" x1="338.001" x2="721.3891" y1="841.623" y2="841.623"/><text fill="#000000" font-family="sans-serif" font-size="11.7" font-weight="bold" lengthAdjust="spacing" textLength="14.2994" x="348.801" y="836.8866">[7]</text><text fill="#000000" font-family="sans-serif" font-size="11.7" lengthAdjust="spacing" textLength="3.2506" x="363.1003" y="836.8866">&#160;</text><text fill="#000000" font-family="sans-serif" font-size="11.7" lengthAdjust="spacing" textLength="176.8825" x="366.351" y="836.8866">responseObserver.onCompleted()</text><polygon fill="#008000" points="112.1243,897.3088,103.1243,900.9088,112.1243,904.5088,108.5243,900.9088" style="stroke:#008000;stroke-width:0.9;"/><line style="stroke:#008000;stroke-width:0.9;stroke-dasharray:2.0,2.0;" x1="106.7243" x2="328.101" y1="900.9088" y2="900.9088"/><text fill="#000000" font-family="sans-serif" font-size="11.7" font-weight="bold" lengthAdjust="spacing" textLength="14.2994" x="117.5243" y="865.0485">[8]</text><text fill="#000000" font-family="sans-serif" font-size="11.7" lengthAdjust="spacing" textLength="3.2506" x="131.8236" y="865.0485">&#160;</text><text fill="#000000" font-family="sans-serif" font-size="11.7" lengthAdjust="spacing" textLength="6.507" x="135.0743" y="865.0485">0</text><text fill="#000000" font-family="sans-serif" font-size="11.7" lengthAdjust="spacing" textLength="3.2506" x="141.5813" y="865.0485">&#160;</text><text fill="#000000" font-family="sans-serif" font-size="11.7" lengthAdjust="spacing" textLength="16.9044" x="144.8319" y="865.0485">OK</text><text fill="#000000" font-family="sans-serif" font-size="11.7" lengthAdjust="spacing" textLength="83.8995" x="117.5243" y="880.6104">BillingResponse</text><text fill="#000000" font-family="sans-serif" font-size="11.7" lengthAdjust="spacing" textLength="57.8944" x="117.5243" y="896.1724">{accountId:</text><text fill="#000000" font-family="sans-serif" font-size="11.7" lengthAdjust="spacing" textLength="3.2506" x="175.4187" y="896.1724">&#160;</text><text fill="#000000" font-family="sans-serif" font-size="11.7" lengthAdjust="spacing" textLength="44.0921" x="178.6693" y="896.1724">"12345",</text><text fill="#000000" font-family="sans-serif" font-size="11.7" lengthAdjust="spacing" textLength="3.2506" x="222.7614" y="896.1724">&#160;</text><text fill="#000000" font-family="sans-serif" font-size="11.7" lengthAdjust="spacing" textLength="34.4659" x="226.0121" y="896.1724">status:</text><text fill="#000000" font-family="sans-serif" font-size="11.7" lengthAdjust="spacing" textLength="3.2506" x="260.4779" y="896.1724">&#160;</text><text fill="#000000" font-family="sans-serif" font-size="11.7" lengthAdjust="spacing" textLength="54.4724" x="263.7286" y="896.1724">"ACTIVE"}</text><path d="M106.2,914.8588 L106.2,949.9588 A2.25,2.25 0 0 0 108.45,952.2088 L324.45,952.2088 A2.25,2.25 0 0 0 326.7,949.9588 L326.7,921.6088 L317.7,912.6088 L108.45,912.6088 A2.25,2.25 0 0 0 106.2,914.8588 " fill="#FEFFDD" filter="url(#f1vcrpouzmdidh)" style="stroke:#181818;stroke-width:0.45;"/><path d="M317.7,912.6088 L317.7,920.4838 A1.125,1.125 0 0 0 318.825,921.6088 L326.7,921.6088 L317.7,912.6088 " fill="#FEFFDD" style="stroke:#181818;stroke-width:0.45;"/><text fill="#000000" font-family="sans-serif" font-size="11.7" lengthAdjust="spacing" textLength="172.5864" x="111.6" y="929.7343">log.info("Received response from</text><text fill="#000000" font-family="sans-serif" font-size="11.7" lengthAdjust="spacing" textLength="202.4877" x="111.6" y="945.2962">billing service via GRPC: {}", response)</text><!--SRC=[VLNHRjf857tdAwwS5vF692IXtKLLj8IYRhG9HOHs7qeV1ZCXipLZhptGPAjAIQhcfLAZhlBUNs3Riesw8liBur_eb-oTyPXYGXO4igzdphttd7F7qNF60nAIFkmVagx_Wl4UY710Sz7qGTCVy6xL3paDeJGJtoD7UpIAI8_kipyeh9VMShcEVmHMG0IZN3WH3OVCfHOibHxSVN2lbWFyu5x1N1OGBi3QPfw76VUJXG_3mArwQgi598Ba4fP-FMI2vYZl0gAR59rauqoApShwHgboCqKFGHrEXJXs8koGTZLsNGLIw1jxWj0NVcTmuFn6XaIlRwZ8hUjD6wf-qqgRsp_DtEOrY0hSQASN-eC0bdPPxr1KZma7-I4-aTVnkHp7f_4fnAVoMdwHd-L8JkHLV07oBtab_y7l5GO-EHZ_YjzH_5fEuZCvQlF7d8J7q6isgcKmF1MoHAzMGqe4DS6AwwB2eitdT8Dlvt_27D7b7zVMYc077c5Sq2EHpsasZ5JEbhagm_Boq-ApvMKmEPhqzm6DH87J5zi3vdLfQEVRl11HqKYIxdJj8BqoJ-gaJssEV-Q-rYVCiwdwLv6Emh5D0SH3e-onI1mt_OZELmt8r1Wfl4P6pv2eV_5kelVD5kyyNGffzzdt7kwxlkU7PHNTsXT43A8cyiJwj7Raqa0mduDTt8J7zSgJoivkPNktbh-_glTiQN3KU9wUn7TtxcY2rXL1FxTQZTLrQ5KR3jQbn1p7PsYVB74hYGFHazYRqjVqdU0XS69G0xoXWEMbSX3-Jj0f8-sNBsYJSsKYn4zWjCRPL8iPbH_GXXyHQop_bf_ZzyZe1D4kG5DwWgH-LTJYWX4OiqxYj_6RASj9WVzFSd43TkgjMhDUsSqGgJvTIbp1XcZR12hBS8gUCkmuvRcsvlZIisZesbHqkGj7mkxCoH3IAF1vH1zrbBTecDUmtCUoGZN2u1zex39uVg_0-85lMukXmmGI4LtAXhGBBrzPAz1Pf8KkrXIjAovbHYkfQC5icLmuMrPnVMEpP9buOcRRgbHREqzgrkmqtTRDdky-Xsydb_eyYjyedVLGuPaano0_WdmlBzjSNe7yfCFATyPjGD8wSC54Bu_VejclqPIJ-29-XyuvZIyAsMOpZhwh6fxdlk3pEfv1TXhFpuvD4Z9dM38nMQCaUT0d2CQ8Xw-mRhO0xHMT_TujsQj-F_2ee2bnCnvL81dBeV5x8QLyQdsT6y5_KE1hyEYNDfyhlirVJfahWv5m1IAj7WQCVAzo2rHBn-kx2vkfpz96u23q-srk70VfMJba11xgbuSsv9JSd7fd_GS0]--></g></svg>