<svg xmlns="http://www.w3.org/2000/svg" xmlns:xlink="http://www.w3.org/1999/xlink" contentStyleType="text/css" height="867px" preserveAspectRatio="none" style="width:1443px;height:867px;background:#FFFFFF;" version="1.1" viewBox="0 0 1443 867" width="1443px" zoomAndPan="magnify"><defs><filter height="300%" id="f1nve8hugve0hg" width="300%" x="-1" y="-1"><feGaussianBlur result="blurOut" stdDeviation="2.0"/><feColorMatrix in="blurOut" result="blurOut2" type="matrix" values="0 0 0 0 0 0 0 0 0 0 0 0 0 0 0 0 0 0 .4 0"/><feOffset dx="4.0" dy="4.0" in="blurOut2" result="blurOut3"/><feBlend in="SourceGraphic" in2="blurOut3" mode="normal"/></filter></defs><g><rect fill="#5D6D7E" height="848.5176" rx="2.5" ry="2.5" style="stroke:#181818;stroke-width:0.5;" width="754.6226" x="236.9941" y="6"/><text fill="#000000" font-family="sans-serif" font-size="13" font-weight="bold" lengthAdjust="spacing" textLength="91.7617" x="568.4246" y="20.0283">patient-service</text><rect fill="#FFFFFF" filter="url(#f1nve8hugve0hg)" height="615.4023" style="stroke:#181818;stroke-width:1.0;" width="10" x="299.7388" y="146.4941"/><rect fill="#FFFFFF" filter="url(#f1nve8hugve0hg)" height="535.5293" style="stroke:#181818;stroke-width:1.0;" width="10" x="516.5513" y="195.0762"/><rect fill="#FFFFFF" filter="url(#f1nve8hugve0hg)" height="472.9473" style="stroke:#181818;stroke-width:1.0;" width="10" x="677.0029" y="226.3672"/><rect fill="#FFFFFF" filter="url(#f1nve8hugve0hg)" height="375.7832" style="stroke:#181818;stroke-width:1.0;" width="10" x="918.8652" y="292.2402"/><rect fill="#FFFFFF" filter="url(#f1nve8hugve0hg)" height="295.9102" style="stroke:#181818;stroke-width:1.0;" width="10" x="1190.2378" y="340.8223"/><rect fill="#E0FFFF" filter="url(#f1nve8hugve0hg)" height="683.2754" rx="2.5" ry="2.5" style="stroke:#000000;stroke-width:1.5;" width="1421.5625" x="10" y="86.6211"/><rect fill="#FFE4E1" filter="url(#f1nve8hugve0hg)" height="175.7461" rx="2.5" ry="2.5" style="stroke:#000000;stroke-width:1.5;" width="1243.8755" x="20" y="430.6953"/><line style="stroke:#181818;stroke-width:0.5;stroke-dasharray:5.0,5.0;" x1="78" x2="78" y1="69.6211" y2="786.8965"/><line style="stroke:#181818;stroke-width:0.5;stroke-dasharray:5.0,5.0;" x1="303.9941" x2="303.9941" y1="69.6211" y2="786.8965"/><line style="stroke:#181818;stroke-width:0.5;stroke-dasharray:5.0,5.0;" x1="520.9136" x2="520.9136" y1="69.6211" y2="786.8965"/><line style="stroke:#181818;stroke-width:0.5;stroke-dasharray:5.0,5.0;" x1="681.3687" x2="681.3687" y1="69.6211" y2="786.8965"/><line style="stroke:#181818;stroke-width:0.5;stroke-dasharray:5.0,5.0;" x1="923.1138" x2="923.1138" y1="69.6211" y2="786.8965"/><line style="stroke:#181818;stroke-width:0.5;stroke-dasharray:5.0,5.0;" x1="1194.6001" x2="1194.6001" y1="69.6211" y2="786.8965"/><text fill="#000000" font-family="sans-serif" font-size="14" lengthAdjust="spacing" textLength="91.0342" x="30" y="66.1074">API Consumer</text><path d="M58.0171,23 L58.0171,47 M58.0171,35 L75.0171,35 " fill="none" filter="url(#f1nve8hugve0hg)" style="stroke:#181818;stroke-width:0.5;"/><ellipse cx="87.0171" cy="35" fill="#FEF9E7" filter="url(#f1nve8hugve0hg)" rx="12" ry="12" style="stroke:#181818;stroke-width:0.5;"/><text fill="#000000" font-family="sans-serif" font-size="14" lengthAdjust="spacing" textLength="91.0342" x="30" y="801.0039">API Consumer</text><path d="M58.0171,808.5176 L58.0171,832.5176 M58.0171,820.5176 L75.0171,820.5176 " fill="none" filter="url(#f1nve8hugve0hg)" style="stroke:#181818;stroke-width:0.5;"/><ellipse cx="87.0171" cy="820.5176" fill="#FEF9E7" filter="url(#f1nve8hugve0hg)" rx="12" ry="12" style="stroke:#181818;stroke-width:0.5;"/><rect fill="#FFFFFF" filter="url(#f1nve8hugve0hg)" height="32.6211" rx="2.5" ry="2.5" style="stroke:#181818;stroke-width:0.5;" width="124.4893" x="240.9941" y="33"/><text fill="#000000" font-family="sans-serif" font-size="14" lengthAdjust="spacing" textLength="110.4893" x="247.9941" y="55.1074">DispatcherServlet</text><rect fill="#FFFFFF" filter="url(#f1nve8hugve0hg)" height="32.6211" rx="2.5" ry="2.5" style="stroke:#181818;stroke-width:0.5;" width="124.4893" x="240.9941" y="785.8965"/><text fill="#000000" font-family="sans-serif" font-size="14" lengthAdjust="spacing" textLength="110.4893" x="247.9941" y="808.0039">DispatcherServlet</text><rect fill="#FFFFFF" filter="url(#f1nve8hugve0hg)" height="32.6211" rx="2.5" ry="2.5" style="stroke:#181818;stroke-width:0.5;" width="118.2754" x="460.9136" y="33"/><text fill="#000000" font-family="sans-serif" font-size="14" lengthAdjust="spacing" textLength="104.2754" x="467.9136" y="55.1074">PatientController</text><rect fill="#FFFFFF" filter="url(#f1nve8hugve0hg)" height="32.6211" rx="2.5" ry="2.5" style="stroke:#181818;stroke-width:0.5;" width="118.2754" x="460.9136" y="785.8965"/><text fill="#000000" font-family="sans-serif" font-size="14" lengthAdjust="spacing" textLength="104.2754" x="467.9136" y="808.0039">PatientController</text><rect fill="#FFFFFF" filter="url(#f1nve8hugve0hg)" height="32.6211" rx="2.5" ry="2.5" style="stroke:#181818;stroke-width:0.5;" width="104.2686" x="628.3687" y="33"/><text fill="#000000" font-family="sans-serif" font-size="14" lengthAdjust="spacing" textLength="90.2686" x="635.3687" y="55.1074">PatientService</text><rect fill="#FFFFFF" filter="url(#f1nve8hugve0hg)" height="32.6211" rx="2.5" ry="2.5" style="stroke:#181818;stroke-width:0.5;" width="104.2686" x="628.3687" y="785.8965"/><text fill="#000000" font-family="sans-serif" font-size="14" lengthAdjust="spacing" textLength="90.2686" x="635.3687" y="808.0039">PatientService</text><rect fill="#FFFFFF" filter="url(#f1nve8hugve0hg)" height="32.6211" rx="2.5" ry="2.5" style="stroke:#181818;stroke-width:0.5;" width="124.5029" x="860.1138" y="33"/><text fill="#000000" font-family="sans-serif" font-size="14" lengthAdjust="spacing" textLength="110.5029" x="867.1138" y="55.1074">PatientRepository</text><rect fill="#FFFFFF" filter="url(#f1nve8hugve0hg)" height="32.6211" rx="2.5" ry="2.5" style="stroke:#181818;stroke-width:0.5;" width="124.5029" x="860.1138" y="785.8965"/><text fill="#000000" font-family="sans-serif" font-size="14" lengthAdjust="spacing" textLength="110.5029" x="867.1138" y="808.0039">PatientRepository</text><text fill="#000000" font-family="sans-serif" font-size="14" lengthAdjust="spacing" textLength="111.2754" x="1136.6001" y="66.1074">patient-service-db</text><path d="M1177.2378,15 C1177.2378,5 1195.2378,5 1195.2378,5 C1195.2378,5 1213.2378,5 1213.2378,15 L1213.2378,41 C1213.2378,51 1195.2378,51 1195.2378,51 C1195.2378,51 1177.2378,51 1177.2378,41 L1177.2378,15 " fill="#ADD8E6" filter="url(#f1nve8hugve0hg)" style="stroke:#181818;stroke-width:1.5;"/><path d="M1177.2378,15 C1177.2378,25 1195.2378,25 1195.2378,25 C1195.2378,25 1213.2378,25 1213.2378,15 " fill="none" style="stroke:#181818;stroke-width:1.5;"/><text fill="#000000" font-family="sans-serif" font-size="14" lengthAdjust="spacing" textLength="111.2754" x="1136.6001" y="801.0039">patient-service-db</text><path d="M1177.2378,814.5176 C1177.2378,804.5176 1195.2378,804.5176 1195.2378,804.5176 C1195.2378,804.5176 1213.2378,804.5176 1213.2378,814.5176 L1213.2378,840.5176 C1213.2378,850.5176 1195.2378,850.5176 1195.2378,850.5176 C1195.2378,850.5176 1177.2378,850.5176 1177.2378,840.5176 L1177.2378,814.5176 " fill="#ADD8E6" filter="url(#f1nve8hugve0hg)" style="stroke:#181818;stroke-width:1.5;"/><path d="M1177.2378,814.5176 C1177.2378,824.5176 1195.2378,824.5176 1195.2378,824.5176 C1195.2378,824.5176 1213.2378,824.5176 1213.2378,814.5176 " fill="none" style="stroke:#181818;stroke-width:1.5;"/><rect fill="#FFFFFF" filter="url(#f1nve8hugve0hg)" height="615.4023" style="stroke:#181818;stroke-width:1.0;" width="10" x="299.7388" y="146.4941"/><rect fill="#FFFFFF" filter="url(#f1nve8hugve0hg)" height="535.5293" style="stroke:#181818;stroke-width:1.0;" width="10" x="516.5513" y="195.0762"/><rect fill="#FFFFFF" filter="url(#f1nve8hugve0hg)" height="472.9473" style="stroke:#181818;stroke-width:1.0;" width="10" x="677.0029" y="226.3672"/><rect fill="#FFFFFF" filter="url(#f1nve8hugve0hg)" height="375.7832" style="stroke:#181818;stroke-width:1.0;" width="10" x="918.8652" y="292.2402"/><rect fill="#FFFFFF" filter="url(#f1nve8hugve0hg)" height="295.9102" style="stroke:#181818;stroke-width:1.0;" width="10" x="1190.2378" y="340.8223"/><path d="M12.5,86.6211 L794.6733,86.6211 L794.6733,113.2031 L784.6733,123.2031 L10,123.2031 L10,89.1211 A2.5,2.5 0 0 1 12.5,86.6211 " fill="#EEEEEE" style="stroke:#000000;stroke-width:1.5;"/><rect fill="none" height="683.2754" rx="2.5" ry="2.5" style="stroke:#000000;stroke-width:1.5;" width="1421.5625" x="10" y="86.6211"/><text fill="#000000" font-family="sans-serif" font-size="13" font-weight="bold" lengthAdjust="spacing" textLength="183.5044" x="25" y="101.6494">&#1055;&#1088;&#1086;&#1094;&#1077;&#1089;&#1089; &#1091;&#1076;&#1072;&#1083;&#1077;&#1085;&#1080;&#1103; &#1087;&#1072;&#1094;&#1080;&#1077;&#1085;&#1090;&#1072;</text><text fill="#000000" font-family="sans-serif" font-size="13" font-weight="bold" lengthAdjust="spacing" textLength="739.6733" x="25" y="118.9404">&#1042;&#1085;&#1077;&#1096;&#1085;&#1080;&#1081; URL: DELETE {gateway-host}/api/patients/{id} &#8594; &#1042;&#1085;&#1091;&#1090;&#1088;&#1077;&#1085;&#1085;&#1080;&#1081; URL: DELETE patient-service:4000/patients/{id}</text><polygon fill="#181818" points="287.7388,142.4941,297.7388,146.4941,287.7388,150.4941,291.7388,146.4941" style="stroke:#181818;stroke-width:1.0;"/><line style="stroke:#181818;stroke-width:1.0;" x1="78.5171" x2="293.7388" y1="146.4941" y2="146.4941"/><text fill="#000000" font-family="sans-serif" font-size="13" font-weight="bold" lengthAdjust="spacing" textLength="15.8882" x="85.5171" y="141.2314">[1]</text><text fill="#000000" font-family="sans-serif" font-size="13" lengthAdjust="spacing" textLength="3.6118" x="101.4053" y="141.2314">&#160;</text><text fill="#000000" font-family="sans-serif" font-size="13" lengthAdjust="spacing" textLength="50.5718" x="105.0171" y="141.2314">DELETE</text><text fill="#000000" font-family="sans-serif" font-size="13" lengthAdjust="spacing" textLength="3.6118" x="155.5889" y="141.2314">&#160;</text><text fill="#000000" font-family="sans-serif" font-size="13" lengthAdjust="spacing" textLength="71.5571" x="159.2007" y="141.2314">/patients/{id}</text><polygon fill="#181818" points="504.5513,191.0762,514.5513,195.0762,504.5513,199.0762,508.5513,195.0762" style="stroke:#181818;stroke-width:1.0;"/><line style="stroke:#181818;stroke-width:1.0;" x1="309.7388" x2="510.5513" y1="195.0762" y2="195.0762"/><text fill="#000000" font-family="sans-serif" font-size="13" font-weight="bold" lengthAdjust="spacing" textLength="15.8882" x="316.7388" y="172.5225">[2]</text><text fill="#000000" font-family="sans-serif" font-size="13" lengthAdjust="spacing" textLength="3.6118" x="332.627" y="172.5225">&#160;</text><text fill="#000000" font-family="sans-serif" font-size="13" lengthAdjust="spacing" textLength="94.6689" x="336.2388" y="172.5225">deletePatient(id)</text><text fill="#000000" font-family="sans-serif" font-size="13" lengthAdjust="spacing" textLength="91.9648" x="316.7388" y="189.8135">(@PathVariable</text><text fill="#000000" font-family="sans-serif" font-size="13" lengthAdjust="spacing" textLength="3.6118" x="408.7036" y="189.8135">&#160;</text><text fill="#000000" font-family="sans-serif" font-size="13" lengthAdjust="spacing" textLength="31.7764" x="412.3154" y="189.8135">UUID</text><text fill="#000000" font-family="sans-serif" font-size="13" lengthAdjust="spacing" textLength="3.6118" x="444.0918" y="189.8135">&#160;</text><text fill="#000000" font-family="sans-serif" font-size="13" lengthAdjust="spacing" textLength="14.4473" x="447.7036" y="189.8135">id)</text><polygon fill="#181818" points="665.0029,222.3672,675.0029,226.3672,665.0029,230.3672,669.0029,226.3672" style="stroke:#181818;stroke-width:1.0;"/><line style="stroke:#181818;stroke-width:1.0;" x1="526.5513" x2="671.0029" y1="226.3672" y2="226.3672"/><text fill="#000000" font-family="sans-serif" font-size="13" font-weight="bold" lengthAdjust="spacing" textLength="15.8882" x="533.5513" y="221.1045">[3]</text><text fill="#000000" font-family="sans-serif" font-size="13" lengthAdjust="spacing" textLength="3.6118" x="549.4395" y="221.1045">&#160;</text><text fill="#000000" font-family="sans-serif" font-size="13" lengthAdjust="spacing" textLength="94.6689" x="553.0513" y="221.1045">deletePatient(id)</text><polygon fill="#181818" points="906.8652,288.2402,916.8652,292.2402,906.8652,296.2402,910.8652,292.2402" style="stroke:#181818;stroke-width:1.0;"/><line style="stroke:#181818;stroke-width:1.0;" x1="687.0029" x2="912.8652" y1="292.2402" y2="292.2402"/><text fill="#000000" font-family="sans-serif" font-size="13" font-weight="bold" lengthAdjust="spacing" textLength="15.8882" x="694.0029" y="252.3955">[4]</text><text fill="#000000" font-family="sans-serif" font-size="13" lengthAdjust="spacing" textLength="3.6118" x="709.8911" y="252.3955">&#160;</text><text fill="#000000" font-family="sans-serif" font-size="13" lengthAdjust="spacing" textLength="80.209" x="713.5029" y="252.3955">deleteById(id)</text><text fill="#000000" font-family="sans-serif" font-size="13" lengthAdjust="spacing" textLength="86.417" x="694.0029" y="269.6865">(&#1076;&#1077;&#1083;&#1077;&#1075;&#1080;&#1088;&#1091;&#1077;&#1090;&#1089;&#1103;</text><text fill="#000000" font-family="sans-serif" font-size="13" lengthAdjust="spacing" textLength="3.6118" x="780.4199" y="269.6865">&#160;</text><text fill="#000000" font-family="sans-serif" font-size="13" lengthAdjust="spacing" textLength="122.8335" x="784.0317" y="269.6865">SimpleJpaRepository</text><text fill="#000000" font-family="sans-serif" font-size="13" lengthAdjust="spacing" textLength="37.5591" x="694.0029" y="286.9775">Proxy)</text><polygon fill="#181818" points="1178.2378,336.8223,1188.2378,340.8223,1178.2378,344.8223,1182.2378,340.8223" style="stroke:#181818;stroke-width:1.0;"/><line style="stroke:#181818;stroke-width:1.0;" x1="928.8652" x2="1184.2378" y1="340.8223" y2="340.8223"/><text fill="#000000" font-family="sans-serif" font-size="13" font-weight="bold" lengthAdjust="spacing" textLength="15.8882" x="935.8652" y="318.2686">[5]</text><text fill="#000000" font-family="sans-serif" font-size="13" lengthAdjust="spacing" textLength="3.6118" x="951.7534" y="318.2686">&#160;</text><text fill="#000000" font-family="sans-serif" font-size="13" lengthAdjust="spacing" textLength="50.5718" x="955.3652" y="318.2686">DELETE</text><text fill="#000000" font-family="sans-serif" font-size="13" lengthAdjust="spacing" textLength="3.6118" x="1005.937" y="318.2686">&#160;</text><text fill="#000000" font-family="sans-serif" font-size="13" lengthAdjust="spacing" textLength="38.27" x="1009.5488" y="318.2686">FROM</text><text fill="#000000" font-family="sans-serif" font-size="13" lengthAdjust="spacing" textLength="3.6118" x="1047.8188" y="318.2686">&#160;</text><text fill="#000000" font-family="sans-serif" font-size="13" lengthAdjust="spacing" textLength="39.0317" x="1051.4307" y="318.2686">patient</text><text fill="#000000" font-family="sans-serif" font-size="13" lengthAdjust="spacing" textLength="3.6118" x="1090.4624" y="318.2686">&#160;</text><text fill="#000000" font-family="sans-serif" font-size="13" lengthAdjust="spacing" textLength="48.3882" x="1094.0742" y="318.2686">WHERE</text><text fill="#000000" font-family="sans-serif" font-size="13" lengthAdjust="spacing" textLength="3.6118" x="1142.4624" y="318.2686">&#160;</text><text fill="#000000" font-family="sans-serif" font-size="13" lengthAdjust="spacing" textLength="10.1182" x="1146.0742" y="318.2686">id</text><text fill="#000000" font-family="sans-serif" font-size="13" lengthAdjust="spacing" textLength="3.6118" x="1156.1924" y="318.2686">&#160;</text><text fill="#000000" font-family="sans-serif" font-size="13" lengthAdjust="spacing" textLength="7.5918" x="1159.8042" y="318.2686">=</text><text fill="#000000" font-family="sans-serif" font-size="13" lengthAdjust="spacing" textLength="3.6118" x="1167.396" y="318.2686">&#160;</text><text fill="#000000" font-family="sans-serif" font-size="13" lengthAdjust="spacing" textLength="7.23" x="1171.0078" y="318.2686">?</text><text fill="#000000" font-family="sans-serif" font-size="13" lengthAdjust="spacing" textLength="60.6963" x="935.8652" y="335.5596">(Hibernate</text><text fill="#000000" font-family="sans-serif" font-size="13" lengthAdjust="spacing" textLength="3.6118" x="996.5615" y="335.5596">&#160;</text><text fill="#000000" font-family="sans-serif" font-size="13" lengthAdjust="spacing" textLength="11.2163" x="1000.1733" y="335.5596">&#8594;</text><text fill="#000000" font-family="sans-serif" font-size="13" lengthAdjust="spacing" textLength="3.6118" x="1011.3896" y="335.5596">&#160;</text><text fill="#000000" font-family="sans-serif" font-size="13" lengthAdjust="spacing" textLength="51.2827" x="1015.0015" y="335.5596">HikariCP</text><text fill="#000000" font-family="sans-serif" font-size="13" lengthAdjust="spacing" textLength="3.6118" x="1066.2842" y="335.5596">&#160;</text><text fill="#000000" font-family="sans-serif" font-size="13" lengthAdjust="spacing" textLength="11.2163" x="1069.896" y="335.5596">&#8594;</text><text fill="#000000" font-family="sans-serif" font-size="13" lengthAdjust="spacing" textLength="3.6118" x="1081.1123" y="335.5596">&#160;</text><text fill="#000000" font-family="sans-serif" font-size="13" lengthAdjust="spacing" textLength="33.9473" x="1084.7241" y="335.5596">JDBC</text><text fill="#000000" font-family="sans-serif" font-size="13" lengthAdjust="spacing" textLength="3.6118" x="1118.6714" y="335.5596">&#160;</text><text fill="#000000" font-family="sans-serif" font-size="13" lengthAdjust="spacing" textLength="38.9937" x="1122.2832" y="335.5596">Driver)</text><path d="M1205,356.3223 L1205,412.3223 A2.5,2.5 0 0 0 1207.5,414.8223 L1415.5,414.8223 A2.5,2.5 0 0 0 1418,412.3223 L1418,363.8223 L1408,353.8223 L1207.5,353.8223 A2.5,2.5 0 0 0 1205,356.3223 " fill="#FEFFDD" filter="url(#f1nve8hugve0hg)" style="stroke:#181818;stroke-width:0.5;"/><path d="M1408,353.8223 L1408,362.5723 A1.25,1.25 0 0 0 1409.25,363.8223 L1418,363.8223 L1408,353.8223 " fill="#FEFFDD" style="stroke:#181818;stroke-width:0.5;"/><text fill="#000000" font-family="sans-serif" font-size="13" lengthAdjust="spacing" textLength="163.5347" x="1211" y="372.8506">&#1045;&#1089;&#1083;&#1080; &#1079;&#1072;&#1087;&#1080;&#1089;&#1100; &#1085;&#1077; &#1085;&#1072;&#1081;&#1076;&#1077;&#1085;&#1072; &#8212;</text><text fill="#000000" font-family="sans-serif" font-size="13" lengthAdjust="spacing" textLength="119.7485" x="1211" y="390.1416">&#1079;&#1072;&#1090;&#1088;&#1086;&#1085;&#1091;&#1090;&#1099;&#1093; &#1089;&#1090;&#1088;&#1086;&#1082; 0,</text><text fill="#000000" font-family="sans-serif" font-size="13" lengthAdjust="spacing" textLength="192.5625" x="1211" y="407.4326">&#1080;&#1089;&#1082;&#1083;&#1102;&#1095;&#1077;&#1085;&#1080;&#1077; &#1085;&#1077; &#1074;&#1099;&#1073;&#1088;&#1072;&#1089;&#1099;&#1074;&#1072;&#1077;&#1090;&#1089;&#1103;.</text><path d="M22.5,430.6953 L80.1709,430.6953 L80.1709,439.9863 L70.1709,449.9863 L20,449.9863 L20,433.1953 A2.5,2.5 0 0 1 22.5,430.6953 " fill="#EEEEEE" style="stroke:#000000;stroke-width:1.5;"/><rect fill="none" height="175.7461" rx="2.5" ry="2.5" style="stroke:#000000;stroke-width:1.5;" width="1243.8755" x="20" y="430.6953"/><text fill="#000000" font-family="sans-serif" font-size="13" font-weight="bold" lengthAdjust="spacing" textLength="15.1709" x="35" y="445.7236">alt</text><text fill="#000000" font-family="sans-serif" font-size="11" font-weight="bold" lengthAdjust="spacing" textLength="283.3091" x="95.1709" y="444.5654">[&#1054;&#1096;&#1080;&#1073;&#1082;&#1072; &#1041;&#1044; (&#1085;&#1077;&#1076;&#1086;&#1089;&#1090;&#1091;&#1087;&#1085;&#1086;&#1089;&#1090;&#1100; / &#1090;&#1072;&#1081;&#1084;&#1072;&#1091;&#1090; &#1089;&#1086;&#1077;&#1076;&#1080;&#1085;&#1077;&#1085;&#1080;&#1103;)]</text><polygon fill="#FF0000" points="939.8652,469.2773,929.8652,473.2773,939.8652,477.2773,935.8652,473.2773" style="stroke:#FF0000;stroke-width:1.0;"/><line style="stroke:#FF0000;stroke-width:1.0;stroke-dasharray:2.0,2.0;" x1="933.8652" x2="1189.2378" y1="473.2773" y2="473.2773"/><text fill="#FF0000" font-family="sans-serif" font-size="13" lengthAdjust="spacing" textLength="83.1035" x="945.8652" y="468.0146">SQLException</text><polygon fill="#FF0000" points="698.0029,500.5684,688.0029,504.5684,698.0029,508.5684,694.0029,504.5684" style="stroke:#FF0000;stroke-width:1.0;"/><line style="stroke:#FF0000;stroke-width:1.0;stroke-dasharray:2.0,2.0;" x1="692.0029" x2="917.8652" y1="504.5684" y2="504.5684"/><text fill="#FF0000" font-family="sans-serif" font-size="13" lengthAdjust="spacing" textLength="126.4517" x="704.0029" y="499.3057">DataAccessException</text><polygon fill="#FF0000" points="537.5513,531.8594,527.5513,535.8594,537.5513,539.8594,533.5513,535.8594" style="stroke:#FF0000;stroke-width:1.0;"/><line style="stroke:#FF0000;stroke-width:1.0;stroke-dasharray:2.0,2.0;" x1="531.5513" x2="676.0029" y1="535.8594" y2="535.8594"/><text fill="#FF0000" font-family="sans-serif" font-size="13" lengthAdjust="spacing" textLength="126.4517" x="543.5513" y="530.5967">DataAccessException</text><polygon fill="#FF0000" points="320.7388,563.1504,310.7388,567.1504,320.7388,571.1504,316.7388,567.1504" style="stroke:#FF0000;stroke-width:1.0;"/><line style="stroke:#FF0000;stroke-width:1.0;stroke-dasharray:2.0,2.0;" x1="314.7388" x2="515.5513" y1="567.1504" y2="567.1504"/><text fill="#FF0000" font-family="sans-serif" font-size="13" lengthAdjust="spacing" textLength="126.4517" x="326.7388" y="561.8877">DataAccessException</text><polygon fill="#FF0000" points="89.5171,594.4414,79.5171,598.4414,89.5171,602.4414,85.5171,598.4414" style="stroke:#FF0000;stroke-width:1.0;"/><line style="stroke:#FF0000;stroke-width:1.0;stroke-dasharray:2.0,2.0;" x1="83.5171" x2="298.7388" y1="598.4414" y2="598.4414"/><text fill="#FF0000" font-family="sans-serif" font-size="13" lengthAdjust="spacing" textLength="21.6899" x="95.5171" y="593.1787">500</text><text fill="#FF0000" font-family="sans-serif" font-size="13" lengthAdjust="spacing" textLength="3.6118" x="117.207" y="593.1787">&#160;</text><text fill="#FF0000" font-family="sans-serif" font-size="13" lengthAdjust="spacing" textLength="64.2891" x="120.8188" y="593.1787">INTERNAL</text><text fill="#FF0000" font-family="sans-serif" font-size="13" lengthAdjust="spacing" textLength="3.6118" x="185.1079" y="593.1787">&#160;</text><text fill="#FF0000" font-family="sans-serif" font-size="13" lengthAdjust="spacing" textLength="53.46" x="188.7197" y="593.1787">SERVER</text><text fill="#FF0000" font-family="sans-serif" font-size="13" lengthAdjust="spacing" textLength="3.6118" x="242.1797" y="593.1787">&#160;</text><text fill="#FF0000" font-family="sans-serif" font-size="13" lengthAdjust="spacing" textLength="46.9473" x="245.7915" y="593.1787">ERROR</text><polygon fill="#181818" points="939.8652,632.7324,929.8652,636.7324,939.8652,640.7324,935.8652,636.7324" style="stroke:#181818;stroke-width:1.0;"/><line style="stroke:#181818;stroke-width:1.0;stroke-dasharray:2.0,2.0;" x1="933.8652" x2="1194.2378" y1="636.7324" y2="636.7324"/><text fill="#000000" font-family="sans-serif" font-size="13" font-weight="bold" lengthAdjust="spacing" textLength="15.8882" x="945.8652" y="631.4697">[6]</text><text fill="#000000" font-family="sans-serif" font-size="13" lengthAdjust="spacing" textLength="3.6118" x="961.7534" y="631.4697">&#160;</text><text fill="#000000" font-family="sans-serif" font-size="13" lengthAdjust="spacing" textLength="27.4473" x="965.3652" y="631.4697">rows</text><text fill="#000000" font-family="sans-serif" font-size="13" lengthAdjust="spacing" textLength="3.6118" x="992.8125" y="631.4697">&#160;</text><text fill="#000000" font-family="sans-serif" font-size="13" lengthAdjust="spacing" textLength="46.2554" x="996.4243" y="631.4697">affected</text><polygon fill="#181818" points="698.0029,664.0234,688.0029,668.0234,698.0029,672.0234,694.0029,668.0234" style="stroke:#181818;stroke-width:1.0;"/><line style="stroke:#181818;stroke-width:1.0;stroke-dasharray:2.0,2.0;" x1="692.0029" x2="922.8652" y1="668.0234" y2="668.0234"/><text fill="#000000" font-family="sans-serif" font-size="13" lengthAdjust="spacing" textLength="23.8481" x="704.0029" y="662.7607">void</text><polygon fill="#181818" points="537.5513,695.3145,527.5513,699.3145,537.5513,703.3145,533.5513,699.3145" style="stroke:#181818;stroke-width:1.0;"/><line style="stroke:#181818;stroke-width:1.0;stroke-dasharray:2.0,2.0;" x1="531.5513" x2="681.0029" y1="699.3145" y2="699.3145"/><text fill="#000000" font-family="sans-serif" font-size="13" lengthAdjust="spacing" textLength="23.8481" x="543.5513" y="694.0518">void</text><polygon fill="#008000" points="320.7388,726.6055,310.7388,730.6055,320.7388,734.6055,316.7388,730.6055" style="stroke:#008000;stroke-width:1.0;"/><line style="stroke:#008000;stroke-width:1.0;stroke-dasharray:2.0,2.0;" x1="314.7388" x2="520.5513" y1="730.6055" y2="730.6055"/><text fill="#000000" font-family="sans-serif" font-size="13" font-weight="bold" lengthAdjust="spacing" textLength="15.8882" x="326.7388" y="725.3428">[7]</text><text fill="#000000" font-family="sans-serif" font-size="13" lengthAdjust="spacing" textLength="3.6118" x="342.627" y="725.3428">&#160;</text><text fill="#000000" font-family="sans-serif" font-size="13" lengthAdjust="spacing" textLength="163.3125" x="346.2388" y="725.3428">ResponseEntity.noContent()</text><polygon fill="#008000" points="89.5171,757.8965,79.5171,761.8965,89.5171,765.8965,85.5171,761.8965" style="stroke:#008000;stroke-width:1.0;"/><line style="stroke:#008000;stroke-width:1.0;stroke-dasharray:2.0,2.0;" x1="83.5171" x2="303.7388" y1="761.8965" y2="761.8965"/><text fill="#000000" font-family="sans-serif" font-size="13" font-weight="bold" lengthAdjust="spacing" textLength="15.8882" x="95.5171" y="756.6338">[8]</text><text fill="#000000" font-family="sans-serif" font-size="13" lengthAdjust="spacing" textLength="3.6118" x="111.4053" y="756.6338">&#160;</text><text fill="#000000" font-family="sans-serif" font-size="13" lengthAdjust="spacing" textLength="21.6899" x="115.0171" y="756.6338">204</text><text fill="#000000" font-family="sans-serif" font-size="13" lengthAdjust="spacing" textLength="3.6118" x="136.707" y="756.6338">&#160;</text><text fill="#000000" font-family="sans-serif" font-size="13" lengthAdjust="spacing" textLength="19.5" x="140.3188" y="756.6338">NO</text><text fill="#000000" font-family="sans-serif" font-size="13" lengthAdjust="spacing" textLength="3.6118" x="159.8188" y="756.6338">&#160;</text><text fill="#000000" font-family="sans-serif" font-size="13" lengthAdjust="spacing" textLength="62.8291" x="163.4307" y="756.6338">CONTENT</text><!--SRC=[bLNTRXD76BtVf_XatoIXncuQazQYQMtlHWboVhgRm0LmCVPEx16RdTNivCT5I34HK2ce24HluHKChLK39Rp2x2lm9FrcTjVO3HN25wlTcU-Sx-US6STtM1WHGVR1wn6V7x6m2r8SK2kURBZy8FIRN8HKG7LgVOCSRz0u9btgiLyfB5OhbjNMiKJqeL3VNeSc3-E3VIeAG6AeDw6uwgp-u2phi6CeH4Go6ifIJCKXwz025Als5NlPiG1_c4Ao3ej8AA5WinY3EpqgF8mDg3I4jWV56pqcwKN0TagD-QNWGP1Lq9GY-1B4oul1-EpzIn2NHZncaek-GUdF74937x1No_A996qIqmjTb_nssam3YYtMxSb6WCEtke8VHDbAiqz2K2-J4tMUF5IZP90C83bLVwcXUgT6whqQ9qz0VL13t1thXUI-6juArJFS6YM_wG3r1dRTLWrif-NiE72tIoGz8lrIZyVoNfb4h9oL5PVlClyUV7pu33G-EKtkOrwTv2BBVpgfBLKgbLaUoymCXI-jQBKkNQh1miBDRsylBEGSdul7I8mtOcM8HOtmAGfFivdFCN_-LZZtCtxshXF1I3kWiBkxRWDkf3I608bo5JEkxpxBbKBoK4GP5JF8qYT8ex_kPxbHW94Hu4yKu0G56U6i1YY5n_QZW5wBo2TZmBRWn_qiYw7M4sda2QfJ4rbrjpRoqSADDSTri2Nu4Nx2b6kiJKM8sXc1rjWTxBovRJwksOqcs88TKf6b2Jd62MqWu7kOh0RgZsI05Oz1_OtU-O1b3vB7e5sY7qFrnhI4R_3nv3aQ2AEC_EUP4SwI1u2GTEajLBx16EHGRzMxvFVaKUh5b0mVhvCpzGf3XmWvKw-HFnlGvRG-4aWeRh1OzbsE1qEzGAkErIja6u9wgfx3dER1aivDpbCi-7ts_XZAe4sE5V-3_5WRreKrwUYnGPb3CM_o64ire5IwMHJKlvrAMuEh7HvmKTDhAzulBUUuGoF9U7YrR3PM9jXKhWawyyWiWOt7kzxfu6tu_pmJSqsej4E_dYVrzOJ4zhwUGf-m2K6zEKjGhLHWVNF7SJVhBV0SzxhZWkEwM-uC3TvisMdLert9fsJiV4NRMV2Z6CZU7kr8wayRV-f8wlX3plpPmvSV_ickDTDsLr0QciRpVCiwdqlZ2Fzkg1DA9lkNGwulVtswvwsfbdEmlfDIyFSQl5XPWiqjQ6vXtvixbhwt_mK0]--></g></svg>