<svg xmlns="http://www.w3.org/2000/svg" xmlns:xlink="http://www.w3.org/1999/xlink" contentStyleType="text/css" height="532px" preserveAspectRatio="none" style="width:791px;height:532px;background:#FFFFFF;" version="1.1" viewBox="0 0 791 532" width="791px" zoomAndPan="magnify"><defs><filter height="300%" id="f1t15701j0q76" width="300%" x="-1" y="-1"><feGaussianBlur result="blurOut" stdDeviation="2.0"/><feColorMatrix in="blurOut" result="blurOut2" type="matrix" values="0 0 0 0 0 0 0 0 0 0 0 0 0 0 0 0 0 0 .4 0"/><feOffset dx="4.0" dy="4.0" in="blurOut2" result="blurOut3"/><feBlend in="SourceGraphic" in2="blurOut3" mode="normal"/></filter></defs><g><rect fill="#FFFFFF" filter="url(#f1t15701j0q76)" height="280.6191" style="stroke:#181818;stroke-width:1.0;" width="10" x="254.564" y="146.4941"/><rect fill="#FFFFFF" filter="url(#f1t15701j0q76)" height="31.291" style="stroke:#181818;stroke-width:1.0;" width="10" x="464.9419" y="239.3672"/><rect fill="#FFFFFF" filter="url(#f1t15701j0q76)" height="93.873" style="stroke:#181818;stroke-width:1.0;" width="10" x="575.5898" y="301.9492"/><rect fill="#FFFFFF" filter="url(#f1t15701j0q76)" height="31.291" style="stroke:#181818;stroke-width:1.0;" width="10" x="728.5151" y="333.2402"/><rect fill="#E0FFFF" filter="url(#f1t15701j0q76)" height="348.4922" rx="2.5" ry="2.5" style="stroke:#000000;stroke-width:1.5;" width="769.2114" x="10" y="86.6211"/><line style="stroke:#181818;stroke-width:0.5;stroke-dasharray:5.0,5.0;" x1="54" x2="54" y1="69.6211" y2="452.1133"/><line style="stroke:#181818;stroke-width:0.5;stroke-dasharray:5.0,5.0;" x1="258.8193" x2="258.8193" y1="69.6211" y2="452.1133"/><line style="stroke:#181818;stroke-width:0.5;stroke-dasharray:5.0,5.0;" x1="469.3145" x2="469.3145" y1="69.6211" y2="452.1133"/><line style="stroke:#181818;stroke-width:0.5;stroke-dasharray:5.0,5.0;" x1="580.5693" x2="580.5693" y1="69.6211" y2="452.1133"/><line style="stroke:#181818;stroke-width:0.5;stroke-dasharray:5.0,5.0;" x1="732.8188" x2="732.8188" y1="69.6211" y2="452.1133"/><rect fill="#FFF2CC" filter="url(#f1t15701j0q76)" height="32.6211" rx="2.5" ry="2.5" style="stroke:#181818;stroke-width:0.5;" width="65.3721" x="20" y="33"/><text fill="#000000" font-family="sans-serif" font-size="14" lengthAdjust="spacing" textLength="51.3721" x="27" y="55.1074">frontend</text><rect fill="#FFF2CC" filter="url(#f1t15701j0q76)" height="32.6211" rx="2.5" ry="2.5" style="stroke:#181818;stroke-width:0.5;" width="65.3721" x="20" y="451.1133"/><text fill="#000000" font-family="sans-serif" font-size="14" lengthAdjust="spacing" textLength="51.3721" x="27" y="473.2207">frontend</text><text fill="#000000" font-family="sans-serif" font-size="14" lengthAdjust="spacing" textLength="75.4893" x="218.8193" y="66.1074">api-gateway</text><path d="M239.064,23 L239.064,47 M239.064,35 L256.064,35 " fill="none" filter="url(#f1t15701j0q76)" style="stroke:#181818;stroke-width:0.5;"/><ellipse cx="268.064" cy="35" fill="#FEF9E7" filter="url(#f1t15701j0q76)" rx="12" ry="12" style="stroke:#181818;stroke-width:0.5;"/><text fill="#000000" font-family="sans-serif" font-size="14" lengthAdjust="spacing" textLength="75.4893" x="218.8193" y="466.2207">api-gateway</text><path d="M239.064,473.7344 L239.064,497.7344 M239.064,485.7344 L256.064,485.7344 " fill="none" filter="url(#f1t15701j0q76)" style="stroke:#181818;stroke-width:0.5;"/><ellipse cx="268.064" cy="485.7344" fill="#FEF9E7" filter="url(#f1t15701j0q76)" rx="12" ry="12" style="stroke:#181818;stroke-width:0.5;"/><rect fill="#EBF5FB" filter="url(#f1t15701j0q76)" height="32.6211" rx="2.5" ry="2.5" style="stroke:#181818;stroke-width:0.5;" width="90.2549" x="423.3145" y="33"/><text fill="#000000" font-family="sans-serif" font-size="14" lengthAdjust="spacing" textLength="76.2549" x="430.3145" y="55.1074">auth-service</text><rect fill="#EBF5FB" filter="url(#f1t15701j0q76)" height="32.6211" rx="2.5" ry="2.5" style="stroke:#181818;stroke-width:0.5;" width="90.2549" x="423.3145" y="451.1133"/><text fill="#000000" font-family="sans-serif" font-size="14" lengthAdjust="spacing" textLength="76.2549" x="430.3145" y="473.2207">auth-service</text><rect fill="#F4ECF7" filter="url(#f1t15701j0q76)" height="32.6211" rx="2.5" ry="2.5" style="stroke:#181818;stroke-width:0.5;" width="105.041" x="526.5693" y="33"/><text fill="#000000" font-family="sans-serif" font-size="14" lengthAdjust="spacing" textLength="91.041" x="533.5693" y="55.1074">patient-service</text><rect fill="#F4ECF7" filter="url(#f1t15701j0q76)" height="32.6211" rx="2.5" ry="2.5" style="stroke:#181818;stroke-width:0.5;" width="105.041" x="526.5693" y="451.1133"/><text fill="#000000" font-family="sans-serif" font-size="14" lengthAdjust="spacing" textLength="91.041" x="533.5693" y="473.2207">patient-service</text><text fill="#000000" font-family="sans-serif" font-size="14" lengthAdjust="spacing" textLength="65.3926" x="697.8188" y="66.1074">patient_db</text><path d="M715.5151,15 C715.5151,5 733.5151,5 733.5151,5 C733.5151,5 751.5151,5 751.5151,15 L751.5151,41 C751.5151,51 733.5151,51 733.5151,51 C733.5151,51 715.5151,51 715.5151,41 L715.5151,15 " fill="#F4ECF7" filter="url(#f1t15701j0q76)" style="stroke:#181818;stroke-width:1.5;"/><path d="M715.5151,15 C715.5151,25 733.5151,25 733.5151,25 C733.5151,25 751.5151,25 751.5151,15 " fill="none" style="stroke:#181818;stroke-width:1.5;"/><text fill="#000000" font-family="sans-serif" font-size="14" lengthAdjust="spacing" textLength="65.3926" x="697.8188" y="466.2207">patient_db</text><path d="M715.5151,479.7344 C715.5151,469.7344 733.5151,469.7344 733.5151,469.7344 C733.5151,469.7344 751.5151,469.7344 751.5151,479.7344 L751.5151,505.7344 C751.5151,515.7344 733.5151,515.7344 733.5151,515.7344 C733.5151,515.7344 715.5151,515.7344 715.5151,505.7344 L715.5151,479.7344 " fill="#F4ECF7" filter="url(#f1t15701j0q76)" style="stroke:#181818;stroke-width:1.5;"/><path d="M715.5151,479.7344 C715.5151,489.7344 733.5151,489.7344 733.5151,489.7344 C733.5151,489.7344 751.5151,489.7344 751.5151,479.7344 " fill="none" style="stroke:#181818;stroke-width:1.5;"/><rect fill="#FFFFFF" filter="url(#f1t15701j0q76)" height="280.6191" style="stroke:#181818;stroke-width:1.0;" width="10" x="254.564" y="146.4941"/><rect fill="#FFFFFF" filter="url(#f1t15701j0q76)" height="31.291" style="stroke:#181818;stroke-width:1.0;" width="10" x="464.9419" y="239.3672"/><rect fill="#FFFFFF" filter="url(#f1t15701j0q76)" height="93.873" style="stroke:#181818;stroke-width:1.0;" width="10" x="575.5898" y="301.9492"/><rect fill="#FFFFFF" filter="url(#f1t15701j0q76)" height="31.291" style="stroke:#181818;stroke-width:1.0;" width="10" x="728.5151" y="333.2402"/><path d="M12.5,86.6211 L233.6167,86.6211 L233.6167,95.9121 L223.6167,105.9121 L10,105.9121 L10,89.1211 A2.5,2.5 0 0 1 12.5,86.6211 " fill="#EEEEEE" style="stroke:#000000;stroke-width:1.5;"/><rect fill="none" height="348.4922" rx="2.5" ry="2.5" style="stroke:#000000;stroke-width:1.5;" width="769.2114" x="10" y="86.6211"/><text fill="#000000" font-family="sans-serif" font-size="13" font-weight="bold" lengthAdjust="spacing" textLength="178.6167" x="25" y="101.6494">&#1059;&#1076;&#1072;&#1083;&#1077;&#1085;&#1080;&#1077; &#1076;&#1072;&#1085;&#1085;&#1099;&#1093; &#1087;&#1072;&#1094;&#1080;&#1077;&#1085;&#1090;&#1072;</text><polygon fill="#181818" points="242.564,142.4941,252.564,146.4941,242.564,150.4941,246.564,146.4941" style="stroke:#181818;stroke-width:1.0;"/><line style="stroke:#181818;stroke-width:1.0;" x1="54.186" x2="248.564" y1="146.4941" y2="146.4941"/><text fill="#000000" font-family="sans-serif" font-size="13" font-weight="bold" lengthAdjust="spacing" textLength="15.8882" x="61.186" y="123.9404">[1]</text><text fill="#000000" font-family="sans-serif" font-size="13" lengthAdjust="spacing" textLength="3.6118" x="77.0742" y="123.9404">&#160;</text><text fill="#000000" font-family="sans-serif" font-size="13" lengthAdjust="spacing" textLength="50.5718" x="80.686" y="123.9404">DELETE</text><text fill="#000000" font-family="sans-serif" font-size="13" lengthAdjust="spacing" textLength="3.6118" x="131.2578" y="123.9404">&#160;</text><text fill="#000000" font-family="sans-serif" font-size="13" lengthAdjust="spacing" textLength="92.5171" x="134.8696" y="123.9404">/api/patients/{id}</text><text fill="#000000" font-family="sans-serif" font-size="13" lengthAdjust="spacing" textLength="83.8208" x="61.186" y="141.2314">(Authorization:</text><text fill="#000000" font-family="sans-serif" font-size="13" lengthAdjust="spacing" textLength="3.6118" x="145.0068" y="141.2314">&#160;</text><text fill="#000000" font-family="sans-serif" font-size="13" lengthAdjust="spacing" textLength="39.019" x="148.6187" y="141.2314">Bearer</text><text fill="#000000" font-family="sans-serif" font-size="13" lengthAdjust="spacing" textLength="3.6118" x="187.6377" y="141.2314">&#160;</text><text fill="#000000" font-family="sans-serif" font-size="13" lengthAdjust="spacing" textLength="51.3145" x="191.2495" y="141.2314">&lt;token&gt;)</text><line style="stroke:#181818;stroke-width:1.0;" x1="264.564" x2="306.564" y1="177.7852" y2="177.7852"/><line style="stroke:#181818;stroke-width:1.0;" x1="306.564" x2="306.564" y1="177.7852" y2="190.7852"/><line style="stroke:#181818;stroke-width:1.0;" x1="265.564" x2="306.564" y1="190.7852" y2="190.7852"/><polygon fill="#181818" points="275.564,186.7852,265.564,190.7852,275.564,194.7852,271.564,190.7852" style="stroke:#181818;stroke-width:1.0;"/><text fill="#000000" font-family="sans-serif" font-size="13" font-weight="bold" lengthAdjust="spacing" textLength="15.8882" x="271.564" y="172.5225">[2]</text><text fill="#000000" font-family="sans-serif" font-size="13" lengthAdjust="spacing" textLength="3.6118" x="287.4521" y="172.5225">&#160;</text><text fill="#000000" font-family="sans-serif" font-size="13" lengthAdjust="spacing" textLength="58.0874" x="291.064" y="172.5225">&#1055;&#1088;&#1086;&#1074;&#1077;&#1088;&#1082;&#1072;</text><text fill="#000000" font-family="sans-serif" font-size="13" lengthAdjust="spacing" textLength="3.6118" x="349.1514" y="172.5225">&#160;</text><text fill="#000000" font-family="sans-serif" font-size="13" lengthAdjust="spacing" textLength="40.5107" x="352.7632" y="172.5225">&#1090;&#1086;&#1082;&#1077;&#1085;&#1072;</text><polygon fill="#181818" points="452.9419,235.3672,462.9419,239.3672,452.9419,243.3672,456.9419,239.3672" style="stroke:#181818;stroke-width:1.0;"/><line style="stroke:#181818;stroke-width:1.0;" x1="264.564" x2="458.9419" y1="239.3672" y2="239.3672"/><text fill="#000000" font-family="sans-serif" font-size="13" lengthAdjust="spacing" textLength="26.7236" x="271.564" y="216.8135">GET</text><text fill="#000000" font-family="sans-serif" font-size="13" lengthAdjust="spacing" textLength="3.6118" x="298.2876" y="216.8135">&#160;</text><text fill="#000000" font-family="sans-serif" font-size="13" lengthAdjust="spacing" textLength="48.4199" x="301.8994" y="216.8135">/validate</text><text fill="#000000" font-family="sans-serif" font-size="13" lengthAdjust="spacing" textLength="83.8208" x="271.564" y="234.1045">(Authorization:</text><text fill="#000000" font-family="sans-serif" font-size="13" lengthAdjust="spacing" textLength="3.6118" x="355.3848" y="234.1045">&#160;</text><text fill="#000000" font-family="sans-serif" font-size="13" lengthAdjust="spacing" textLength="39.019" x="358.9966" y="234.1045">Bearer</text><text fill="#000000" font-family="sans-serif" font-size="13" lengthAdjust="spacing" textLength="3.6118" x="398.0156" y="234.1045">&#160;</text><text fill="#000000" font-family="sans-serif" font-size="13" lengthAdjust="spacing" textLength="51.3145" x="401.6274" y="234.1045">&lt;token&gt;)</text><polygon fill="#008000" points="275.564,266.6582,265.564,270.6582,275.564,274.6582,271.564,270.6582" style="stroke:#008000;stroke-width:1.0;"/><line style="stroke:#008000;stroke-width:1.0;stroke-dasharray:2.0,2.0;" x1="269.564" x2="468.9419" y1="270.6582" y2="270.6582"/><text fill="#000000" font-family="sans-serif" font-size="13" lengthAdjust="spacing" textLength="21.6899" x="281.564" y="265.3955">200</text><text fill="#000000" font-family="sans-serif" font-size="13" lengthAdjust="spacing" textLength="3.6118" x="303.2539" y="265.3955">&#160;</text><text fill="#000000" font-family="sans-serif" font-size="13" lengthAdjust="spacing" textLength="18.7827" x="306.8657" y="265.3955">OK</text><polygon fill="#181818" points="563.5898,297.9492,573.5898,301.9492,563.5898,305.9492,567.5898,301.9492" style="stroke:#181818;stroke-width:1.0;"/><line style="stroke:#181818;stroke-width:1.0;" x1="264.564" x2="569.5898" y1="301.9492" y2="301.9492"/><text fill="#000000" font-family="sans-serif" font-size="13" font-weight="bold" lengthAdjust="spacing" textLength="15.8882" x="271.564" y="296.6865">[3]</text><text fill="#000000" font-family="sans-serif" font-size="13" lengthAdjust="spacing" textLength="3.6118" x="287.4521" y="296.6865">&#160;</text><text fill="#000000" font-family="sans-serif" font-size="13" lengthAdjust="spacing" textLength="50.5718" x="291.064" y="296.6865">DELETE</text><text fill="#000000" font-family="sans-serif" font-size="13" lengthAdjust="spacing" textLength="3.6118" x="341.6357" y="296.6865">&#160;</text><text fill="#000000" font-family="sans-serif" font-size="13" lengthAdjust="spacing" textLength="71.5571" x="345.2476" y="296.6865">/patients/{id}</text><polygon fill="#181818" points="716.5151,329.2402,726.5151,333.2402,716.5151,337.2402,720.5151,333.2402" style="stroke:#181818;stroke-width:1.0;"/><line style="stroke:#181818;stroke-width:1.0;" x1="585.5898" x2="722.5151" y1="333.2402" y2="333.2402"/><text fill="#000000" font-family="sans-serif" font-size="13" font-weight="bold" lengthAdjust="spacing" textLength="15.8882" x="592.5898" y="327.9775">[4]</text><text fill="#000000" font-family="sans-serif" font-size="13" lengthAdjust="spacing" textLength="3.6118" x="608.478" y="327.9775">&#160;</text><text fill="#000000" font-family="sans-serif" font-size="13" lengthAdjust="spacing" textLength="59.5601" x="612.0898" y="327.9775">&#1059;&#1076;&#1072;&#1083;&#1077;&#1085;&#1080;&#1077;</text><text fill="#000000" font-family="sans-serif" font-size="13" lengthAdjust="spacing" textLength="3.6118" x="671.6499" y="327.9775">&#160;</text><text fill="#000000" font-family="sans-serif" font-size="13" lengthAdjust="spacing" textLength="41.2534" x="675.2617" y="327.9775">&#1079;&#1072;&#1087;&#1080;&#1089;&#1080;</text><polygon fill="#181818" points="596.5898,360.5313,586.5898,364.5313,596.5898,368.5313,592.5898,364.5313" style="stroke:#181818;stroke-width:1.0;"/><line style="stroke:#181818;stroke-width:1.0;stroke-dasharray:2.0,2.0;" x1="590.5898" x2="732.5151" y1="364.5313" y2="364.5313"/><text fill="#000000" font-family="sans-serif" font-size="13" lengthAdjust="spacing" textLength="42.6563" x="602.5898" y="359.2686">&#1047;&#1072;&#1087;&#1080;&#1089;&#1100;</text><text fill="#000000" font-family="sans-serif" font-size="13" lengthAdjust="spacing" textLength="3.6118" x="645.2461" y="359.2686">&#160;</text><text fill="#000000" font-family="sans-serif" font-size="13" lengthAdjust="spacing" textLength="50.54" x="648.8579" y="359.2686">&#1091;&#1076;&#1072;&#1083;&#1077;&#1085;&#1072;</text><polygon fill="#008000" points="275.564,391.8223,265.564,395.8223,275.564,399.8223,271.564,395.8223" style="stroke:#008000;stroke-width:1.0;"/><line style="stroke:#008000;stroke-width:1.0;stroke-dasharray:2.0,2.0;" x1="269.564" x2="579.5898" y1="395.8223" y2="395.8223"/><text fill="#000000" font-family="sans-serif" font-size="13" font-weight="bold" lengthAdjust="spacing" textLength="15.8882" x="281.564" y="390.5596">[5]</text><text fill="#000000" font-family="sans-serif" font-size="13" lengthAdjust="spacing" textLength="3.6118" x="297.4521" y="390.5596">&#160;</text><text fill="#000000" font-family="sans-serif" font-size="13" lengthAdjust="spacing" textLength="21.6899" x="301.064" y="390.5596">204</text><text fill="#000000" font-family="sans-serif" font-size="13" lengthAdjust="spacing" textLength="3.6118" x="322.7539" y="390.5596">&#160;</text><text fill="#000000" font-family="sans-serif" font-size="13" lengthAdjust="spacing" textLength="19.5" x="326.3657" y="390.5596">NO</text><text fill="#000000" font-family="sans-serif" font-size="13" lengthAdjust="spacing" textLength="3.6118" x="345.8657" y="390.5596">&#160;</text><text fill="#000000" font-family="sans-serif" font-size="13" lengthAdjust="spacing" textLength="62.8291" x="349.4775" y="390.5596">CONTENT</text><polygon fill="#008000" points="65.186,423.1133,55.186,427.1133,65.186,431.1133,61.186,427.1133" style="stroke:#008000;stroke-width:1.0;"/><line style="stroke:#008000;stroke-width:1.0;stroke-dasharray:2.0,2.0;" x1="59.186" x2="258.564" y1="427.1133" y2="427.1133"/><text fill="#000000" font-family="sans-serif" font-size="13" font-weight="bold" lengthAdjust="spacing" textLength="15.8882" x="71.186" y="421.8506">[6]</text><text fill="#000000" font-family="sans-serif" font-size="13" lengthAdjust="spacing" textLength="3.6118" x="87.0742" y="421.8506">&#160;</text><text fill="#000000" font-family="sans-serif" font-size="13" lengthAdjust="spacing" textLength="21.6899" x="90.686" y="421.8506">204</text><text fill="#000000" font-family="sans-serif" font-size="13" lengthAdjust="spacing" textLength="3.6118" x="112.376" y="421.8506">&#160;</text><text fill="#000000" font-family="sans-serif" font-size="13" lengthAdjust="spacing" textLength="19.5" x="115.9878" y="421.8506">NO</text><text fill="#000000" font-family="sans-serif" font-size="13" lengthAdjust="spacing" textLength="3.6118" x="135.4878" y="421.8506">&#160;</text><text fill="#000000" font-family="sans-serif" font-size="13" lengthAdjust="spacing" textLength="62.8291" x="139.0996" y="421.8506">CONTENT</text><!--SRC=[XLB1RjD04BtlLuoI2wIo4aBIYWXLQbox1zga8f4ub0fjwiLP5TRHUjEI8YGAWWlSENBW1on4H0HA-mlZFs9s4u93aV1blJFllNblxFHKgX7N_3dqXZnApgMAmUYnOEcgyJ0PgyXFj18QceNw0Nzn8DAKnw8dBmJKcpN6g6FaYHnnPQ3qL2VA21MLWAVGEzo1SXY6TTzdR60bkPv0YO-a5tCZpld4mVOU4Ie8xmLRx2yrFZP3BnNwJ9u81zsX0fI3TjWCs-lG4JTIABE6FkoHS2FmmoqMSSC7F1Khu9Deu32xxHM6nJePZw2yB-EXyITS0Nx1RvZXJvpY76Su1NUTupp_aBy3lCOiVs_hL7Y36MD0ZmtjRTjG6nijg5IExXnNAh0Rx0Vz0AgKlRfqa5PVokZLOtNBXagqlA1oebhG5bpJsk-Rv5IexTiBLP9peawnRXNnS_uQh_0hJkdyWHcGXIjwiLQp0iUjp5hP2_fGFUFF9Er2_7-iLN1Sppignre8TUnIULuBwhKQT1yKdT6gbt7l5kEkHLtW2KbuMliItt1XRYpwErslSPPVuipHYE0jvbW3-EbtE_y8-Ti2EVipvQPl6jUqu-gr1dIwu7Sx_Q3JNyKe4DnNN30s_y5Wz8l_0W00]--></g></svg>