<svg xmlns="http://www.w3.org/2000/svg" xmlns:xlink="http://www.w3.org/1999/xlink" contentStyleType="text/css" height="520.2px" preserveAspectRatio="none" style="width:865px;height:520px;background:#FFFFFF;" version="1.1" viewBox="0 0 865 520" width="865.8px" zoomAndPan="magnify"><defs><filter height="300%" id="f1sd7myc9vm8su" width="300%" x="-1" y="-1"><feGaussianBlur result="blurOut" stdDeviation="1.2"/><feColorMatrix in="blurOut" result="blurOut2" type="matrix" values="0 0 0 0 0 0 0 0 0 0 0 0 0 0 0 0 0 0 .4 0"/><feOffset dx="2.4" dy="2.4" in="blurOut2" result="blurOut3"/><feBlend in="SourceGraphic" in2="blurOut3" mode="normal"/></filter></defs><g><rect fill="#5D6D7E" height="509.1105" rx="1.5" ry="1.5" style="stroke:#181818;stroke-width:0.3;" width="452.7735" x="142.1965" y="3.6"/><text fill="#000000" font-family="sans-serif" font-size="7.8" font-weight="bold" lengthAdjust="spacing" textLength="55.057" x="341.0547" y="12.017">patient-service</text><rect fill="#FFFFFF" filter="url(#f1sd7myc9vm8su)" height="369.2414" style="stroke:#181818;stroke-width:0.6;" width="6" x="179.8433" y="87.8965"/><rect fill="#FFFFFF" filter="url(#f1sd7myc9vm8su)" height="321.3176" style="stroke:#181818;stroke-width:0.6;" width="6" x="309.9308" y="117.0457"/><rect fill="#FFFFFF" filter="url(#f1sd7myc9vm8su)" height="283.7684" style="stroke:#181818;stroke-width:0.6;" width="6" x="406.2018" y="135.8203"/><rect fill="#FFFFFF" filter="url(#f1sd7myc9vm8su)" height="225.4699" style="stroke:#181818;stroke-width:0.6;" width="6" x="551.3191" y="175.3441"/><rect fill="#FFFFFF" filter="url(#f1sd7myc9vm8su)" height="177.5461" style="stroke:#181818;stroke-width:0.6;" width="6" x="714.1427" y="204.4934"/><rect fill="#E0FFFF" filter="url(#f1sd7myc9vm8su)" height="409.9652" rx="1.5" ry="1.5" style="stroke:#000000;stroke-width:0.8999999999999999;" width="852.9375" x="6" y="51.9727"/><rect fill="#FFE4E1" filter="url(#f1sd7myc9vm8su)" height="105.4477" rx="1.5" ry="1.5" style="stroke:#000000;stroke-width:0.8999999999999999;" width="732.5604" x="12" y="258.4172"/><line style="stroke:#181818;stroke-width:0.3;stroke-dasharray:5.0,5.0;" x1="46.8" x2="46.8" y1="41.7727" y2="472.1379"/><line style="stroke:#181818;stroke-width:0.3;stroke-dasharray:5.0,5.0;" x1="182.3965" x2="182.3965" y1="41.7727" y2="472.1379"/><line style="stroke:#181818;stroke-width:0.3;stroke-dasharray:5.0,5.0;" x1="312.5481" x2="312.5481" y1="41.7727" y2="472.1379"/><line style="stroke:#181818;stroke-width:0.3;stroke-dasharray:5.0,5.0;" x1="408.8212" x2="408.8212" y1="41.7727" y2="472.1379"/><line style="stroke:#181818;stroke-width:0.3;stroke-dasharray:5.0,5.0;" x1="553.8683" x2="553.8683" y1="41.7727" y2="472.1379"/><line style="stroke:#181818;stroke-width:0.3;stroke-dasharray:5.0,5.0;" x1="716.7249" x2="716.7249" y1="41.7727" y2="472.1379"/><text fill="#000000" font-family="sans-serif" font-size="8.4" lengthAdjust="spacing" textLength="54.6205" x="18" y="39.6645">API Consumer</text><path d="M34.8103,13.8 L34.8103,28.2 M34.8103,21 L45.0103,21 " fill="none" filter="url(#f1sd7myc9vm8su)" style="stroke:#181818;stroke-width:0.3;"/><ellipse cx="52.2103" cy="21" fill="#FEF9E7" filter="url(#f1sd7myc9vm8su)" rx="7.2" ry="7.2" style="stroke:#181818;stroke-width:0.3;"/><text fill="#000000" font-family="sans-serif" font-size="8.4" lengthAdjust="spacing" textLength="54.6205" x="18" y="480.6023">API Consumer</text><path d="M34.8103,485.1105 L34.8103,499.5105 M34.8103,492.3105 L45.0103,492.3105 " fill="none" filter="url(#f1sd7myc9vm8su)" style="stroke:#181818;stroke-width:0.3;"/><ellipse cx="52.2103" cy="492.3105" fill="#FEF9E7" filter="url(#f1sd7myc9vm8su)" rx="7.2" ry="7.2" style="stroke:#181818;stroke-width:0.3;"/><rect fill="#FFFFFF" filter="url(#f1sd7myc9vm8su)" height="19.5727" rx="1.5" ry="1.5" style="stroke:#181818;stroke-width:0.3;" width="74.6936" x="144.5965" y="19.8"/><text fill="#000000" font-family="sans-serif" font-size="8.4" lengthAdjust="spacing" textLength="66.2936" x="148.7965" y="33.0645">DispatcherServlet</text><rect fill="#FFFFFF" filter="url(#f1sd7myc9vm8su)" height="19.5727" rx="1.5" ry="1.5" style="stroke:#181818;stroke-width:0.3;" width="74.6936" x="144.5965" y="471.5379"/><text fill="#000000" font-family="sans-serif" font-size="8.4" lengthAdjust="spacing" textLength="66.2936" x="148.7965" y="484.8023">DispatcherServlet</text><rect fill="#FFFFFF" filter="url(#f1sd7myc9vm8su)" height="19.5727" rx="1.5" ry="1.5" style="stroke:#181818;stroke-width:0.3;" width="70.9652" x="276.5481" y="19.8"/><text fill="#000000" font-family="sans-serif" font-size="8.4" lengthAdjust="spacing" textLength="62.5652" x="280.7481" y="33.0645">PatientController</text><rect fill="#FFFFFF" filter="url(#f1sd7myc9vm8su)" height="19.5727" rx="1.5" ry="1.5" style="stroke:#181818;stroke-width:0.3;" width="70.9652" x="276.5481" y="471.5379"/><text fill="#000000" font-family="sans-serif" font-size="8.4" lengthAdjust="spacing" textLength="62.5652" x="280.7481" y="484.8023">PatientController</text><rect fill="#FFFFFF" filter="url(#f1sd7myc9vm8su)" height="19.5727" rx="1.5" ry="1.5" style="stroke:#181818;stroke-width:0.3;" width="62.5611" x="377.0212" y="19.8"/><text fill="#000000" font-family="sans-serif" font-size="8.4" lengthAdjust="spacing" textLength="54.1611" x="381.2212" y="33.0645">PatientService</text><rect fill="#FFFFFF" filter="url(#f1sd7myc9vm8su)" height="19.5727" rx="1.5" ry="1.5" style="stroke:#181818;stroke-width:0.3;" width="62.5611" x="377.0212" y="471.5379"/><text fill="#000000" font-family="sans-serif" font-size="8.4" lengthAdjust="spacing" textLength="54.1611" x="381.2212" y="484.8023">PatientService</text><rect fill="#FFFFFF" filter="url(#f1sd7myc9vm8su)" height="19.5727" rx="1.5" ry="1.5" style="stroke:#181818;stroke-width:0.3;" width="74.7018" x="516.0683" y="19.8"/><text fill="#000000" font-family="sans-serif" font-size="8.4" lengthAdjust="spacing" textLength="66.3018" x="520.2683" y="33.0645">PatientRepository</text><rect fill="#FFFFFF" filter="url(#f1sd7myc9vm8su)" height="19.5727" rx="1.5" ry="1.5" style="stroke:#181818;stroke-width:0.3;" width="74.7018" x="516.0683" y="471.5379"/><text fill="#000000" font-family="sans-serif" font-size="8.4" lengthAdjust="spacing" textLength="66.3018" x="520.2683" y="484.8023">PatientRepository</text><text fill="#000000" font-family="sans-serif" font-size="8.4" lengthAdjust="spacing" textLength="39.2355" x="695.7249" y="39.6645">patient_db</text><path d="M706.3427,9 C706.3427,3 717.1427,3 717.1427,3 C717.1427,3 727.9427,3 727.9427,9 L727.9427,24.6 C727.9427,30.6 717.1427,30.6 717.1427,30.6 C717.1427,30.6 706.3427,30.6 706.3427,24.6 L706.3427,9 " fill="#ADD8E6" filter="url(#f1sd7myc9vm8su)" style="stroke:#181818;stroke-width:0.8999999999999999;"/><path d="M706.3427,9 C706.3427,15 717.1427,15 717.1427,15 C717.1427,15 727.9427,15 727.9427,9 " fill="none" style="stroke:#181818;stroke-width:0.8999999999999999;"/><text fill="#000000" font-family="sans-serif" font-size="8.4" lengthAdjust="spacing" textLength="39.2355" x="695.7249" y="480.6023">patient_db</text><path d="M706.3427,488.7105 C706.3427,482.7105 717.1427,482.7105 717.1427,482.7105 C717.1427,482.7105 727.9427,482.7105 727.9427,488.7105 L727.9427,504.3105 C727.9427,510.3105 717.1427,510.3105 717.1427,510.3105 C717.1427,510.3105 706.3427,510.3105 706.3427,504.3105 L706.3427,488.7105 " fill="#ADD8E6" filter="url(#f1sd7myc9vm8su)" style="stroke:#181818;stroke-width:0.8999999999999999;"/><path d="M706.3427,488.7105 C706.3427,494.7105 717.1427,494.7105 717.1427,494.7105 C717.1427,494.7105 727.9427,494.7105 727.9427,488.7105 " fill="none" style="stroke:#181818;stroke-width:0.8999999999999999;"/><rect fill="#FFFFFF" filter="url(#f1sd7myc9vm8su)" height="369.2414" style="stroke:#181818;stroke-width:0.6;" width="6" x="179.8433" y="87.8965"/><rect fill="#FFFFFF" filter="url(#f1sd7myc9vm8su)" height="321.3176" style="stroke:#181818;stroke-width:0.6;" width="6" x="309.9308" y="117.0457"/><rect fill="#FFFFFF" filter="url(#f1sd7myc9vm8su)" height="283.7684" style="stroke:#181818;stroke-width:0.6;" width="6" x="406.2018" y="135.8203"/><rect fill="#FFFFFF" filter="url(#f1sd7myc9vm8su)" height="225.4699" style="stroke:#181818;stroke-width:0.6;" width="6" x="551.3191" y="175.3441"/><rect fill="#FFFFFF" filter="url(#f1sd7myc9vm8su)" height="177.5461" style="stroke:#181818;stroke-width:0.6;" width="6" x="714.1427" y="204.4934"/><path d="M7.5,51.9727 L476.804,51.9727 L476.804,67.9219 L470.804,73.9219 L6,73.9219 L6,53.4727 A1.5,1.5 0 0 1 7.5,51.9727 " fill="#EEEEEE" style="stroke:#000000;stroke-width:0.8999999999999999;"/><rect fill="none" height="409.9652" rx="1.5" ry="1.5" style="stroke:#000000;stroke-width:0.8999999999999999;" width="852.9375" x="6" y="51.9727"/><text fill="#000000" font-family="sans-serif" font-size="7.8" font-weight="bold" lengthAdjust="spacing" textLength="110.1026" x="15" y="60.9896">&#1055;&#1088;&#1086;&#1094;&#1077;&#1089;&#1089; &#1091;&#1076;&#1072;&#1083;&#1077;&#1085;&#1080;&#1103; &#1087;&#1072;&#1094;&#1080;&#1077;&#1085;&#1090;&#1072;</text><text fill="#000000" font-family="sans-serif" font-size="7.8" font-weight="bold" lengthAdjust="spacing" textLength="443.804" x="15" y="71.3643">&#1042;&#1085;&#1077;&#1096;&#1085;&#1080;&#1081; URL: DELETE {gateway-host}/api/patients/{id} &#8594; &#1042;&#1085;&#1091;&#1090;&#1088;&#1077;&#1085;&#1085;&#1080;&#1081; URL: DELETE patient-service:4000/patients/{id}</text><polygon fill="#181818" points="172.6433,85.4965,178.6433,87.8965,172.6433,90.2965,175.0433,87.8965" style="stroke:#181818;stroke-width:0.6;"/><line style="stroke:#181818;stroke-width:0.6;" x1="47.1103" x2="176.2433" y1="87.8965" y2="87.8965"/><text fill="#000000" font-family="sans-serif" font-size="7.8" font-weight="bold" lengthAdjust="spacing" textLength="9.5329" x="51.3103" y="84.7389">[1]</text><text fill="#000000" font-family="sans-serif" font-size="7.8" lengthAdjust="spacing" textLength="2.1671" x="60.8432" y="84.7389">&#160;</text><text fill="#000000" font-family="sans-serif" font-size="7.8" lengthAdjust="spacing" textLength="30.3431" x="63.0103" y="84.7389">DELETE</text><text fill="#000000" font-family="sans-serif" font-size="7.8" lengthAdjust="spacing" textLength="2.1671" x="93.3533" y="84.7389">&#160;</text><text fill="#000000" font-family="sans-serif" font-size="7.8" lengthAdjust="spacing" textLength="42.9343" x="95.5204" y="84.7389">/patients/{id}</text><polygon fill="#181818" points="302.7308,114.6457,308.7308,117.0457,302.7308,119.4457,305.1308,117.0457" style="stroke:#181818;stroke-width:0.6;"/><line style="stroke:#181818;stroke-width:0.6;" x1="185.8433" x2="306.3308" y1="117.0457" y2="117.0457"/><text fill="#000000" font-family="sans-serif" font-size="7.8" font-weight="bold" lengthAdjust="spacing" textLength="9.5329" x="190.0433" y="103.5135">[2]</text><text fill="#000000" font-family="sans-serif" font-size="7.8" lengthAdjust="spacing" textLength="2.1671" x="199.5762" y="103.5135">&#160;</text><text fill="#000000" font-family="sans-serif" font-size="7.8" lengthAdjust="spacing" textLength="56.8014" x="201.7433" y="103.5135">deletePatient(id)</text><text fill="#000000" font-family="sans-serif" font-size="7.8" lengthAdjust="spacing" textLength="55.1789" x="190.0433" y="113.8881">(@PathVariable</text><text fill="#000000" font-family="sans-serif" font-size="7.8" lengthAdjust="spacing" textLength="2.1671" x="245.2222" y="113.8881">&#160;</text><text fill="#000000" font-family="sans-serif" font-size="7.8" lengthAdjust="spacing" textLength="19.0658" x="247.3893" y="113.8881">UUID</text><text fill="#000000" font-family="sans-serif" font-size="7.8" lengthAdjust="spacing" textLength="2.1671" x="266.4551" y="113.8881">&#160;</text><text fill="#000000" font-family="sans-serif" font-size="7.8" lengthAdjust="spacing" textLength="8.6684" x="268.6222" y="113.8881">id)</text><polygon fill="#181818" points="399.0018,133.4203,405.0018,135.8203,399.0018,138.2203,401.4018,135.8203" style="stroke:#181818;stroke-width:0.6;"/><line style="stroke:#181818;stroke-width:0.6;" x1="315.9308" x2="402.6018" y1="135.8203" y2="135.8203"/><text fill="#000000" font-family="sans-serif" font-size="7.8" font-weight="bold" lengthAdjust="spacing" textLength="9.5329" x="320.1308" y="132.6627">[3]</text><text fill="#000000" font-family="sans-serif" font-size="7.8" lengthAdjust="spacing" textLength="2.1671" x="329.6637" y="132.6627">&#160;</text><text fill="#000000" font-family="sans-serif" font-size="7.8" lengthAdjust="spacing" textLength="56.8014" x="331.8308" y="132.6627">deletePatient(id)</text><polygon fill="#181818" points="544.1191,172.9441,550.1191,175.3441,544.1191,177.7441,546.5191,175.3441" style="stroke:#181818;stroke-width:0.6;"/><line style="stroke:#181818;stroke-width:0.6;" x1="412.2018" x2="547.7191" y1="175.3441" y2="175.3441"/><text fill="#000000" font-family="sans-serif" font-size="7.8" font-weight="bold" lengthAdjust="spacing" textLength="9.5329" x="416.4018" y="151.4373">[4]</text><text fill="#000000" font-family="sans-serif" font-size="7.8" lengthAdjust="spacing" textLength="2.1671" x="425.9347" y="151.4373">&#160;</text><text fill="#000000" font-family="sans-serif" font-size="7.8" lengthAdjust="spacing" textLength="48.1254" x="428.1018" y="151.4373">deleteById(id)</text><text fill="#000000" font-family="sans-serif" font-size="7.8" lengthAdjust="spacing" textLength="51.8502" x="416.4018" y="161.8119">(&#1076;&#1077;&#1083;&#1077;&#1075;&#1080;&#1088;&#1091;&#1077;&#1090;&#1089;&#1103;</text><text fill="#000000" font-family="sans-serif" font-size="7.8" lengthAdjust="spacing" textLength="2.1671" x="468.252" y="161.8119">&#160;</text><text fill="#000000" font-family="sans-serif" font-size="7.8" lengthAdjust="spacing" textLength="73.7001" x="470.419" y="161.8119">SimpleJpaRepository</text><text fill="#000000" font-family="sans-serif" font-size="7.8" lengthAdjust="spacing" textLength="22.5354" x="416.4018" y="172.1865">Proxy)</text><polygon fill="#181818" points="706.9427,202.0934,712.9427,204.4934,706.9427,206.8934,709.3427,204.4934" style="stroke:#181818;stroke-width:0.6;"/><line style="stroke:#181818;stroke-width:0.6;" x1="557.3191" x2="710.5427" y1="204.4934" y2="204.4934"/><text fill="#000000" font-family="sans-serif" font-size="7.8" font-weight="bold" lengthAdjust="spacing" textLength="9.5329" x="561.5191" y="190.9611">[5]</text><text fill="#000000" font-family="sans-serif" font-size="7.8" lengthAdjust="spacing" textLength="2.1671" x="571.0521" y="190.9611">&#160;</text><text fill="#000000" font-family="sans-serif" font-size="7.8" lengthAdjust="spacing" textLength="30.3431" x="573.2191" y="190.9611">DELETE</text><text fill="#000000" font-family="sans-serif" font-size="7.8" lengthAdjust="spacing" textLength="2.1671" x="603.5622" y="190.9611">&#160;</text><text fill="#000000" font-family="sans-serif" font-size="7.8" lengthAdjust="spacing" textLength="22.962" x="605.7293" y="190.9611">FROM</text><text fill="#000000" font-family="sans-serif" font-size="7.8" lengthAdjust="spacing" textLength="2.1671" x="628.6913" y="190.9611">&#160;</text><text fill="#000000" font-family="sans-serif" font-size="7.8" lengthAdjust="spacing" textLength="23.419" x="630.8584" y="190.9611">patient</text><text fill="#000000" font-family="sans-serif" font-size="7.8" lengthAdjust="spacing" textLength="2.1671" x="654.2774" y="190.9611">&#160;</text><text fill="#000000" font-family="sans-serif" font-size="7.8" lengthAdjust="spacing" textLength="29.0329" x="656.4445" y="190.9611">WHERE</text><text fill="#000000" font-family="sans-serif" font-size="7.8" lengthAdjust="spacing" textLength="2.1671" x="685.4774" y="190.9611">&#160;</text><text fill="#000000" font-family="sans-serif" font-size="7.8" lengthAdjust="spacing" textLength="6.0709" x="687.6445" y="190.9611">id</text><text fill="#000000" font-family="sans-serif" font-size="7.8" lengthAdjust="spacing" textLength="2.1671" x="693.7154" y="190.9611">&#160;</text><text fill="#000000" font-family="sans-serif" font-size="7.8" lengthAdjust="spacing" textLength="4.5551" x="695.8825" y="190.9611">=</text><text fill="#000000" font-family="sans-serif" font-size="7.8" lengthAdjust="spacing" textLength="2.1671" x="700.4376" y="190.9611">&#160;</text><text fill="#000000" font-family="sans-serif" font-size="7.8" lengthAdjust="spacing" textLength="4.338" x="702.6047" y="190.9611">?</text><text fill="#000000" font-family="sans-serif" font-size="7.8" lengthAdjust="spacing" textLength="36.4178" x="561.5191" y="201.3357">(Hibernate</text><text fill="#000000" font-family="sans-serif" font-size="7.8" lengthAdjust="spacing" textLength="2.1671" x="597.9369" y="201.3357">&#160;</text><text fill="#000000" font-family="sans-serif" font-size="7.8" lengthAdjust="spacing" textLength="6.7298" x="600.104" y="201.3357">&#8594;</text><text fill="#000000" font-family="sans-serif" font-size="7.8" lengthAdjust="spacing" textLength="2.1671" x="606.8338" y="201.3357">&#160;</text><text fill="#000000" font-family="sans-serif" font-size="7.8" lengthAdjust="spacing" textLength="30.7696" x="609.0009" y="201.3357">HikariCP</text><text fill="#000000" font-family="sans-serif" font-size="7.8" lengthAdjust="spacing" textLength="2.1671" x="639.7705" y="201.3357">&#160;</text><text fill="#000000" font-family="sans-serif" font-size="7.8" lengthAdjust="spacing" textLength="6.7298" x="641.9376" y="201.3357">&#8594;</text><text fill="#000000" font-family="sans-serif" font-size="7.8" lengthAdjust="spacing" textLength="2.1671" x="648.6674" y="201.3357">&#160;</text><text fill="#000000" font-family="sans-serif" font-size="7.8" lengthAdjust="spacing" textLength="20.3684" x="650.8345" y="201.3357">JDBC</text><text fill="#000000" font-family="sans-serif" font-size="7.8" lengthAdjust="spacing" textLength="2.1671" x="671.2028" y="201.3357">&#160;</text><text fill="#000000" font-family="sans-serif" font-size="7.8" lengthAdjust="spacing" textLength="23.3962" x="673.3699" y="201.3357">Driver)</text><path d="M723,213.7934 L723,247.3934 A1.5,1.5 0 0 0 724.5,248.8934 L849.3,248.8934 A1.5,1.5 0 0 0 850.8,247.3934 L850.8,218.2934 L844.8,212.2934 L724.5,212.2934 A1.5,1.5 0 0 0 723,213.7934 " fill="#FEFFDD" filter="url(#f1sd7myc9vm8su)" style="stroke:#181818;stroke-width:0.3;"/><path d="M844.8,212.2934 L844.8,217.5434 A0.75,0.75 0 0 0 845.55,218.2934 L850.8,218.2934 L844.8,212.2934 " fill="#FEFFDD" style="stroke:#181818;stroke-width:0.3;"/><text fill="#000000" font-family="sans-serif" font-size="7.8" lengthAdjust="spacing" textLength="98.1208" x="726.6" y="223.7104">&#1045;&#1089;&#1083;&#1080; &#1079;&#1072;&#1087;&#1080;&#1089;&#1100; &#1085;&#1077; &#1085;&#1072;&#1081;&#1076;&#1077;&#1085;&#1072; &#8212;</text><text fill="#000000" font-family="sans-serif" font-size="7.8" lengthAdjust="spacing" textLength="71.8491" x="726.6" y="234.085">&#1079;&#1072;&#1090;&#1088;&#1086;&#1085;&#1091;&#1090;&#1099;&#1093; &#1089;&#1090;&#1088;&#1086;&#1082; 0,</text><text fill="#000000" font-family="sans-serif" font-size="7.8" lengthAdjust="spacing" textLength="115.5375" x="726.6" y="244.4596">&#1080;&#1089;&#1082;&#1083;&#1102;&#1095;&#1077;&#1085;&#1080;&#1077; &#1085;&#1077; &#1074;&#1099;&#1073;&#1088;&#1072;&#1089;&#1099;&#1074;&#1072;&#1077;&#1090;&#1089;&#1103;.</text><path d="M13.5,258.4172 L48.1025,258.4172 L48.1025,263.9918 L42.1025,269.9918 L12,269.9918 L12,259.9172 A1.5,1.5 0 0 1 13.5,258.4172 " fill="#EEEEEE" style="stroke:#000000;stroke-width:0.8999999999999999;"/><rect fill="none" height="105.4477" rx="1.5" ry="1.5" style="stroke:#000000;stroke-width:0.8999999999999999;" width="732.5604" x="12" y="258.4172"/><text fill="#000000" font-family="sans-serif" font-size="7.8" font-weight="bold" lengthAdjust="spacing" textLength="9.1025" x="21" y="267.4342">alt</text><text fill="#000000" font-family="sans-serif" font-size="6.6" font-weight="bold" lengthAdjust="spacing" textLength="169.9854" x="57.1025" y="266.7393">[&#1054;&#1096;&#1080;&#1073;&#1082;&#1072; &#1041;&#1044; (&#1085;&#1077;&#1076;&#1086;&#1089;&#1090;&#1091;&#1087;&#1085;&#1086;&#1089;&#1090;&#1100; / &#1090;&#1072;&#1081;&#1084;&#1072;&#1091;&#1090; &#1089;&#1086;&#1077;&#1076;&#1080;&#1085;&#1077;&#1085;&#1080;&#1103;)]</text><polygon fill="#FF0000" points="563.9191,281.5664,557.9191,283.9664,563.9191,286.3664,561.5191,283.9664" style="stroke:#FF0000;stroke-width:0.6;"/><line style="stroke:#FF0000;stroke-width:0.6;stroke-dasharray:2.0,2.0;" x1="560.3191" x2="713.5427" y1="283.9664" y2="283.9664"/><text fill="#FF0000" font-family="sans-serif" font-size="7.8" lengthAdjust="spacing" textLength="49.8621" x="567.5191" y="280.8088">SQLException</text><polygon fill="#FF0000" points="418.8018,300.341,412.8018,302.741,418.8018,305.141,416.4018,302.741" style="stroke:#FF0000;stroke-width:0.6;"/><line style="stroke:#FF0000;stroke-width:0.6;stroke-dasharray:2.0,2.0;" x1="415.2018" x2="550.7191" y1="302.741" y2="302.741"/><text fill="#FF0000" font-family="sans-serif" font-size="7.8" lengthAdjust="spacing" textLength="75.871" x="422.4018" y="299.5834">DataAccessException</text><polygon fill="#FF0000" points="322.5308,319.1156,316.5308,321.5156,322.5308,323.9156,320.1308,321.5156" style="stroke:#FF0000;stroke-width:0.6;"/><line style="stroke:#FF0000;stroke-width:0.6;stroke-dasharray:2.0,2.0;" x1="318.9308" x2="405.6018" y1="321.5156" y2="321.5156"/><text fill="#FF0000" font-family="sans-serif" font-size="7.8" lengthAdjust="spacing" textLength="75.871" x="326.1308" y="318.358">DataAccessException</text><polygon fill="#FF0000" points="192.4433,337.8902,186.4433,340.2902,192.4433,342.6902,190.0433,340.2902" style="stroke:#FF0000;stroke-width:0.6;"/><line style="stroke:#FF0000;stroke-width:0.6;stroke-dasharray:2.0,2.0;" x1="188.8433" x2="309.3308" y1="340.2902" y2="340.2902"/><text fill="#FF0000" font-family="sans-serif" font-size="7.8" lengthAdjust="spacing" textLength="75.871" x="196.0433" y="337.1326">DataAccessException</text><polygon fill="#FF0000" points="53.7103,356.6648,47.7103,359.0648,53.7103,361.4648,51.3103,359.0648" style="stroke:#FF0000;stroke-width:0.6;"/><line style="stroke:#FF0000;stroke-width:0.6;stroke-dasharray:2.0,2.0;" x1="50.1103" x2="179.2433" y1="359.0648" y2="359.0648"/><text fill="#FF0000" font-family="sans-serif" font-size="7.8" lengthAdjust="spacing" textLength="13.014" x="57.3103" y="355.9072">500</text><text fill="#FF0000" font-family="sans-serif" font-size="7.8" lengthAdjust="spacing" textLength="2.1671" x="70.3242" y="355.9072">&#160;</text><text fill="#FF0000" font-family="sans-serif" font-size="7.8" lengthAdjust="spacing" textLength="38.5734" x="72.4913" y="355.9072">INTERNAL</text><text fill="#FF0000" font-family="sans-serif" font-size="7.8" lengthAdjust="spacing" textLength="2.1671" x="111.0647" y="355.9072">&#160;</text><text fill="#FF0000" font-family="sans-serif" font-size="7.8" lengthAdjust="spacing" textLength="32.076" x="113.2318" y="355.9072">SERVER</text><text fill="#FF0000" font-family="sans-serif" font-size="7.8" lengthAdjust="spacing" textLength="2.1671" x="145.3078" y="355.9072">&#160;</text><text fill="#FF0000" font-family="sans-serif" font-size="7.8" lengthAdjust="spacing" textLength="28.1684" x="147.4749" y="355.9072">ERROR</text><polygon fill="#181818" points="563.9191,379.6395,557.9191,382.0395,563.9191,384.4395,561.5191,382.0395" style="stroke:#181818;stroke-width:0.6;"/><line style="stroke:#181818;stroke-width:0.6;stroke-dasharray:2.0,2.0;" x1="560.3191" x2="716.5427" y1="382.0395" y2="382.0395"/><text fill="#000000" font-family="sans-serif" font-size="7.8" font-weight="bold" lengthAdjust="spacing" textLength="9.5329" x="567.5191" y="378.8818">[6]</text><text fill="#000000" font-family="sans-serif" font-size="7.8" lengthAdjust="spacing" textLength="2.1671" x="577.0521" y="378.8818">&#160;</text><text fill="#000000" font-family="sans-serif" font-size="7.8" lengthAdjust="spacing" textLength="16.4684" x="579.2191" y="378.8818">rows</text><text fill="#000000" font-family="sans-serif" font-size="7.8" lengthAdjust="spacing" textLength="2.1671" x="595.6875" y="378.8818">&#160;</text><text fill="#000000" font-family="sans-serif" font-size="7.8" lengthAdjust="spacing" textLength="27.7532" x="597.8546" y="378.8818">affected</text><polygon fill="#181818" points="418.8018,398.4141,412.8018,400.8141,418.8018,403.2141,416.4018,400.8141" style="stroke:#181818;stroke-width:0.6;"/><line style="stroke:#181818;stroke-width:0.6;stroke-dasharray:2.0,2.0;" x1="415.2018" x2="553.7191" y1="400.8141" y2="400.8141"/><text fill="#000000" font-family="sans-serif" font-size="7.8" lengthAdjust="spacing" textLength="14.3089" x="422.4018" y="397.6564">void</text><polygon fill="#181818" points="322.5308,417.1887,316.5308,419.5887,322.5308,421.9887,320.1308,419.5887" style="stroke:#181818;stroke-width:0.6;"/><line style="stroke:#181818;stroke-width:0.6;stroke-dasharray:2.0,2.0;" x1="318.9308" x2="408.6018" y1="419.5887" y2="419.5887"/><text fill="#000000" font-family="sans-serif" font-size="7.8" lengthAdjust="spacing" textLength="14.3089" x="326.1308" y="416.4311">void</text><polygon fill="#008000" points="192.4433,435.9633,186.4433,438.3633,192.4433,440.7633,190.0433,438.3633" style="stroke:#008000;stroke-width:0.6;"/><line style="stroke:#008000;stroke-width:0.6;stroke-dasharray:2.0,2.0;" x1="188.8433" x2="312.3308" y1="438.3633" y2="438.3633"/><text fill="#000000" font-family="sans-serif" font-size="7.8" font-weight="bold" lengthAdjust="spacing" textLength="9.5329" x="196.0433" y="435.2057">[7]</text><text fill="#000000" font-family="sans-serif" font-size="7.8" lengthAdjust="spacing" textLength="2.1671" x="205.5762" y="435.2057">&#160;</text><text fill="#000000" font-family="sans-serif" font-size="7.8" lengthAdjust="spacing" textLength="97.9875" x="207.7433" y="435.2057">ResponseEntity.noContent()</text><polygon fill="#008000" points="53.7103,454.7379,47.7103,457.1379,53.7103,459.5379,51.3103,457.1379" style="stroke:#008000;stroke-width:0.6;"/><line style="stroke:#008000;stroke-width:0.6;stroke-dasharray:2.0,2.0;" x1="50.1103" x2="182.2433" y1="457.1379" y2="457.1379"/><text fill="#000000" font-family="sans-serif" font-size="7.8" font-weight="bold" lengthAdjust="spacing" textLength="9.5329" x="57.3103" y="453.9803">[8]</text><text fill="#000000" font-family="sans-serif" font-size="7.8" lengthAdjust="spacing" textLength="2.1671" x="66.8432" y="453.9803">&#160;</text><text fill="#000000" font-family="sans-serif" font-size="7.8" lengthAdjust="spacing" textLength="13.014" x="69.0103" y="453.9803">204</text><text fill="#000000" font-family="sans-serif" font-size="7.8" lengthAdjust="spacing" textLength="2.1671" x="82.0242" y="453.9803">&#160;</text><text fill="#000000" font-family="sans-serif" font-size="7.8" lengthAdjust="spacing" textLength="11.7" x="84.1913" y="453.9803">NO</text><text fill="#000000" font-family="sans-serif" font-size="7.8" lengthAdjust="spacing" textLength="2.1671" x="95.8913" y="453.9803">&#160;</text><text fill="#000000" font-family="sans-serif" font-size="7.8" lengthAdjust="spacing" textLength="37.6975" x="98.0584" y="453.9803">CONTENT</text><!--SRC=[bLNRRXD76BxVf_XbtoG1OpUD2LWqhRsxKOAS0-i4BW1LO-_47k7ih6Od1nSXnKJGIa6jGFIsVGL3QzL02Qym-meyIV-PFM0N4C8NgzsP__l-m_VDEBh7Wf08iW-j7l7v4Gkw8CK1jQ9ym-C7WMzp4L01rQdr3NAyGQE8T6cB_KHXiLgnhBQE9M80XVhsEjWyY0xsgIW0YQ1kGt7LNRtgBkkmOoY4H38Qo594nI7hq08KgyvbPzcr07-OGh8E2qaWeU2m28CxFIfQ6DkdqX0wBIZUwZ59FmPi9zIONmhUxwSLs5BqlmHfPSLWVFh-9OX7GnunoSN0eFHd1g613zYhPVb4aZQ9QDxrZtuxQQ81nIRhzcIZZqEtke8VXEcAFI01g3_Z4tKUFrRZU1WF8JvLVwkHUgF6wgsQnB-1UgT6k3lH2_53DReJg6UuDOv_qG7g5UnwpHeuRjFTSU5-bqXwH0Qb7e_aWp89MJaj9ohVP_u3UF_u6MXyV1e_nBmwoSSi_zEjjbIfL6PvB3Ch5BoqebMwSA462mktlxcxi91nV2eU8p7UY9GY5ZN2foWuJMSzn_pvEy7S3_ZPkqa48-q-XTtTTGTm8w4n14YKgPToVVj9hWIIXIBAg9T2bZv06eDrFysD0eoD07-X02Seo1XdDKGfMcm_xDFh8VbW2DWM_7YGPZ7KUYADB45rQYAhtjP6DbgujUPwBhO4ty7tc7ADjQa8K3iZq1gxXvtRs-RZkjEmmH7ia8eqJS0nJcW30T_3P3LGlyT3h7W2wX_qpZiiUnW_0UqI_HYfLwObV8Ft9y_HG1Xbv3zFZN0MFmA494kleN8HOv13lLPlub_ZdnCl9cJuU1cVgHSOEaB8cNg9_Ec0BYNraRw4uWQBvC3ZU23K7sZLYNg1R2DGJzLpcDCyMDAvoNcA1RzDtvz06RJ9iU9_aHzhmxgm9XqzCIXpAEPD7cEf1fHAjuk2-dSJQMjmhSFxNDJqsahhHjCzxj1GCXvSAvkDbHoRo9MZKu_C4ZXuhEkT3jw2d-V9pPLJQOT-FK_Ywvp4QNqzXJvXEK7TdYMeLYgmlhdZUflr9hHSxwRhWUjvMzuC3TvewMdLert9fcJiV5dRMV2Z2CZU7kr8wayRV-f8wlX3plpPmvST_dpNcccxAoWDJEDPlcMTpwDHY7ypr0qaauDB0TUNlZxTyzPKonbOtqa9-8e6BrQMO7CBx2tiUtF7qlVrVm00]--></g></svg>