<svg xmlns="http://www.w3.org/2000/svg" xmlns:xlink="http://www.w3.org/1999/xlink" contentStyleType="text/css" height="464px" preserveAspectRatio="none" style="width:923px;height:464px;background:#FFFFFF;" version="1.1" viewBox="0 0 923 464" width="923px" zoomAndPan="magnify"><defs><filter height="300%" id="f1a6r6fupmj8d8" width="300%" x="-1" y="-1"><feGaussianBlur result="blurOut" stdDeviation="2.0"/><feColorMatrix in="blurOut" result="blurOut2" type="matrix" values="0 0 0 0 0 0 0 0 0 0 0 0 0 0 0 0 0 0 .4 0"/><feOffset dx="4.0" dy="4.0" in="blurOut2" result="blurOut3"/><feBlend in="SourceGraphic" in2="blurOut3" mode="normal"/></filter></defs><g><rect fill="#5D6D7E" height="445.8613" rx="2.5" ry="2.5" style="stroke:#181818;stroke-width:0.5;" width="632.9985" x="138.6201" y="6"/><text fill="#000000" font-family="sans-serif" font-size="13" font-weight="bold" lengthAdjust="spacing" textLength="76.5908" x="416.824" y="20.0283">auth-service</text><rect fill="#FFFFFF" filter="url(#f1a6r6fupmj8d8)" height="272.3281" style="stroke:#181818;stroke-width:1.0;" width="10" x="48.5171" y="102.9121"/><rect fill="#FFFFFF" filter="url(#f1a6r6fupmj8d8)" height="263.3281" style="stroke:#181818;stroke-width:1.0;" width="10" x="198.2578" y="102.9121"/><rect fill="#FFFFFF" filter="url(#f1a6r6fupmj8d8)" height="196.7461" style="stroke:#181818;stroke-width:1.0;" width="10" x="448.5625" y="178.4941"/><rect fill="#FFFFFF" filter="url(#f1a6r6fupmj8d8)" height="93.873" style="stroke:#181818;stroke-width:1.0;" width="10" x="698.8672" y="209.7852"/><rect fill="#FFFFFF" filter="url(#f1a6r6fupmj8d8)" height="31.291" style="stroke:#181818;stroke-width:1.0;" width="10" x="844.8872" y="241.0762"/><line style="stroke:#181818;stroke-width:0.5;stroke-dasharray:5.0,5.0;" x1="53" x2="53" y1="69.6211" y2="384.2402"/><line style="stroke:#181818;stroke-width:0.5;stroke-dasharray:5.0,5.0;" x1="202.6201" x2="202.6201" y1="69.6211" y2="384.2402"/><line style="stroke:#181818;stroke-width:0.5;stroke-dasharray:5.0,5.0;" x1="452.9282" x2="452.9282" y1="69.6211" y2="384.2402"/><line style="stroke:#181818;stroke-width:0.5;stroke-dasharray:5.0,5.0;" x1="703.1157" x2="703.1157" y1="69.6211" y2="384.2402"/><line style="stroke:#181818;stroke-width:0.5;stroke-dasharray:5.0,5.0;" x1="849.6187" x2="849.6187" y1="69.6211" y2="384.2402"/><text fill="#000000" font-family="sans-serif" font-size="14" lengthAdjust="spacing" textLength="91.0342" x="5" y="66.1074">API Consumer</text><path d="M33.0171,23 L33.0171,47 M33.0171,35 L50.0171,35 " fill="none" filter="url(#f1a6r6fupmj8d8)" style="stroke:#181818;stroke-width:0.5;"/><ellipse cx="62.0171" cy="35" fill="#FEF9E7" filter="url(#f1a6r6fupmj8d8)" rx="12" ry="12" style="stroke:#181818;stroke-width:0.5;"/><text fill="#000000" font-family="sans-serif" font-size="14" lengthAdjust="spacing" textLength="91.0342" x="5" y="398.3477">API Consumer</text><path d="M33.0171,405.8613 L33.0171,429.8613 M33.0171,417.8613 L50.0171,417.8613 " fill="none" filter="url(#f1a6r6fupmj8d8)" style="stroke:#181818;stroke-width:0.5;"/><ellipse cx="62.0171" cy="417.8613" fill="#FEF9E7" filter="url(#f1a6r6fupmj8d8)" rx="12" ry="12" style="stroke:#181818;stroke-width:0.5;"/><rect fill="#E2E2F0" filter="url(#f1a6r6fupmj8d8)" height="32.6211" rx="2.5" ry="2.5" style="stroke:#181818;stroke-width:0.5;" width="118.2754" x="142.6201" y="33"/><text fill="#000000" font-family="sans-serif" font-size="14" lengthAdjust="spacing" textLength="104.2754" x="149.6201" y="55.1074">PatientController</text><rect fill="#E2E2F0" filter="url(#f1a6r6fupmj8d8)" height="32.6211" rx="2.5" ry="2.5" style="stroke:#181818;stroke-width:0.5;" width="118.2754" x="142.6201" y="383.2402"/><text fill="#000000" font-family="sans-serif" font-size="14" lengthAdjust="spacing" textLength="104.2754" x="149.6201" y="405.3477">PatientController</text><rect fill="#E2E2F0" filter="url(#f1a6r6fupmj8d8)" height="32.6211" rx="2.5" ry="2.5" style="stroke:#181818;stroke-width:0.5;" width="104.2686" x="399.9282" y="33"/><text fill="#000000" font-family="sans-serif" font-size="14" lengthAdjust="spacing" textLength="90.2686" x="406.9282" y="55.1074">PatientService</text><rect fill="#E2E2F0" filter="url(#f1a6r6fupmj8d8)" height="32.6211" rx="2.5" ry="2.5" style="stroke:#181818;stroke-width:0.5;" width="104.2686" x="399.9282" y="383.2402"/><text fill="#000000" font-family="sans-serif" font-size="14" lengthAdjust="spacing" textLength="90.2686" x="406.9282" y="405.3477">PatientService</text><rect fill="#E2E2F0" filter="url(#f1a6r6fupmj8d8)" height="32.6211" rx="2.5" ry="2.5" style="stroke:#181818;stroke-width:0.5;" width="124.5029" x="640.1157" y="33"/><text fill="#000000" font-family="sans-serif" font-size="14" lengthAdjust="spacing" textLength="110.5029" x="647.1157" y="55.1074">PatientRepository</text><rect fill="#E2E2F0" filter="url(#f1a6r6fupmj8d8)" height="32.6211" rx="2.5" ry="2.5" style="stroke:#181818;stroke-width:0.5;" width="124.5029" x="640.1157" y="383.2402"/><text fill="#000000" font-family="sans-serif" font-size="14" lengthAdjust="spacing" textLength="110.5029" x="647.1157" y="405.3477">PatientRepository</text><text fill="#000000" font-family="sans-serif" font-size="14" lengthAdjust="spacing" textLength="138.5371" x="777.6187" y="66.1074">Database (patient_db)</text><path d="M831.8872,15 C831.8872,5 849.8872,5 849.8872,5 C849.8872,5 867.8872,5 867.8872,15 L867.8872,41 C867.8872,51 849.8872,51 849.8872,51 C849.8872,51 831.8872,51 831.8872,41 L831.8872,15 " fill="#EAFAF1" filter="url(#f1a6r6fupmj8d8)" style="stroke:#181818;stroke-width:1.5;"/><path d="M831.8872,15 C831.8872,25 849.8872,25 849.8872,25 C849.8872,25 867.8872,25 867.8872,15 " fill="none" style="stroke:#181818;stroke-width:1.5;"/><text fill="#000000" font-family="sans-serif" font-size="14" lengthAdjust="spacing" textLength="138.5371" x="777.6187" y="398.3477">Database (patient_db)</text><path d="M831.8872,411.8613 C831.8872,401.8613 849.8872,401.8613 849.8872,401.8613 C849.8872,401.8613 867.8872,401.8613 867.8872,411.8613 L867.8872,437.8613 C867.8872,447.8613 849.8872,447.8613 849.8872,447.8613 C849.8872,447.8613 831.8872,447.8613 831.8872,437.8613 L831.8872,411.8613 " fill="#EAFAF1" filter="url(#f1a6r6fupmj8d8)" style="stroke:#181818;stroke-width:1.5;"/><path d="M831.8872,411.8613 C831.8872,421.8613 849.8872,421.8613 849.8872,421.8613 C849.8872,421.8613 867.8872,421.8613 867.8872,411.8613 " fill="none" style="stroke:#181818;stroke-width:1.5;"/><rect fill="#FFFFFF" filter="url(#f1a6r6fupmj8d8)" height="272.3281" style="stroke:#181818;stroke-width:1.0;" width="10" x="48.5171" y="102.9121"/><rect fill="#FFFFFF" filter="url(#f1a6r6fupmj8d8)" height="263.3281" style="stroke:#181818;stroke-width:1.0;" width="10" x="198.2578" y="102.9121"/><rect fill="#FFFFFF" filter="url(#f1a6r6fupmj8d8)" height="196.7461" style="stroke:#181818;stroke-width:1.0;" width="10" x="448.5625" y="178.4941"/><rect fill="#FFFFFF" filter="url(#f1a6r6fupmj8d8)" height="93.873" style="stroke:#181818;stroke-width:1.0;" width="10" x="698.8672" y="209.7852"/><rect fill="#FFFFFF" filter="url(#f1a6r6fupmj8d8)" height="31.291" style="stroke:#181818;stroke-width:1.0;" width="10" x="844.8872" y="241.0762"/><polygon fill="#181818" points="186.2578,98.9121,196.2578,102.9121,186.2578,106.9121,190.2578,102.9121" style="stroke:#181818;stroke-width:1.0;"/><line style="stroke:#181818;stroke-width:1.0;" x1="58.5171" x2="192.2578" y1="102.9121" y2="102.9121"/><text fill="#000000" font-family="sans-serif" font-size="13" lengthAdjust="spacing" textLength="50.5718" x="65.5171" y="97.6494">DELETE</text><text fill="#000000" font-family="sans-serif" font-size="13" lengthAdjust="spacing" textLength="3.6118" x="116.0889" y="97.6494">&#160;</text><text fill="#000000" font-family="sans-serif" font-size="13" lengthAdjust="spacing" textLength="71.5571" x="119.7007" y="97.6494">/patients/{id}</text><line style="stroke:#181818;stroke-width:1.0;" x1="208.2578" x2="250.2578" y1="134.2031" y2="134.2031"/><line style="stroke:#181818;stroke-width:1.0;" x1="250.2578" x2="250.2578" y1="134.2031" y2="147.2031"/><line style="stroke:#181818;stroke-width:1.0;" x1="209.2578" x2="250.2578" y1="147.2031" y2="147.2031"/><polygon fill="#181818" points="219.2578,143.2031,209.2578,147.2031,219.2578,151.2031,215.2578,147.2031" style="stroke:#181818;stroke-width:1.0;"/><text fill="#000000" font-family="sans-serif" font-size="13" lengthAdjust="spacing" textLength="62.6831" x="215.2578" y="128.9404">&#1086;&#1073;&#1088;&#1072;&#1073;&#1086;&#1090;&#1082;&#1072;</text><text fill="#000000" font-family="sans-serif" font-size="13" lengthAdjust="spacing" textLength="3.6118" x="277.9409" y="128.9404">&#160;</text><text fill="#000000" font-family="sans-serif" font-size="13" lengthAdjust="spacing" textLength="48.4199" x="281.5527" y="128.9404">&#1079;&#1072;&#1087;&#1088;&#1086;&#1089;&#1072;</text><polygon fill="#181818" points="436.5625,174.4941,446.5625,178.4941,436.5625,182.4941,440.5625,178.4941" style="stroke:#181818;stroke-width:1.0;"/><line style="stroke:#181818;stroke-width:1.0;" x1="208.2578" x2="442.5625" y1="178.4941" y2="178.4941"/><text fill="#000000" font-family="sans-serif" font-size="13" lengthAdjust="spacing" textLength="167.8574" x="215.2578" y="173.2314">deletePatient(@PathVariable</text><text fill="#000000" font-family="sans-serif" font-size="13" lengthAdjust="spacing" textLength="3.6118" x="383.1152" y="173.2314">&#160;</text><text fill="#000000" font-family="sans-serif" font-size="13" lengthAdjust="spacing" textLength="31.7764" x="386.7271" y="173.2314">UUID</text><text fill="#000000" font-family="sans-serif" font-size="13" lengthAdjust="spacing" textLength="3.6118" x="418.5034" y="173.2314">&#160;</text><text fill="#000000" font-family="sans-serif" font-size="13" lengthAdjust="spacing" textLength="14.4473" x="422.1152" y="173.2314">id)</text><polygon fill="#181818" points="686.8672,205.7852,696.8672,209.7852,686.8672,213.7852,690.8672,209.7852" style="stroke:#181818;stroke-width:1.0;"/><line style="stroke:#181818;stroke-width:1.0;" x1="458.5625" x2="692.8672" y1="209.7852" y2="209.7852"/><text fill="#000000" font-family="sans-serif" font-size="13" lengthAdjust="spacing" textLength="167.8574" x="465.5625" y="204.5225">deletePatient(@PathVariable</text><text fill="#000000" font-family="sans-serif" font-size="13" lengthAdjust="spacing" textLength="3.6118" x="633.4199" y="204.5225">&#160;</text><text fill="#000000" font-family="sans-serif" font-size="13" lengthAdjust="spacing" textLength="31.7764" x="637.0317" y="204.5225">UUID</text><text fill="#000000" font-family="sans-serif" font-size="13" lengthAdjust="spacing" textLength="3.6118" x="668.8081" y="204.5225">&#160;</text><text fill="#000000" font-family="sans-serif" font-size="13" lengthAdjust="spacing" textLength="14.4473" x="672.4199" y="204.5225">id)</text><polygon fill="#181818" points="832.8872,237.0762,842.8872,241.0762,832.8872,245.0762,836.8872,241.0762" style="stroke:#181818;stroke-width:1.0;"/><line style="stroke:#181818;stroke-width:1.0;" x1="708.8672" x2="838.8872" y1="241.0762" y2="241.0762"/><text fill="#000000" font-family="sans-serif" font-size="13" lengthAdjust="spacing" textLength="33.9473" x="715.8672" y="235.8135">JDBC</text><text fill="#000000" font-family="sans-serif" font-size="13" lengthAdjust="spacing" textLength="3.6118" x="749.8145" y="235.8135">&#160;</text><text fill="#000000" font-family="sans-serif" font-size="13" lengthAdjust="spacing" textLength="70.0654" x="753.4263" y="235.8135">(DELETE...)</text><polygon fill="#181818" points="719.8672,268.3672,709.8672,272.3672,719.8672,276.3672,715.8672,272.3672" style="stroke:#181818;stroke-width:1.0;"/><line style="stroke:#181818;stroke-width:1.0;stroke-dasharray:2.0,2.0;" x1="713.8672" x2="848.8872" y1="272.3672" y2="272.3672"/><text fill="#000000" font-family="sans-serif" font-size="13" lengthAdjust="spacing" textLength="58.5381" x="725.8672" y="267.1045">Response</text><polygon fill="#181818" points="469.5625,299.6582,459.5625,303.6582,469.5625,307.6582,465.5625,303.6582" style="stroke:#181818;stroke-width:1.0;"/><line style="stroke:#181818;stroke-width:1.0;stroke-dasharray:2.0,2.0;" x1="463.5625" x2="702.8672" y1="303.6582" y2="303.6582"/><text fill="#000000" font-family="sans-serif" font-size="13" lengthAdjust="spacing" textLength="58.5381" x="475.5625" y="298.3955">Response</text><polygon fill="#181818" points="219.2578,330.9492,209.2578,334.9492,219.2578,338.9492,215.2578,334.9492" style="stroke:#181818;stroke-width:1.0;"/><line style="stroke:#181818;stroke-width:1.0;stroke-dasharray:2.0,2.0;" x1="213.2578" x2="447.5625" y1="334.9492" y2="334.9492"/><text fill="#000000" font-family="sans-serif" font-size="13" lengthAdjust="spacing" textLength="58.5381" x="225.2578" y="329.6865">Response</text><polygon fill="#181818" points="69.5171,362.2402,59.5171,366.2402,69.5171,370.2402,65.5171,366.2402" style="stroke:#181818;stroke-width:1.0;"/><line style="stroke:#181818;stroke-width:1.0;stroke-dasharray:2.0,2.0;" x1="63.5171" x2="202.2578" y1="366.2402" y2="366.2402"/><text fill="#000000" font-family="sans-serif" font-size="13" lengthAdjust="spacing" textLength="40.4727" x="75.5171" y="360.9775">200OK</text><!--SRC=[ZP71JW8n54Nt_OgNOGCX898WaGKHcI519H9Gj-RDz0KQOQPfYuB6HFqYN9cum5yeVsI7GNH3OXTDUtlkxMsgxqGiKU4KXcFaoOE8Hs3KZ9ZU7GoIMSpRYOf9GUsFtiDvZxJ64Gt58q6rLc4iJ5bK2_1Q_IwqarZFfgGyG0qOGQuJT8w3UehDmSEP6PSqgNiHaGUvcd_armC6RhXy8o8XCJRWzT48YetBCYgPJBPfCjfB3dyYKqplnGOa4orCeXOPgHZ575mpnZWQ354JUFxFAYyproqF2nkUXv0BMfrMvv0nXb6fAQDYiG5-S15S1N2mnVN1a-3FxhnOP783DS2kxFlwnIxjkrsjt-odNOBzSDil9wxMhtQPaRe1d2PaQDitV-8MunjK0iC9mVLrrmV12qpgD5ixX_glGpc7cqjD7gQTp_pJDkIpvkLokS1uMChY1gIb-qFQAAaZwxMJKoMzEtlOhnmv1QD6jLAvF8VDbh5l]--></g></svg>