<svg xmlns="http://www.w3.org/2000/svg" xmlns:xlink="http://www.w3.org/1999/xlink" contentStyleType="text/css" height="872.9px" preserveAspectRatio="none" style="width:1062px;height:872px;background:#FFFFFF;" version="1.1" viewBox="0 0 1062 872" width="1062.6px" zoomAndPan="magnify"><defs><filter height="300%" id="f1sqjc1fm516ng" width="300%" x="-1" y="-1"><feGaussianBlur result="blurOut" stdDeviation="1.3999999999999997"/><feColorMatrix in="blurOut" result="blurOut2" type="matrix" values="0 0 0 0 0 0 0 0 0 0 0 0 0 0 0 0 0 0 .4 0"/><feOffset dx="2.7999999999999994" dy="2.7999999999999994" in="blurOut2" result="blurOut3"/><feBlend in="SourceGraphic" in2="blurOut3" mode="normal"/></filter></defs><g><rect fill="#5D6D7E" height="860.1715" rx="1.75" ry="1.75" style="stroke:#181818;stroke-width:0.3499999999999999;" width="808.0252" x="177.7187" y="4.2"/><text fill="#000000" font-family="sans-serif" font-size="9.1" font-weight="bold" lengthAdjust="spacing" textLength="64.2332" x="549.6147" y="14.0198">patient-service</text><rect fill="#FFFFFF" filter="url(#f1sqjc1fm516ng)" height="694.3945" style="stroke:#181818;stroke-width:0.6999999999999998;" width="7" x="221.6399" y="90.4422"/><rect fill="#FFFFFF" filter="url(#f1sqjc1fm516ng)" height="606.7797" style="stroke:#181818;stroke-width:0.6999999999999998;" width="7" x="327.8864" y="112.3459"/><rect fill="#FFFFFF" filter="url(#f1sqjc1fm516ng)" height="562.9723" style="stroke:#181818;stroke-width:0.6999999999999998;" width="7" x="483.7031" y="134.2496"/><rect fill="#FFFFFF" filter="url(#f1sqjc1fm516ng)" height="317.3898" style="stroke:#181818;stroke-width:0.6999999999999998;" width="7" x="596.0192" y="156.1533"/><rect fill="#FFFFFF" filter="url(#f1sqjc1fm516ng)" height="161.4676" style="stroke:#181818;stroke-width:0.6999999999999998;" width="7" x="762.1889" y="513.8506"/><rect fill="#FFFFFF" filter="url(#f1sqjc1fm516ng)" height="21.9037" style="stroke:#181818;stroke-width:0.6999999999999998;" width="7" x="865.8005" y="343.283"/><rect fill="#FFFFFF" filter="url(#f1sqjc1fm516ng)" height="21.9037" style="stroke:#181818;stroke-width:0.6999999999999998;" width="7" x="865.8005" y="597.9654"/><rect fill="#FFFFFF" filter="url(#f1sqjc1fm516ng)" height="21.9037" style="stroke:#181818;stroke-width:0.6999999999999998;" width="7" x="955.5185" y="741.0293"/><rect fill="#FFFFFF" filter="url(#f1sqjc1fm516ng)" height="183.3713" style="stroke:#181818;stroke-width:0.6999999999999998;" width="7" x="1011.4313" y="237.2645"/><rect fill="#E0FFFF" filter="url(#f1sqjc1fm516ng)" height="744.502" rx="1.75" ry="1.75" style="stroke:#000000;stroke-width:1.0499999999999998;" width="1047.8255" x="7" y="60.6348"/><rect fill="#FFE4E1" filter="url(#f1sqjc1fm516ng)" height="552.4723" rx="1.75" ry="1.75" style="stroke:#000000;stroke-width:1.0499999999999998;" width="1032.9187" x="14" y="247.7645"/><path d="M14,392.6904 L1046.9187,392.6904 L1046.9187,798.4867 A1.75,1.75 0 0 1 1045.1687,800.2367 L15.75,800.2367 A1.75,1.75 0 0 1 14,798.4867 L14,392.6904 " fill="#E0FFFF" style="stroke:none;stroke-width:0.6999999999999998;"/><rect fill="#E0FFFF" filter="url(#f1sqjc1fm516ng)" height="311.2936" rx="1.75" ry="1.75" style="stroke:#000000;stroke-width:1.0499999999999998;" width="975.9439" x="21" y="484.0432"/><rect fill="#FFE4E1" filter="url(#f1sqjc1fm516ng)" height="266.0861" rx="1.75" ry="1.75" style="stroke:#000000;stroke-width:1.0499999999999998;" width="961.9439" x="28" y="524.3506"/><path d="M28,647.3729 L989.9439,647.3729 L989.9439,788.6867 A1.75,1.75 0 0 1 988.1939,790.4367 L29.75,790.4367 A1.75,1.75 0 0 1 28,788.6867 L28,647.3729 " fill="#90EE90" style="stroke:none;stroke-width:0.6999999999999998;"/><line style="stroke:#181818;stroke-width:0.3499999999999999;stroke-dasharray:5.0,5.0;" x1="66.5" x2="66.5" y1="48.7348" y2="817.0367"/><line style="stroke:#181818;stroke-width:0.3499999999999999;stroke-dasharray:5.0,5.0;" x1="224.6187" x2="224.6187" y1="48.7348" y2="817.0367"/><line style="stroke:#181818;stroke-width:0.3499999999999999;stroke-dasharray:5.0,5.0;" x1="330.94" x2="330.94" y1="48.7348" y2="817.0367"/><line style="stroke:#181818;stroke-width:0.3499999999999999;stroke-dasharray:5.0,5.0;" x1="486.7591" x2="486.7591" y1="48.7348" y2="817.0367"/><line style="stroke:#181818;stroke-width:0.3499999999999999;stroke-dasharray:5.0,5.0;" x1="598.9932" x2="598.9932" y1="48.7348" y2="817.0367"/><line style="stroke:#181818;stroke-width:0.3499999999999999;stroke-dasharray:5.0,5.0;" x1="765.6698" x2="765.6698" y1="48.7348" y2="817.0367"/><line style="stroke:#181818;stroke-width:0.3499999999999999;stroke-dasharray:5.0,5.0;" x1="868.6081" x2="868.6081" y1="48.7348" y2="817.0367"/><line style="stroke:#181818;stroke-width:0.3499999999999999;stroke-dasharray:5.0,5.0;" x1="958.893" x2="958.893" y1="48.7348" y2="817.0367"/><line style="stroke:#181818;stroke-width:0.3499999999999999;stroke-dasharray:5.0,5.0;" x1="1014.4439" x2="1014.4439" y1="48.7348" y2="817.0367"/><text fill="#000000" font-family="sans-serif" font-size="9.8" lengthAdjust="spacing" textLength="59.3694" x="35" y="46.2752">ApiConsumer</text><path d="M52.4347,16.1 L52.4347,32.9 M52.4347,24.5 L64.3347,24.5 " fill="none" filter="url(#f1sqjc1fm516ng)" style="stroke:#181818;stroke-width:0.3499999999999999;"/><ellipse cx="72.7347" cy="24.5" fill="#FEF9E7" filter="url(#f1sqjc1fm516ng)" rx="8.4" ry="8.4" style="stroke:#181818;stroke-width:0.3499999999999999;"/><text fill="#000000" font-family="sans-serif" font-size="9.8" lengthAdjust="spacing" textLength="59.3694" x="35" y="826.9119">ApiConsumer</text><path d="M52.4347,832.1715 L52.4347,848.9715 M52.4347,840.5715 L64.3347,840.5715 " fill="none" filter="url(#f1sqjc1fm516ng)" style="stroke:#181818;stroke-width:0.3499999999999999;"/><ellipse cx="72.7347" cy="840.5715" fill="#FEF9E7" filter="url(#f1sqjc1fm516ng)" rx="8.4" ry="8.4" style="stroke:#181818;stroke-width:0.3499999999999999;"/><rect fill="#FFFFFF" filter="url(#f1sqjc1fm516ng)" height="22.8348" rx="1.75" ry="1.75" style="stroke:#181818;stroke-width:0.3499999999999999;" width="87.1425" x="180.5187" y="23.1"/><text fill="#000000" font-family="sans-serif" font-size="9.8" lengthAdjust="spacing" textLength="77.3425" x="185.4187" y="38.5752">DispatcherServlet</text><rect fill="#FFFFFF" filter="url(#f1sqjc1fm516ng)" height="22.8348" rx="1.75" ry="1.75" style="stroke:#181818;stroke-width:0.3499999999999999;" width="87.1425" x="180.5187" y="816.3367"/><text fill="#000000" font-family="sans-serif" font-size="9.8" lengthAdjust="spacing" textLength="77.3425" x="185.4187" y="831.8119">DispatcherServlet</text><rect fill="#FFFFFF" filter="url(#f1sqjc1fm516ng)" height="22.8348" rx="1.75" ry="1.75" style="stroke:#181818;stroke-width:0.3499999999999999;" width="82.7928" x="288.94" y="23.1"/><text fill="#000000" font-family="sans-serif" font-size="9.8" lengthAdjust="spacing" textLength="72.9928" x="293.84" y="38.5752">PatientController</text><rect fill="#FFFFFF" filter="url(#f1sqjc1fm516ng)" height="22.8348" rx="1.75" ry="1.75" style="stroke:#181818;stroke-width:0.3499999999999999;" width="82.7928" x="288.94" y="816.3367"/><text fill="#000000" font-family="sans-serif" font-size="9.8" lengthAdjust="spacing" textLength="72.9928" x="293.84" y="831.8119">PatientController</text><rect fill="#FFFFFF" filter="url(#f1sqjc1fm516ng)" height="22.8348" rx="1.75" ry="1.75" style="stroke:#181818;stroke-width:0.3499999999999999;" width="72.988" x="449.6591" y="23.1"/><text fill="#000000" font-family="sans-serif" font-size="9.8" lengthAdjust="spacing" textLength="63.188" x="454.5591" y="38.5752">PatientService</text><rect fill="#FFFFFF" filter="url(#f1sqjc1fm516ng)" height="22.8348" rx="1.75" ry="1.75" style="stroke:#181818;stroke-width:0.3499999999999999;" width="72.988" x="449.6591" y="816.3367"/><text fill="#000000" font-family="sans-serif" font-size="9.8" lengthAdjust="spacing" textLength="63.188" x="454.5591" y="831.8119">PatientService</text><rect fill="#FFFFFF" filter="url(#f1sqjc1fm516ng)" height="22.8348" rx="1.75" ry="1.75" style="stroke:#181818;stroke-width:0.3499999999999999;" width="87.1521" x="554.8932" y="23.1"/><text fill="#000000" font-family="sans-serif" font-size="9.8" lengthAdjust="spacing" textLength="77.3521" x="559.7932" y="38.5752">PatientRepository</text><rect fill="#FFFFFF" filter="url(#f1sqjc1fm516ng)" height="22.8348" rx="1.75" ry="1.75" style="stroke:#181818;stroke-width:0.3499999999999999;" width="87.1521" x="554.8932" y="816.3367"/><text fill="#000000" font-family="sans-serif" font-size="9.8" lengthAdjust="spacing" textLength="77.3521" x="559.7932" y="831.8119">PatientRepository</text><rect fill="#FFFFFF" filter="url(#f1sqjc1fm516ng)" height="22.8348" rx="1.75" ry="1.75" style="stroke:#181818;stroke-width:0.3499999999999999;" width="73.5383" x="727.8698" y="23.1"/><text fill="#000000" font-family="sans-serif" font-size="9.8" lengthAdjust="spacing" textLength="63.7383" x="732.7698" y="38.5752">PatientMapper</text><rect fill="#FFFFFF" filter="url(#f1sqjc1fm516ng)" height="22.8348" rx="1.75" ry="1.75" style="stroke:#181818;stroke-width:0.3499999999999999;" width="73.5383" x="727.8698" y="816.3367"/><text fill="#000000" font-family="sans-serif" font-size="9.8" lengthAdjust="spacing" textLength="63.7383" x="732.7698" y="831.8119">PatientMapper</text><rect fill="#FFA07A" filter="url(#f1sqjc1fm516ng)" height="22.8348" rx="1.75" ry="1.75" style="stroke:#181818;stroke-width:0.3499999999999999;" width="115.485" x="810.5081" y="23.1"/><text fill="#000000" font-family="sans-serif" font-size="9.8" lengthAdjust="spacing" textLength="105.685" x="815.4081" y="38.5752">GlobalExceptionHandler</text><rect fill="#FFA07A" filter="url(#f1sqjc1fm516ng)" height="22.8348" rx="1.75" ry="1.75" style="stroke:#181818;stroke-width:0.3499999999999999;" width="115.485" x="810.5081" y="816.3367"/><text fill="#000000" font-family="sans-serif" font-size="9.8" lengthAdjust="spacing" textLength="105.685" x="815.4081" y="831.8119">GlobalExceptionHandler</text><rect fill="#FFFFFF" filter="url(#f1sqjc1fm516ng)" height="22.8348" rx="1.75" ry="1.75" style="stroke:#181818;stroke-width:0.3499999999999999;" width="45.7509" x="935.093" y="23.1"/><text fill="#000000" font-family="sans-serif" font-size="9.8" lengthAdjust="spacing" textLength="35.9509" x="939.993" y="38.5752">Jackson</text><rect fill="#FFFFFF" filter="url(#f1sqjc1fm516ng)" height="22.8348" rx="1.75" ry="1.75" style="stroke:#181818;stroke-width:0.3499999999999999;" width="45.7509" x="935.093" y="816.3367"/><text fill="#000000" font-family="sans-serif" font-size="9.8" lengthAdjust="spacing" textLength="35.9509" x="939.993" y="831.8119">Jackson</text><text fill="#000000" font-family="sans-serif" font-size="9.8" lengthAdjust="spacing" textLength="45.7748" x="989.9439" y="46.2752">patient_db</text><path d="M1002.3313,10.5 C1002.3313,3.5 1014.9313,3.5 1014.9313,3.5 C1014.9313,3.5 1027.5313,3.5 1027.5313,10.5 L1027.5313,28.7 C1027.5313,35.7 1014.9313,35.7 1014.9313,35.7 C1014.9313,35.7 1002.3313,35.7 1002.3313,28.7 L1002.3313,10.5 " fill="#ADD8E6" filter="url(#f1sqjc1fm516ng)" style="stroke:#181818;stroke-width:1.0499999999999998;"/><path d="M1002.3313,10.5 C1002.3313,17.5 1014.9313,17.5 1014.9313,17.5 C1014.9313,17.5 1027.5313,17.5 1027.5313,10.5 " fill="none" style="stroke:#181818;stroke-width:1.0499999999999998;"/><text fill="#000000" font-family="sans-serif" font-size="9.8" lengthAdjust="spacing" textLength="45.7748" x="989.9439" y="826.9119">patient_db</text><path d="M1002.3313,836.3715 C1002.3313,829.3715 1014.9313,829.3715 1014.9313,829.3715 C1014.9313,829.3715 1027.5313,829.3715 1027.5313,836.3715 L1027.5313,854.5715 C1027.5313,861.5715 1014.9313,861.5715 1014.9313,861.5715 C1014.9313,861.5715 1002.3313,861.5715 1002.3313,854.5715 L1002.3313,836.3715 " fill="#ADD8E6" filter="url(#f1sqjc1fm516ng)" style="stroke:#181818;stroke-width:1.0499999999999998;"/><path d="M1002.3313,836.3715 C1002.3313,843.3715 1014.9313,843.3715 1014.9313,843.3715 C1014.9313,843.3715 1027.5313,843.3715 1027.5313,836.3715 " fill="none" style="stroke:#181818;stroke-width:1.0499999999999998;"/><rect fill="#FFFFFF" filter="url(#f1sqjc1fm516ng)" height="694.3945" style="stroke:#181818;stroke-width:0.6999999999999998;" width="7" x="221.6399" y="90.4422"/><rect fill="#FFFFFF" filter="url(#f1sqjc1fm516ng)" height="606.7797" style="stroke:#181818;stroke-width:0.6999999999999998;" width="7" x="327.8864" y="112.3459"/><rect fill="#FFFFFF" filter="url(#f1sqjc1fm516ng)" height="562.9723" style="stroke:#181818;stroke-width:0.6999999999999998;" width="7" x="483.7031" y="134.2496"/><rect fill="#FFFFFF" filter="url(#f1sqjc1fm516ng)" height="317.3898" style="stroke:#181818;stroke-width:0.6999999999999998;" width="7" x="596.0192" y="156.1533"/><rect fill="#FFFFFF" filter="url(#f1sqjc1fm516ng)" height="161.4676" style="stroke:#181818;stroke-width:0.6999999999999998;" width="7" x="762.1889" y="513.8506"/><rect fill="#FFFFFF" filter="url(#f1sqjc1fm516ng)" height="21.9037" style="stroke:#181818;stroke-width:0.6999999999999998;" width="7" x="865.8005" y="343.283"/><rect fill="#FFFFFF" filter="url(#f1sqjc1fm516ng)" height="21.9037" style="stroke:#181818;stroke-width:0.6999999999999998;" width="7" x="865.8005" y="597.9654"/><rect fill="#FFFFFF" filter="url(#f1sqjc1fm516ng)" height="21.9037" style="stroke:#181818;stroke-width:0.6999999999999998;" width="7" x="955.5185" y="741.0293"/><rect fill="#FFFFFF" filter="url(#f1sqjc1fm516ng)" height="183.3713" style="stroke:#181818;stroke-width:0.6999999999999998;" width="7" x="1011.4313" y="237.2645"/><path d="M8.75,60.6348 L279.1435,60.6348 L279.1435,67.1385 L272.1435,74.1385 L7,74.1385 L7,62.3848 A1.75,1.75 0 0 1 8.75,60.6348 " fill="#EEEEEE" style="stroke:#000000;stroke-width:1.0499999999999998;"/><rect fill="none" height="744.502" rx="1.75" ry="1.75" style="stroke:#000000;stroke-width:1.0499999999999998;" width="1047.8255" x="7" y="60.6348"/><text fill="#000000" font-family="sans-serif" font-size="9.1" font-weight="bold" lengthAdjust="spacing" textLength="240.6435" x="17.5" y="71.1546">&#1055;&#1088;&#1086;&#1094;&#1077;&#1089;&#1089; &#1087;&#1086;&#1083;&#1091;&#1095;&#1077;&#1085;&#1080;&#1103; &#1089;&#1087;&#1080;&#1089;&#1082;&#1072; &#1087;&#1072;&#1094;&#1080;&#1077;&#1085;&#1090;&#1086;&#1074; (GET /patients)</text><polygon fill="#181818" points="213.2399,87.6422,220.2399,90.4422,213.2399,93.2422,216.0399,90.4422" style="stroke:#181818;stroke-width:0.6999999999999998;"/><line style="stroke:#181818;stroke-width:0.6999999999999998;" x1="66.7847" x2="217.4399" y1="90.4422" y2="90.4422"/><text fill="#000000" font-family="sans-serif" font-size="9.1" lengthAdjust="spacing" textLength="18.7065" x="71.6847" y="86.7583">GET</text><text fill="#000000" font-family="sans-serif" font-size="9.1" lengthAdjust="spacing" textLength="2.5283" x="90.3913" y="86.7583">&#160;</text><text fill="#000000" font-family="sans-serif" font-size="9.1" lengthAdjust="spacing" textLength="34.4005" x="92.9195" y="86.7583">/patients</text><polygon fill="#181818" points="319.4864,109.5459,326.4864,112.3459,319.4864,115.1459,322.2864,112.3459" style="stroke:#181818;stroke-width:0.6999999999999998;"/><line style="stroke:#181818;stroke-width:0.6999999999999998;" x1="228.6399" x2="323.6864" y1="112.3459" y2="112.3459"/><text fill="#000000" font-family="sans-serif" font-size="9.1" font-weight="bold" lengthAdjust="spacing" textLength="11.1217" x="233.5399" y="108.662">[1]</text><text fill="#000000" font-family="sans-serif" font-size="9.1" lengthAdjust="spacing" textLength="2.5283" x="244.6616" y="108.662">&#160;</text><text fill="#000000" font-family="sans-serif" font-size="9.1" lengthAdjust="spacing" textLength="51.5918" x="247.1899" y="108.662">getPatients()</text><polygon fill="#181818" points="475.3031,131.4496,482.3031,134.2496,475.3031,137.0496,478.1031,134.2496" style="stroke:#181818;stroke-width:0.6999999999999998;"/><line style="stroke:#181818;stroke-width:0.6999999999999998;" x1="334.8864" x2="479.5031" y1="134.2496" y2="134.2496"/><text fill="#000000" font-family="sans-serif" font-size="9.1" font-weight="bold" lengthAdjust="spacing" textLength="11.1217" x="339.7864" y="130.5657">[2]</text><text fill="#000000" font-family="sans-serif" font-size="9.1" lengthAdjust="spacing" textLength="2.5283" x="350.9082" y="130.5657">&#160;</text><text fill="#000000" font-family="sans-serif" font-size="9.1" lengthAdjust="spacing" textLength="34.3516" x="353.4364" y="130.5657">&#1074;&#1099;&#1079;&#1074;&#1072;&#1090;&#1100;</text><text fill="#000000" font-family="sans-serif" font-size="9.1" lengthAdjust="spacing" textLength="2.5283" x="387.788" y="130.5657">&#160;</text><text fill="#000000" font-family="sans-serif" font-size="9.1" lengthAdjust="spacing" textLength="51.5918" x="390.3163" y="130.5657">getPatients()</text><polygon fill="#181818" points="587.6192,153.3533,594.6192,156.1533,587.6192,158.9533,590.4192,156.1533" style="stroke:#181818;stroke-width:0.6999999999999998;"/><line style="stroke:#181818;stroke-width:0.6999999999999998;" x1="490.7031" x2="591.8192" y1="156.1533" y2="156.1533"/><text fill="#000000" font-family="sans-serif" font-size="9.1" font-weight="bold" lengthAdjust="spacing" textLength="11.1217" x="495.6031" y="152.4694">[3]</text><text fill="#000000" font-family="sans-serif" font-size="9.1" lengthAdjust="spacing" textLength="2.5283" x="506.7248" y="152.4694">&#160;</text><text fill="#000000" font-family="sans-serif" font-size="9.1" lengthAdjust="spacing" textLength="30.8458" x="509.2531" y="152.4694">findAll()</text><line style="stroke:#181818;stroke-width:0.6999999999999998;" x1="603.0192" x2="632.4192" y1="178.057" y2="178.057"/><line style="stroke:#181818;stroke-width:0.6999999999999998;" x1="632.4192" x2="632.4192" y1="178.057" y2="187.157"/><line style="stroke:#181818;stroke-width:0.6999999999999998;" x1="603.7192" x2="632.4192" y1="187.157" y2="187.157"/><polygon fill="#181818" points="610.7192,184.357,603.7192,187.157,610.7192,189.957,607.9192,187.157" style="stroke:#181818;stroke-width:0.6999999999999998;"/><text fill="#000000" font-family="sans-serif" font-size="9.1" font-weight="bold" lengthAdjust="spacing" textLength="11.1217" x="607.9192" y="174.3731">[4]</text><text fill="#000000" font-family="sans-serif" font-size="9.1" lengthAdjust="spacing" textLength="2.5283" x="619.041" y="174.3731">&#160;</text><text fill="#000000" font-family="sans-serif" font-size="9.1" lengthAdjust="spacing" textLength="85.9834" x="621.5692" y="174.3731">SimpleJpaRepository</text><text fill="#000000" font-family="sans-serif" font-size="9.1" lengthAdjust="spacing" textLength="2.5283" x="707.5527" y="174.3731">&#160;</text><text fill="#000000" font-family="sans-serif" font-size="9.1" lengthAdjust="spacing" textLength="29.3217" x="710.081" y="174.3731">(Proxy)</text><path d="M566.3,198.007 L566.3,213.407 A1.75,1.75 0 0 0 568.05,215.157 L1045.45,215.157 A1.75,1.75 0 0 0 1047.2,213.407 L1047.2,203.257 L1040.2,196.257 L568.05,196.257 A1.75,1.75 0 0 0 566.3,198.007 " fill="#FEFFDD" filter="url(#f1sqjc1fm516ng)" style="stroke:#181818;stroke-width:0.3499999999999999;"/><path d="M1040.2,196.257 L1040.2,202.382 A0.875,0.875 0 0 0 1041.075,203.257 L1047.2,203.257 L1040.2,196.257 " fill="#FEFFDD" style="stroke:#181818;stroke-width:0.3499999999999999;"/><text fill="#000000" font-family="sans-serif" font-size="9.1" font-weight="bold" lengthAdjust="spacing" textLength="11.1217" x="736.1079" y="209.5769">[5]</text><text fill="#000000" font-family="sans-serif" font-size="9.1" lengthAdjust="spacing" textLength="119.8596" x="749.7579" y="209.5769">Hibernate + HikariCP + JDBC</text><polygon fill="#181818" points="1003.0313,234.4645,1010.0313,237.2645,1003.0313,240.0645,1005.8313,237.2645" style="stroke:#181818;stroke-width:0.6999999999999998;"/><line style="stroke:#181818;stroke-width:0.6999999999999998;" x1="603.0192" x2="1007.2313" y1="237.2645" y2="237.2645"/><text fill="#000000" font-family="sans-serif" font-size="9.1" lengthAdjust="spacing" textLength="20.7372" x="607.9192" y="233.5806">SQL:</text><text fill="#000000" font-family="sans-serif" font-size="9.1" lengthAdjust="spacing" textLength="2.5283" x="628.6564" y="233.5806">&#160;</text><text fill="#000000" font-family="sans-serif" font-size="9.1" lengthAdjust="spacing" textLength="35.4002" x="631.1847" y="233.5806">SELECT</text><text fill="#000000" font-family="sans-serif" font-size="9.1" lengthAdjust="spacing" textLength="2.5283" x="666.5849" y="233.5806">&#160;</text><text fill="#000000" font-family="sans-serif" font-size="9.1" lengthAdjust="spacing" textLength="3.5414" x="669.1132" y="233.5806">*</text><text fill="#000000" font-family="sans-serif" font-size="9.1" lengthAdjust="spacing" textLength="2.5283" x="672.6545" y="233.5806">&#160;</text><text fill="#000000" font-family="sans-serif" font-size="9.1" lengthAdjust="spacing" textLength="26.789" x="675.1828" y="233.5806">FROM</text><text fill="#000000" font-family="sans-serif" font-size="9.1" lengthAdjust="spacing" textLength="2.5283" x="701.9718" y="233.5806">&#160;</text><text fill="#000000" font-family="sans-serif" font-size="9.1" lengthAdjust="spacing" textLength="27.3222" x="704.5001" y="233.5806">patient</text><path d="M15.75,247.7645 L56.1196,247.7645 L56.1196,254.2682 L49.1196,261.2682 L14,261.2682 L14,249.5145 A1.75,1.75 0 0 1 15.75,247.7645 " fill="#EEEEEE" style="stroke:#000000;stroke-width:1.0499999999999998;"/><rect fill="none" height="552.4723" rx="1.75" ry="1.75" style="stroke:#000000;stroke-width:1.0499999999999998;" width="1032.9187" x="14" y="247.7645"/><text fill="#000000" font-family="sans-serif" font-size="9.1" font-weight="bold" lengthAdjust="spacing" textLength="10.6196" x="24.5" y="258.2843">alt</text><text fill="#000000" font-family="sans-serif" font-size="7.7" font-weight="bold" lengthAdjust="spacing" textLength="68.4353" x="66.6196" y="257.4735">[&#1054;&#1096;&#1080;&#1073;&#1082;&#1072; &#1041;&#1044; (500)]</text><polygon fill="#FF0000" points="610.7192,274.7719,603.7192,277.5719,610.7192,280.3719,607.9192,277.5719" style="stroke:#FF0000;stroke-width:0.6999999999999998;"/><line style="stroke:#FF0000;stroke-width:0.6999999999999998;stroke-dasharray:2.0,2.0;" x1="606.5192" x2="1010.7313" y1="277.5719" y2="277.5719"/><text fill="#FF0000" font-family="sans-serif" font-size="9.1" lengthAdjust="spacing" textLength="46.0376" x="614.9192" y="273.888">Connection</text><text fill="#FF0000" font-family="sans-serif" font-size="9.1" lengthAdjust="spacing" textLength="2.5283" x="660.9569" y="273.888">&#160;</text><text fill="#FF0000" font-family="sans-serif" font-size="9.1" lengthAdjust="spacing" textLength="20.2217" x="663.4852" y="273.888">Error</text><text fill="#FF0000" font-family="sans-serif" font-size="9.1" lengthAdjust="spacing" textLength="2.5283" x="683.7069" y="273.888">&#160;</text><text fill="#FF0000" font-family="sans-serif" font-size="9.1" lengthAdjust="spacing" textLength="2.5283" x="686.2352" y="273.888">/</text><text fill="#FF0000" font-family="sans-serif" font-size="9.1" lengthAdjust="spacing" textLength="2.5283" x="688.7634" y="273.888">&#160;</text><text fill="#FF0000" font-family="sans-serif" font-size="9.1" lengthAdjust="spacing" textLength="32.872" x="691.2917" y="273.888">Timeout</text><polygon fill="#FF0000" points="498.4031,296.6756,491.4031,299.4756,498.4031,302.2756,495.6031,299.4756" style="stroke:#FF0000;stroke-width:0.6999999999999998;"/><line style="stroke:#FF0000;stroke-width:0.6999999999999998;stroke-dasharray:2.0,2.0;" x1="494.2031" x2="595.3192" y1="299.4756" y2="299.4756"/><text fill="#FF0000" font-family="sans-serif" font-size="9.1" lengthAdjust="spacing" textLength="88.5162" x="502.6031" y="295.7917">DataAccessException</text><polygon fill="#FF0000" points="342.5864,318.5793,335.5864,321.3793,342.5864,324.1793,339.7864,321.3793" style="stroke:#FF0000;stroke-width:0.6999999999999998;"/><line style="stroke:#FF0000;stroke-width:0.6999999999999998;stroke-dasharray:2.0,2.0;" x1="338.3864" x2="483.0031" y1="321.3793" y2="321.3793"/><text fill="#FF0000" font-family="sans-serif" font-size="9.1" lengthAdjust="spacing" textLength="39.9636" x="346.7864" y="317.6954">Exception</text><polygon fill="#FF0000" points="857.4005,340.483,864.4005,343.283,857.4005,346.083,860.2005,343.283" style="stroke:#FF0000;stroke-width:0.6999999999999998;"/><line style="stroke:#FF0000;stroke-width:0.6999999999999998;stroke-dasharray:2.0,2.0;" x1="334.8864" x2="861.6005" y1="343.283" y2="343.283"/><text fill="#FF0000" font-family="sans-serif" font-size="9.1" lengthAdjust="spacing" textLength="40.3368" x="339.7864" y="339.5991">&#1055;&#1077;&#1088;&#1077;&#1093;&#1074;&#1072;&#1090;</text><text fill="#FF0000" font-family="sans-serif" font-size="9.1" lengthAdjust="spacing" textLength="2.5283" x="380.1232" y="339.5991">&#160;</text><text fill="#FF0000" font-family="sans-serif" font-size="9.1" lengthAdjust="spacing" textLength="50.5876" x="382.6515" y="339.5991">&#1080;&#1089;&#1082;&#1083;&#1102;&#1095;&#1077;&#1085;&#1080;&#1103;</text><polygon fill="#FF0000" points="236.3399,362.3867,229.3399,365.1867,236.3399,367.9867,233.5399,365.1867" style="stroke:#FF0000;stroke-width:0.6999999999999998;"/><line style="stroke:#FF0000;stroke-width:0.6999999999999998;stroke-dasharray:2.0,2.0;" x1="232.1399" x2="868.6005" y1="365.1867" y2="365.1867"/><text fill="#FF0000" font-family="sans-serif" font-size="9.1" lengthAdjust="spacing" textLength="75.5771" x="240.5399" y="361.5028">&#1057;&#1092;&#1086;&#1088;&#1084;&#1080;&#1088;&#1086;&#1074;&#1072;&#1085;&#1085;&#1072;&#1103;</text><text fill="#FF0000" font-family="sans-serif" font-size="9.1" lengthAdjust="spacing" textLength="2.5283" x="316.117" y="361.5028">&#160;</text><text fill="#FF0000" font-family="sans-serif" font-size="9.1" lengthAdjust="spacing" textLength="41.15" x="318.6453" y="361.5028">&#1089;&#1090;&#1088;&#1091;&#1082;&#1090;&#1091;&#1088;&#1072;</text><text fill="#FF0000" font-family="sans-serif" font-size="9.1" lengthAdjust="spacing" textLength="2.5283" x="359.7952" y="361.5028">&#160;</text><text fill="#FF0000" font-family="sans-serif" font-size="9.1" lengthAdjust="spacing" textLength="31.7211" x="362.3235" y="361.5028">&#1086;&#1096;&#1080;&#1073;&#1082;&#1080;</text><polygon fill="#FF0000" points="74.4847,384.2904,67.4847,387.0904,74.4847,389.8904,71.6847,387.0904" style="stroke:#FF0000;stroke-width:0.6999999999999998;"/><line style="stroke:#FF0000;stroke-width:0.6999999999999998;stroke-dasharray:2.0,2.0;" x1="70.2847" x2="220.9399" y1="387.0904" y2="387.0904"/><text fill="#FF0000" font-family="sans-serif" font-size="9.1" lengthAdjust="spacing" textLength="15.183" x="78.6847" y="383.4065">500</text><text fill="#FF0000" font-family="sans-serif" font-size="9.1" lengthAdjust="spacing" textLength="2.5283" x="93.8677" y="383.4065">&#160;</text><text fill="#FF0000" font-family="sans-serif" font-size="9.1" lengthAdjust="spacing" textLength="45.0023" x="96.3959" y="383.4065">INTERNAL</text><text fill="#FF0000" font-family="sans-serif" font-size="9.1" lengthAdjust="spacing" textLength="2.5283" x="141.3983" y="383.4065">&#160;</text><text fill="#FF0000" font-family="sans-serif" font-size="9.1" lengthAdjust="spacing" textLength="37.422" x="143.9266" y="383.4065">SERVER</text><text fill="#FF0000" font-family="sans-serif" font-size="9.1" lengthAdjust="spacing" textLength="2.5283" x="181.3485" y="383.4065">&#160;</text><text fill="#FF0000" font-family="sans-serif" font-size="9.1" lengthAdjust="spacing" textLength="32.8631" x="183.8768" y="383.4065">ERROR</text><line style="stroke:#000000;stroke-width:0.6999999999999998;stroke-dasharray:2.0,2.0;" x1="14" x2="1046.9187" y1="393.3904" y2="393.3904"/><text fill="#000000" font-family="sans-serif" font-size="7.7" font-weight="bold" lengthAdjust="spacing" textLength="93.4828" x="17.5" y="401.6995">[&#1059;&#1089;&#1087;&#1077;&#1096;&#1085;&#1086;&#1077; &#1074;&#1099;&#1087;&#1086;&#1083;&#1085;&#1077;&#1085;&#1080;&#1077;]</text><polygon fill="#181818" points="610.7192,417.8357,603.7192,420.6357,610.7192,423.4357,607.9192,420.6357" style="stroke:#181818;stroke-width:0.6999999999999998;"/><line style="stroke:#181818;stroke-width:0.6999999999999998;stroke-dasharray:2.0,2.0;" x1="606.5192" x2="1014.2313" y1="420.6357" y2="420.6357"/><text fill="#000000" font-family="sans-serif" font-size="9.1" font-weight="bold" lengthAdjust="spacing" textLength="11.1217" x="614.9192" y="416.9519">[6]</text><text fill="#000000" font-family="sans-serif" font-size="9.1" lengthAdjust="spacing" textLength="2.5283" x="626.041" y="416.9519">&#160;</text><text fill="#000000" font-family="sans-serif" font-size="9.1" lengthAdjust="spacing" textLength="39.4526" x="628.5692" y="416.9519">ResultSet</text><line style="stroke:#181818;stroke-width:0.6999999999999998;" x1="603.0192" x2="632.4192" y1="442.5395" y2="442.5395"/><line style="stroke:#181818;stroke-width:0.6999999999999998;" x1="632.4192" x2="632.4192" y1="442.5395" y2="451.6395"/><line style="stroke:#181818;stroke-width:0.6999999999999998;" x1="603.7192" x2="632.4192" y1="451.6395" y2="451.6395"/><polygon fill="#181818" points="610.7192,448.8395,603.7192,451.6395,610.7192,454.4395,607.9192,451.6395" style="stroke:#181818;stroke-width:0.6999999999999998;"/><text fill="#000000" font-family="sans-serif" font-size="9.1" font-weight="bold" lengthAdjust="spacing" textLength="11.1217" x="607.9192" y="438.8556">[7]</text><text fill="#000000" font-family="sans-serif" font-size="9.1" lengthAdjust="spacing" textLength="2.5283" x="619.041" y="438.8556">&#160;</text><text fill="#000000" font-family="sans-serif" font-size="9.1" lengthAdjust="spacing" textLength="38.946" x="621.5692" y="438.8556">Hydration</text><text fill="#000000" font-family="sans-serif" font-size="9.1" lengthAdjust="spacing" textLength="2.5283" x="660.5153" y="438.8556">&#160;</text><text fill="#000000" font-family="sans-serif" font-size="9.1" lengthAdjust="spacing" textLength="42.483" x="663.0436" y="438.8556">(ResultSet</text><text fill="#000000" font-family="sans-serif" font-size="9.1" lengthAdjust="spacing" textLength="2.5283" x="705.5265" y="438.8556">&#160;</text><text fill="#000000" font-family="sans-serif" font-size="9.1" lengthAdjust="spacing" textLength="8.3446" x="708.0548" y="438.8556">-&gt;</text><text fill="#000000" font-family="sans-serif" font-size="9.1" lengthAdjust="spacing" textLength="2.5283" x="716.3994" y="438.8556">&#160;</text><text fill="#000000" font-family="sans-serif" font-size="9.1" lengthAdjust="spacing" textLength="31.3612" x="718.9277" y="438.8556">Patient)</text><polygon fill="#181818" points="498.4031,470.7432,491.4031,473.5432,498.4031,476.3432,495.6031,473.5432" style="stroke:#181818;stroke-width:0.6999999999999998;"/><line style="stroke:#181818;stroke-width:0.6999999999999998;stroke-dasharray:2.0,2.0;" x1="494.2031" x2="598.8192" y1="473.5432" y2="473.5432"/><text fill="#000000" font-family="sans-serif" font-size="9.1" font-weight="bold" lengthAdjust="spacing" textLength="11.1217" x="502.6031" y="469.8593">[8]</text><text fill="#000000" font-family="sans-serif" font-size="9.1" lengthAdjust="spacing" textLength="2.5283" x="513.7248" y="469.8593">&#160;</text><text fill="#000000" font-family="sans-serif" font-size="9.1" lengthAdjust="spacing" textLength="53.1204" x="516.2531" y="469.8593">List&lt;Patient&gt;</text><path d="M22.75,484.0432 L220.9389,484.0432 L220.9389,490.5469 L213.9389,497.5469 L21,497.5469 L21,485.7932 A1.75,1.75 0 0 1 22.75,484.0432 " fill="#EEEEEE" style="stroke:#000000;stroke-width:1.0499999999999998;"/><rect fill="none" height="311.2936" rx="1.75" ry="1.75" style="stroke:#000000;stroke-width:1.0499999999999998;" width="975.9439" x="21" y="484.0432"/><text fill="#000000" font-family="sans-serif" font-size="9.1" font-weight="bold" lengthAdjust="spacing" textLength="168.4389" x="31.5" y="494.563">&#1058;&#1088;&#1072;&#1085;&#1089;&#1092;&#1086;&#1088;&#1084;&#1072;&#1094;&#1080;&#1103; &#1076;&#1072;&#1085;&#1085;&#1099;&#1093; (Stream API)</text><polygon fill="#181818" points="753.7889,511.0506,760.7889,513.8506,753.7889,516.6506,756.5889,513.8506" style="stroke:#181818;stroke-width:0.6999999999999998;"/><line style="stroke:#181818;stroke-width:0.6999999999999998;" x1="490.7031" x2="757.9889" y1="513.8506" y2="513.8506"/><text fill="#000000" font-family="sans-serif" font-size="9.1" font-weight="bold" lengthAdjust="spacing" textLength="11.1217" x="495.6031" y="510.1667">[9]</text><text fill="#000000" font-family="sans-serif" font-size="9.1" lengthAdjust="spacing" textLength="2.5283" x="506.7248" y="510.1667">&#160;</text><text fill="#000000" font-family="sans-serif" font-size="9.1" lengthAdjust="spacing" textLength="60.1809" x="509.2531" y="510.1667">toDTO(patient)</text><path d="M29.75,524.3506 L70.1196,524.3506 L70.1196,530.8543 L63.1196,537.8543 L28,537.8543 L28,526.1006 A1.75,1.75 0 0 1 29.75,524.3506 " fill="#EEEEEE" style="stroke:#000000;stroke-width:1.0499999999999998;"/><rect fill="none" height="266.0861" rx="1.75" ry="1.75" style="stroke:#000000;stroke-width:1.0499999999999998;" width="961.9439" x="28" y="524.3506"/><text fill="#000000" font-family="sans-serif" font-size="9.1" font-weight="bold" lengthAdjust="spacing" textLength="10.6196" x="38.5" y="534.8704">alt</text><text fill="#000000" font-family="sans-serif" font-size="7.7" font-weight="bold" lengthAdjust="spacing" textLength="93.5693" x="80.6196" y="534.0597">[&#1054;&#1096;&#1080;&#1073;&#1082;&#1072; &#1084;&#1072;&#1087;&#1087;&#1080;&#1085;&#1075;&#1072; (500)]</text><polygon fill="#FF0000" points="498.4031,551.358,491.4031,554.158,498.4031,556.958,495.6031,554.158" style="stroke:#FF0000;stroke-width:0.6999999999999998;"/><line style="stroke:#FF0000;stroke-width:0.6999999999999998;stroke-dasharray:2.0,2.0;" x1="494.2031" x2="761.4889" y1="554.158" y2="554.158"/><text fill="#FF0000" font-family="sans-serif" font-size="9.1" lengthAdjust="spacing" textLength="73.8486" x="502.6031" y="550.4741">RuntimeException</text><polygon fill="#FF0000" points="342.5864,573.2617,335.5864,576.0617,342.5864,578.8617,339.7864,576.0617" style="stroke:#FF0000;stroke-width:0.6999999999999998;"/><line style="stroke:#FF0000;stroke-width:0.6999999999999998;stroke-dasharray:2.0,2.0;" x1="338.3864" x2="483.0031" y1="576.0617" y2="576.0617"/><text fill="#FF0000" font-family="sans-serif" font-size="9.1" lengthAdjust="spacing" textLength="39.9636" x="346.7864" y="572.3778">Exception</text><polygon fill="#FF0000" points="857.4005,595.1654,864.4005,597.9654,857.4005,600.7654,860.2005,597.9654" style="stroke:#FF0000;stroke-width:0.6999999999999998;"/><line style="stroke:#FF0000;stroke-width:0.6999999999999998;stroke-dasharray:2.0,2.0;" x1="334.8864" x2="861.6005" y1="597.9654" y2="597.9654"/><text fill="#000000" font-family="sans-serif" font-size="9.1" font-weight="bold" lengthAdjust="spacing" textLength="16.1827" x="339.7864" y="594.2815">[10]</text><text fill="#000000" font-family="sans-serif" font-size="9.1" lengthAdjust="spacing" textLength="2.5283" x="355.9691" y="594.2815">&#160;</text><text fill="#FF0000" font-family="sans-serif" font-size="9.1" lengthAdjust="spacing" textLength="40.3368" x="358.4974" y="594.2815">&#1055;&#1077;&#1088;&#1077;&#1093;&#1074;&#1072;&#1090;</text><text fill="#FF0000" font-family="sans-serif" font-size="9.1" lengthAdjust="spacing" textLength="2.5283" x="398.8342" y="594.2815">&#160;</text><text fill="#FF0000" font-family="sans-serif" font-size="9.1" lengthAdjust="spacing" textLength="50.5876" x="401.3625" y="594.2815">&#1080;&#1089;&#1082;&#1083;&#1102;&#1095;&#1077;&#1085;&#1080;&#1103;</text><polygon fill="#FF0000" points="236.3399,617.0691,229.3399,619.8691,236.3399,622.6691,233.5399,619.8691" style="stroke:#FF0000;stroke-width:0.6999999999999998;"/><line style="stroke:#FF0000;stroke-width:0.6999999999999998;stroke-dasharray:2.0,2.0;" x1="232.1399" x2="868.6005" y1="619.8691" y2="619.8691"/><text fill="#FF0000" font-family="sans-serif" font-size="9.1" lengthAdjust="spacing" textLength="75.5771" x="240.5399" y="616.1853">&#1057;&#1092;&#1086;&#1088;&#1084;&#1080;&#1088;&#1086;&#1074;&#1072;&#1085;&#1085;&#1072;&#1103;</text><text fill="#FF0000" font-family="sans-serif" font-size="9.1" lengthAdjust="spacing" textLength="2.5283" x="316.117" y="616.1853">&#160;</text><text fill="#FF0000" font-family="sans-serif" font-size="9.1" lengthAdjust="spacing" textLength="41.15" x="318.6453" y="616.1853">&#1089;&#1090;&#1088;&#1091;&#1082;&#1090;&#1091;&#1088;&#1072;</text><text fill="#FF0000" font-family="sans-serif" font-size="9.1" lengthAdjust="spacing" textLength="2.5283" x="359.7952" y="616.1853">&#160;</text><text fill="#FF0000" font-family="sans-serif" font-size="9.1" lengthAdjust="spacing" textLength="31.7211" x="362.3235" y="616.1853">&#1086;&#1096;&#1080;&#1073;&#1082;&#1080;</text><polygon fill="#FF0000" points="74.4847,638.9729,67.4847,641.7729,74.4847,644.5729,71.6847,641.7729" style="stroke:#FF0000;stroke-width:0.6999999999999998;"/><line style="stroke:#FF0000;stroke-width:0.6999999999999998;stroke-dasharray:2.0,2.0;" x1="70.2847" x2="220.9399" y1="641.7729" y2="641.7729"/><text fill="#FF0000" font-family="sans-serif" font-size="9.1" lengthAdjust="spacing" textLength="15.183" x="78.6847" y="638.089">500</text><text fill="#FF0000" font-family="sans-serif" font-size="9.1" lengthAdjust="spacing" textLength="2.5283" x="93.8677" y="638.089">&#160;</text><text fill="#FF0000" font-family="sans-serif" font-size="9.1" lengthAdjust="spacing" textLength="45.0023" x="96.3959" y="638.089">INTERNAL</text><text fill="#FF0000" font-family="sans-serif" font-size="9.1" lengthAdjust="spacing" textLength="2.5283" x="141.3983" y="638.089">&#160;</text><text fill="#FF0000" font-family="sans-serif" font-size="9.1" lengthAdjust="spacing" textLength="37.422" x="143.9266" y="638.089">SERVER</text><text fill="#FF0000" font-family="sans-serif" font-size="9.1" lengthAdjust="spacing" textLength="2.5283" x="181.3485" y="638.089">&#160;</text><text fill="#FF0000" font-family="sans-serif" font-size="9.1" lengthAdjust="spacing" textLength="32.8631" x="183.8768" y="638.089">ERROR</text><line style="stroke:#000000;stroke-width:0.6999999999999998;stroke-dasharray:2.0,2.0;" x1="28" x2="989.9439" y1="648.0729" y2="648.0729"/><text fill="#000000" font-family="sans-serif" font-size="7.7" font-weight="bold" lengthAdjust="spacing" textLength="79.5228" x="31.5" y="656.3819">[&#1059;&#1089;&#1087;&#1077;&#1096;&#1085;&#1099;&#1081; &#1084;&#1072;&#1087;&#1087;&#1080;&#1085;&#1075;]</text><polygon fill="#181818" points="498.4031,672.5182,491.4031,675.3182,498.4031,678.1182,495.6031,675.3182" style="stroke:#181818;stroke-width:0.6999999999999998;"/><line style="stroke:#181818;stroke-width:0.6999999999999998;stroke-dasharray:2.0,2.0;" x1="494.2031" x2="764.9889" y1="675.3182" y2="675.3182"/><text fill="#000000" font-family="sans-serif" font-size="9.1" lengthAdjust="spacing" textLength="88.5162" x="502.6031" y="671.6343">PatientResponseDTO</text><polygon fill="#181818" points="342.5864,694.4219,335.5864,697.2219,342.5864,700.0219,339.7864,697.2219" style="stroke:#181818;stroke-width:0.6999999999999998;"/><line style="stroke:#181818;stroke-width:0.6999999999999998;stroke-dasharray:2.0,2.0;" x1="338.3864" x2="486.5031" y1="697.2219" y2="697.2219"/><text fill="#000000" font-family="sans-serif" font-size="9.1" font-weight="bold" lengthAdjust="spacing" textLength="16.1827" x="346.7864" y="693.538">[11]</text><text fill="#000000" font-family="sans-serif" font-size="9.1" lengthAdjust="spacing" textLength="2.5283" x="362.9691" y="693.538">&#160;</text><text fill="#000000" font-family="sans-serif" font-size="9.1" lengthAdjust="spacing" textLength="113.3057" x="365.4974" y="693.538">List&lt;PatientResponseDTO&gt;</text><polygon fill="#181818" points="236.3399,716.3256,229.3399,719.1256,236.3399,721.9256,233.5399,719.1256" style="stroke:#181818;stroke-width:0.6999999999999998;"/><line style="stroke:#181818;stroke-width:0.6999999999999998;stroke-dasharray:2.0,2.0;" x1="232.1399" x2="330.6864" y1="719.1256" y2="719.1256"/><text fill="#000000" font-family="sans-serif" font-size="9.1" font-weight="bold" lengthAdjust="spacing" textLength="16.1827" x="240.5399" y="715.4417">[12]</text><text fill="#000000" font-family="sans-serif" font-size="9.1" lengthAdjust="spacing" textLength="2.5283" x="256.7226" y="715.4417">&#160;</text><text fill="#000000" font-family="sans-serif" font-size="9.1" lengthAdjust="spacing" textLength="63.7355" x="259.2509" y="715.4417">ResponseEntity</text><polygon fill="#181818" points="947.1185,738.2293,954.1185,741.0293,947.1185,743.8293,949.9185,741.0293" style="stroke:#181818;stroke-width:0.6999999999999998;"/><line style="stroke:#181818;stroke-width:0.6999999999999998;" x1="228.6399" x2="951.3185" y1="741.0293" y2="741.0293"/><text fill="#000000" font-family="sans-serif" font-size="9.1" font-weight="bold" lengthAdjust="spacing" textLength="16.1827" x="233.5399" y="737.3454">[13]</text><text fill="#000000" font-family="sans-serif" font-size="9.1" lengthAdjust="spacing" textLength="2.5283" x="249.7226" y="737.3454">&#160;</text><text fill="#000000" font-family="sans-serif" font-size="9.1" lengthAdjust="spacing" textLength="34.8981" x="252.2509" y="737.3454">Serialize</text><text fill="#000000" font-family="sans-serif" font-size="9.1" lengthAdjust="spacing" textLength="2.5283" x="287.149" y="737.3454">&#160;</text><text fill="#000000" font-family="sans-serif" font-size="9.1" lengthAdjust="spacing" textLength="7.5893" x="289.6773" y="737.3454">to</text><text fill="#000000" font-family="sans-serif" font-size="9.1" lengthAdjust="spacing" textLength="2.5283" x="297.2666" y="737.3454">&#160;</text><text fill="#000000" font-family="sans-serif" font-size="9.1" lengthAdjust="spacing" textLength="24.2696" x="299.7948" y="737.3454">JSON</text><polygon fill="#181818" points="236.3399,760.133,229.3399,762.933,236.3399,765.733,233.5399,762.933" style="stroke:#181818;stroke-width:0.6999999999999998;"/><line style="stroke:#181818;stroke-width:0.6999999999999998;stroke-dasharray:2.0,2.0;" x1="232.1399" x2="958.3185" y1="762.933" y2="762.933"/><text fill="#000000" font-family="sans-serif" font-size="9.1" font-weight="bold" lengthAdjust="spacing" textLength="16.1827" x="240.5399" y="759.2491">[14]</text><text fill="#000000" font-family="sans-serif" font-size="9.1" lengthAdjust="spacing" textLength="2.5283" x="256.7226" y="759.2491">&#160;</text><text fill="#000000" font-family="sans-serif" font-size="9.1" lengthAdjust="spacing" textLength="24.2696" x="259.2509" y="759.2491">JSON</text><text fill="#000000" font-family="sans-serif" font-size="9.1" lengthAdjust="spacing" textLength="2.5283" x="283.5205" y="759.2491">&#160;</text><text fill="#000000" font-family="sans-serif" font-size="9.1" lengthAdjust="spacing" textLength="23.772" x="286.0488" y="759.2491">String</text><polygon fill="#181818" points="74.4847,782.0367,67.4847,784.8367,74.4847,787.6367,71.6847,784.8367" style="stroke:#181818;stroke-width:0.6999999999999998;"/><line style="stroke:#181818;stroke-width:0.6999999999999998;stroke-dasharray:2.0,2.0;" x1="70.2847" x2="224.4399" y1="784.8367" y2="784.8367"/><text fill="#000000" font-family="sans-serif" font-size="9.1" font-weight="bold" lengthAdjust="spacing" textLength="16.1827" x="78.6847" y="781.1528">[15]</text><text fill="#000000" font-family="sans-serif" font-size="9.1" lengthAdjust="spacing" textLength="2.5283" x="94.8674" y="781.1528">&#160;</text><text fill="#000000" font-family="sans-serif" font-size="9.1" lengthAdjust="spacing" textLength="15.183" x="97.3957" y="781.1528">200</text><text fill="#000000" font-family="sans-serif" font-size="9.1" lengthAdjust="spacing" textLength="2.5283" x="112.5787" y="781.1528">&#160;</text><text fill="#000000" font-family="sans-serif" font-size="9.1" lengthAdjust="spacing" textLength="13.1479" x="115.1069" y="781.1528">OK</text><text fill="#000000" font-family="sans-serif" font-size="9.1" lengthAdjust="spacing" textLength="2.5283" x="128.2548" y="781.1528">&#160;</text><text fill="#000000" font-family="sans-serif" font-size="9.1" lengthAdjust="spacing" textLength="25.2916" x="130.7831" y="781.1528">(body:</text><text fill="#000000" font-family="sans-serif" font-size="9.1" lengthAdjust="spacing" textLength="2.5283" x="156.0747" y="781.1528">&#160;</text><text fill="#000000" font-family="sans-serif" font-size="9.1" lengthAdjust="spacing" textLength="27.3" x="158.603" y="781.1528">JSON)</text><!--SRC=[nLTTR-D457tFhnWrBscWQhVGBLjLbVBXjbkQfZWHFAnMQ68FxQYEnnfFIhDFwNONa1Q1a7Xc1Vo1KeWekxJyXV4_uiwCxTZvV60bB2LnP-uvzthkEUDfU4Rz07FSHQrJxB8lgN-21E-HGfXEsApdkpN6VSBHHcQyWIyQ90pn2MdHPmIjRwmL2XqLYtaVBLK2McD-sEiIleHmY2erLDorTXzPcohg0Yq5M53YYvMGy7Fga2LKtAW_h6zQ1GGNP13KeG7s1Lggqn22dLF2Mn3h4Q49worK_EoK2Z89E3RKa5zmvdbn1JN1lKMGLb8CnCVtYo0s2LX81UDzZL9_Be8qS134HPdRcO0zZtMmPrqu912K-VlOTvF7sRFsKV6GdfoA5lQwp9y47s3dB6I-ZexlaqJ4Tn5qeL1miS0T79Aq7v-x7REyrPYzwe4Q2YUSzO9ufDR7FfAleu6yZxwIm-WokaJo7taltqPNqTToAE_aRVGzYYvXy1Q-tyXhDNyDmRTgDdeEiJUej6UrqMgSDbpMzODALdQWjLieDwddi2FeEHO4fWjw01G0mQgjMwXSVlBWQRcCJeY85paiBUTXAj00jH806dTOezSLMjv4h-IVyWPgVHvzEuyiXXg-H2b0gTgl-JvGV5zGtwrutZXO1HcaLaiMzg62jMWtyCX1W4VQGgLZpYxwomRcCs1Xvo0S5V4-D4k3DnHudtO8zrMQz-3-37DQEuRRWtgrbakfCArF3k7BEhHgRLH6ktQpWU8b7rlngicBFO6A3HgAlir0C_Adw1jewM-cmp_87r5fOstDFAnkK1Mjh3mfSk8-JHvnss4UurjgR0VywHD7wHfPd3EELb6RTWdhYUrL7RQJCfcYKwwqSLcwEaYvuZYm9QL-cU19EvLI6VbaUMQZZMvIA3WmZvIlmGq3-Bmq4aAn_Dz6turyCS6QhZBmfOFAtQDCoX2vH3z7By1y0_atC0wKc-GriDz1KkKx4EyWkf9luFSAfg4tzscZRYVoksHg1SfTQG6LMhu0Q3DwVDIsxAFA8GZ8_jIoaMNRJJl7JZmGINRF-5Nl2KCevWwA7Xg_wPq31lJwo65UFHbhF5JgjadOys2R5jFAJsGwrLcRsXnzbsEjk5BAfA9Yco-FuySsYOyKno7eVpi6J5t5aRtLDRbp_g9w0jlWPTf4lJL2w-GVfe_Hg-WbAhK49_2UhHm_7bbgRBinhmzTsoDLcs3rThCK94-JHQNb6KmXFpdFs50VD0dsSYZjTnZ8cpovuZVP0fFQFL-0nsTxxDquTPvZrQjYJItMVxVkN0l_3rPUOEbtQEtaobXyZnEIzpYO-wyn-SoMJKOmwSag3E08IK3Iyvvmcfxp2ieU4XwCMpYJPUv2vjxuKpHcMgjIhCSRbQQrGE-YFuzuT2uPxz5EScmplFf80MLGxAa3js3eeDKycYt663mHa9m5ipNhSuUYGx3hm3y1ymfEUAVhoYXASUhZo3h8gVanAdMOsz_I6PRdSSFPBYSltosCtwjV-FmB]--></g></svg>