<svg xmlns="http://www.w3.org/2000/svg" xmlns:xlink="http://www.w3.org/1999/xlink" contentStyleType="text/css" height="1082px" preserveAspectRatio="none" style="width:1099px;height:1082px;background:#FFFFFF;" version="1.1" viewBox="0 0 1099 1082" width="1099px" zoomAndPan="magnify"><defs><filter height="300%" id="fdtnu13h65j93" width="300%" x="-1" y="-1"><feGaussianBlur result="blurOut" stdDeviation="2.0"/><feColorMatrix in="blurOut" result="blurOut2" type="matrix" values="0 0 0 0 0 0 0 0 0 0 0 0 0 0 0 0 0 0 .4 0"/><feOffset dx="4.0" dy="4.0" in="blurOut2" result="blurOut3"/><feBlend in="SourceGraphic" in2="blurOut3" mode="normal"/></filter></defs><g><rect fill="#5D6D7E" height="1070.8457" rx="2.5" ry="2.5" style="stroke:#181818;stroke-width:0.5;" width="758.9961" x="216.1504" y="6"/><text fill="#000000" font-family="sans-serif" font-size="13" font-weight="bold" lengthAdjust="spacing" textLength="76.5908" x="557.353" y="20.0283">auth-service</text><rect fill="#FFFFFF" filter="url(#fdtnu13h65j93)" height="731.9844" style="stroke:#181818;stroke-width:1.0;" width="10" x="278.895" y="158.0762"/><rect fill="#FFFFFF" filter="url(#fdtnu13h65j93)" height="547.2383" style="stroke:#181818;stroke-width:1.0;" width="10" x="484.9312" y="311.5313"/><rect fill="#FFFFFF" filter="url(#fdtnu13h65j93)" height="344.4922" style="stroke:#181818;stroke-width:1.0;" width="10" x="728.8608" y="482.9863"/><rect fill="#FFFFFF" filter="url(#fdtnu13h65j93)" height="281.9102" style="stroke:#181818;stroke-width:1.0;" width="10" x="937.0361" y="514.2773"/><rect fill="#E0FFFF" filter="url(#fdtnu13h65j93)" height="817.1484" rx="2.5" ry="2.5" style="stroke:#000000;stroke-width:1.5;" width="1077.1172" x="10" y="80.9121"/><rect fill="#FFE4E1" filter="url(#fdtnu13h65j93)" height="108.1641" rx="2.5" ry="2.5" style="stroke:#000000;stroke-width:1.5;" width="539.832" x="20" y="173.0762"/><rect fill="#FFE4E1" filter="url(#fdtnu13h65j93)" height="81.873" rx="2.5" ry="2.5" style="stroke:#000000;stroke-width:1.5;" width="533.1758" x="20" y="326.5313"/><rect fill="#FFE4E1" filter="url(#fdtnu13h65j93)" height="144.4551" rx="2.5" ry="2.5" style="stroke:#000000;stroke-width:1.5;" width="961.1465" x="20" y="621.4414"/><rect fill="#F5F5F5" filter="url(#fdtnu13h65j93)" height="94.1641" rx="2.5" ry="2.5" style="stroke:#000000;stroke-width:1.5;" width="765.9961" x="229" y="912.0605"/><line style="stroke:#181818;stroke-width:0.5;stroke-dasharray:5.0,5.0;" x1="78" x2="78" y1="63.9121" y2="1023.2246"/><line style="stroke:#181818;stroke-width:0.5;stroke-dasharray:5.0,5.0;" x1="283.1504" x2="283.1504" y1="63.9121" y2="1023.2246"/><line style="stroke:#181818;stroke-width:0.5;stroke-dasharray:5.0,5.0;" x1="489.6865" x2="489.6865" y1="63.9121" y2="1023.2246"/><line style="stroke:#181818;stroke-width:0.5;stroke-dasharray:5.0,5.0;" x1="733.6196" x2="733.6196" y1="63.9121" y2="1023.2246"/><line style="stroke:#181818;stroke-width:0.5;stroke-dasharray:5.0,5.0;" x1="941.9258" x2="941.9258" y1="63.9121" y2="1023.2246"/><text fill="#000000" font-family="sans-serif" font-size="14" lengthAdjust="spacing" textLength="91.0342" x="30" y="60.3984">API Consumer</text><path d="M58.0171,17.291 L58.0171,41.291 M58.0171,29.291 L75.0171,29.291 " fill="none" filter="url(#fdtnu13h65j93)" style="stroke:#181818;stroke-width:0.5;"/><ellipse cx="87.0171" cy="29.291" fill="#FEF9E7" filter="url(#fdtnu13h65j93)" rx="12" ry="12" style="stroke:#181818;stroke-width:0.5;"/><text fill="#000000" font-family="sans-serif" font-size="14" lengthAdjust="spacing" textLength="91.0342" x="30" y="1037.332">API Consumer</text><path d="M58.0171,1044.8457 L58.0171,1068.8457 M58.0171,1056.8457 L75.0171,1056.8457 " fill="none" filter="url(#fdtnu13h65j93)" style="stroke:#181818;stroke-width:0.5;"/><ellipse cx="87.0171" cy="1056.8457" fill="#FEF9E7" filter="url(#fdtnu13h65j93)" rx="12" ry="12" style="stroke:#181818;stroke-width:0.5;"/><rect fill="#FFFFFF" filter="url(#fdtnu13h65j93)" height="32.6211" rx="2.5" ry="2.5" style="stroke:#181818;stroke-width:0.5;" width="124.4893" x="220.1504" y="27.291"/><text fill="#000000" font-family="sans-serif" font-size="14" lengthAdjust="spacing" textLength="110.4893" x="227.1504" y="49.3984">DispatcherServlet</text><rect fill="#FFFFFF" filter="url(#fdtnu13h65j93)" height="32.6211" rx="2.5" ry="2.5" style="stroke:#181818;stroke-width:0.5;" width="124.4893" x="220.1504" y="1022.2246"/><text fill="#000000" font-family="sans-serif" font-size="14" lengthAdjust="spacing" textLength="110.4893" x="227.1504" y="1044.332">DispatcherServlet</text><rect fill="#FFFFFF" filter="url(#fdtnu13h65j93)" height="32.6211" rx="2.5" ry="2.5" style="stroke:#181818;stroke-width:0.5;" width="103.4893" x="436.6865" y="27.291"/><text fill="#000000" font-family="sans-serif" font-size="14" lengthAdjust="spacing" textLength="89.4893" x="443.6865" y="49.3984">AuthController</text><rect fill="#FFFFFF" filter="url(#fdtnu13h65j93)" height="32.6211" rx="2.5" ry="2.5" style="stroke:#181818;stroke-width:0.5;" width="103.4893" x="436.6865" y="1022.2246"/><text fill="#000000" font-family="sans-serif" font-size="14" lengthAdjust="spacing" textLength="89.4893" x="443.6865" y="1044.332">AuthController</text><rect fill="#FFFFFF" filter="url(#fdtnu13h65j93)" height="32.6211" rx="2.5" ry="2.5" style="stroke:#181818;stroke-width:0.5;" width="89.4824" x="687.6196" y="27.291"/><text fill="#000000" font-family="sans-serif" font-size="14" lengthAdjust="spacing" textLength="75.4824" x="694.6196" y="49.3984">AuthService</text><rect fill="#FFFFFF" filter="url(#fdtnu13h65j93)" height="32.6211" rx="2.5" ry="2.5" style="stroke:#181818;stroke-width:0.5;" width="89.4824" x="687.6196" y="1022.2246"/><text fill="#000000" font-family="sans-serif" font-size="14" lengthAdjust="spacing" textLength="75.4824" x="694.6196" y="1044.332">AuthService</text><rect fill="#FFFFFF" filter="url(#fdtnu13h65j93)" height="32.6211" rx="2.5" ry="2.5" style="stroke:#181818;stroke-width:0.5;" width="55.2207" x="912.9258" y="27.291"/><text fill="#000000" font-family="sans-serif" font-size="14" lengthAdjust="spacing" textLength="41.2207" x="919.9258" y="49.3984">JwtUtil</text><rect fill="#FFFFFF" filter="url(#fdtnu13h65j93)" height="32.6211" rx="2.5" ry="2.5" style="stroke:#181818;stroke-width:0.5;" width="55.2207" x="912.9258" y="1022.2246"/><text fill="#000000" font-family="sans-serif" font-size="14" lengthAdjust="spacing" textLength="41.2207" x="919.9258" y="1044.332">JwtUtil</text><rect fill="#FFFFFF" filter="url(#fdtnu13h65j93)" height="731.9844" style="stroke:#181818;stroke-width:1.0;" width="10" x="278.895" y="158.0762"/><rect fill="#FFFFFF" filter="url(#fdtnu13h65j93)" height="547.2383" style="stroke:#181818;stroke-width:1.0;" width="10" x="484.9312" y="311.5313"/><rect fill="#FFFFFF" filter="url(#fdtnu13h65j93)" height="344.4922" style="stroke:#181818;stroke-width:1.0;" width="10" x="728.8608" y="482.9863"/><rect fill="#FFFFFF" filter="url(#fdtnu13h65j93)" height="281.9102" style="stroke:#181818;stroke-width:1.0;" width="10" x="937.0361" y="514.2773"/><path d="M12.5,80.9121 L685.6206,80.9121 L685.6206,107.4941 L675.6206,117.4941 L10,117.4941 L10,83.4121 A2.5,2.5 0 0 1 12.5,80.9121 " fill="#EEEEEE" style="stroke:#000000;stroke-width:1.5;"/><rect fill="none" height="817.1484" rx="2.5" ry="2.5" style="stroke:#000000;stroke-width:1.5;" width="1077.1172" x="10" y="80.9121"/><text fill="#000000" font-family="sans-serif" font-size="13" font-weight="bold" lengthAdjust="spacing" textLength="176.1855" x="25" y="95.9404">&#1055;&#1088;&#1086;&#1094;&#1077;&#1089;&#1089; &#1074;&#1072;&#1083;&#1080;&#1076;&#1072;&#1094;&#1080;&#1080; &#1090;&#1086;&#1082;&#1077;&#1085;&#1072;</text><text fill="#000000" font-family="sans-serif" font-size="13" font-weight="bold" lengthAdjust="spacing" textLength="630.6206" x="25" y="113.2314">&#1042;&#1085;&#1077;&#1096;&#1085;&#1080;&#1081; URL: GET {gateway-host}/auth/validate &#8594; &#1042;&#1085;&#1091;&#1090;&#1088;&#1077;&#1085;&#1085;&#1080;&#1081; URL: GET auth-service:4005/validate</text><polygon fill="#181818" points="266.895,154.0762,276.895,158.0762,266.895,162.0762,270.895,158.0762" style="stroke:#181818;stroke-width:1.0;"/><line style="stroke:#181818;stroke-width:1.0;" x1="78.5171" x2="272.895" y1="158.0762" y2="158.0762"/><text fill="#000000" font-family="sans-serif" font-size="13" font-weight="bold" lengthAdjust="spacing" textLength="15.8882" x="85.5171" y="135.5225">[1]</text><text fill="#000000" font-family="sans-serif" font-size="13" lengthAdjust="spacing" textLength="3.6118" x="101.4053" y="135.5225">&#160;</text><text fill="#000000" font-family="sans-serif" font-size="13" lengthAdjust="spacing" textLength="26.7236" x="105.0171" y="135.5225">GET</text><text fill="#000000" font-family="sans-serif" font-size="13" lengthAdjust="spacing" textLength="3.6118" x="131.7407" y="135.5225">&#160;</text><text fill="#000000" font-family="sans-serif" font-size="13" lengthAdjust="spacing" textLength="48.4199" x="135.3525" y="135.5225">/validate</text><text fill="#000000" font-family="sans-serif" font-size="13" lengthAdjust="spacing" textLength="83.8208" x="85.5171" y="152.8135">(Authorization:</text><text fill="#000000" font-family="sans-serif" font-size="13" lengthAdjust="spacing" textLength="3.6118" x="169.3379" y="152.8135">&#160;</text><text fill="#000000" font-family="sans-serif" font-size="13" lengthAdjust="spacing" textLength="39.019" x="172.9497" y="152.8135">Bearer</text><text fill="#000000" font-family="sans-serif" font-size="13" lengthAdjust="spacing" textLength="3.6118" x="211.9688" y="152.8135">&#160;</text><text fill="#000000" font-family="sans-serif" font-size="13" lengthAdjust="spacing" textLength="51.3145" x="215.5806" y="152.8135">&lt;token&gt;)</text><path d="M22.5,173.0762 L80.1709,173.0762 L80.1709,182.3672 L70.1709,192.3672 L20,192.3672 L20,175.5762 A2.5,2.5 0 0 1 22.5,173.0762 " fill="#EEEEEE" style="stroke:#000000;stroke-width:1.5;"/><rect fill="none" height="108.1641" rx="2.5" ry="2.5" style="stroke:#000000;stroke-width:1.5;" width="539.832" x="20" y="173.0762"/><text fill="#000000" font-family="sans-serif" font-size="13" font-weight="bold" lengthAdjust="spacing" textLength="15.1709" x="35" y="188.1045">alt</text><text fill="#000000" font-family="sans-serif" font-size="11" font-weight="bold" lengthAdjust="spacing" textLength="206.9375" x="95.1709" y="186.9463">[&#1047;&#1072;&#1075;&#1086;&#1083;&#1086;&#1074;&#1086;&#1082; Authorization &#1086;&#1090;&#1089;&#1091;&#1090;&#1089;&#1090;&#1074;&#1091;&#1077;&#1090;]</text><polygon fill="#FF0000" points="89.5171,211.6582,79.5171,215.6582,89.5171,219.6582,85.5171,215.6582" style="stroke:#FF0000;stroke-width:1.0;"/><line style="stroke:#FF0000;stroke-width:1.0;stroke-dasharray:2.0,2.0;" x1="83.5171" x2="277.895" y1="215.6582" y2="215.6582"/><text fill="#FF0000" font-family="sans-serif" font-size="13" lengthAdjust="spacing" textLength="21.6899" x="95.5171" y="210.3955">400</text><text fill="#FF0000" font-family="sans-serif" font-size="13" lengthAdjust="spacing" textLength="3.6118" x="117.207" y="210.3955">&#160;</text><text fill="#FF0000" font-family="sans-serif" font-size="13" lengthAdjust="spacing" textLength="26.73" x="120.8188" y="210.3955">BAD</text><text fill="#FF0000" font-family="sans-serif" font-size="13" lengthAdjust="spacing" textLength="3.6118" x="147.5488" y="210.3955">&#160;</text><text fill="#FF0000" font-family="sans-serif" font-size="13" lengthAdjust="spacing" textLength="62.8418" x="151.1606" y="210.3955">REQUEST</text><path d="M293,231.1582 L293,270.1582 A2.5,2.5 0 0 0 295.5,272.6582 L543.5,272.6582 A2.5,2.5 0 0 0 546,270.1582 L546,238.6582 L536,228.6582 L295.5,228.6582 A2.5,2.5 0 0 0 293,231.1582 " fill="#FEFFDD" filter="url(#fdtnu13h65j93)" style="stroke:#181818;stroke-width:0.5;"/><path d="M536,228.6582 L536,237.4082 A1.25,1.25 0 0 0 537.25,238.6582 L546,238.6582 L536,228.6582 " fill="#FEFFDD" style="stroke:#181818;stroke-width:0.5;"/><text fill="#000000" font-family="sans-serif" font-size="13" lengthAdjust="spacing" textLength="232.832" x="299" y="247.6865">Spring &#1074;&#1086;&#1079;&#1074;&#1088;&#1072;&#1097;&#1072;&#1077;&#1090; 400 &#1072;&#1074;&#1090;&#1086;&#1084;&#1072;&#1090;&#1080;&#1095;&#1077;&#1089;&#1082;&#1080;</text><text fill="#000000" font-family="sans-serif" font-size="13" lengthAdjust="spacing" textLength="208.3618" x="299" y="264.9775">&#1076;&#1086; &#1074;&#1099;&#1087;&#1086;&#1083;&#1085;&#1077;&#1085;&#1080;&#1103; &#1082;&#1086;&#1076;&#1072; &#1082;&#1086;&#1085;&#1090;&#1088;&#1086;&#1083;&#1083;&#1077;&#1088;&#1072;.</text><polygon fill="#181818" points="472.9312,307.5313,482.9312,311.5313,472.9312,315.5313,476.9312,311.5313" style="stroke:#181818;stroke-width:1.0;"/><line style="stroke:#181818;stroke-width:1.0;" x1="288.895" x2="478.9312" y1="311.5313" y2="311.5313"/><text fill="#000000" font-family="sans-serif" font-size="13" font-weight="bold" lengthAdjust="spacing" textLength="15.8882" x="295.895" y="306.2686">[2]</text><text fill="#000000" font-family="sans-serif" font-size="13" lengthAdjust="spacing" textLength="3.6118" x="311.7832" y="306.2686">&#160;</text><text fill="#000000" font-family="sans-serif" font-size="13" lengthAdjust="spacing" textLength="157.5361" x="315.395" y="306.2686">validateToken(authHeader)</text><path d="M22.5,326.5313 L80.1709,326.5313 L80.1709,335.8223 L70.1709,345.8223 L20,345.8223 L20,329.0313 A2.5,2.5 0 0 1 22.5,326.5313 " fill="#EEEEEE" style="stroke:#000000;stroke-width:1.5;"/><rect fill="none" height="81.873" rx="2.5" ry="2.5" style="stroke:#000000;stroke-width:1.5;" width="533.1758" x="20" y="326.5313"/><text fill="#000000" font-family="sans-serif" font-size="13" font-weight="bold" lengthAdjust="spacing" textLength="15.1709" x="35" y="341.5596">alt</text><text fill="#000000" font-family="sans-serif" font-size="11" font-weight="bold" lengthAdjust="spacing" textLength="176.1558" x="95.1709" y="340.4014">[&#1055;&#1088;&#1077;&#1092;&#1080;&#1082;&#1089; "Bearer " &#1086;&#1090;&#1089;&#1091;&#1090;&#1089;&#1090;&#1074;&#1091;&#1077;&#1090;]</text><polygon fill="#FF0000" points="299.895,365.1133,289.895,369.1133,299.895,373.1133,295.895,369.1133" style="stroke:#FF0000;stroke-width:1.0;"/><line style="stroke:#FF0000;stroke-width:1.0;stroke-dasharray:2.0,2.0;" x1="293.895" x2="483.9312" y1="369.1133" y2="369.1133"/><text fill="#FF0000" font-family="sans-serif" font-size="13" lengthAdjust="spacing" textLength="21.6899" x="305.895" y="363.8506">401</text><text fill="#FF0000" font-family="sans-serif" font-size="13" lengthAdjust="spacing" textLength="3.6118" x="327.585" y="363.8506">&#160;</text><text fill="#FF0000" font-family="sans-serif" font-size="13" lengthAdjust="spacing" textLength="103.2764" x="331.1968" y="363.8506">UNAUTHORIZED</text><polygon fill="#FF0000" points="89.5171,396.4043,79.5171,400.4043,89.5171,404.4043,85.5171,400.4043" style="stroke:#FF0000;stroke-width:1.0;"/><line style="stroke:#FF0000;stroke-width:1.0;stroke-dasharray:2.0,2.0;" x1="83.5171" x2="277.895" y1="400.4043" y2="400.4043"/><text fill="#FF0000" font-family="sans-serif" font-size="13" lengthAdjust="spacing" textLength="21.6899" x="95.5171" y="395.1416">401</text><text fill="#FF0000" font-family="sans-serif" font-size="13" lengthAdjust="spacing" textLength="3.6118" x="117.207" y="395.1416">&#160;</text><text fill="#FF0000" font-family="sans-serif" font-size="13" lengthAdjust="spacing" textLength="103.2764" x="120.8188" y="395.1416">UNAUTHORIZED</text><line style="stroke:#181818;stroke-width:1.0;" x1="494.9312" x2="536.9312" y1="438.6953" y2="438.6953"/><line style="stroke:#181818;stroke-width:1.0;" x1="536.9312" x2="536.9312" y1="438.6953" y2="451.6953"/><line style="stroke:#181818;stroke-width:1.0;" x1="495.9312" x2="536.9312" y1="451.6953" y2="451.6953"/><polygon fill="#181818" points="505.9312,447.6953,495.9312,451.6953,505.9312,455.6953,501.9312,451.6953" style="stroke:#181818;stroke-width:1.0;"/><text fill="#000000" font-family="sans-serif" font-size="13" font-weight="bold" lengthAdjust="spacing" textLength="15.8882" x="501.9312" y="433.4326">[3]</text><text fill="#000000" font-family="sans-serif" font-size="13" lengthAdjust="spacing" textLength="3.6118" x="517.8193" y="433.4326">&#160;</text><text fill="#000000" font-family="sans-serif" font-size="13" lengthAdjust="spacing" textLength="140.188" x="521.4312" y="433.4326">authHeader.substring(7)</text><text fill="#000000" font-family="sans-serif" font-size="13" lengthAdjust="spacing" textLength="3.6118" x="661.6191" y="433.4326">&#160;</text><text fill="#000000" font-family="sans-serif" font-size="13" lengthAdjust="spacing" textLength="11.2163" x="665.231" y="433.4326">&#8594;</text><text fill="#000000" font-family="sans-serif" font-size="13" lengthAdjust="spacing" textLength="3.6118" x="676.4473" y="433.4326">&#160;</text><text fill="#000000" font-family="sans-serif" font-size="13" lengthAdjust="spacing" textLength="31.8018" x="680.0591" y="433.4326">token</text><polygon fill="#181818" points="716.8608,478.9863,726.8608,482.9863,716.8608,486.9863,720.8608,482.9863" style="stroke:#181818;stroke-width:1.0;"/><line style="stroke:#181818;stroke-width:1.0;" x1="494.9312" x2="722.8608" y1="482.9863" y2="482.9863"/><text fill="#000000" font-family="sans-serif" font-size="13" font-weight="bold" lengthAdjust="spacing" textLength="15.8882" x="501.9312" y="477.7236">[4]</text><text fill="#000000" font-family="sans-serif" font-size="13" lengthAdjust="spacing" textLength="3.6118" x="517.8193" y="477.7236">&#160;</text><text fill="#000000" font-family="sans-serif" font-size="13" lengthAdjust="spacing" textLength="121.3989" x="521.4312" y="477.7236">validateToken(token)</text><polygon fill="#181818" points="925.0361,510.2773,935.0361,514.2773,925.0361,518.2773,929.0361,514.2773" style="stroke:#181818;stroke-width:1.0;"/><line style="stroke:#181818;stroke-width:1.0;" x1="738.8608" x2="931.0361" y1="514.2773" y2="514.2773"/><text fill="#000000" font-family="sans-serif" font-size="13" font-weight="bold" lengthAdjust="spacing" textLength="15.8882" x="745.8608" y="509.0146">[5]</text><text fill="#000000" font-family="sans-serif" font-size="13" lengthAdjust="spacing" textLength="3.6118" x="761.749" y="509.0146">&#160;</text><text fill="#000000" font-family="sans-serif" font-size="13" lengthAdjust="spacing" textLength="159.6753" x="765.3608" y="509.0146">jwtUtil.validateToken(token)</text><path d="M805,529.7773 L805,603.7773 A2.5,2.5 0 0 0 807.5,606.2773 L1071.5,606.2773 A2.5,2.5 0 0 0 1074,603.7773 L1074,537.2773 L1064,527.2773 L807.5,527.2773 A2.5,2.5 0 0 0 805,529.7773 " fill="#FFFFE0" filter="url(#fdtnu13h65j93)" style="stroke:#181818;stroke-width:0.5;"/><path d="M1064,527.2773 L1064,536.0273 A1.25,1.25 0 0 0 1065.25,537.2773 L1074,537.2773 L1064,527.2773 " fill="#FFFFE0" style="stroke:#181818;stroke-width:0.5;"/><text fill="#000000" font-family="sans-serif" font-size="13" lengthAdjust="spacing" textLength="98.5537" x="811" y="546.3057">&#1055;&#1088;&#1086;&#1074;&#1077;&#1088;&#1082;&#1080; JJWT:</text><text fill="#000000" font-family="sans-serif" font-size="13" lengthAdjust="spacing" textLength="248.1172" x="811" y="563.5967">5.1 &#1057;&#1090;&#1088;&#1091;&#1082;&#1090;&#1091;&#1088;&#1072; (Header.Payload.Signature)</text><text fill="#000000" font-family="sans-serif" font-size="13" lengthAdjust="spacing" textLength="219.3623" x="811" y="580.8877">5.2 &#1055;&#1086;&#1076;&#1087;&#1080;&#1089;&#1100; (secretKey vs Signature)</text><text fill="#000000" font-family="sans-serif" font-size="13" lengthAdjust="spacing" textLength="187.8716" x="811" y="598.1787">5.3 &#1057;&#1088;&#1086;&#1082; &#1076;&#1077;&#1081;&#1089;&#1090;&#1074;&#1080;&#1103; (exp vs now)</text><path d="M22.5,621.4414 L80.1709,621.4414 L80.1709,630.7324 L70.1709,640.7324 L20,640.7324 L20,623.9414 A2.5,2.5 0 0 1 22.5,621.4414 " fill="#EEEEEE" style="stroke:#000000;stroke-width:1.5;"/><rect fill="none" height="144.4551" rx="2.5" ry="2.5" style="stroke:#000000;stroke-width:1.5;" width="961.1465" x="20" y="621.4414"/><text fill="#000000" font-family="sans-serif" font-size="13" font-weight="bold" lengthAdjust="spacing" textLength="15.1709" x="35" y="636.4697">alt</text><text fill="#000000" font-family="sans-serif" font-size="11" font-weight="bold" lengthAdjust="spacing" textLength="403.1167" x="95.1709" y="635.3115">[JwtException (&#1085;&#1077;&#1074;&#1077;&#1088;&#1085;&#1072;&#1103; &#1087;&#1086;&#1076;&#1087;&#1080;&#1089;&#1100; / &#1080;&#1089;&#1090;&#1105;&#1082; &#1089;&#1088;&#1086;&#1082; / &#1087;&#1086;&#1074;&#1088;&#1077;&#1078;&#1076;&#1105;&#1085;&#1085;&#1072;&#1103; &#1089;&#1090;&#1088;&#1091;&#1082;&#1090;&#1091;&#1088;&#1072;)]</text><polygon fill="#FF0000" points="749.8608,660.0234,739.8608,664.0234,749.8608,668.0234,745.8608,664.0234" style="stroke:#FF0000;stroke-width:1.0;"/><line style="stroke:#FF0000;stroke-width:1.0;stroke-dasharray:2.0,2.0;" x1="743.8608" x2="936.0361" y1="664.0234" y2="664.0234"/><text fill="#FF0000" font-family="sans-serif" font-size="13" lengthAdjust="spacing" textLength="76.5908" x="755.8608" y="658.7607">JwtException</text><polygon fill="#FF0000" points="505.9312,691.3145,495.9312,695.3145,505.9312,699.3145,501.9312,695.3145" style="stroke:#FF0000;stroke-width:1.0;"/><line style="stroke:#FF0000;stroke-width:1.0;stroke-dasharray:2.0,2.0;" x1="499.9312" x2="727.8608" y1="695.3145" y2="695.3145"/><text fill="#000000" font-family="sans-serif" font-size="13" lengthAdjust="spacing" textLength="27.46" x="511.9312" y="690.0518">false</text><polygon fill="#FF0000" points="299.895,722.6055,289.895,726.6055,299.895,730.6055,295.895,726.6055" style="stroke:#FF0000;stroke-width:1.0;"/><line style="stroke:#FF0000;stroke-width:1.0;stroke-dasharray:2.0,2.0;" x1="293.895" x2="483.9312" y1="726.6055" y2="726.6055"/><text fill="#FF0000" font-family="sans-serif" font-size="13" lengthAdjust="spacing" textLength="21.6899" x="305.895" y="721.3428">401</text><text fill="#FF0000" font-family="sans-serif" font-size="13" lengthAdjust="spacing" textLength="3.6118" x="327.585" y="721.3428">&#160;</text><text fill="#FF0000" font-family="sans-serif" font-size="13" lengthAdjust="spacing" textLength="103.2764" x="331.1968" y="721.3428">UNAUTHORIZED</text><polygon fill="#FF0000" points="89.5171,753.8965,79.5171,757.8965,89.5171,761.8965,85.5171,757.8965" style="stroke:#FF0000;stroke-width:1.0;"/><line style="stroke:#FF0000;stroke-width:1.0;stroke-dasharray:2.0,2.0;" x1="83.5171" x2="277.895" y1="757.8965" y2="757.8965"/><text fill="#FF0000" font-family="sans-serif" font-size="13" lengthAdjust="spacing" textLength="21.6899" x="95.5171" y="752.6338">401</text><text fill="#FF0000" font-family="sans-serif" font-size="13" lengthAdjust="spacing" textLength="3.6118" x="117.207" y="752.6338">&#160;</text><text fill="#FF0000" font-family="sans-serif" font-size="13" lengthAdjust="spacing" textLength="103.2764" x="120.8188" y="752.6338">UNAUTHORIZED</text><polygon fill="#008000" points="749.8608,792.1875,739.8608,796.1875,749.8608,800.1875,745.8608,796.1875" style="stroke:#008000;stroke-width:1.0;"/><line style="stroke:#008000;stroke-width:1.0;stroke-dasharray:2.0,2.0;" x1="743.8608" x2="941.0361" y1="796.1875" y2="796.1875"/><text fill="#000000" font-family="sans-serif" font-size="13" lengthAdjust="spacing" textLength="23.8481" x="755.8608" y="790.9248">void</text><text fill="#000000" font-family="sans-serif" font-size="13" lengthAdjust="spacing" textLength="3.6118" x="779.709" y="790.9248">&#160;</text><text fill="#000000" font-family="sans-serif" font-size="13" lengthAdjust="spacing" textLength="55.6182" x="783.3208" y="790.9248">(success)</text><polygon fill="#008000" points="505.9312,823.4785,495.9312,827.4785,505.9312,831.4785,501.9312,827.4785" style="stroke:#008000;stroke-width:1.0;"/><line style="stroke:#008000;stroke-width:1.0;stroke-dasharray:2.0,2.0;" x1="499.9312" x2="732.8608" y1="827.4785" y2="827.4785"/><text fill="#000000" font-family="sans-serif" font-size="13" font-weight="bold" lengthAdjust="spacing" textLength="15.8882" x="511.9312" y="822.2158">[6]</text><text fill="#000000" font-family="sans-serif" font-size="13" lengthAdjust="spacing" textLength="3.6118" x="527.8193" y="822.2158">&#160;</text><text fill="#000000" font-family="sans-serif" font-size="13" lengthAdjust="spacing" textLength="22.4009" x="531.4312" y="822.2158">true</text><polygon fill="#008000" points="299.895,854.7695,289.895,858.7695,299.895,862.7695,295.895,858.7695" style="stroke:#008000;stroke-width:1.0;"/><line style="stroke:#008000;stroke-width:1.0;stroke-dasharray:2.0,2.0;" x1="293.895" x2="488.9312" y1="858.7695" y2="858.7695"/><text fill="#000000" font-family="sans-serif" font-size="13" font-weight="bold" lengthAdjust="spacing" textLength="15.8882" x="305.895" y="853.5068">[7]</text><text fill="#000000" font-family="sans-serif" font-size="13" lengthAdjust="spacing" textLength="3.6118" x="321.7832" y="853.5068">&#160;</text><text fill="#000000" font-family="sans-serif" font-size="13" lengthAdjust="spacing" textLength="117.0508" x="325.395" y="853.5068">ResponseEntity.ok()</text><polygon fill="#008000" points="89.5171,886.0605,79.5171,890.0605,89.5171,894.0605,85.5171,890.0605" style="stroke:#008000;stroke-width:1.0;"/><line style="stroke:#008000;stroke-width:1.0;stroke-dasharray:2.0,2.0;" x1="83.5171" x2="282.895" y1="890.0605" y2="890.0605"/><text fill="#000000" font-family="sans-serif" font-size="13" font-weight="bold" lengthAdjust="spacing" textLength="15.8882" x="95.5171" y="884.7979">[8]</text><text fill="#000000" font-family="sans-serif" font-size="13" lengthAdjust="spacing" textLength="3.6118" x="111.4053" y="884.7979">&#160;</text><text fill="#000000" font-family="sans-serif" font-size="13" lengthAdjust="spacing" textLength="21.6899" x="115.0171" y="884.7979">200</text><text fill="#000000" font-family="sans-serif" font-size="13" lengthAdjust="spacing" textLength="3.6118" x="136.707" y="884.7979">&#160;</text><text fill="#000000" font-family="sans-serif" font-size="13" lengthAdjust="spacing" textLength="18.7827" x="140.3188" y="884.7979">OK</text><path d="M231.5,912.0605 L382.8115,912.0605 L382.8115,921.3516 L372.8115,931.3516 L229,931.3516 L229,914.5605 A2.5,2.5 0 0 1 231.5,912.0605 " fill="#EEEEEE" style="stroke:#000000;stroke-width:1.5;"/><rect fill="none" height="94.1641" rx="2.5" ry="2.5" style="stroke:#000000;stroke-width:1.5;" width="765.9961" x="229" y="912.0605"/><text fill="#000000" font-family="sans-serif" font-size="13" font-weight="bold" lengthAdjust="spacing" textLength="108.8115" x="244" y="927.0889">&#1057;&#1080;&#1089;&#1090;&#1077;&#1084;&#1085;&#1099;&#1077; &#1089;&#1073;&#1086;&#1080;</text><path d="M239,938.8516 L239,994.8516 A2.5,2.5 0 0 0 241.5,997.3516 L981.5,997.3516 A2.5,2.5 0 0 0 984,994.8516 L984,946.3516 L974,936.3516 L241.5,936.3516 A2.5,2.5 0 0 0 239,938.8516 " fill="#FFE4E1" filter="url(#fdtnu13h65j93)" style="stroke:#181818;stroke-width:0.5;"/><path d="M974,936.3516 L974,945.1016 A1.25,1.25 0 0 0 975.25,946.3516 L984,946.3516 L974,936.3516 " fill="#FFE4E1" style="stroke:#181818;stroke-width:0.5;"/><text fill="#000000" font-family="sans-serif" font-size="13" lengthAdjust="spacing" textLength="304.5605" x="453.7178" y="955.3799">&#1050;&#1088;&#1080;&#1090;&#1080;&#1095;&#1077;&#1089;&#1082;&#1080;&#1081; &#1089;&#1073;&#1086;&#1081; &#8212; &#1085;&#1077;&#1086;&#1073;&#1088;&#1072;&#1073;&#1086;&#1090;&#1072;&#1085;&#1085;&#1086;&#1077; &#1080;&#1089;&#1082;&#1083;&#1102;&#1095;&#1077;&#1085;&#1080;&#1077;</text><text fill="#000000" font-family="sans-serif" font-size="13" lengthAdjust="spacing" textLength="253.7412" x="453.7178" y="972.6709">(&#1086;&#1096;&#1080;&#1073;&#1082;&#1072; &#1082;&#1086;&#1085;&#1092;&#1080;&#1075;&#1091;&#1088;&#1072;&#1094;&#1080;&#1080; &#1089;&#1077;&#1082;&#1088;&#1077;&#1090;&#1085;&#1086;&#1075;&#1086; &#1082;&#1083;&#1102;&#1095;&#1072;)</text><text fill="#000000" font-family="sans-serif" font-size="13" lengthAdjust="spacing" textLength="212.0498" x="453.7178" y="989.9619">&#8594; 500 INTERNAL SERVER ERROR</text><!--SRC=[pLNTJXj75BxVfpWoDpO9vYSuj1QovE0bWV2Jxff6RSZ5n9xOMvPTQtPiSAf8OAeqLQfMZIfLwatLD-3FhO5WNc7s5V8aFMTsrs38psqjsHxDdE_CVD_vpaomuNWD9jWcs7LMzRSShmPIDBaH31Oil-bLvtpXSG6vA_FBR7kP1m6hSTjvmM4gDs4OpoYMYJQaYeyMOCxtWkOc5obW0HJdO6JUdF_IdA6mRKYnfgoF1Loqd0fFmKYkTBSqOng07ymldOhJO9w4LCa96anMwbpO6EjogRELR1XvN7SalmaeObxSMGhVTUEzvwHmFnbl9yV0u7ZyqVZ5BRac7LV7uZY9uruLa9TXr8JVRC38abEhoxasyq3z5UweVlXATSFTS1VKeTfNPwgdZjK-JlPK3yAEwgjJrLNdQd_TKs_nlnk-nj-UEe4rQoaFzyqoV5zZac-nzbZT3-JBST9llCLSfuhJyFxLMo1Wk1TsS3jATGr-LU_yzCH4RW0sD4aiq5Y1XBrrAm-ZeqycduwEQk0WRjrBarY-S5umwVXU7kvn9j0MizBVu5uX4oLYBegox0IoRVa11_K7yZr2WcVuFIIYC9G5K9iEAhEdVplgCDn3zXsTYZvueh6n9oE2LvyMy91vcAtuhY_oD5D07d2lM0BB_6hDjCkputgjC01xFceZg1JWFyTKUR0RWaokJ_8lRhQ3LVW9JuXR0cN3uQ6knpjSwAXU-2FL3QlJmyeSgpuYmpVgGlCvrphtmby1r_jKq6Xmhcj04MS8nXso-a1eaKWXebI8N1cBFKLY9pgNISqqrUi1PrKkFg8hsQeR_e1LFaLRfU9Qf3wdfzxsKb7IP5ZHILXRAQwL7wnQ2z-QfHkIVgOUdq0F-4T7Y1JGzEyG_Kl2sQ3vB91Kf_HCHbjR6smOdFHfhE3qJGKrAAD1IJ3Yg6TZJ8umtqNzdFqWrXYOo6-XkBhVTMT_mrtNtyh7pOrkeZgZIM1nyN4vl-xbifEW_YOVeFod-Bz7Fe1qJF0HQxi-gsPjf-OnsHGyGv0fJATzT86csWr_XdJ0AuBBXxmDBRoPXeBlKFuTtK-8wAgJgDhQZcc-tI24vszzs3n8nDoky8PkmBGsSaG1Ro2oyyNGCSP13phXRxWP3g9TnwEmGttT_AEESVKynklW8UQPWNz8mqi3nOKPTj7Lqztmtw2KWnoHZPupD-3_9vSdH6k2S- -IAixbeUKxLQnkirB19pGkqLLY2IQceTrwbzog7-SXWaceFh4EdA50YmSDV7-vwKb7jhF-HZfZN26MeEZMZr1V46eARy3LXpgmobb5EYrwNEAJNPz6WeQXwSPlddu9xKri7VHcP1cqnZky3z-eBff27Q1VUjTwgcJVZlfgVjwSDYUnfVv4m_I6xrvyo6Bu2RpV-HsqO_lgWAn5qnYzhztNnurePmITXRzG0lqETl7jmgZNE3p0fS4zJRVdKUJGv2tUHSYflbexEjyHtVb9jdriFRgFSgZJmahPj5QAIs2RrjUc1QPbhLfQZ_y0]--></g></svg>