<svg xmlns="http://www.w3.org/2000/svg" xmlns:xlink="http://www.w3.org/1999/xlink" contentStyleType="text/css" height="546px" preserveAspectRatio="none" style="width:619px;height:546px;background:#FFFFFF;" version="1.1" viewBox="0 0 619 546" width="619px" zoomAndPan="magnify"><defs><filter height="300%" id="f6zff5dvu0d8h" width="300%" x="-1" y="-1"><feGaussianBlur result="blurOut" stdDeviation="2.0"/><feColorMatrix in="blurOut" result="blurOut2" type="matrix" values="0 0 0 0 0 0 0 0 0 0 0 0 0 0 0 0 0 0 .4 0"/><feOffset dx="4.0" dy="4.0" in="blurOut2" result="blurOut3"/><feBlend in="SourceGraphic" in2="blurOut3" mode="normal"/></filter></defs><g><rect fill="#5D6D7E" height="534.6563" rx="2.5" ry="2.5" style="stroke:#181818;stroke-width:0.5;" width="402.875" x="26" y="6"/><text fill="#000000" font-family="sans-serif" font-size="13" font-weight="bold" lengthAdjust="spacing" textLength="104.7935" x="175.0408" y="20.0283">analytics-service</text><rect fill="#FFFFFF" filter="url(#f6zff5dvu0d8h)" height="321.25" style="stroke:#181818;stroke-width:1.0;" width="10" x="83.6895" y="154.7852"/><rect fill="#FFFFFF" filter="url(#f6zff5dvu0d8h)" height="57.582" style="stroke:#181818;stroke-width:1.0;" width="10" x="338.6133" y="186.0762"/><rect fill="#FFFFFF" filter="url(#f6zff5dvu0d8h)" height="393.832" style="stroke:#181818;stroke-width:1.0;" width="10" x="457.7749" y="97.2031"/><rect fill="#E0FFFF" filter="url(#f6zff5dvu0d8h)" height="371.832" rx="2.5" ry="2.5" style="stroke:#000000;stroke-width:1.5;" width="597.7778" x="10" y="112.2031"/><rect fill="#F0FFF0" filter="url(#f6zff5dvu0d8h)" height="244.668" rx="2.5" ry="2.5" style="stroke:#000000;stroke-width:1.5;" width="577.7778" x="20" y="201.0762"/><path d="M20,340.2402 L597.7778,340.2402 L597.7778,443.2441 A2.5,2.5 0 0 1 595.2778,445.7441 L22.5,445.7441 A2.5,2.5 0 0 1 20,443.2441 L20,340.2402 " fill="#FFE4E1" style="stroke:none;stroke-width:1.0;"/><line style="stroke:#181818;stroke-width:0.5;stroke-dasharray:5.0,5.0;" x1="88" x2="88" y1="63.9121" y2="501.0352"/><line style="stroke:#181818;stroke-width:0.5;stroke-dasharray:5.0,5.0;" x1="343.3516" x2="343.3516" y1="63.9121" y2="501.0352"/><line style="stroke:#181818;stroke-width:0.5;stroke-dasharray:5.0,5.0;" x1="461.875" x2="461.875" y1="63.9121" y2="501.0352"/><rect fill="#FFFFFF" filter="url(#f6zff5dvu0d8h)" height="32.6211" rx="2.5" ry="2.5" style="stroke:#181818;stroke-width:0.5;" width="114.3789" x="30" y="27.291"/><text fill="#000000" font-family="sans-serif" font-size="14" lengthAdjust="spacing" textLength="100.3789" x="37" y="49.3984">KafkaConsumer</text><rect fill="#FFFFFF" filter="url(#f6zff5dvu0d8h)" height="32.6211" rx="2.5" ry="2.5" style="stroke:#181818;stroke-width:0.5;" width="114.3789" x="30" y="500.0352"/><text fill="#000000" font-family="sans-serif" font-size="14" lengthAdjust="spacing" textLength="100.3789" x="37" y="522.1426">KafkaConsumer</text><rect fill="#FFFFFF" filter="url(#f6zff5dvu0d8h)" height="32.6211" rx="2.5" ry="2.5" style="stroke:#181818;stroke-width:0.5;" width="159.5234" x="262.3516" y="27.291"/><text fill="#000000" font-family="sans-serif" font-size="14" lengthAdjust="spacing" textLength="145.5234" x="269.3516" y="49.3984">PatientEvent (Protobuf)</text><rect fill="#FFFFFF" filter="url(#f6zff5dvu0d8h)" height="32.6211" rx="2.5" ry="2.5" style="stroke:#181818;stroke-width:0.5;" width="159.5234" x="262.3516" y="500.0352"/><text fill="#000000" font-family="sans-serif" font-size="14" lengthAdjust="spacing" textLength="145.5234" x="269.3516" y="522.1426">PatientEvent (Protobuf)</text><path d="M439.875,35.291 L485.6748,35.291 C490.6748,35.291 490.6748,49.6016 490.6748,49.6016 C490.6748,49.6016 490.6748,63.9121 485.6748,63.9121 L439.875,63.9121 C434.875,63.9121 434.875,49.6016 434.875,49.6016 C434.875,49.6016 434.875,35.291 439.875,35.291 " fill="#FADBD8" filter="url(#f6zff5dvu0d8h)" style="stroke:#181818;stroke-width:0.5;"/><path d="M485.6748,35.291 C480.6748,35.291 480.6748,49.6016 480.6748,49.6016 C480.6748,63.9121 485.6748,63.9121 485.6748,63.9121 " fill="none" style="stroke:#181818;stroke-width:0.5;"/><text fill="#000000" font-family="sans-serif" font-size="14" lengthAdjust="spacing" textLength="35.7998" x="439.875" y="55.3984">Kafka</text><path d="M439.875,500.0352 L485.6748,500.0352 C490.6748,500.0352 490.6748,514.3457 490.6748,514.3457 C490.6748,514.3457 490.6748,528.6563 485.6748,528.6563 L439.875,528.6563 C434.875,528.6563 434.875,514.3457 434.875,514.3457 C434.875,514.3457 434.875,500.0352 439.875,500.0352 " fill="#FADBD8" filter="url(#f6zff5dvu0d8h)" style="stroke:#181818;stroke-width:0.5;"/><path d="M485.6748,500.0352 C480.6748,500.0352 480.6748,514.3457 480.6748,514.3457 C480.6748,528.6563 485.6748,528.6563 485.6748,528.6563 " fill="none" style="stroke:#181818;stroke-width:0.5;"/><text fill="#000000" font-family="sans-serif" font-size="14" lengthAdjust="spacing" textLength="35.7998" x="439.875" y="520.1426">Kafka</text><rect fill="#FFFFFF" filter="url(#f6zff5dvu0d8h)" height="321.25" style="stroke:#181818;stroke-width:1.0;" width="10" x="83.6895" y="154.7852"/><rect fill="#FFFFFF" filter="url(#f6zff5dvu0d8h)" height="57.582" style="stroke:#181818;stroke-width:1.0;" width="10" x="338.6133" y="186.0762"/><rect fill="#FFFFFF" filter="url(#f6zff5dvu0d8h)" height="393.832" style="stroke:#181818;stroke-width:1.0;" width="10" x="457.7749" y="97.2031"/><polygon fill="#181818" points="445.7749,93.2031,455.7749,97.2031,445.7749,101.2031,449.7749,97.2031" style="stroke:#181818;stroke-width:1.0;"/><line style="stroke:#181818;stroke-width:1.0;" x1="0" x2="451.7749" y1="97.2031" y2="97.2031"/><text fill="#000000" font-family="sans-serif" font-size="13" lengthAdjust="spacing" textLength="37.9844" x="7" y="91.9404">&#1053;&#1086;&#1074;&#1086;&#1077;</text><text fill="#000000" font-family="sans-serif" font-size="13" lengthAdjust="spacing" textLength="3.6118" x="44.9844" y="91.9404">&#160;</text><text fill="#000000" font-family="sans-serif" font-size="13" lengthAdjust="spacing" textLength="68.0024" x="48.5962" y="91.9404">&#1089;&#1086;&#1086;&#1073;&#1097;&#1077;&#1085;&#1080;&#1077;</text><text fill="#000000" font-family="sans-serif" font-size="13" lengthAdjust="spacing" textLength="3.6118" x="116.5986" y="91.9404">&#160;</text><text fill="#000000" font-family="sans-serif" font-size="13" lengthAdjust="spacing" textLength="6.9063" x="120.2104" y="91.9404">&#1074;</text><text fill="#000000" font-family="sans-serif" font-size="13" lengthAdjust="spacing" textLength="3.6118" x="127.1167" y="91.9404">&#160;</text><text fill="#000000" font-family="sans-serif" font-size="13" lengthAdjust="spacing" textLength="40.4028" x="130.7285" y="91.9404">&#1090;&#1086;&#1087;&#1080;&#1082;&#1077;</text><text fill="#000000" font-family="sans-serif" font-size="13" lengthAdjust="spacing" textLength="3.6118" x="171.1313" y="91.9404">&#160;</text><text fill="#000000" font-family="sans-serif" font-size="13" lengthAdjust="spacing" textLength="48.2612" x="174.7432" y="91.9404">"patient"</text><path d="M12.5,112.2031 L294.2495,112.2031 L294.2495,121.4941 L284.2495,131.4941 L10,131.4941 L10,114.7031 A2.5,2.5 0 0 1 12.5,112.2031 " fill="#EEEEEE" style="stroke:#000000;stroke-width:1.5;"/><rect fill="none" height="371.832" rx="2.5" ry="2.5" style="stroke:#000000;stroke-width:1.5;" width="597.7778" x="10" y="112.2031"/><text fill="#000000" font-family="sans-serif" font-size="13" font-weight="bold" lengthAdjust="spacing" textLength="239.2495" x="25" y="127.2314">&#1040;&#1083;&#1075;&#1086;&#1088;&#1080;&#1090;&#1084; &#1086;&#1073;&#1088;&#1072;&#1073;&#1086;&#1090;&#1082;&#1080; (consumeEvent)</text><polygon fill="#181818" points="104.6895,150.7852,94.6895,154.7852,104.6895,158.7852,100.6895,154.7852" style="stroke:#181818;stroke-width:1.0;"/><line style="stroke:#181818;stroke-width:1.0;" x1="98.6895" x2="456.7749" y1="154.7852" y2="154.7852"/><text fill="#000000" font-family="sans-serif" font-size="13" lengthAdjust="spacing" textLength="122.1162" x="110.6895" y="149.5225">consumeEvent(byte[]</text><text fill="#000000" font-family="sans-serif" font-size="13" lengthAdjust="spacing" textLength="3.6118" x="232.8057" y="149.5225">&#160;</text><text fill="#000000" font-family="sans-serif" font-size="13" lengthAdjust="spacing" textLength="36.1309" x="236.4175" y="149.5225">event)</text><polygon fill="#181818" points="326.6133,182.0762,336.6133,186.0762,326.6133,190.0762,330.6133,186.0762" style="stroke:#181818;stroke-width:1.0;"/><line style="stroke:#181818;stroke-width:1.0;" x1="93.6895" x2="332.6133" y1="186.0762" y2="186.0762"/><text fill="#000000" font-family="sans-serif" font-size="13" lengthAdjust="spacing" textLength="103.3018" x="100.6895" y="180.8135">parseFrom(byte[])</text><path d="M22.5,201.0762 L80.1709,201.0762 L80.1709,210.3672 L70.1709,220.3672 L20,220.3672 L20,203.5762 A2.5,2.5 0 0 1 22.5,201.0762 " fill="#EEEEEE" style="stroke:#000000;stroke-width:1.5;"/><rect fill="none" height="244.668" rx="2.5" ry="2.5" style="stroke:#000000;stroke-width:1.5;" width="577.7778" x="20" y="201.0762"/><text fill="#000000" font-family="sans-serif" font-size="13" font-weight="bold" lengthAdjust="spacing" textLength="15.1709" x="35" y="216.1045">alt</text><text fill="#000000" font-family="sans-serif" font-size="11" font-weight="bold" lengthAdjust="spacing" textLength="154.666" x="95.1709" y="214.9463">[&#1059;&#1089;&#1087;&#1077;&#1096;&#1085;&#1072;&#1103; &#1076;&#1077;&#1089;&#1077;&#1088;&#1080;&#1072;&#1083;&#1080;&#1079;&#1072;&#1094;&#1080;&#1103;]</text><polygon fill="#181818" points="104.6895,239.6582,94.6895,243.6582,104.6895,247.6582,100.6895,243.6582" style="stroke:#181818;stroke-width:1.0;"/><line style="stroke:#181818;stroke-width:1.0;stroke-dasharray:2.0,2.0;" x1="98.6895" x2="342.6133" y1="243.6582" y2="243.6582"/><text fill="#000000" font-family="sans-serif" font-size="13" lengthAdjust="spacing" textLength="73.7153" x="110.6895" y="238.3955">PatientEvent</text><text fill="#000000" font-family="sans-serif" font-size="13" lengthAdjust="spacing" textLength="3.6118" x="184.4048" y="238.3955">&#160;</text><text fill="#000000" font-family="sans-serif" font-size="13" lengthAdjust="spacing" textLength="46.23" x="188.0166" y="238.3955">(Object)</text><line style="stroke:#181818;stroke-width:1.0;" x1="93.6895" x2="135.6895" y1="274.9492" y2="274.9492"/><line style="stroke:#181818;stroke-width:1.0;" x1="135.6895" x2="135.6895" y1="274.9492" y2="287.9492"/><line style="stroke:#181818;stroke-width:1.0;" x1="94.6895" x2="135.6895" y1="287.9492" y2="287.9492"/><polygon fill="#181818" points="104.6895,283.9492,94.6895,287.9492,104.6895,291.9492,100.6895,287.9492" style="stroke:#181818;stroke-width:1.0;"/><text fill="#000000" font-family="sans-serif" font-size="13" lengthAdjust="spacing" textLength="76.3115" x="100.6895" y="269.6865">&#1048;&#1079;&#1074;&#1083;&#1077;&#1095;&#1077;&#1085;&#1080;&#1077;:</text><text fill="#000000" font-family="sans-serif" font-size="13" lengthAdjust="spacing" textLength="3.6118" x="177.001" y="269.6865">&#160;</text><text fill="#000000" font-family="sans-serif" font-size="13" lengthAdjust="spacing" textLength="53.4854" x="180.6128" y="269.6865">patientId,</text><text fill="#000000" font-family="sans-serif" font-size="13" lengthAdjust="spacing" textLength="3.6118" x="234.0981" y="269.6865">&#160;</text><text fill="#000000" font-family="sans-serif" font-size="13" lengthAdjust="spacing" textLength="36.1309" x="237.71" y="269.6865">name,</text><text fill="#000000" font-family="sans-serif" font-size="13" lengthAdjust="spacing" textLength="3.6118" x="273.8408" y="269.6865">&#160;</text><text fill="#000000" font-family="sans-serif" font-size="13" lengthAdjust="spacing" textLength="31.0654" x="277.4526" y="269.6865">email</text><line style="stroke:#008000;stroke-width:1.0;" x1="93.6895" x2="135.6895" y1="319.2402" y2="319.2402"/><line style="stroke:#008000;stroke-width:1.0;" x1="135.6895" x2="135.6895" y1="319.2402" y2="332.2402"/><line style="stroke:#008000;stroke-width:1.0;" x1="94.6895" x2="135.6895" y1="332.2402" y2="332.2402"/><polygon fill="#008000" points="104.6895,328.2402,94.6895,332.2402,104.6895,336.2402,100.6895,332.2402" style="stroke:#008000;stroke-width:1.0;"/><text fill="#008000" font-family="sans-serif" font-size="13" lengthAdjust="spacing" textLength="105.0601" x="100.6895" y="313.9775">log.info("Received</text><text fill="#008000" font-family="sans-serif" font-size="13" lengthAdjust="spacing" textLength="3.6118" x="205.7495" y="313.9775">&#160;</text><text fill="#008000" font-family="sans-serif" font-size="13" lengthAdjust="spacing" textLength="40.4727" x="209.3613" y="313.9775">Patient</text><text fill="#008000" font-family="sans-serif" font-size="13" lengthAdjust="spacing" textLength="3.6118" x="249.834" y="313.9775">&#160;</text><text fill="#008000" font-family="sans-serif" font-size="13" lengthAdjust="spacing" textLength="36.8545" x="253.4458" y="313.9775">Event:</text><text fill="#008000" font-family="sans-serif" font-size="13" lengthAdjust="spacing" textLength="3.6118" x="290.3003" y="313.9775">&#160;</text><text fill="#008000" font-family="sans-serif" font-size="13" lengthAdjust="spacing" textLength="27.0029" x="293.9121" y="313.9775">[...]")</text><path d="M342.2256,305.4492 L342.2256,327.4492 A2.5,2.5 0 0 0 344.7256,329.9492 L570.7256,329.9492 A2.5,2.5 0 0 0 573.2256,327.4492 L573.2256,312.9492 L563.2256,302.9492 L344.7256,302.9492 A2.5,2.5 0 0 0 342.2256,305.4492 " fill="#FEFFDD" filter="url(#f6zff5dvu0d8h)" style="stroke:#181818;stroke-width:0.5;"/><path d="M563.2256,302.9492 L563.2256,311.6992 A1.25,1.25 0 0 0 564.4756,312.9492 L573.2256,312.9492 L563.2256,302.9492 " fill="#FEFFDD" style="stroke:#181818;stroke-width:0.5;"/><text fill="#000000" font-family="sans-serif" font-size="13" lengthAdjust="spacing" textLength="210.8628" x="348.2256" y="321.9775">&#1042;&#1099;&#1074;&#1086;&#1076; &#1076;&#1072;&#1085;&#1085;&#1099;&#1093; &#1087;&#1072;&#1094;&#1080;&#1077;&#1085;&#1090;&#1072; &#1074; &#1082;&#1086;&#1085;&#1089;&#1086;&#1083;&#1100;</text><line style="stroke:#000000;stroke-width:1.0;stroke-dasharray:2.0,2.0;" x1="20" x2="597.7778" y1="341.2402" y2="341.2402"/><text fill="#000000" font-family="sans-serif" font-size="11" font-weight="bold" lengthAdjust="spacing" textLength="233.5728" x="25" y="353.1104">[&#1053;&#1077;&#1074;&#1077;&#1088;&#1085;&#1099;&#1081; &#1092;&#1086;&#1088;&#1084;&#1072;&#1090; / &#1076;&#1072;&#1085;&#1085;&#1099;&#1077; &#1087;&#1086;&#1074;&#1088;&#1077;&#1078;&#1076;&#1077;&#1085;&#1099;]</text><polygon fill="#FF0000" points="104.6895,376.1621,94.6895,380.1621,104.6895,384.1621,100.6895,380.1621" style="stroke:#FF0000;stroke-width:1.0;"/><line style="stroke:#FF0000;stroke-width:1.0;stroke-dasharray:2.0,2.0;" x1="98.6895" x2="342.6133" y1="380.1621" y2="380.1621"/><text fill="#FF0000" font-family="sans-serif" font-size="13" lengthAdjust="spacing" textLength="31.7891" x="110.6895" y="374.8994">throw</text><text fill="#FF0000" font-family="sans-serif" font-size="13" lengthAdjust="spacing" textLength="3.6118" x="142.4785" y="374.8994">&#160;</text><text fill="#FF0000" font-family="sans-serif" font-size="13" lengthAdjust="spacing" textLength="177.0425" x="146.0903" y="374.8994">InvalidProtocolBufferException</text><line style="stroke:#FF0000;stroke-width:1.0;" x1="93.6895" x2="135.6895" y1="418.0986" y2="418.0986"/><line style="stroke:#FF0000;stroke-width:1.0;" x1="135.6895" x2="135.6895" y1="418.0986" y2="431.0986"/><line style="stroke:#FF0000;stroke-width:1.0;" x1="94.6895" x2="135.6895" y1="431.0986" y2="431.0986"/><polygon fill="#FF0000" points="104.6895,427.0986,94.6895,431.0986,104.6895,435.0986,100.6895,431.0986" style="stroke:#FF0000;stroke-width:1.0;"/><text fill="#FF0000" font-family="sans-serif" font-size="13" lengthAdjust="spacing" textLength="86.2393" x="100.6895" y="412.8359">log.error("Error</text><text fill="#FF0000" font-family="sans-serif" font-size="13" lengthAdjust="spacing" textLength="3.6118" x="186.9287" y="412.8359">&#160;</text><text fill="#FF0000" font-family="sans-serif" font-size="13" lengthAdjust="spacing" textLength="72.2617" x="190.5405" y="412.8359">deserializing</text><text fill="#FF0000" font-family="sans-serif" font-size="13" lengthAdjust="spacing" textLength="3.6118" x="262.8022" y="412.8359">&#160;</text><text fill="#FF0000" font-family="sans-serif" font-size="13" lengthAdjust="spacing" textLength="40.0283" x="266.4141" y="412.8359">event",</text><text fill="#FF0000" font-family="sans-serif" font-size="13" lengthAdjust="spacing" textLength="3.6118" x="306.4424" y="412.8359">&#160;</text><text fill="#FF0000" font-family="sans-serif" font-size="13" lengthAdjust="spacing" textLength="11.5591" x="310.0542" y="412.8359">e)</text><path d="M342.9238,395.6621 L342.9238,434.6621 A2.5,2.5 0 0 0 345.4238,437.1621 L564.4238,437.1621 A2.5,2.5 0 0 0 566.9238,434.6621 L566.9238,403.1621 L556.9238,393.1621 L345.4238,393.1621 A2.5,2.5 0 0 0 342.9238,395.6621 " fill="#FEFFDD" filter="url(#f6zff5dvu0d8h)" style="stroke:#181818;stroke-width:0.5;"/><path d="M556.9238,393.1621 L556.9238,401.9121 A1.25,1.25 0 0 0 558.1738,403.1621 L566.9238,403.1621 L556.9238,393.1621 " fill="#FEFFDD" style="stroke:#181818;stroke-width:0.5;"/><text fill="#000000" font-family="sans-serif" font-size="13" font-weight="bold" lengthAdjust="spacing" textLength="102.3496" x="348.9238" y="412.1904">&#1060;&#1080;&#1082;&#1089;&#1072;&#1094;&#1080;&#1103; &#1089;&#1073;&#1086;&#1103;:</text><text fill="#000000" font-family="sans-serif" font-size="13" lengthAdjust="spacing" textLength="203.9438" x="348.9238" y="429.4814">&#1044;&#1072;&#1085;&#1085;&#1099;&#1077; &#1085;&#1077; &#1084;&#1086;&#1075;&#1091;&#1090; &#1073;&#1099;&#1090;&#1100; &#1087;&#1088;&#1086;&#1095;&#1080;&#1090;&#1072;&#1085;&#1099;</text><polygon fill="#181818" points="445.7749,472.0352,455.7749,476.0352,445.7749,480.0352,449.7749,476.0352" style="stroke:#181818;stroke-width:1.0;"/><line style="stroke:#181818;stroke-width:1.0;stroke-dasharray:2.0,2.0;" x1="88.6895" x2="451.7749" y1="476.0352" y2="476.0352"/><text fill="#000000" font-family="sans-serif" font-size="13" lengthAdjust="spacing" textLength="34.6772" x="95.6895" y="470.7725">Offset</text><text fill="#000000" font-family="sans-serif" font-size="13" lengthAdjust="spacing" textLength="3.6118" x="130.3667" y="470.7725">&#160;</text><text fill="#000000" font-family="sans-serif" font-size="13" lengthAdjust="spacing" textLength="44.7764" x="133.9785" y="470.7725">Commit</text><text fill="#000000" font-family="sans-serif" font-size="13" lengthAdjust="spacing" textLength="3.6118" x="178.7549" y="470.7725">&#160;</text><text fill="#000000" font-family="sans-serif" font-size="13" lengthAdjust="spacing" textLength="49.1055" x="182.3667" y="470.7725">(Implicit)</text><!--SRC=[ZLHBJnj13Bxlhx0sbn2HK5MYhI8KgP2WeXQ1uD13oc6ITSAKx4mwEmc44wHlWKHLzT1BJ-qF28-qj43u2xF_g9x9e-6XjYjbDxR7d-tFzaGRNDIPOY6ihhD0Rd9H1QqQw4KZmufiY61EAe4AfiVqYsnh4QE8LN6LRoFSdRxZUIMv1JuJhDRIl1ob8rHDNaOV836TlvU_N_207d8dAwypeS5_p2eRR4wAg16Yye55C1GWyNITQxpfiimqHw4BJNf1Sbb9BKkDoeHpTjBG4qK0b97dlMXW0mUntB77yv2OVvYVpJ_ml68wP-Kic2-cPuxeruLubpuzSnY_DrrpOKv9POuWRfFkagHV9FlrVXg-nygQDvb6Gl6ygfADEYIUyEgwdcin0UQ3EJF7fXVlc5C2E0U7ksCwvf2KRS8wXMIvNxChQS9LJ1bHNYCkiZ1-95bgQIok0VuvFqfYwE8vzGY0mFhSP2sP4Suh6GvWhW6uOtrlLjEGU2G5jlAu2UOhqN9fkl4xegGJ7u0v8M6NVbGQrND6xnzaU4E57ZX_-_IZfgyMSxM5IwNdM1xKOPy0RqlcUZbZSEOp1JwY1Bhnss73R9qko48m2OA5E0aOCbwx3QoOg2f4iNO5TAOiQr9b-wPSJLOpN5Haqb_1Cl8c1iCYm5MHXM8cardp9sQcd5zk54P8gaFPUQ14FyPxRiHEB7aTolGYtejV0z7gUBF9qqnqxBJHPFH8ifDu5k_tqyPQX91Ov95khKZwIoFR9JpR0G8oFo5-vIRjdE3QC3KMn4xmfPrlidRDTziwgxxHfc92ON0x4MJ8wNKbDs51D5cD1yw7ZBEDIWLLOQkCTSsbkC70__Jp7t4j_QYKL4c_O3-4IPSBfoosxPNb5i6d3l-T_bJAVBFhIwGEnjHkkjt3WsmgzKoOJ-DqNTZNEN5s7ByaDcbhz-9sl4yy4eSzcZIxpvqHYtJRUBIrC-dqU15BbKg4cZHXo6dK5y9wZIuo6dRl6ZEZlRKutfY1RfNV]--></g></svg>