<svg xmlns="http://www.w3.org/2000/svg" xmlns:xlink="http://www.w3.org/1999/xlink" contentStyleType="text/css" height="824px" preserveAspectRatio="none" style="width:1132px;height:824px;background:#FFFFFF;" version="1.1" viewBox="0 0 1132 824" width="1132px" zoomAndPan="magnify"><defs><filter height="300%" id="ffdrw8ixx1t7f" width="300%" x="-1" y="-1"><feGaussianBlur result="blurOut" stdDeviation="2.0"/><feColorMatrix in="blurOut" result="blurOut2" type="matrix" values="0 0 0 0 0 0 0 0 0 0 0 0 0 0 0 0 0 0 .4 0"/><feOffset dx="4.0" dy="4.0" in="blurOut2" result="blurOut3"/><feBlend in="SourceGraphic" in2="blurOut3" mode="normal"/></filter></defs><g><rect fill="#5D6D7E" height="805.9355" rx="2.5" ry="2.5" style="stroke:#181818;stroke-width:0.5;" width="866.3579" x="16" y="6"/><text fill="#000000" font-family="sans-serif" font-size="13" font-weight="bold" lengthAdjust="spacing" textLength="91.7617" x="403.2981" y="20.0283">patient-service</text><rect fill="#FFFFFF" filter="url(#ffdrw8ixx1t7f)" height="31.291" style="stroke:#181818;stroke-width:1.0;" width="10" x="56.1309" y="170.1152"/><rect fill="#FFFFFF" filter="url(#ffdrw8ixx1t7f)" height="467.9961" style="stroke:#181818;stroke-width:1.0;" width="10" x="438.5469" y="232.6973"/><rect fill="#FFFFFF" filter="url(#ffdrw8ixx1t7f)" height="75.582" style="stroke:#181818;stroke-width:1.0;" width="10" x="666.7407" y="263.9883"/><rect fill="#FFFFFF" filter="url(#ffdrw8ixx1t7f)" height="216.668" style="stroke:#181818;stroke-width:1.0;" width="10" x="817.7788" y="370.8613"/><rect fill="#FFFFFF" filter="url(#ffdrw8ixx1t7f)" height="136.7949" style="stroke:#181818;stroke-width:1.0;" width="10" x="1068.001" y="419.4434"/><rect fill="#E0FFFF" filter="url(#ffdrw8ixx1t7f)" height="581.1602" rx="2.5" ry="2.5" style="stroke:#000000;stroke-width:1.5;" width="1110.9009" x="10" y="127.5332"/><rect fill="#F0FFF0" filter="url(#ffdrw8ixx1t7f)" height="235.959" rx="2.5" ry="2.5" style="stroke:#000000;stroke-width:1.5;" width="732.1572" x="378.7437" y="434.4434"/><path d="M378.7437,516.3164 L1110.9009,516.3164 L1110.9009,667.9023 A2.5,2.5 0 0 1 1108.4009,670.4023 L381.2437,670.4023 A2.5,2.5 0 0 1 378.7437,667.9023 L378.7437,516.3164 " fill="#FFE4E1" style="stroke:none;stroke-width:1.0;"/><line style="stroke:#181818;stroke-width:0.5;stroke-dasharray:5.0,5.0;" x1="61" x2="61" y1="110.5332" y2="725.6934"/><line style="stroke:#181818;stroke-width:0.5;stroke-dasharray:5.0,5.0;" x1="254.2373" x2="254.2373" y1="110.5332" y2="725.6934"/><line style="stroke:#181818;stroke-width:0.5;stroke-dasharray:5.0,5.0;" x1="442.7437" x2="442.7437" y1="110.5332" y2="725.6934"/><line style="stroke:#181818;stroke-width:0.5;stroke-dasharray:5.0,5.0;" x1="670.9722" x2="670.9722" y1="110.5332" y2="725.6934"/><line style="stroke:#181818;stroke-width:0.5;stroke-dasharray:5.0,5.0;" x1="822.1997" x2="822.1997" y1="110.5332" y2="725.6934"/><line style="stroke:#181818;stroke-width:0.5;stroke-dasharray:5.0,5.0;" x1="1072.1011" x2="1072.1011" y1="110.5332" y2="725.6934"/><text fill="#000000" font-family="sans-serif" font-size="14" lengthAdjust="spacing" textLength="76.2617" x="20" y="88.3984">PostgreSQL</text><text fill="#000000" font-family="sans-serif" font-size="14" lengthAdjust="spacing" textLength="74.7168" x="20.7725" y="107.0195">(patient_db)</text><path d="M43.1309,37.291 C43.1309,27.291 61.1309,27.291 61.1309,27.291 C61.1309,27.291 79.1309,27.291 79.1309,37.291 L79.1309,63.291 C79.1309,73.291 61.1309,73.291 61.1309,73.291 C61.1309,73.291 43.1309,73.291 43.1309,63.291 L43.1309,37.291 " fill="#FFFFFF" filter="url(#ffdrw8ixx1t7f)" style="stroke:#181818;stroke-width:1.5;"/><path d="M43.1309,37.291 C43.1309,47.291 61.1309,47.291 61.1309,47.291 C61.1309,47.291 79.1309,47.291 79.1309,37.291 " fill="none" style="stroke:#181818;stroke-width:1.5;"/><text fill="#000000" font-family="sans-serif" font-size="14" lengthAdjust="spacing" textLength="76.2617" x="20" y="739.8008">PostgreSQL</text><text fill="#000000" font-family="sans-serif" font-size="14" lengthAdjust="spacing" textLength="74.7168" x="20.7725" y="758.4219">(patient_db)</text><path d="M43.1309,771.9355 C43.1309,761.9355 61.1309,761.9355 61.1309,761.9355 C61.1309,761.9355 79.1309,761.9355 79.1309,771.9355 L79.1309,797.9355 C79.1309,807.9355 61.1309,807.9355 61.1309,807.9355 C61.1309,807.9355 43.1309,807.9355 43.1309,797.9355 L43.1309,771.9355 " fill="#FFFFFF" filter="url(#ffdrw8ixx1t7f)" style="stroke:#181818;stroke-width:1.5;"/><path d="M43.1309,771.9355 C43.1309,781.9355 61.1309,781.9355 61.1309,781.9355 C61.1309,781.9355 79.1309,781.9355 79.1309,771.9355 " fill="none" style="stroke:#181818;stroke-width:1.5;"/><rect fill="#FFFFFF" filter="url(#ffdrw8ixx1t7f)" height="32.6211" rx="2.5" ry="2.5" style="stroke:#181818;stroke-width:0.5;" width="104.2686" x="201.2373" y="73.9121"/><text fill="#000000" font-family="sans-serif" font-size="14" lengthAdjust="spacing" textLength="90.2686" x="208.2373" y="96.0195">PatientService</text><rect fill="#FFFFFF" filter="url(#ffdrw8ixx1t7f)" height="32.6211" rx="2.5" ry="2.5" style="stroke:#181818;stroke-width:0.5;" width="104.2686" x="201.2373" y="724.6934"/><text fill="#000000" font-family="sans-serif" font-size="14" lengthAdjust="spacing" textLength="90.2686" x="208.2373" y="746.8008">PatientService</text><rect fill="#FFFFFF" filter="url(#ffdrw8ixx1t7f)" height="32.6211" rx="2.5" ry="2.5" style="stroke:#181818;stroke-width:0.5;" width="106.6064" x="388.7437" y="73.9121"/><text fill="#000000" font-family="sans-serif" font-size="14" lengthAdjust="spacing" textLength="92.6064" x="395.7437" y="96.0195">KafkaProducer</text><rect fill="#FFFFFF" filter="url(#ffdrw8ixx1t7f)" height="32.6211" rx="2.5" ry="2.5" style="stroke:#181818;stroke-width:0.5;" width="106.6064" x="388.7437" y="724.6934"/><text fill="#000000" font-family="sans-serif" font-size="14" lengthAdjust="spacing" textLength="92.6064" x="395.7437" y="746.8008">KafkaProducer</text><rect fill="#FFFFFF" filter="url(#ffdrw8ixx1t7f)" height="32.6211" rx="2.5" ry="2.5" style="stroke:#181818;stroke-width:0.5;" width="166.5371" x="586.9722" y="73.9121"/><text fill="#000000" font-family="sans-serif" font-size="14" lengthAdjust="spacing" textLength="152.5371" x="593.9722" y="96.0195">PatientEvent.newBuilder</text><rect fill="#FFFFFF" filter="url(#ffdrw8ixx1t7f)" height="32.6211" rx="2.5" ry="2.5" style="stroke:#181818;stroke-width:0.5;" width="166.5371" x="586.9722" y="724.6934"/><text fill="#000000" font-family="sans-serif" font-size="14" lengthAdjust="spacing" textLength="152.5371" x="593.9722" y="746.8008">PatientEvent.newBuilder</text><rect fill="#FFFFFF" filter="url(#ffdrw8ixx1t7f)" height="32.6211" rx="2.5" ry="2.5" style="stroke:#181818;stroke-width:0.5;" width="108.1582" x="767.1997" y="73.9121"/><text fill="#000000" font-family="sans-serif" font-size="14" lengthAdjust="spacing" textLength="94.1582" x="774.1997" y="96.0195">KafkaTemplate</text><rect fill="#FFFFFF" filter="url(#ffdrw8ixx1t7f)" height="32.6211" rx="2.5" ry="2.5" style="stroke:#181818;stroke-width:0.5;" width="108.1582" x="767.1997" y="724.6934"/><text fill="#000000" font-family="sans-serif" font-size="14" lengthAdjust="spacing" textLength="94.1582" x="774.1997" y="746.8008">KafkaTemplate</text><path d="M1050.1011,81.9121 L1095.9009,81.9121 C1100.9009,81.9121 1100.9009,96.2227 1100.9009,96.2227 C1100.9009,96.2227 1100.9009,110.5332 1095.9009,110.5332 L1050.1011,110.5332 C1045.1011,110.5332 1045.1011,96.2227 1045.1011,96.2227 C1045.1011,96.2227 1045.1011,81.9121 1050.1011,81.9121 " fill="#FADBD8" filter="url(#ffdrw8ixx1t7f)" style="stroke:#181818;stroke-width:0.5;"/><path d="M1095.9009,81.9121 C1090.9009,81.9121 1090.9009,96.2227 1090.9009,96.2227 C1090.9009,110.5332 1095.9009,110.5332 1095.9009,110.5332 " fill="none" style="stroke:#181818;stroke-width:0.5;"/><text fill="#000000" font-family="sans-serif" font-size="14" lengthAdjust="spacing" textLength="35.7998" x="1050.1011" y="102.0195">Kafka</text><path d="M1050.1011,724.6934 L1095.9009,724.6934 C1100.9009,724.6934 1100.9009,739.0039 1100.9009,739.0039 C1100.9009,739.0039 1100.9009,753.3145 1095.9009,753.3145 L1050.1011,753.3145 C1045.1011,753.3145 1045.1011,739.0039 1045.1011,739.0039 C1045.1011,739.0039 1045.1011,724.6934 1050.1011,724.6934 " fill="#FADBD8" filter="url(#ffdrw8ixx1t7f)" style="stroke:#181818;stroke-width:0.5;"/><path d="M1095.9009,724.6934 C1090.9009,724.6934 1090.9009,739.0039 1090.9009,739.0039 C1090.9009,753.3145 1095.9009,753.3145 1095.9009,753.3145 " fill="none" style="stroke:#181818;stroke-width:0.5;"/><text fill="#000000" font-family="sans-serif" font-size="14" lengthAdjust="spacing" textLength="35.7998" x="1050.1011" y="744.8008">Kafka</text><rect fill="#FFFFFF" filter="url(#ffdrw8ixx1t7f)" height="31.291" style="stroke:#181818;stroke-width:1.0;" width="10" x="56.1309" y="170.1152"/><rect fill="#FFFFFF" filter="url(#ffdrw8ixx1t7f)" height="467.9961" style="stroke:#181818;stroke-width:1.0;" width="10" x="438.5469" y="232.6973"/><rect fill="#FFFFFF" filter="url(#ffdrw8ixx1t7f)" height="75.582" style="stroke:#181818;stroke-width:1.0;" width="10" x="666.7407" y="263.9883"/><rect fill="#FFFFFF" filter="url(#ffdrw8ixx1t7f)" height="216.668" style="stroke:#181818;stroke-width:1.0;" width="10" x="817.7788" y="370.8613"/><rect fill="#FFFFFF" filter="url(#ffdrw8ixx1t7f)" height="136.7949" style="stroke:#181818;stroke-width:1.0;" width="10" x="1068.001" y="419.4434"/><path d="M12.5,127.5332 L198.603,127.5332 L198.603,136.8242 L188.603,146.8242 L10,146.8242 L10,130.0332 A2.5,2.5 0 0 1 12.5,127.5332 " fill="#EEEEEE" style="stroke:#000000;stroke-width:1.5;"/><rect fill="none" height="581.1602" rx="2.5" ry="2.5" style="stroke:#000000;stroke-width:1.5;" width="1110.9009" x="10" y="127.5332"/><text fill="#000000" font-family="sans-serif" font-size="13" font-weight="bold" lengthAdjust="spacing" textLength="143.603" x="25" y="142.5615">&#1040;&#1083;&#1075;&#1086;&#1088;&#1080;&#1090;&#1084; &#1087;&#1091;&#1073;&#1083;&#1080;&#1082;&#1072;&#1094;&#1080;&#1080;</text><polygon fill="#181818" points="77.1309,166.1152,67.1309,170.1152,77.1309,174.1152,73.1309,170.1152" style="stroke:#181818;stroke-width:1.0;"/><line style="stroke:#181818;stroke-width:1.0;" x1="71.1309" x2="253.8716" y1="170.1152" y2="170.1152"/><text fill="#000000" font-family="sans-serif" font-size="13" lengthAdjust="spacing" textLength="109.1035" x="83.1309" y="164.8525">save(PatientEntity)</text><polygon fill="#181818" points="242.8716,197.4063,252.8716,201.4063,242.8716,205.4063,246.8716,201.4063" style="stroke:#181818;stroke-width:1.0;"/><line style="stroke:#181818;stroke-width:1.0;stroke-dasharray:2.0,2.0;" x1="61.1309" x2="248.8716" y1="201.4063" y2="201.4063"/><text fill="#000000" font-family="sans-serif" font-size="13" lengthAdjust="spacing" textLength="64.3208" x="68.1309" y="196.1436">newPatient</text><text fill="#000000" font-family="sans-serif" font-size="13" lengthAdjust="spacing" textLength="3.6118" x="132.4517" y="196.1436">&#160;</text><text fill="#000000" font-family="sans-serif" font-size="13" lengthAdjust="spacing" textLength="18.0591" x="136.0635" y="196.1436">(id,</text><text fill="#000000" font-family="sans-serif" font-size="13" lengthAdjust="spacing" textLength="3.6118" x="154.1226" y="196.1436">&#160;</text><text fill="#000000" font-family="sans-serif" font-size="13" lengthAdjust="spacing" textLength="36.1309" x="157.7344" y="196.1436">name,</text><text fill="#000000" font-family="sans-serif" font-size="13" lengthAdjust="spacing" textLength="3.6118" x="193.8652" y="196.1436">&#160;</text><text fill="#000000" font-family="sans-serif" font-size="13" lengthAdjust="spacing" textLength="35.3945" x="197.4771" y="196.1436">email)</text><polygon fill="#181818" points="426.5469,228.6973,436.5469,232.6973,426.5469,236.6973,430.5469,232.6973" style="stroke:#181818;stroke-width:1.0;"/><line style="stroke:#181818;stroke-width:1.0;" x1="254.8716" x2="432.5469" y1="232.6973" y2="232.6973"/><text fill="#000000" font-family="sans-serif" font-size="13" lengthAdjust="spacing" textLength="134.4116" x="261.8716" y="227.4346">sendEvent(newPatient)</text><polygon fill="#181818" points="654.7407,259.9883,664.7407,263.9883,654.7407,267.9883,658.7407,263.9883" style="stroke:#181818;stroke-width:1.0;"/><line style="stroke:#181818;stroke-width:1.0;" x1="448.5469" x2="660.7407" y1="263.9883" y2="263.9883"/><text fill="#000000" font-family="sans-serif" font-size="13" lengthAdjust="spacing" textLength="72.9727" x="455.5469" y="258.7256">newBuilder()</text><line style="stroke:#181818;stroke-width:1.0;" x1="676.7407" x2="718.7407" y1="295.2793" y2="295.2793"/><line style="stroke:#181818;stroke-width:1.0;" x1="718.7407" x2="718.7407" y1="295.2793" y2="308.2793"/><line style="stroke:#181818;stroke-width:1.0;" x1="677.7407" x2="718.7407" y1="308.2793" y2="308.2793"/><polygon fill="#181818" points="687.7407,304.2793,677.7407,308.2793,687.7407,312.2793,683.7407,308.2793" style="stroke:#181818;stroke-width:1.0;"/><text fill="#000000" font-family="sans-serif" font-size="13" lengthAdjust="spacing" textLength="17.3418" x="683.7407" y="290.0166">set</text><text fill="#000000" font-family="sans-serif" font-size="13" lengthAdjust="spacing" textLength="3.6118" x="701.0825" y="290.0166">&#160;</text><text fill="#000000" font-family="sans-serif" font-size="13" lengthAdjust="spacing" textLength="30.3481" x="704.6943" y="290.0166">fields</text><text fill="#000000" font-family="sans-serif" font-size="13" lengthAdjust="spacing" textLength="3.6118" x="735.0425" y="290.0166">&#160;</text><text fill="#000000" font-family="sans-serif" font-size="13" lengthAdjust="spacing" textLength="26" x="738.6543" y="290.0166">from</text><text fill="#000000" font-family="sans-serif" font-size="13" lengthAdjust="spacing" textLength="3.6118" x="764.6543" y="290.0166">&#160;</text><text fill="#000000" font-family="sans-serif" font-size="13" lengthAdjust="spacing" textLength="32.5127" x="768.2661" y="290.0166">Entity</text><polygon fill="#181818" points="459.5469,335.5703,449.5469,339.5703,459.5469,343.5703,455.5469,339.5703" style="stroke:#181818;stroke-width:1.0;"/><line style="stroke:#181818;stroke-width:1.0;stroke-dasharray:2.0,2.0;" x1="453.5469" x2="670.7407" y1="339.5703" y2="339.5703"/><text fill="#000000" font-family="sans-serif" font-size="13" lengthAdjust="spacing" textLength="73.7153" x="465.5469" y="334.3076">PatientEvent</text><text fill="#000000" font-family="sans-serif" font-size="13" lengthAdjust="spacing" textLength="3.6118" x="539.2622" y="334.3076">&#160;</text><text fill="#000000" font-family="sans-serif" font-size="13" lengthAdjust="spacing" textLength="46.23" x="542.874" y="334.3076">(Object)</text><polygon fill="#181818" points="805.7788,366.8613,815.7788,370.8613,805.7788,374.8613,809.7788,370.8613" style="stroke:#181818;stroke-width:1.0;"/><line style="stroke:#181818;stroke-width:1.0;" x1="448.5469" x2="811.7788" y1="370.8613" y2="370.8613"/><text fill="#000000" font-family="sans-serif" font-size="13" lengthAdjust="spacing" textLength="84.3921" x="455.5469" y="365.5986">send("patient",</text><text fill="#000000" font-family="sans-serif" font-size="13" lengthAdjust="spacing" textLength="3.6118" x="539.939" y="365.5986">&#160;</text><text fill="#000000" font-family="sans-serif" font-size="13" lengthAdjust="spacing" textLength="36.1245" x="543.5508" y="365.5986">byte[])</text><polygon fill="#181818" points="1056.001,415.4434,1066.001,419.4434,1056.001,423.4434,1060.001,419.4434" style="stroke:#181818;stroke-width:1.0;"/><line style="stroke:#181818;stroke-width:1.0;" x1="827.7788" x2="1062.001" y1="419.4434" y2="419.4434"/><text fill="#000000" font-family="sans-serif" font-size="13" lengthAdjust="spacing" textLength="59.8521" x="834.7788" y="396.8896">&#1055;&#1077;&#1088;&#1077;&#1076;&#1072;&#1095;&#1072;</text><text fill="#000000" font-family="sans-serif" font-size="13" lengthAdjust="spacing" textLength="3.6118" x="894.6309" y="396.8896">&#160;</text><text fill="#000000" font-family="sans-serif" font-size="13" lengthAdjust="spacing" textLength="67.812" x="898.2427" y="396.8896">&#1089;&#1086;&#1086;&#1073;&#1097;&#1077;&#1085;&#1080;&#1103;</text><text fill="#000000" font-family="sans-serif" font-size="13" lengthAdjust="spacing" textLength="3.6118" x="966.0547" y="396.8896">&#160;</text><text fill="#000000" font-family="sans-serif" font-size="13" lengthAdjust="spacing" textLength="6.9063" x="969.6665" y="396.8896">&#1074;</text><text fill="#000000" font-family="sans-serif" font-size="13" lengthAdjust="spacing" textLength="3.6118" x="976.5728" y="396.8896">&#160;</text><text fill="#000000" font-family="sans-serif" font-size="13" lengthAdjust="spacing" textLength="33.1729" x="980.1846" y="396.8896">&#1090;&#1086;&#1087;&#1080;&#1082;</text><text fill="#000000" font-family="sans-serif" font-size="13" lengthAdjust="spacing" textLength="3.6118" x="1013.3574" y="396.8896">&#160;</text><text fill="#000000" font-family="sans-serif" font-size="13" lengthAdjust="spacing" textLength="39.0317" x="1016.9692" y="396.8896">patient</text><text fill="#000000" font-family="sans-serif" font-size="13" lengthAdjust="spacing" textLength="34.6582" x="834.7788" y="414.1807">(TCP)</text><path d="M381.2437,434.4434 L438.9146,434.4434 L438.9146,443.7344 L428.9146,453.7344 L378.7437,453.7344 L378.7437,436.9434 A2.5,2.5 0 0 1 381.2437,434.4434 " fill="#EEEEEE" style="stroke:#000000;stroke-width:1.5;"/><rect fill="none" height="235.959" rx="2.5" ry="2.5" style="stroke:#000000;stroke-width:1.5;" width="732.1572" x="378.7437" y="434.4434"/><text fill="#000000" font-family="sans-serif" font-size="13" font-weight="bold" lengthAdjust="spacing" textLength="15.1709" x="393.7437" y="449.4717">alt</text><text fill="#000000" font-family="sans-serif" font-size="11" font-weight="bold" lengthAdjust="spacing" textLength="114.4258" x="453.9146" y="448.3135">[&#1059;&#1089;&#1087;&#1077;&#1096;&#1085;&#1072;&#1103; &#1086;&#1090;&#1087;&#1088;&#1072;&#1074;&#1082;&#1072;]</text><polygon fill="#008000" points="838.7788,473.0254,828.7788,477.0254,838.7788,481.0254,834.7788,477.0254" style="stroke:#008000;stroke-width:1.0;"/><line style="stroke:#008000;stroke-width:1.0;stroke-dasharray:2.0,2.0;" x1="832.7788" x2="1067.001" y1="477.0254" y2="477.0254"/><text fill="#000000" font-family="sans-serif" font-size="13" lengthAdjust="spacing" textLength="96.1099" x="844.7788" y="471.7627">RecordMetadata</text><text fill="#000000" font-family="sans-serif" font-size="13" lengthAdjust="spacing" textLength="3.6118" x="940.8887" y="471.7627">&#160;</text><text fill="#000000" font-family="sans-serif" font-size="13" lengthAdjust="spacing" textLength="30.3291" x="944.5005" y="471.7627">(Ack)</text><polygon fill="#008000" points="459.5469,504.3164,449.5469,508.3164,459.5469,512.3164,455.5469,508.3164" style="stroke:#008000;stroke-width:1.0;"/><line style="stroke:#008000;stroke-width:1.0;stroke-dasharray:2.0,2.0;" x1="453.5469" x2="816.7788" y1="508.3164" y2="508.3164"/><text fill="#000000" font-family="sans-serif" font-size="13" lengthAdjust="spacing" textLength="37.5718" x="465.5469" y="503.0537">Future</text><text fill="#000000" font-family="sans-serif" font-size="13" lengthAdjust="spacing" textLength="3.6118" x="503.1187" y="503.0537">&#160;</text><text fill="#000000" font-family="sans-serif" font-size="13" lengthAdjust="spacing" textLength="49.1309" x="506.7305" y="503.0537">Success</text><line style="stroke:#000000;stroke-width:1.0;stroke-dasharray:2.0,2.0;" x1="378.7437" x2="1110.9009" y1="517.3164" y2="517.3164"/><text fill="#000000" font-family="sans-serif" font-size="11" font-weight="bold" lengthAdjust="spacing" textLength="80.0562" x="383.7437" y="529.1865">[Timeout/Error]</text><polygon fill="#FF0000" points="838.7788,552.2383,828.7788,556.2383,838.7788,560.2383,834.7788,556.2383" style="stroke:#FF0000;stroke-width:1.0;"/><line style="stroke:#FF0000;stroke-width:1.0;stroke-dasharray:2.0,2.0;" x1="832.7788" x2="1072.001" y1="556.2383" y2="556.2383"/><text fill="#FF0000" font-family="sans-serif" font-size="13" lengthAdjust="spacing" textLength="28.8882" x="844.7788" y="550.9756">Error</text><polygon fill="#FF0000" points="459.5469,583.5293,449.5469,587.5293,459.5469,591.5293,455.5469,587.5293" style="stroke:#FF0000;stroke-width:1.0;"/><line style="stroke:#FF0000;stroke-width:1.0;stroke-dasharray:2.0,2.0;" x1="453.5469" x2="821.7788" y1="587.5293" y2="587.5293"/><text fill="#FF0000" font-family="sans-serif" font-size="13" lengthAdjust="spacing" textLength="31.7891" x="465.5469" y="582.2666">throw</text><text fill="#FF0000" font-family="sans-serif" font-size="13" lengthAdjust="spacing" textLength="3.6118" x="497.3359" y="582.2666">&#160;</text><text fill="#FF0000" font-family="sans-serif" font-size="13" lengthAdjust="spacing" textLength="57.0908" x="500.9478" y="582.2666">Exception</text><line style="stroke:#FF0000;stroke-width:1.0;" x1="448.5469" x2="490.5469" y1="634.1113" y2="634.1113"/><line style="stroke:#FF0000;stroke-width:1.0;" x1="490.5469" x2="490.5469" y1="634.1113" y2="647.1113"/><line style="stroke:#FF0000;stroke-width:1.0;" x1="449.5469" x2="490.5469" y1="647.1113" y2="647.1113"/><polygon fill="#FF0000" points="459.5469,643.1113,449.5469,647.1113,459.5469,651.1113,455.5469,647.1113" style="stroke:#FF0000;stroke-width:1.0;"/><text fill="#FF0000" font-family="sans-serif" font-size="13" lengthAdjust="spacing" textLength="86.2393" x="455.5469" y="628.8486">log.error("Error</text><text fill="#FF0000" font-family="sans-serif" font-size="13" lengthAdjust="spacing" textLength="3.6118" x="541.7861" y="628.8486">&#160;</text><text fill="#FF0000" font-family="sans-serif" font-size="13" lengthAdjust="spacing" textLength="64.6001" x="545.3979" y="628.8486">sending...",</text><text fill="#FF0000" font-family="sans-serif" font-size="13" lengthAdjust="spacing" textLength="3.6118" x="609.998" y="628.8486">&#160;</text><text fill="#FF0000" font-family="sans-serif" font-size="13" lengthAdjust="spacing" textLength="36.1309" x="613.6099" y="628.8486">event)</text><path d="M671.1938,603.0293 L671.1938,659.0293 A2.5,2.5 0 0 0 673.6938,661.5293 L811.6938,661.5293 A2.5,2.5 0 0 0 814.1938,659.0293 L814.1938,610.5293 L804.1938,600.5293 L673.6938,600.5293 A2.5,2.5 0 0 0 671.1938,603.0293 " fill="#FEFFDD" filter="url(#ffdrw8ixx1t7f)" style="stroke:#181818;stroke-width:0.5;"/><path d="M804.1938,600.5293 L804.1938,609.2793 A1.25,1.25 0 0 0 805.4438,610.5293 L814.1938,610.5293 L804.1938,600.5293 " fill="#FEFFDD" style="stroke:#181818;stroke-width:0.5;"/><text fill="#000000" font-family="sans-serif" font-size="13" font-weight="bold" lengthAdjust="spacing" textLength="122.8145" x="677.1938" y="619.5576">Data Inconsistency:</text><text fill="#000000" font-family="sans-serif" font-size="13" lengthAdjust="spacing" textLength="104.7744" x="677.1938" y="636.8486">Data saved in DB,</text><text fill="#000000" font-family="sans-serif" font-size="13" lengthAdjust="spacing" textLength="92.498" x="677.1938" y="654.1396">but lost in Kafka</text><polygon fill="#181818" points="265.8716,696.6934,255.8716,700.6934,265.8716,704.6934,261.8716,700.6934" style="stroke:#181818;stroke-width:1.0;"/><line style="stroke:#181818;stroke-width:1.0;stroke-dasharray:2.0,2.0;" x1="259.8716" x2="442.5469" y1="700.6934" y2="700.6934"/><text fill="#000000" font-family="sans-serif" font-size="13" lengthAdjust="spacing" textLength="75.7783" x="271.8716" y="695.4307">&#1047;&#1072;&#1074;&#1077;&#1088;&#1096;&#1077;&#1085;&#1080;&#1077;</text><text fill="#000000" font-family="sans-serif" font-size="13" lengthAdjust="spacing" textLength="3.6118" x="347.6499" y="695.4307">&#160;</text><text fill="#000000" font-family="sans-serif" font-size="13" lengthAdjust="spacing" textLength="44.167" x="351.2617" y="695.4307">&#1084;&#1077;&#1090;&#1086;&#1076;&#1072;</text><text fill="#000000" font-family="sans-serif" font-size="13" lengthAdjust="spacing" textLength="3.6118" x="395.4287" y="695.4307">&#160;</text><text fill="#000000" font-family="sans-serif" font-size="13" lengthAdjust="spacing" textLength="32.5063" x="399.0405" y="695.4307">(void)</text><!--SRC=[XLHTJnD157tlhxXfNxPDASO4DGqX0Tf6WyHAD_41Y9dkNjgHxKoTdMsfJtuaVZpfcuy- -0SAIa8Ksxym_KVUdTt2jaIa2MmlvvpxSUxTy9YBFbEi1wqky-MGYmve5M4klFh7deo4losLG0LhcVWkEzd5C6GTRF5N27VNxkHoRNa2-JxJ78LU2L4Dk8TvAApLxjNkrtD0FpxJhCr2X7nJXhgZiFNqyO5mKivplrtC0mkXjWM5PrskqP8eeUOUxpEXYPT0MtDrGZTR_qJliADZrbJIZpnK5cmZ_rEl3-XNHU1mA-A1dpBJvzjpkTZh1qmdXUsuSp0A7sWwkTpB22DCiGcc0ON6PcshzY2NwoWPzQ7mc7UwUdl419WlvhVvOIQpr-PYzjPSWfdEtfbJ2bwONsOyUqz_BsmbD8EL3PfR5K8sG6VUXz1SZueMmJpD1rGPWUntcl4AKPgjAb2ZAG4SxfT1i1wM0NkC1mdNnomxaz3sGJcfFpipvrfgAQj59jJ40cAd4xK5fC_E4YqDs-3SW2mpH0r770C_X2CbUv1ql0Y_hZDhBpXFsY_GqpSwdATSh7N7JTfqvWkUBqDxf77_SBbHDsMwbjQeWlbcpid1S_EJBFjWnZ1xOoRqEPrzek0VilOpc3CWWoTc6ZiB_RaRxdPpMRwHoBD0G-6X53YguH3CTzASKfgFf3UEzIOaDwMiOtCMhuhbsB8QD93z0fqUYiEahJtqfF9tKRFuFC7Pz8wBrtXt4PyCiX7fI26q8i-Zbu05Oq1dNTZbeHxjINfqUGzbf5VhIacrd5wXdoPVzsGWLJMER5Ze-ggDR5nHCjPGyqjrfK99LLajtLLo2FKJ3_kQIt6hQkfOnkzRX0FPgM1Sg9EtzTgje1TdfLAXbS1ujOetiWb9ULHyrrKebMhnc1y9JugGneN26rLBfGDXm_7v-i057LhvGBGZ3G6zAUD0Sa5srC9VsCxqZCrNwpRj6gs1NInp3kQI0l5cqVA1Cv3Slx7mYJ29_WK0]--></g></svg>