<svg xmlns="http://www.w3.org/2000/svg" xmlns:xlink="http://www.w3.org/1999/xlink" contentStyleType="text/css" height="889px" preserveAspectRatio="none" style="width:736px;height:889px;background:#FFFFFF;" version="1.1" viewBox="0 0 736 889" width="736px" zoomAndPan="magnify"><defs><filter height="300%" id="f1m33w4uo502ob" width="300%" x="-1" y="-1"><feGaussianBlur result="blurOut" stdDeviation="2.0"/><feColorMatrix in="blurOut" result="blurOut2" type="matrix" values="0 0 0 0 0 0 0 0 0 0 0 0 0 0 0 0 0 0 .4 0"/><feOffset dx="4.0" dy="4.0" in="blurOut2" result="blurOut3"/><feBlend in="SourceGraphic" in2="blurOut3" mode="normal"/></filter></defs><g><rect fill="#5D6D7E" height="877.5938" rx="2.5" ry="2.5" style="stroke:#181818;stroke-width:0.5;" width="531.3379" x="16" y="6"/><text fill="#000000" font-family="sans-serif" font-size="13" font-weight="bold" lengthAdjust="spacing" textLength="91.7617" x="235.7881" y="20.0283">patient-service</text><rect fill="#FFFFFF" filter="url(#f1m33w4uo502ob)" height="667.5664" style="stroke:#181818;stroke-width:1.0;" width="10" x="221.2568" y="140.7852"/><rect fill="#FFFFFF" filter="url(#f1m33w4uo502ob)" height="395.3652" style="stroke:#181818;stroke-width:1.0;" width="10" x="482.7588" y="381.6953"/><rect fill="#FFFFFF" filter="url(#f1m33w4uo502ob)" height="315.4922" style="stroke:#181818;stroke-width:1.0;" width="10" x="649.4014" y="430.2773"/><rect fill="#E0FFFF" filter="url(#f1m33w4uo502ob)" height="735.4395" rx="2.5" ry="2.5" style="stroke:#000000;stroke-width:1.5;" width="714.0942" x="10" y="80.9121"/><rect fill="#FFE4E1" filter="url(#f1m33w4uo502ob)" height="270.2012" rx="2.5" ry="2.5" style="stroke:#000000;stroke-width:1.5;" width="552.6406" x="161.4536" y="445.2773"/><line style="stroke:#181818;stroke-width:0.5;stroke-dasharray:5.0,5.0;" x1="73" x2="73" y1="63.9121" y2="833.3516"/><line style="stroke:#181818;stroke-width:0.5;stroke-dasharray:5.0,5.0;" x1="225.4536" x2="225.4536" y1="63.9121" y2="833.3516"/><line style="stroke:#181818;stroke-width:0.5;stroke-dasharray:5.0,5.0;" x1="487.1797" x2="487.1797" y1="63.9121" y2="833.3516"/><line style="stroke:#181818;stroke-width:0.5;stroke-dasharray:5.0,5.0;" x1="653.7085" x2="653.7085" y1="63.9121" y2="833.3516"/><rect fill="#FFFFFF" filter="url(#f1m33w4uo502ob)" height="32.6211" rx="2.5" ry="2.5" style="stroke:#181818;stroke-width:0.5;" width="104.2686" x="20" y="27.291"/><text fill="#000000" font-family="sans-serif" font-size="14" lengthAdjust="spacing" textLength="90.2686" x="27" y="49.3984">PatientService</text><rect fill="#FFFFFF" filter="url(#f1m33w4uo502ob)" height="32.6211" rx="2.5" ry="2.5" style="stroke:#181818;stroke-width:0.5;" width="104.2686" x="20" y="832.3516"/><text fill="#000000" font-family="sans-serif" font-size="14" lengthAdjust="spacing" textLength="90.2686" x="27" y="854.459">PatientService</text><rect fill="#FFFFFF" filter="url(#f1m33w4uo502ob)" height="32.6211" rx="2.5" ry="2.5" style="stroke:#181818;stroke-width:0.5;" width="106.6064" x="171.4536" y="27.291"/><text fill="#000000" font-family="sans-serif" font-size="14" lengthAdjust="spacing" textLength="92.6064" x="178.4536" y="49.3984">KafkaProducer</text><rect fill="#FFFFFF" filter="url(#f1m33w4uo502ob)" height="32.6211" rx="2.5" ry="2.5" style="stroke:#181818;stroke-width:0.5;" width="106.6064" x="171.4536" y="832.3516"/><text fill="#000000" font-family="sans-serif" font-size="14" lengthAdjust="spacing" textLength="92.6064" x="178.4536" y="854.459">KafkaProducer</text><rect fill="#FFFFFF" filter="url(#f1m33w4uo502ob)" height="32.6211" rx="2.5" ry="2.5" style="stroke:#181818;stroke-width:0.5;" width="108.1582" x="432.1797" y="27.291"/><text fill="#000000" font-family="sans-serif" font-size="14" lengthAdjust="spacing" textLength="94.1582" x="439.1797" y="49.3984">KafkaTemplate</text><rect fill="#FFFFFF" filter="url(#f1m33w4uo502ob)" height="32.6211" rx="2.5" ry="2.5" style="stroke:#181818;stroke-width:0.5;" width="108.1582" x="432.1797" y="832.3516"/><text fill="#000000" font-family="sans-serif" font-size="14" lengthAdjust="spacing" textLength="94.1582" x="439.1797" y="854.459">KafkaTemplate</text><path d="M609.7085,16.6699 L699.0942,16.6699 C704.0942,16.6699 704.0942,40.291 704.0942,40.291 C704.0942,40.291 704.0942,63.9121 699.0942,63.9121 L609.7085,63.9121 C604.7085,63.9121 604.7085,40.291 604.7085,40.291 C604.7085,40.291 604.7085,16.6699 609.7085,16.6699 " fill="#FADBD8" filter="url(#f1m33w4uo502ob)" style="stroke:#181818;stroke-width:0.5;"/><path d="M699.0942,16.6699 C694.0942,16.6699 694.0942,40.291 694.0942,40.291 C694.0942,63.9121 699.0942,63.9121 699.0942,63.9121 " fill="none" style="stroke:#181818;stroke-width:0.5;"/><text fill="#000000" font-family="sans-serif" font-size="14" lengthAdjust="spacing" textLength="35.7998" x="631.5015" y="36.7773">Kafka</text><text fill="#000000" font-family="sans-serif" font-size="14" lengthAdjust="spacing" textLength="79.3857" x="609.7085" y="55.3984">topic: patient</text><path d="M609.7085,832.3516 L699.0942,832.3516 C704.0942,832.3516 704.0942,855.9727 704.0942,855.9727 C704.0942,855.9727 704.0942,879.5938 699.0942,879.5938 L609.7085,879.5938 C604.7085,879.5938 604.7085,855.9727 604.7085,855.9727 C604.7085,855.9727 604.7085,832.3516 609.7085,832.3516 " fill="#FADBD8" filter="url(#f1m33w4uo502ob)" style="stroke:#181818;stroke-width:0.5;"/><path d="M699.0942,832.3516 C694.0942,832.3516 694.0942,855.9727 694.0942,855.9727 C694.0942,879.5938 699.0942,879.5938 699.0942,879.5938 " fill="none" style="stroke:#181818;stroke-width:0.5;"/><text fill="#000000" font-family="sans-serif" font-size="14" lengthAdjust="spacing" textLength="35.7998" x="631.5015" y="852.459">Kafka</text><text fill="#000000" font-family="sans-serif" font-size="14" lengthAdjust="spacing" textLength="79.3857" x="609.7085" y="871.0801">topic: patient</text><rect fill="#FFFFFF" filter="url(#f1m33w4uo502ob)" height="667.5664" style="stroke:#181818;stroke-width:1.0;" width="10" x="221.2568" y="140.7852"/><rect fill="#FFFFFF" filter="url(#f1m33w4uo502ob)" height="395.3652" style="stroke:#181818;stroke-width:1.0;" width="10" x="482.7588" y="381.6953"/><rect fill="#FFFFFF" filter="url(#f1m33w4uo502ob)" height="315.4922" style="stroke:#181818;stroke-width:1.0;" width="10" x="649.4014" y="430.2773"/><path d="M12.5,80.9121 L285.8262,80.9121 L285.8262,107.4941 L275.8262,117.4941 L10,117.4941 L10,83.4121 A2.5,2.5 0 0 1 12.5,80.9121 " fill="#EEEEEE" style="stroke:#000000;stroke-width:1.5;"/><rect fill="none" height="735.4395" rx="2.5" ry="2.5" style="stroke:#000000;stroke-width:1.5;" width="714.0942" x="10" y="80.9121"/><text fill="#000000" font-family="sans-serif" font-size="13" font-weight="bold" lengthAdjust="spacing" textLength="220.3716" x="25" y="95.9404">&#1055;&#1091;&#1073;&#1083;&#1080;&#1082;&#1072;&#1094;&#1080;&#1103; &#1089;&#1086;&#1073;&#1099;&#1090;&#1080;&#1103; PatientEvent</text><text fill="#000000" font-family="sans-serif" font-size="13" font-weight="bold" lengthAdjust="spacing" textLength="230.8262" x="25" y="113.2314">patient-service &#8594; Kafka topic: patient</text><polygon fill="#181818" points="209.2568,136.7852,219.2568,140.7852,209.2568,144.7852,213.2568,140.7852" style="stroke:#181818;stroke-width:1.0;"/><line style="stroke:#181818;stroke-width:1.0;" x1="73.6343" x2="215.2568" y1="140.7852" y2="140.7852"/><text fill="#000000" font-family="sans-serif" font-size="13" font-weight="bold" lengthAdjust="spacing" textLength="15.8882" x="80.6343" y="135.5225">[1]</text><text fill="#000000" font-family="sans-serif" font-size="13" lengthAdjust="spacing" textLength="3.6118" x="96.5225" y="135.5225">&#160;</text><text fill="#000000" font-family="sans-serif" font-size="13" lengthAdjust="spacing" textLength="109.1226" x="100.1343" y="135.5225">sendEvent(patient)</text><line style="stroke:#181818;stroke-width:1.0;" x1="231.2568" x2="273.2568" y1="258.5313" y2="258.5313"/><line style="stroke:#181818;stroke-width:1.0;" x1="273.2568" x2="273.2568" y1="258.5313" y2="271.5313"/><line style="stroke:#181818;stroke-width:1.0;" x1="232.2568" x2="273.2568" y1="271.5313" y2="271.5313"/><polygon fill="#181818" points="242.2568,267.5313,232.2568,271.5313,242.2568,275.5313,238.2568,271.5313" style="stroke:#181818;stroke-width:1.0;"/><text fill="#000000" font-family="sans-serif" font-size="13" font-weight="bold" lengthAdjust="spacing" textLength="15.8882" x="238.2568" y="166.8135">[2]</text><text fill="#000000" font-family="sans-serif" font-size="13" lengthAdjust="spacing" textLength="3.6118" x="254.145" y="166.8135">&#160;</text><text fill="#000000" font-family="sans-serif" font-size="13" lengthAdjust="spacing" textLength="150.2998" x="257.7568" y="166.8135">PatientEvent.newBuilder()</text><text fill="#000000" font-family="sans-serif" font-size="13" lengthAdjust="spacing" textLength="161.1416" x="238.2568" y="184.1045">.setPatientId(patient.getId())</text><text fill="#000000" font-family="sans-serif" font-size="13" lengthAdjust="spacing" textLength="168.3398" x="238.2568" y="201.3955">.setName(patient.getName())</text><text fill="#000000" font-family="sans-serif" font-size="13" lengthAdjust="spacing" textLength="163.998" x="238.2568" y="218.6865">.setEmail(patient.getEmail())</text><text fill="#000000" font-family="sans-serif" font-size="13" lengthAdjust="spacing" textLength="225.2275" x="238.2568" y="235.9775">.setEventType("PATIENT_CREATED")</text><text fill="#000000" font-family="sans-serif" font-size="13" lengthAdjust="spacing" textLength="39.7363" x="238.2568" y="253.2686">.build()</text><line style="stroke:#181818;stroke-width:1.0;" x1="231.2568" x2="273.2568" y1="320.1133" y2="320.1133"/><line style="stroke:#181818;stroke-width:1.0;" x1="273.2568" x2="273.2568" y1="320.1133" y2="333.1133"/><line style="stroke:#181818;stroke-width:1.0;" x1="232.2568" x2="273.2568" y1="333.1133" y2="333.1133"/><polygon fill="#181818" points="242.2568,329.1133,232.2568,333.1133,242.2568,337.1133,238.2568,333.1133" style="stroke:#181818;stroke-width:1.0;"/><text fill="#000000" font-family="sans-serif" font-size="13" font-weight="bold" lengthAdjust="spacing" textLength="15.8882" x="238.2568" y="297.5596">[3]</text><text fill="#000000" font-family="sans-serif" font-size="13" lengthAdjust="spacing" textLength="3.6118" x="254.145" y="297.5596">&#160;</text><text fill="#000000" font-family="sans-serif" font-size="13" lengthAdjust="spacing" textLength="111.9854" x="257.7568" y="297.5596">event.toByteArray()</text><text fill="#000000" font-family="sans-serif" font-size="13" lengthAdjust="spacing" textLength="80.209" x="238.2568" y="314.8506">(protobuf-java</text><text fill="#000000" font-family="sans-serif" font-size="13" lengthAdjust="spacing" textLength="3.6118" x="318.4658" y="314.8506">&#160;</text><text fill="#000000" font-family="sans-serif" font-size="13" lengthAdjust="spacing" textLength="11.2163" x="322.0776" y="314.8506">&#8594;</text><text fill="#000000" font-family="sans-serif" font-size="13" lengthAdjust="spacing" textLength="3.6118" x="333.2939" y="314.8506">&#160;</text><text fill="#000000" font-family="sans-serif" font-size="13" lengthAdjust="spacing" textLength="36.1245" x="336.9058" y="314.8506">byte[])</text><polygon fill="#181818" points="470.7588,377.6953,480.7588,381.6953,470.7588,385.6953,474.7588,381.6953" style="stroke:#181818;stroke-width:1.0;"/><line style="stroke:#181818;stroke-width:1.0;" x1="231.2568" x2="476.7588" y1="381.6953" y2="381.6953"/><text fill="#000000" font-family="sans-serif" font-size="13" font-weight="bold" lengthAdjust="spacing" textLength="15.8882" x="238.2568" y="359.1416">[4]</text><text fill="#000000" font-family="sans-serif" font-size="13" lengthAdjust="spacing" textLength="3.6118" x="254.145" y="359.1416">&#160;</text><text fill="#000000" font-family="sans-serif" font-size="13" lengthAdjust="spacing" textLength="173.2656" x="257.7568" y="359.1416">kafkaTemplate.send("patient",</text><text fill="#000000" font-family="sans-serif" font-size="13" lengthAdjust="spacing" textLength="3.6118" x="431.0225" y="359.1416">&#160;</text><text fill="#000000" font-family="sans-serif" font-size="13" lengthAdjust="spacing" textLength="36.1245" x="434.6343" y="359.1416">byte[])</text><text fill="#000000" font-family="sans-serif" font-size="13" lengthAdjust="spacing" textLength="26.0127" x="238.2568" y="376.4326">Key:</text><text fill="#000000" font-family="sans-serif" font-size="13" lengthAdjust="spacing" textLength="3.6118" x="264.2695" y="376.4326">&#160;</text><text fill="#000000" font-family="sans-serif" font-size="13" lengthAdjust="spacing" textLength="20.2363" x="267.8813" y="376.4326">null</text><polygon fill="#181818" points="637.4014,426.2773,647.4014,430.2773,637.4014,434.2773,641.4014,430.2773" style="stroke:#181818;stroke-width:1.0;"/><line style="stroke:#181818;stroke-width:1.0;" x1="492.7588" x2="643.4014" y1="430.2773" y2="430.2773"/><text fill="#000000" font-family="sans-serif" font-size="13" font-weight="bold" lengthAdjust="spacing" textLength="15.8882" x="499.7588" y="407.7236">[5]</text><text fill="#000000" font-family="sans-serif" font-size="13" lengthAdjust="spacing" textLength="3.6118" x="515.647" y="407.7236">&#160;</text><text fill="#000000" font-family="sans-serif" font-size="13" lengthAdjust="spacing" textLength="26" x="519.2588" y="407.7236">TCP</text><text fill="#000000" font-family="sans-serif" font-size="13" lengthAdjust="spacing" textLength="3.6118" x="545.2588" y="407.7236">&#160;</text><text fill="#000000" font-family="sans-serif" font-size="13" lengthAdjust="spacing" textLength="11.2163" x="548.8706" y="407.7236">&#8594;</text><text fill="#000000" font-family="sans-serif" font-size="13" lengthAdjust="spacing" textLength="3.6118" x="560.0869" y="407.7236">&#160;</text><text fill="#000000" font-family="sans-serif" font-size="13" lengthAdjust="spacing" textLength="33.2427" x="563.6987" y="407.7236">Kafka</text><text fill="#000000" font-family="sans-serif" font-size="13" lengthAdjust="spacing" textLength="3.6118" x="596.9414" y="407.7236">&#160;</text><text fill="#000000" font-family="sans-serif" font-size="13" lengthAdjust="spacing" textLength="36.8481" x="600.5532" y="407.7236">broker</text><text fill="#000000" font-family="sans-serif" font-size="13" lengthAdjust="spacing" textLength="31.0718" x="499.7588" y="425.0146">topic:</text><text fill="#000000" font-family="sans-serif" font-size="13" lengthAdjust="spacing" textLength="3.6118" x="530.8306" y="425.0146">&#160;</text><text fill="#000000" font-family="sans-serif" font-size="13" lengthAdjust="spacing" textLength="39.0317" x="534.4424" y="425.0146">patient</text><path d="M163.9536,445.2773 L221.6245,445.2773 L221.6245,454.5684 L211.6245,464.5684 L161.4536,464.5684 L161.4536,447.7773 A2.5,2.5 0 0 1 163.9536,445.2773 " fill="#EEEEEE" style="stroke:#000000;stroke-width:1.5;"/><rect fill="none" height="270.2012" rx="2.5" ry="2.5" style="stroke:#000000;stroke-width:1.5;" width="552.6406" x="161.4536" y="445.2773"/><text fill="#000000" font-family="sans-serif" font-size="13" font-weight="bold" lengthAdjust="spacing" textLength="15.1709" x="176.4536" y="460.3057">alt</text><text fill="#000000" font-family="sans-serif" font-size="11" font-weight="bold" lengthAdjust="spacing" textLength="157.0293" x="236.6245" y="459.1475">[Kafka &#1085;&#1077;&#1076;&#1086;&#1089;&#1090;&#1091;&#1087;&#1077;&#1085; / &#1090;&#1072;&#1081;&#1084;&#1072;&#1091;&#1090;]</text><polygon fill="#FF0000" points="503.7588,483.8594,493.7588,487.8594,503.7588,491.8594,499.7588,487.8594" style="stroke:#FF0000;stroke-width:1.0;"/><line style="stroke:#FF0000;stroke-width:1.0;stroke-dasharray:2.0,2.0;" x1="497.7588" x2="648.4014" y1="487.8594" y2="487.8594"/><text fill="#FF0000" font-family="sans-serif" font-size="13" lengthAdjust="spacing" textLength="57.0908" x="509.7588" y="482.5967">Exception</text><polygon fill="#FF0000" points="242.2568,515.1504,232.2568,519.1504,242.2568,523.1504,238.2568,519.1504" style="stroke:#FF0000;stroke-width:1.0;"/><line style="stroke:#FF0000;stroke-width:1.0;stroke-dasharray:2.0,2.0;" x1="236.2568" x2="481.7588" y1="519.1504" y2="519.1504"/><text fill="#FF0000" font-family="sans-serif" font-size="13" lengthAdjust="spacing" textLength="57.0908" x="248.2568" y="513.8877">Exception</text><line style="stroke:#181818;stroke-width:1.0;" x1="231.2568" x2="273.2568" y1="585.0234" y2="585.0234"/><line style="stroke:#181818;stroke-width:1.0;" x1="273.2568" x2="273.2568" y1="585.0234" y2="598.0234"/><line style="stroke:#181818;stroke-width:1.0;" x1="232.2568" x2="273.2568" y1="598.0234" y2="598.0234"/><polygon fill="#181818" points="242.2568,594.0234,232.2568,598.0234,242.2568,602.0234,238.2568,598.0234" style="stroke:#181818;stroke-width:1.0;"/><text fill="#FF0000" font-family="sans-serif" font-size="13" lengthAdjust="spacing" textLength="92.4917" x="238.2568" y="545.1787">catch(Exception</text><text fill="#FF0000" font-family="sans-serif" font-size="13" lengthAdjust="spacing" textLength="3.6118" x="330.7485" y="545.1787">&#160;</text><text fill="#FF0000" font-family="sans-serif" font-size="13" lengthAdjust="spacing" textLength="11.5591" x="334.3604" y="545.1787">e)</text><text fill="#000000" font-family="sans-serif" font-size="13" lengthAdjust="spacing" textLength="86.2393" x="238.2568" y="562.4697">log.error("Error</text><text fill="#000000" font-family="sans-serif" font-size="13" lengthAdjust="spacing" textLength="3.6118" x="324.4961" y="562.4697">&#160;</text><text fill="#000000" font-family="sans-serif" font-size="13" lengthAdjust="spacing" textLength="45.5381" x="328.1079" y="562.4697">sending</text><text fill="#000000" font-family="sans-serif" font-size="13" lengthAdjust="spacing" textLength="3.6118" x="373.646" y="562.4697">&#160;</text><text fill="#000000" font-family="sans-serif" font-size="13" lengthAdjust="spacing" textLength="86.7217" x="377.2578" y="562.4697">PatientCreated</text><text fill="#000000" font-family="sans-serif" font-size="13" lengthAdjust="spacing" textLength="35.4136" x="238.2568" y="579.7607">event:</text><text fill="#000000" font-family="sans-serif" font-size="13" lengthAdjust="spacing" textLength="3.6118" x="273.6704" y="579.7607">&#160;</text><text fill="#000000" font-family="sans-serif" font-size="13" lengthAdjust="spacing" textLength="16.9102" x="277.2822" y="579.7607">{}",</text><text fill="#000000" font-family="sans-serif" font-size="13" lengthAdjust="spacing" textLength="3.6118" x="294.1924" y="579.7607">&#160;</text><text fill="#000000" font-family="sans-serif" font-size="13" lengthAdjust="spacing" textLength="83.1035" x="297.8042" y="579.7607">event)&lt;/color&gt;</text><path d="M236,613.5234 L236,704.5234 A2.5,2.5 0 0 0 238.5,707.0234 L448.5,707.0234 A2.5,2.5 0 0 0 451,704.5234 L451,621.0234 L441,611.0234 L238.5,611.0234 A2.5,2.5 0 0 0 236,613.5234 " fill="#FEFFDD" filter="url(#f1m33w4uo502ob)" style="stroke:#181818;stroke-width:0.5;"/><path d="M441,611.0234 L441,619.7734 A1.25,1.25 0 0 0 442.25,621.0234 L451,621.0234 L441,611.0234 " fill="#FEFFDD" style="stroke:#181818;stroke-width:0.5;"/><text fill="#000000" font-family="sans-serif" font-size="13" font-weight="bold" lengthAdjust="spacing" textLength="122.8145" x="242" y="630.0518">Data Inconsistency:</text><text fill="#000000" font-family="sans-serif" font-size="13" lengthAdjust="spacing" textLength="194.6636" x="242" y="647.3428">&#1044;&#1072;&#1085;&#1085;&#1099;&#1077; &#1089;&#1086;&#1093;&#1088;&#1072;&#1085;&#1077;&#1085;&#1099; &#1074; patient_db,</text><text fill="#000000" font-family="sans-serif" font-size="13" lengthAdjust="spacing" textLength="142.27" x="242" y="664.6338">gRPC-&#1074;&#1099;&#1079;&#1086;&#1074; &#1074;&#1099;&#1087;&#1086;&#1083;&#1085;&#1077;&#1085;,</text><text fill="#000000" font-family="sans-serif" font-size="13" lengthAdjust="spacing" textLength="178.731" x="242" y="681.9248">&#1089;&#1086;&#1086;&#1073;&#1097;&#1077;&#1085;&#1080;&#1077; &#1074; Kafka &#1087;&#1086;&#1090;&#1077;&#1088;&#1103;&#1085;&#1086;.</text><text fill="#000000" font-family="sans-serif" font-size="13" lengthAdjust="spacing" textLength="146.0469" x="242" y="699.2158">&#1050;&#1083;&#1080;&#1077;&#1085;&#1090; &#1087;&#1086;&#1083;&#1091;&#1095;&#1080;&#1090; 200 OK.</text><polygon fill="#008000" points="503.7588,741.7695,493.7588,745.7695,503.7588,749.7695,499.7588,745.7695" style="stroke:#008000;stroke-width:1.0;"/><line style="stroke:#008000;stroke-width:1.0;stroke-dasharray:2.0,2.0;" x1="497.7588" x2="653.4014" y1="745.7695" y2="745.7695"/><text fill="#000000" font-family="sans-serif" font-size="13" lengthAdjust="spacing" textLength="96.1099" x="509.7588" y="740.5068">RecordMetadata</text><text fill="#000000" font-family="sans-serif" font-size="13" lengthAdjust="spacing" textLength="3.6118" x="605.8687" y="740.5068">&#160;</text><text fill="#000000" font-family="sans-serif" font-size="13" lengthAdjust="spacing" textLength="30.3291" x="609.4805" y="740.5068">(Ack)</text><polygon fill="#008000" points="242.2568,773.0605,232.2568,777.0605,242.2568,781.0605,238.2568,777.0605" style="stroke:#008000;stroke-width:1.0;"/><line style="stroke:#008000;stroke-width:1.0;stroke-dasharray:2.0,2.0;" x1="236.2568" x2="486.7588" y1="777.0605" y2="777.0605"/><text fill="#000000" font-family="sans-serif" font-size="13" lengthAdjust="spacing" textLength="23.8481" x="248.2568" y="771.7979">void</text><polygon fill="#181818" points="84.6343,804.3516,74.6343,808.3516,84.6343,812.3516,80.6343,808.3516" style="stroke:#181818;stroke-width:1.0;"/><line style="stroke:#181818;stroke-width:1.0;stroke-dasharray:2.0,2.0;" x1="78.6343" x2="225.2568" y1="808.3516" y2="808.3516"/><text fill="#000000" font-family="sans-serif" font-size="13" font-weight="bold" lengthAdjust="spacing" textLength="15.8882" x="90.6343" y="803.0889">[6]</text><text fill="#000000" font-family="sans-serif" font-size="13" lengthAdjust="spacing" textLength="3.6118" x="106.5225" y="803.0889">&#160;</text><text fill="#000000" font-family="sans-serif" font-size="13" lengthAdjust="spacing" textLength="23.8481" x="110.1343" y="803.0889">void</text><!--SRC=[ZLJTRXD75BxVfpYoRzO6cpGbAR9G9CTsf2WDMBQbNiHHDDuzSRPsPhQpio468O4HGOWBfAfNtF0A9C8g1H9UOVOL-YGzCxkRB06rzSLwvfppVND-lfbe4l2GINO8_GFcYmS17uEICJhHfQCdOkwtXEGeOQLWtsR7snX5R8pzu272yigIuup4CPH2fWBagXQXF0eyB45vfRtQ_gdZ0Fq8gm8l21bNKEgcaVqya4NGxKFvbuD0uRVHMsn_mhfI-B67CWtEDlyE6U1XE6KgvTyQvC78VQ1y7UUt66FCOeTSYJ3m6f0LaM8seBpHRA-txpZEM8euXFBFmVX0jMQCWtwRFDEd-fF-e3_gTyc9_f2yXkIflj2doQjaRhTPdPqZ-WpvjVx0toU_WpqSlZxRiVLGGsfhLvNUkD60QdNdXzrg5I8gmNAw6QAIGVBW0j2YbWsgc4oTuuFrE9ZwADtAaDSZL9bxqyz9wsCqkqhclySEiUYo-zpPEMJ1jEXD3PTkS-PW5g9RwZO7cvrxWxrMhzCSTDeb4p4ocRZ_LSIFfWYqsIknFbFOb9BDJFfkA8KIetY_zYixOhQl8_Blx7w7adIGjVAsuPiKXL8tZNLp7PTkvYn3leMp1l1uEaq9YSHGRUHKAuPgqEeMHZgIOeBokgnIE9igA6y7aPhrH8GPG9_hXNwlBvAdoPoKzOLsvt0BI4dlz5_wCqdiMJAtS9l11jHgEsM9_gwfgG5tFJ4Lic4iQvrZ3qCL27xtbhMkNS461TXLT_yN-9Ba-nCgSdXCUGVk9HCWjN0gndMKKaYtr35_LiNcsSc4rv988_3J2JVWqMFglrrNlgc22uKWpKq4iV-LIDfCCTZadk0HjHUvDsjKgqEk_w0cdklpv9LUs3kQF4-UMDF2646VvGFQyqStXtpSwxPg-ep2_wJxV0Ps-OMMdr88XTYRRkxwIsEWHs1XMB9HKYZDRP4yILwJxw9E6RonBuKvRWuf5Stp1RqISrXUMeBxMtLR7lKaarWwuB54v7R4j6r03pqX_MrKp3ULkarlKd4AWyt3hqP4e2CH-DSlWXbTttf9lgj6lcaKdVyF]--></g></svg>