<svg xmlns="http://www.w3.org/2000/svg" xmlns:xlink="http://www.w3.org/1999/xlink" contentStyleType="text/css" height="1100px" preserveAspectRatio="none" style="width:1046px;height:1100px;background:#FFFFFF;" version="1.1" viewBox="0 0 1046 1100" width="1046px" zoomAndPan="magnify"><defs><filter height="300%" id="f1te025r4m0h7a" width="300%" x="-1" y="-1"><feGaussianBlur result="blurOut" stdDeviation="2.0"/><feColorMatrix in="blurOut" result="blurOut2" type="matrix" values="0 0 0 0 0 0 0 0 0 0 0 0 0 0 0 0 0 0 .4 0"/><feOffset dx="4.0" dy="4.0" in="blurOut2" result="blurOut3"/><feBlend in="SourceGraphic" in2="blurOut3" mode="normal"/></filter></defs><g><rect fill="#5D6D7E" height="1081.9922" rx="2.5" ry="2.5" style="stroke:#181818;stroke-width:0.5;" width="610.9053" x="267.4941" y="6"/><text fill="#000000" font-family="sans-serif" font-size="13" font-weight="bold" lengthAdjust="spacing" textLength="76.5908" x="534.6514" y="20.0283">auth-service</text><rect fill="#FFFFFF" filter="url(#f1te025r4m0h7a)" height="881.168" style="stroke:#181818;stroke-width:1.0;" width="10" x="319.7388" y="129.2031"/><rect fill="#FFFFFF" filter="url(#f1te025r4m0h7a)" height="523.918" style="stroke:#181818;stroke-width:1.0;" width="10" x="556.4766" y="278.998"/><rect fill="#FFFFFF" filter="url(#f1te025r4m0h7a)" height="93.873" style="stroke:#181818;stroke-width:1.0;" width="10" x="713.3374" y="310.2891"/><rect fill="#FFFFFF" filter="url(#f1te025r4m0h7a)" height="230.668" style="stroke:#181818;stroke-width:1.0;" width="10" x="819.6787" y="540.957"/><rect fill="#FFFFFF" filter="url(#f1te025r4m0h7a)" height="31.291" style="stroke:#181818;stroke-width:1.0;" width="10" x="944.2749" y="341.5801"/><rect fill="#E0FFFF" filter="url(#f1te025r4m0h7a)" height="820.877" rx="2.5" ry="2.5" style="stroke:#000000;stroke-width:1.5;" width="1024.1504" x="10" y="86.6211"/><rect fill="#FFE4E1" filter="url(#f1te025r4m0h7a)" height="712.0039" rx="2.5" ry="2.5" style="stroke:#000000;stroke-width:1.5;" width="1004.1504" x="20" y="188.4941"/><path d="M20,239.0762 L1024.1504,239.0762 L1024.1504,897.998 A2.5,2.5 0 0 1 1021.6504,900.498 L22.5,900.498 A2.5,2.5 0 0 1 20,897.998 L20,239.0762 " fill="#E0FFFF" style="stroke:none;stroke-width:1.0;"/><rect fill="#FFE4E1" filter="url(#f1te025r4m0h7a)" height="474.3359" rx="2.5" ry="2.5" style="stroke:#000000;stroke-width:1.5;" width="864.3994" x="30" y="419.1621"/><path d="M30,501.0352 L894.3994,501.0352 L894.3994,890.998 A2.5,2.5 0 0 1 891.8994,893.498 L32.5,893.498 A2.5,2.5 0 0 1 30,890.998 L30,501.0352 " fill="#E0FFFF" style="stroke:none;stroke-width:1.0;"/><rect fill="#FFE4E1" filter="url(#f1te025r4m0h7a)" height="330.541" rx="2.5" ry="2.5" style="stroke:#000000;stroke-width:1.5;" width="844.3994" x="40" y="555.957"/><path d="M40,669.1211 L884.3994,669.1211 L884.3994,883.998 A2.5,2.5 0 0 1 881.8994,886.498 L42.5,886.498 A2.5,2.5 0 0 1 40,883.998 L40,669.1211 " fill="#90EE90" style="stroke:none;stroke-width:1.0;"/><rect fill="#F5F5F5" filter="url(#f1te025r4m0h7a)" height="81.873" rx="2.5" ry="2.5" style="stroke:#000000;stroke-width:1.5;" width="577.7178" x="40" y="921.498"/><line style="stroke:#181818;stroke-width:0.5;stroke-dasharray:5.0,5.0;" x1="98" x2="98" y1="69.6211" y2="1020.3711"/><line style="stroke:#181818;stroke-width:0.5;stroke-dasharray:5.0,5.0;" x1="324.4941" x2="324.4941" y1="69.6211" y2="1020.3711"/><line style="stroke:#181818;stroke-width:0.5;stroke-dasharray:5.0,5.0;" x1="561.2354" x2="561.2354" y1="69.6211" y2="1020.3711"/><line style="stroke:#181818;stroke-width:0.5;stroke-dasharray:5.0,5.0;" x1="717.7168" x2="717.7168" y1="69.6211" y2="1020.3711"/><line style="stroke:#181818;stroke-width:0.5;stroke-dasharray:5.0,5.0;" x1="823.958" x2="823.958" y1="69.6211" y2="1020.3711"/><line style="stroke:#181818;stroke-width:0.5;stroke-dasharray:5.0,5.0;" x1="948.3994" x2="948.3994" y1="69.6211" y2="1020.3711"/><text fill="#000000" font-family="sans-serif" font-size="14" lengthAdjust="spacing" textLength="91.0342" x="50" y="66.1074">API Consumer</text><path d="M78.0171,23 L78.0171,47 M78.0171,35 L95.0171,35 " fill="none" filter="url(#f1te025r4m0h7a)" style="stroke:#181818;stroke-width:0.5;"/><ellipse cx="107.0171" cy="35" fill="#FEF9E7" filter="url(#f1te025r4m0h7a)" rx="12" ry="12" style="stroke:#181818;stroke-width:0.5;"/><text fill="#000000" font-family="sans-serif" font-size="14" lengthAdjust="spacing" textLength="91.0342" x="50" y="1034.4785">API Consumer</text><path d="M78.0171,1041.9922 L78.0171,1065.9922 M78.0171,1053.9922 L95.0171,1053.9922 " fill="none" filter="url(#f1te025r4m0h7a)" style="stroke:#181818;stroke-width:0.5;"/><ellipse cx="107.0171" cy="1053.9922" fill="#FEF9E7" filter="url(#f1te025r4m0h7a)" rx="12" ry="12" style="stroke:#181818;stroke-width:0.5;"/><rect fill="#E2E2F0" filter="url(#f1te025r4m0h7a)" height="32.6211" rx="2.5" ry="2.5" style="stroke:#181818;stroke-width:0.5;" width="103.4893" x="271.4941" y="33"/><text fill="#000000" font-family="sans-serif" font-size="14" lengthAdjust="spacing" textLength="89.4893" x="278.4941" y="55.1074">AuthController</text><rect fill="#E2E2F0" filter="url(#f1te025r4m0h7a)" height="32.6211" rx="2.5" ry="2.5" style="stroke:#181818;stroke-width:0.5;" width="103.4893" x="271.4941" y="1019.3711"/><text fill="#000000" font-family="sans-serif" font-size="14" lengthAdjust="spacing" textLength="89.4893" x="278.4941" y="1041.4785">AuthController</text><rect fill="#E2E2F0" filter="url(#f1te025r4m0h7a)" height="32.6211" rx="2.5" ry="2.5" style="stroke:#181818;stroke-width:0.5;" width="89.4824" x="515.2354" y="33"/><text fill="#000000" font-family="sans-serif" font-size="14" lengthAdjust="spacing" textLength="75.4824" x="522.2354" y="55.1074">AuthService</text><rect fill="#E2E2F0" filter="url(#f1te025r4m0h7a)" height="32.6211" rx="2.5" ry="2.5" style="stroke:#181818;stroke-width:0.5;" width="89.4824" x="515.2354" y="1019.3711"/><text fill="#000000" font-family="sans-serif" font-size="14" lengthAdjust="spacing" textLength="75.4824" x="522.2354" y="1041.4785">AuthService</text><rect fill="#E2E2F0" filter="url(#f1te025r4m0h7a)" height="32.6211" rx="2.5" ry="2.5" style="stroke:#181818;stroke-width:0.5;" width="90.2412" x="671.7168" y="33"/><text fill="#000000" font-family="sans-serif" font-size="14" lengthAdjust="spacing" textLength="76.2412" x="678.7168" y="55.1074">UserService</text><rect fill="#E2E2F0" filter="url(#f1te025r4m0h7a)" height="32.6211" rx="2.5" ry="2.5" style="stroke:#181818;stroke-width:0.5;" width="90.2412" x="671.7168" y="1019.3711"/><text fill="#000000" font-family="sans-serif" font-size="14" lengthAdjust="spacing" textLength="76.2412" x="678.7168" y="1041.4785">UserService</text><rect fill="#E2E2F0" filter="url(#f1te025r4m0h7a)" height="32.6211" rx="2.5" ry="2.5" style="stroke:#181818;stroke-width:0.5;" width="96.4414" x="774.958" y="33"/><text fill="#000000" font-family="sans-serif" font-size="14" lengthAdjust="spacing" textLength="82.4414" x="781.958" y="55.1074">BCrypt/JJWT</text><rect fill="#E2E2F0" filter="url(#f1te025r4m0h7a)" height="32.6211" rx="2.5" ry="2.5" style="stroke:#181818;stroke-width:0.5;" width="96.4414" x="774.958" y="1019.3711"/><text fill="#000000" font-family="sans-serif" font-size="14" lengthAdjust="spacing" textLength="82.4414" x="781.958" y="1041.4785">BCrypt/JJWT</text><text fill="#000000" font-family="sans-serif" font-size="14" lengthAdjust="spacing" textLength="123.751" x="884.3994" y="66.1074">Database (auth_db)</text><path d="M931.2749,15 C931.2749,5 949.2749,5 949.2749,5 C949.2749,5 967.2749,5 967.2749,15 L967.2749,41 C967.2749,51 949.2749,51 949.2749,51 C949.2749,51 931.2749,51 931.2749,41 L931.2749,15 " fill="#EAFAF1" filter="url(#f1te025r4m0h7a)" style="stroke:#181818;stroke-width:1.5;"/><path d="M931.2749,15 C931.2749,25 949.2749,25 949.2749,25 C949.2749,25 967.2749,25 967.2749,15 " fill="none" style="stroke:#181818;stroke-width:1.5;"/><text fill="#000000" font-family="sans-serif" font-size="14" lengthAdjust="spacing" textLength="123.751" x="884.3994" y="1034.4785">Database (auth_db)</text><path d="M931.2749,1047.9922 C931.2749,1037.9922 949.2749,1037.9922 949.2749,1037.9922 C949.2749,1037.9922 967.2749,1037.9922 967.2749,1047.9922 L967.2749,1073.9922 C967.2749,1083.9922 949.2749,1083.9922 949.2749,1083.9922 C949.2749,1083.9922 931.2749,1083.9922 931.2749,1073.9922 L931.2749,1047.9922 " fill="#EAFAF1" filter="url(#f1te025r4m0h7a)" style="stroke:#181818;stroke-width:1.5;"/><path d="M931.2749,1047.9922 C931.2749,1057.9922 949.2749,1057.9922 949.2749,1057.9922 C949.2749,1057.9922 967.2749,1057.9922 967.2749,1047.9922 " fill="none" style="stroke:#181818;stroke-width:1.5;"/><rect fill="#FFFFFF" filter="url(#f1te025r4m0h7a)" height="881.168" style="stroke:#181818;stroke-width:1.0;" width="10" x="319.7388" y="129.2031"/><rect fill="#FFFFFF" filter="url(#f1te025r4m0h7a)" height="523.918" style="stroke:#181818;stroke-width:1.0;" width="10" x="556.4766" y="278.998"/><rect fill="#FFFFFF" filter="url(#f1te025r4m0h7a)" height="93.873" style="stroke:#181818;stroke-width:1.0;" width="10" x="713.3374" y="310.2891"/><rect fill="#FFFFFF" filter="url(#f1te025r4m0h7a)" height="230.668" style="stroke:#181818;stroke-width:1.0;" width="10" x="819.6787" y="540.957"/><rect fill="#FFFFFF" filter="url(#f1te025r4m0h7a)" height="31.291" style="stroke:#181818;stroke-width:1.0;" width="10" x="944.2749" y="341.5801"/><path d="M12.5,86.6211 L306.7988,86.6211 L306.7988,95.9121 L296.7988,105.9121 L10,105.9121 L10,89.1211 A2.5,2.5 0 0 1 12.5,86.6211 " fill="#EEEEEE" style="stroke:#000000;stroke-width:1.5;"/><rect fill="none" height="820.877" rx="2.5" ry="2.5" style="stroke:#000000;stroke-width:1.5;" width="1024.1504" x="10" y="86.6211"/><text fill="#000000" font-family="sans-serif" font-size="13" font-weight="bold" lengthAdjust="spacing" textLength="251.7988" x="25" y="101.6494">&#1055;&#1088;&#1086;&#1094;&#1077;&#1089;&#1089; &#1072;&#1091;&#1090;&#1077;&#1085;&#1090;&#1080;&#1092;&#1080;&#1082;&#1072;&#1094;&#1080;&#1080; (POST /login)</text><polygon fill="#181818" points="307.7388,125.2031,317.7388,129.2031,307.7388,133.2031,311.7388,129.2031" style="stroke:#181818;stroke-width:1.0;"/><line style="stroke:#181818;stroke-width:1.0;" x1="98.5171" x2="313.7388" y1="129.2031" y2="129.2031"/><text fill="#000000" font-family="sans-serif" font-size="13" lengthAdjust="spacing" textLength="35.3945" x="105.5171" y="123.9404">POST</text><text fill="#000000" font-family="sans-serif" font-size="13" lengthAdjust="spacing" textLength="3.6118" x="140.9116" y="123.9404">&#160;</text><text fill="#000000" font-family="sans-serif" font-size="13" lengthAdjust="spacing" textLength="31.0781" x="144.5234" y="123.9404">/login</text><text fill="#000000" font-family="sans-serif" font-size="13" lengthAdjust="spacing" textLength="3.6118" x="175.6016" y="123.9404">&#160;</text><text fill="#000000" font-family="sans-serif" font-size="13" lengthAdjust="spacing" textLength="116.3271" x="179.2134" y="123.9404">(LoginRequestDTO)</text><line style="stroke:#181818;stroke-width:1.0;" x1="329.7388" x2="371.7388" y1="160.4941" y2="160.4941"/><line style="stroke:#181818;stroke-width:1.0;" x1="371.7388" x2="371.7388" y1="160.4941" y2="173.4941"/><line style="stroke:#181818;stroke-width:1.0;" x1="330.7388" x2="371.7388" y1="173.4941" y2="173.4941"/><polygon fill="#181818" points="340.7388,169.4941,330.7388,173.4941,340.7388,177.4941,336.7388,173.4941" style="stroke:#181818;stroke-width:1.0;"/><text fill="#000000" font-family="sans-serif" font-size="13" font-weight="bold" lengthAdjust="spacing" textLength="15.8882" x="336.7388" y="155.2314">[1]</text><text fill="#000000" font-family="sans-serif" font-size="13" lengthAdjust="spacing" textLength="3.6118" x="352.627" y="155.2314">&#160;</text><text fill="#000000" font-family="sans-serif" font-size="13" lengthAdjust="spacing" textLength="67.3105" x="356.2388" y="155.2314">&#1042;&#1072;&#1083;&#1080;&#1076;&#1072;&#1094;&#1080;&#1103;</text><text fill="#000000" font-family="sans-serif" font-size="13" lengthAdjust="spacing" textLength="3.6118" x="423.5493" y="155.2314">&#160;</text><text fill="#000000" font-family="sans-serif" font-size="13" lengthAdjust="spacing" textLength="27.4409" x="427.1611" y="155.2314">DTO</text><text fill="#000000" font-family="sans-serif" font-size="13" lengthAdjust="spacing" textLength="3.6118" x="454.6021" y="155.2314">&#160;</text><text fill="#000000" font-family="sans-serif" font-size="13" lengthAdjust="spacing" textLength="50.7622" x="458.2139" y="155.2314">(@Valid)</text><path d="M22.5,188.4941 L80.1709,188.4941 L80.1709,197.7852 L70.1709,207.7852 L20,207.7852 L20,190.9941 A2.5,2.5 0 0 1 22.5,188.4941 " fill="#EEEEEE" style="stroke:#000000;stroke-width:1.5;"/><rect fill="none" height="712.0039" rx="2.5" ry="2.5" style="stroke:#000000;stroke-width:1.5;" width="1004.1504" x="20" y="188.4941"/><text fill="#000000" font-family="sans-serif" font-size="13" font-weight="bold" lengthAdjust="spacing" textLength="15.1709" x="35" y="203.5225">alt</text><text fill="#000000" font-family="sans-serif" font-size="11" font-weight="bold" lengthAdjust="spacing" textLength="187.1235" x="95.1709" y="202.3643">[&#1042;&#1093;&#1086;&#1076;&#1085;&#1099;&#1077; &#1087;&#1072;&#1088;&#1072;&#1084;&#1077;&#1090;&#1088;&#1099; &#1085;&#1077;&#1074;&#1072;&#1083;&#1080;&#1076;&#1085;&#1099;]</text><polygon fill="#FF0000" points="109.5171,227.0762,99.5171,231.0762,109.5171,235.0762,105.5171,231.0762" style="stroke:#FF0000;stroke-width:1.0;"/><line style="stroke:#FF0000;stroke-width:1.0;stroke-dasharray:2.0,2.0;" x1="103.5171" x2="318.7388" y1="231.0762" y2="231.0762"/><text fill="#FF0000" font-family="sans-serif" font-size="13" lengthAdjust="spacing" textLength="21.6899" x="115.5171" y="225.8135">400</text><text fill="#FF0000" font-family="sans-serif" font-size="13" lengthAdjust="spacing" textLength="3.6118" x="137.207" y="225.8135">&#160;</text><text fill="#FF0000" font-family="sans-serif" font-size="13" lengthAdjust="spacing" textLength="26.73" x="140.8188" y="225.8135">BAD</text><text fill="#FF0000" font-family="sans-serif" font-size="13" lengthAdjust="spacing" textLength="3.6118" x="167.5488" y="225.8135">&#160;</text><text fill="#FF0000" font-family="sans-serif" font-size="13" lengthAdjust="spacing" textLength="62.8418" x="171.1606" y="225.8135">REQUEST</text><line style="stroke:#000000;stroke-width:1.0;stroke-dasharray:2.0,2.0;" x1="20" x2="1024.1504" y1="240.0762" y2="240.0762"/><text fill="#000000" font-family="sans-serif" font-size="11" font-weight="bold" lengthAdjust="spacing" textLength="174.3618" x="25" y="251.9463">[&#1042;&#1093;&#1086;&#1076;&#1085;&#1099;&#1077; &#1087;&#1072;&#1088;&#1072;&#1084;&#1077;&#1090;&#1088;&#1099; &#1074;&#1072;&#1083;&#1080;&#1076;&#1085;&#1099;]</text><polygon fill="#181818" points="544.4766,274.998,554.4766,278.998,544.4766,282.998,548.4766,278.998" style="stroke:#181818;stroke-width:1.0;"/><line style="stroke:#181818;stroke-width:1.0;" x1="329.7388" x2="550.4766" y1="278.998" y2="278.998"/><text fill="#000000" font-family="sans-serif" font-size="13" font-weight="bold" lengthAdjust="spacing" textLength="15.8882" x="336.7388" y="273.7354">[2]</text><text fill="#000000" font-family="sans-serif" font-size="13" lengthAdjust="spacing" textLength="3.6118" x="352.627" y="273.7354">&#160;</text><text fill="#000000" font-family="sans-serif" font-size="13" lengthAdjust="spacing" textLength="182.8188" x="356.2388" y="273.7354">authenticate(loginRequestDTO)</text><polygon fill="#181818" points="701.3374,306.2891,711.3374,310.2891,701.3374,314.2891,705.3374,310.2891" style="stroke:#181818;stroke-width:1.0;"/><line style="stroke:#181818;stroke-width:1.0;" x1="566.4766" x2="707.3374" y1="310.2891" y2="310.2891"/><text fill="#000000" font-family="sans-serif" font-size="13" font-weight="bold" lengthAdjust="spacing" textLength="15.8882" x="573.4766" y="305.0264">[3]</text><text fill="#000000" font-family="sans-serif" font-size="13" lengthAdjust="spacing" textLength="3.6118" x="589.3647" y="305.0264">&#160;</text><text fill="#000000" font-family="sans-serif" font-size="13" lengthAdjust="spacing" textLength="108.3608" x="592.9766" y="305.0264">findByEmail(email)</text><polygon fill="#181818" points="932.2749,337.5801,942.2749,341.5801,932.2749,345.5801,936.2749,341.5801" style="stroke:#181818;stroke-width:1.0;"/><line style="stroke:#181818;stroke-width:1.0;" x1="723.3374" x2="938.2749" y1="341.5801" y2="341.5801"/><text fill="#000000" font-family="sans-serif" font-size="13" lengthAdjust="spacing" textLength="50.5718" x="730.3374" y="336.3174">SELECT</text><text fill="#000000" font-family="sans-serif" font-size="13" lengthAdjust="spacing" textLength="3.6118" x="780.9092" y="336.3174">&#160;</text><text fill="#000000" font-family="sans-serif" font-size="13" lengthAdjust="spacing" textLength="38.27" x="784.521" y="336.3174">FROM</text><text fill="#000000" font-family="sans-serif" font-size="13" lengthAdjust="spacing" textLength="3.6118" x="822.791" y="336.3174">&#160;</text><text fill="#000000" font-family="sans-serif" font-size="13" lengthAdjust="spacing" textLength="31.7891" x="826.4028" y="336.3174">users</text><polygon fill="#181818" points="734.3374,368.8711,724.3374,372.8711,734.3374,376.8711,730.3374,372.8711" style="stroke:#181818;stroke-width:1.0;"/><line style="stroke:#181818;stroke-width:1.0;stroke-dasharray:2.0,2.0;" x1="728.3374" x2="948.2749" y1="372.8711" y2="372.8711"/><text fill="#000000" font-family="sans-serif" font-size="13" lengthAdjust="spacing" textLength="25.2891" x="740.3374" y="367.6084">user</text><text fill="#000000" font-family="sans-serif" font-size="13" lengthAdjust="spacing" textLength="3.6118" x="765.6265" y="367.6084">&#160;</text><text fill="#000000" font-family="sans-serif" font-size="13" lengthAdjust="spacing" textLength="3.6118" x="769.2383" y="367.6084">/</text><text fill="#000000" font-family="sans-serif" font-size="13" lengthAdjust="spacing" textLength="3.6118" x="772.8501" y="367.6084">&#160;</text><text fill="#000000" font-family="sans-serif" font-size="13" lengthAdjust="spacing" textLength="20.2363" x="776.4619" y="367.6084">null</text><polygon fill="#181818" points="577.4766,400.1621,567.4766,404.1621,577.4766,408.1621,573.4766,404.1621" style="stroke:#181818;stroke-width:1.0;"/><line style="stroke:#181818;stroke-width:1.0;stroke-dasharray:2.0,2.0;" x1="571.4766" x2="717.3374" y1="404.1621" y2="404.1621"/><text fill="#000000" font-family="sans-serif" font-size="13" lengthAdjust="spacing" textLength="91.0508" x="583.4766" y="398.8994">Optional&lt;User&gt;</text><path d="M32.5,419.1621 L90.1709,419.1621 L90.1709,428.4531 L80.1709,438.4531 L30,438.4531 L30,421.6621 A2.5,2.5 0 0 1 32.5,419.1621 " fill="#EEEEEE" style="stroke:#000000;stroke-width:1.5;"/><rect fill="none" height="474.3359" rx="2.5" ry="2.5" style="stroke:#000000;stroke-width:1.5;" width="864.3994" x="30" y="419.1621"/><text fill="#000000" font-family="sans-serif" font-size="13" font-weight="bold" lengthAdjust="spacing" textLength="15.1709" x="45" y="434.1904">alt</text><text fill="#000000" font-family="sans-serif" font-size="11" font-weight="bold" lengthAdjust="spacing" textLength="144.1655" x="105.1709" y="433.0322">[&#1055;&#1086;&#1083;&#1100;&#1079;&#1086;&#1074;&#1072;&#1090;&#1077;&#1083;&#1100; &#1085;&#1077; &#1085;&#1072;&#1081;&#1076;&#1077;&#1085;]</text><polygon fill="#FF0000" points="340.7388,457.7441,330.7388,461.7441,340.7388,465.7441,336.7388,461.7441" style="stroke:#FF0000;stroke-width:1.0;"/><line style="stroke:#FF0000;stroke-width:1.0;stroke-dasharray:2.0,2.0;" x1="334.7388" x2="555.4766" y1="461.7441" y2="461.7441"/><text fill="#FF0000" font-family="sans-serif" font-size="13" lengthAdjust="spacing" textLength="96.0908" x="346.7388" y="456.4814">Optional.empty()</text><polygon fill="#FF0000" points="109.5171,489.0352,99.5171,493.0352,109.5171,497.0352,105.5171,493.0352" style="stroke:#FF0000;stroke-width:1.0;"/><line style="stroke:#FF0000;stroke-width:1.0;stroke-dasharray:2.0,2.0;" x1="103.5171" x2="318.7388" y1="493.0352" y2="493.0352"/><text fill="#FF0000" font-family="sans-serif" font-size="13" lengthAdjust="spacing" textLength="21.6899" x="115.5171" y="487.7725">401</text><text fill="#FF0000" font-family="sans-serif" font-size="13" lengthAdjust="spacing" textLength="3.6118" x="137.207" y="487.7725">&#160;</text><text fill="#FF0000" font-family="sans-serif" font-size="13" lengthAdjust="spacing" textLength="103.2764" x="140.8188" y="487.7725">UNAUTHORIZED</text><line style="stroke:#000000;stroke-width:1.0;stroke-dasharray:2.0,2.0;" x1="30" x2="894.3994" y1="502.0352" y2="502.0352"/><text fill="#000000" font-family="sans-serif" font-size="11" font-weight="bold" lengthAdjust="spacing" textLength="95.063" x="35" y="513.9053">[&#1047;&#1072;&#1087;&#1080;&#1089;&#1100; &#1085;&#1072;&#1081;&#1076;&#1077;&#1085;&#1072;]</text><polygon fill="#181818" points="807.6787,536.957,817.6787,540.957,807.6787,544.957,811.6787,540.957" style="stroke:#181818;stroke-width:1.0;"/><line style="stroke:#181818;stroke-width:1.0;" x1="566.4766" x2="813.6787" y1="540.957" y2="540.957"/><text fill="#000000" font-family="sans-serif" font-size="13" font-weight="bold" lengthAdjust="spacing" textLength="15.8882" x="573.4766" y="535.6943">[4]</text><text fill="#000000" font-family="sans-serif" font-size="13" lengthAdjust="spacing" textLength="3.6118" x="589.3647" y="535.6943">&#160;</text><text fill="#000000" font-family="sans-serif" font-size="13" lengthAdjust="spacing" textLength="78.019" x="592.9766" y="535.6943">matches(raw,</text><text fill="#000000" font-family="sans-serif" font-size="13" lengthAdjust="spacing" textLength="3.6118" x="670.9956" y="535.6943">&#160;</text><text fill="#000000" font-family="sans-serif" font-size="13" lengthAdjust="spacing" textLength="32.519" x="674.6074" y="535.6943">hash)</text><path d="M42.5,555.957 L100.1709,555.957 L100.1709,565.248 L90.1709,575.248 L40,575.248 L40,558.457 A2.5,2.5 0 0 1 42.5,555.957 " fill="#EEEEEE" style="stroke:#000000;stroke-width:1.5;"/><rect fill="none" height="330.541" rx="2.5" ry="2.5" style="stroke:#000000;stroke-width:1.5;" width="844.3994" x="40" y="555.957"/><text fill="#000000" font-family="sans-serif" font-size="13" font-weight="bold" lengthAdjust="spacing" textLength="15.1709" x="55" y="570.9854">alt</text><text fill="#000000" font-family="sans-serif" font-size="11" font-weight="bold" lengthAdjust="spacing" textLength="147.7588" x="115.1709" y="569.8271">[&#1055;&#1072;&#1088;&#1086;&#1083;&#1100; &#1080; &#1093;&#1101;&#1096; &#1085;&#1077; &#1089;&#1086;&#1074;&#1087;&#1072;&#1083;&#1080;]</text><polygon fill="#FF0000" points="577.4766,594.5391,567.4766,598.5391,577.4766,602.5391,573.4766,598.5391" style="stroke:#FF0000;stroke-width:1.0;"/><line style="stroke:#FF0000;stroke-width:1.0;stroke-dasharray:2.0,2.0;" x1="571.4766" x2="818.6787" y1="598.5391" y2="598.5391"/><text fill="#FF0000" font-family="sans-serif" font-size="13" lengthAdjust="spacing" textLength="27.46" x="583.4766" y="593.2764">false</text><polygon fill="#FF0000" points="340.7388,625.8301,330.7388,629.8301,340.7388,633.8301,336.7388,629.8301" style="stroke:#FF0000;stroke-width:1.0;"/><line style="stroke:#FF0000;stroke-width:1.0;stroke-dasharray:2.0,2.0;" x1="334.7388" x2="555.4766" y1="629.8301" y2="629.8301"/><text fill="#FF0000" font-family="sans-serif" font-size="13" lengthAdjust="spacing" textLength="96.0908" x="346.7388" y="624.5674">Optional.empty()</text><polygon fill="#FF0000" points="109.5171,657.1211,99.5171,661.1211,109.5171,665.1211,105.5171,661.1211" style="stroke:#FF0000;stroke-width:1.0;"/><line style="stroke:#FF0000;stroke-width:1.0;stroke-dasharray:2.0,2.0;" x1="103.5171" x2="318.7388" y1="661.1211" y2="661.1211"/><text fill="#FF0000" font-family="sans-serif" font-size="13" lengthAdjust="spacing" textLength="21.6899" x="115.5171" y="655.8584">401</text><text fill="#FF0000" font-family="sans-serif" font-size="13" lengthAdjust="spacing" textLength="3.6118" x="137.207" y="655.8584">&#160;</text><text fill="#FF0000" font-family="sans-serif" font-size="13" lengthAdjust="spacing" textLength="103.2764" x="140.8188" y="655.8584">UNAUTHORIZED</text><line style="stroke:#000000;stroke-width:1.0;stroke-dasharray:2.0,2.0;" x1="40" x2="884.3994" y1="670.1211" y2="670.1211"/><text fill="#000000" font-family="sans-serif" font-size="11" font-weight="bold" lengthAdjust="spacing" textLength="131.9409" x="45" y="681.9912">[&#1055;&#1072;&#1088;&#1086;&#1083;&#1100; &#1080; &#1093;&#1101;&#1096; &#1089;&#1086;&#1074;&#1087;&#1072;&#1083;&#1080;]</text><polygon fill="#181818" points="577.4766,705.043,567.4766,709.043,577.4766,713.043,573.4766,709.043" style="stroke:#181818;stroke-width:1.0;"/><line style="stroke:#181818;stroke-width:1.0;stroke-dasharray:2.0,2.0;" x1="571.4766" x2="818.6787" y1="709.043" y2="709.043"/><text fill="#000000" font-family="sans-serif" font-size="13" lengthAdjust="spacing" textLength="22.4009" x="583.4766" y="703.7803">true</text><polygon fill="#181818" points="807.6787,736.334,817.6787,740.334,807.6787,744.334,811.6787,740.334" style="stroke:#181818;stroke-width:1.0;"/><line style="stroke:#181818;stroke-width:1.0;" x1="566.4766" x2="813.6787" y1="740.334" y2="740.334"/><text fill="#000000" font-family="sans-serif" font-size="13" font-weight="bold" lengthAdjust="spacing" textLength="15.8882" x="573.4766" y="735.0713">[5]</text><text fill="#000000" font-family="sans-serif" font-size="13" lengthAdjust="spacing" textLength="3.6118" x="589.3647" y="735.0713">&#160;</text><text fill="#000000" font-family="sans-serif" font-size="13" lengthAdjust="spacing" textLength="126.458" x="592.9766" y="735.0713">generateToken(email,</text><text fill="#000000" font-family="sans-serif" font-size="13" lengthAdjust="spacing" textLength="3.6118" x="719.4346" y="735.0713">&#160;</text><text fill="#000000" font-family="sans-serif" font-size="13" lengthAdjust="spacing" textLength="26.0063" x="723.0464" y="735.0713">role)</text><polygon fill="#181818" points="577.4766,767.625,567.4766,771.625,577.4766,775.625,573.4766,771.625" style="stroke:#181818;stroke-width:1.0;"/><line style="stroke:#181818;stroke-width:1.0;stroke-dasharray:2.0,2.0;" x1="571.4766" x2="823.6787" y1="771.625" y2="771.625"/><text fill="#000000" font-family="sans-serif" font-size="13" lengthAdjust="spacing" textLength="26.7109" x="583.4766" y="766.3623">JWT</text><text fill="#000000" font-family="sans-serif" font-size="13" lengthAdjust="spacing" textLength="3.6118" x="610.1875" y="766.3623">&#160;</text><text fill="#000000" font-family="sans-serif" font-size="13" lengthAdjust="spacing" textLength="33.96" x="613.7993" y="766.3623">String</text><polygon fill="#181818" points="340.7388,798.916,330.7388,802.916,340.7388,806.916,336.7388,802.916" style="stroke:#181818;stroke-width:1.0;"/><line style="stroke:#181818;stroke-width:1.0;stroke-dasharray:2.0,2.0;" x1="334.7388" x2="560.4766" y1="802.916" y2="802.916"/><text fill="#000000" font-family="sans-serif" font-size="13" lengthAdjust="spacing" textLength="97.5635" x="346.7388" y="797.6533">Optional&lt;String&gt;</text><text fill="#000000" font-family="sans-serif" font-size="13" lengthAdjust="spacing" textLength="3.6118" x="444.3022" y="797.6533">&#160;</text><text fill="#000000" font-family="sans-serif" font-size="13" lengthAdjust="spacing" textLength="40.46" x="447.9141" y="797.6533">(token)</text><line style="stroke:#181818;stroke-width:1.0;" x1="329.7388" x2="371.7388" y1="834.207" y2="834.207"/><line style="stroke:#181818;stroke-width:1.0;" x1="371.7388" x2="371.7388" y1="834.207" y2="847.207"/><line style="stroke:#181818;stroke-width:1.0;" x1="330.7388" x2="371.7388" y1="847.207" y2="847.207"/><polygon fill="#181818" points="340.7388,843.207,330.7388,847.207,340.7388,851.207,336.7388,847.207" style="stroke:#181818;stroke-width:1.0;"/><text fill="#000000" font-family="sans-serif" font-size="13" font-weight="bold" lengthAdjust="spacing" textLength="15.8882" x="336.7388" y="828.9443">[6]</text><text fill="#000000" font-family="sans-serif" font-size="13" lengthAdjust="spacing" textLength="3.6118" x="352.627" y="828.9443">&#160;</text><text fill="#000000" font-family="sans-serif" font-size="13" lengthAdjust="spacing" textLength="51.3208" x="356.2388" y="828.9443">&#1052;&#1072;&#1087;&#1087;&#1080;&#1085;&#1075;</text><text fill="#000000" font-family="sans-serif" font-size="13" lengthAdjust="spacing" textLength="3.6118" x="407.5596" y="828.9443">&#160;</text><text fill="#000000" font-family="sans-serif" font-size="13" lengthAdjust="spacing" textLength="6.9063" x="411.1714" y="828.9443">&#1074;</text><text fill="#000000" font-family="sans-serif" font-size="13" lengthAdjust="spacing" textLength="3.6118" x="418.0776" y="828.9443">&#160;</text><text fill="#000000" font-family="sans-serif" font-size="13" lengthAdjust="spacing" textLength="117.7871" x="421.6895" y="828.9443">LoginResponseDTO</text><polygon fill="#181818" points="109.5171,874.498,99.5171,878.498,109.5171,882.498,105.5171,878.498" style="stroke:#181818;stroke-width:1.0;"/><line style="stroke:#181818;stroke-width:1.0;stroke-dasharray:2.0,2.0;" x1="103.5171" x2="318.7388" y1="878.498" y2="878.498"/><text fill="#000000" font-family="sans-serif" font-size="13" font-weight="bold" lengthAdjust="spacing" textLength="15.8882" x="115.5171" y="873.2354">[7]</text><text fill="#000000" font-family="sans-serif" font-size="13" lengthAdjust="spacing" textLength="3.6118" x="131.4053" y="873.2354">&#160;</text><text fill="#000000" font-family="sans-serif" font-size="13" lengthAdjust="spacing" textLength="21.6899" x="135.0171" y="873.2354">200</text><text fill="#000000" font-family="sans-serif" font-size="13" lengthAdjust="spacing" textLength="3.6118" x="156.707" y="873.2354">&#160;</text><text fill="#000000" font-family="sans-serif" font-size="13" lengthAdjust="spacing" textLength="18.7827" x="160.3188" y="873.2354">OK</text><text fill="#000000" font-family="sans-serif" font-size="13" lengthAdjust="spacing" textLength="3.6118" x="179.1016" y="873.2354">&#160;</text><text fill="#000000" font-family="sans-serif" font-size="13" lengthAdjust="spacing" textLength="39" x="182.7134" y="873.2354">(JSON</text><text fill="#000000" font-family="sans-serif" font-size="13" lengthAdjust="spacing" textLength="3.6118" x="221.7134" y="873.2354">&#160;</text><text fill="#000000" font-family="sans-serif" font-size="13" lengthAdjust="spacing" textLength="33.96" x="225.3252" y="873.2354">Body)</text><path d="M42.5,921.498 L193.8115,921.498 L193.8115,930.7891 L183.8115,940.7891 L40,940.7891 L40,923.998 A2.5,2.5 0 0 1 42.5,921.498 " fill="#EEEEEE" style="stroke:#000000;stroke-width:1.5;"/><rect fill="none" height="81.873" rx="2.5" ry="2.5" style="stroke:#000000;stroke-width:1.5;" width="577.7178" x="40" y="921.498"/><text fill="#000000" font-family="sans-serif" font-size="13" font-weight="bold" lengthAdjust="spacing" textLength="108.8115" x="55" y="936.5264">&#1057;&#1080;&#1089;&#1090;&#1077;&#1084;&#1085;&#1099;&#1077; &#1089;&#1073;&#1086;&#1080;</text><polygon fill="#FF0000" points="340.7388,960.0801,330.7388,964.0801,340.7388,968.0801,336.7388,964.0801" style="stroke:#FF0000;stroke-width:1.0;"/><line style="stroke:#FF0000;stroke-width:1.0;stroke-dasharray:2.0,2.0;" x1="334.7388" x2="560.4766" y1="964.0801" y2="964.0801"/><text fill="#FF0000" font-family="sans-serif" font-size="13" lengthAdjust="spacing" textLength="57.0908" x="346.7388" y="958.8174">Exception</text><text fill="#FF0000" font-family="sans-serif" font-size="13" lengthAdjust="spacing" textLength="3.6118" x="403.8296" y="958.8174">&#160;</text><text fill="#FF0000" font-family="sans-serif" font-size="13" lengthAdjust="spacing" textLength="44.0527" x="407.4414" y="958.8174">(Critical</text><text fill="#FF0000" font-family="sans-serif" font-size="13" lengthAdjust="spacing" textLength="3.6118" x="451.4941" y="958.8174">&#160;</text><text fill="#FF0000" font-family="sans-serif" font-size="13" lengthAdjust="spacing" textLength="33.2173" x="455.106" y="958.8174">Error)</text><polygon fill="#FF0000" points="109.5171,991.3711,99.5171,995.3711,109.5171,999.3711,105.5171,995.3711" style="stroke:#FF0000;stroke-width:1.0;"/><line style="stroke:#FF0000;stroke-width:1.0;stroke-dasharray:2.0,2.0;" x1="103.5171" x2="318.7388" y1="995.3711" y2="995.3711"/><text fill="#FF0000" font-family="sans-serif" font-size="13" lengthAdjust="spacing" textLength="21.6899" x="115.5171" y="990.1084">500</text><text fill="#FF0000" font-family="sans-serif" font-size="13" lengthAdjust="spacing" textLength="3.6118" x="137.207" y="990.1084">&#160;</text><text fill="#FF0000" font-family="sans-serif" font-size="13" lengthAdjust="spacing" textLength="64.2891" x="140.8188" y="990.1084">INTERNAL</text><text fill="#FF0000" font-family="sans-serif" font-size="13" lengthAdjust="spacing" textLength="3.6118" x="205.1079" y="990.1084">&#160;</text><text fill="#FF0000" font-family="sans-serif" font-size="13" lengthAdjust="spacing" textLength="53.46" x="208.7197" y="990.1084">SERVER</text><text fill="#FF0000" font-family="sans-serif" font-size="13" lengthAdjust="spacing" textLength="3.6118" x="262.1797" y="990.1084">&#160;</text><text fill="#FF0000" font-family="sans-serif" font-size="13" lengthAdjust="spacing" textLength="46.9473" x="265.7915" y="990.1084">ERROR</text><!--SRC=[hLRDRjj64BxpAGRIXJBY-gTHZ1g6K4caMhksbP9I0ZG8YhMuaOXGfBfSELPFTje41TAYG2wz50Zw1kwFKRU9xLVOVQFEBYMQ5EN6XmWGIIrdlvtvvfiPnK_zS4GO6O8x85xqp0_xmDcO6d7wmed6eTUCM4WPL3FhU-HeZyOnwLFN_vR2UdNLC0wKBM4JADNlRqCp2kFnaB8Ia1ZgJIYtxDOdzeOoEu8I6VF1SapPeT-Z9IXNhNlMXcq0VX2V-pr_H4AEG6Y6G9n5GJ25Qd8MB3PqPt1eDNqk6dRnqAnXrsM7HQj6aqr6V6Ldvs4diU9-41iqz02zDmoFS790OWebQ_PageY-zWugsjvgGDckj-gjDSFeisWyWlAktn_mveI48Dx8Ot4fNuepUI9FG9pAx-HpSIOky7eklnVdubzSUudtSp3ljzqEh0HHtmyhsa-aShccMTY4p4imTzNDeT-CQSojJZkn9Ztk7n9E4zhqadgwXbXQUhJsU6a9n6jnAjxYcNybPykV0K70_FG12Nolacmb0OVodX_pYHDXpEArV24kSSU5V2NEG5pXrcE4UOUHFPV7yXM82uphZnGPxJJEjHlBZygCUezh6DOcRFMY86ARQgLsTtKL6dKB7FlBhkrsjbRqkvhUJWCyF4le-_t8-p3dH6qc5qt7kg93PPE6A0ZapWmMCPjZToQtzCrqGM4hXMdWZnNm4p_q6XDxIFp0fEgw02tLfFge7mh6Qco2Q-_QpGwqdFOUZ578SN6lrKZNK8JBwVdA75OW70T1Qk3HHTkI0xEaj4VSZq8IRAdYgItQhZs-TcPE9cymEM_bZ-9ll6CYjDZnjrQ7kfoAVp0nM00fGex2L2DJoMPbCdFj8peSyObPoUdarb9RW-v-lTlvlEriVsLR1Oo2tdv1bw-mHawI85B_nQcnE8HQqa6q3Eug6Gm9xmreR3Box0uCI3oev3PU4wiRJ_vTWLsbzik4qNEGB-HFyeU4MtcY6RzAn9z3qPbMu5b-qundwNb2CFo5l7xOB7s8JCrbwpD6QNWJGxSa9rC7UZRUp40soLMLv3x5iObPx4HFQPXK-nt0KKOhjpaDPm-udE5GBbXdAwyea7nQPeq-BU84imOcLsvL_W-yqDRc-sOwG-xf6VAhhWki35JVdzXqOJgJuX7-6Q3OEczAU99gnDbGEElO-zjVWBdZjlUX4NcJl9CuXetvPtLNtzcqVJZmENM76268ttIbggRpRZeXCFM_O_AJf1SLN1ImVTIZcZymcynNOo40cx68vQNy7lbMCQxj_OxjxDTtiPSx3sm7RCTfEoc83Y6J00Nu7m00]--></g></svg>