<svg xmlns="http://www.w3.org/2000/svg" xmlns:xlink="http://www.w3.org/1999/xlink" contentStyleType="text/css" height="1209px" preserveAspectRatio="none" style="width:1426px;height:1209px;background:#FFFFFF;" version="1.1" viewBox="0 0 1426 1209" width="1426px" zoomAndPan="magnify"><defs><filter height="300%" id="f1wjfvp1r1flte" width="300%" x="-1" y="-1"><feGaussianBlur result="blurOut" stdDeviation="2.0"/><feColorMatrix in="blurOut" result="blurOut2" type="matrix" values="0 0 0 0 0 0 0 0 0 0 0 0 0 0 0 0 0 0 .4 0"/><feOffset dx="4.0" dy="4.0" in="blurOut2" result="blurOut3"/><feBlend in="SourceGraphic" in2="blurOut3" mode="normal"/></filter></defs><g><rect fill="#FFFFFF" filter="url(#f1wjfvp1r1flte)" height="989.623" style="stroke:#181818;stroke-width:1.0;" width="10" x="79.186" y="129.2031"/><rect fill="#FFFFFF" filter="url(#f1wjfvp1r1flte)" height="974.623" style="stroke:#181818;stroke-width:1.0;" width="10" x="287.8086" y="129.2031"/><rect fill="#FFFFFF" filter="url(#f1wjfvp1r1flte)" height="912.041" style="stroke:#181818;stroke-width:1.0;" width="10" x="523.0747" y="160.4941"/><rect fill="#FFFFFF" filter="url(#f1wjfvp1r1flte)" height="214.377" style="stroke:#181818;stroke-width:1.0;" width="10" x="815.0317" y="503.0352"/><rect fill="#FFFFFF" filter="url(#f1wjfvp1r1flte)" height="154.0859" style="stroke:#181818;stroke-width:1.0;" width="10" x="911.6313" y="791.2852"/><rect fill="#E0FFFF" filter="url(#f1wjfvp1r1flte)" height="1025.2051" rx="2.5" ry="2.5" style="stroke:#000000;stroke-width:1.5;" width="1404.3247" x="10" y="86.6211"/><rect fill="#FFFFF0" filter="url(#f1wjfvp1r1flte)" height="270.959" rx="2.5" ry="2.5" style="stroke:#000000;stroke-width:1.5;" width="774.6499" x="20" y="175.4941"/><rect fill="#FFE4E1" filter="url(#f1wjfvp1r1flte)" height="176.0859" rx="2.5" ry="2.5" style="stroke:#000000;stroke-width:1.5;" width="754.6499" x="30" y="263.3672"/><path d="M30,313.9492 L784.6499,313.9492 L784.6499,436.9531 A2.5,2.5 0 0 1 782.1499,439.4531 L32.5,439.4531 A2.5,2.5 0 0 1 30,436.9531 L30,313.9492 " fill="#E0FFFF" style="stroke:none;stroke-width:1.0;"/><rect fill="#FFE4E1" filter="url(#f1wjfvp1r1flte)" height="50.582" rx="2.5" ry="2.5" style="stroke:#000000;stroke-width:1.5;" width="552.0952" x="40" y="381.8711"/><rect fill="#F0F8FF" filter="url(#f1wjfvp1r1flte)" height="256.959" rx="2.5" ry="2.5" style="stroke:#000000;stroke-width:1.5;" width="845.728" x="30" y="460.4531"/><rect fill="#FFE4E1" filter="url(#f1wjfvp1r1flte)" height="192.377" rx="2.5" ry="2.5" style="stroke:#000000;stroke-width:1.5;" width="825.728" x="40" y="518.0352"/><path d="M40,599.9082 L865.728,599.9082 L865.728,707.9121 A2.5,2.5 0 0 1 863.228,710.4121 L42.5,710.4121 A2.5,2.5 0 0 1 40,707.9121 L40,599.9082 " fill="#E0FFFF" style="stroke:none;stroke-width:1.0;"/><rect fill="#F0FFF0" filter="url(#f1wjfvp1r1flte)" height="228.959" rx="2.5" ry="2.5" style="stroke:#000000;stroke-width:1.5;" width="957.5347" x="30" y="731.4121"/><rect fill="#FFE4E1" filter="url(#f1wjfvp1r1flte)" height="147.0859" rx="2.5" ry="2.5" style="stroke:#000000;stroke-width:1.5;" width="937.5347" x="40" y="806.2852"/><path d="M40,888.1582 L977.5347,888.1582 L977.5347,950.8711 A2.5,2.5 0 0 1 975.0347,953.3711 L42.5,953.3711 A2.5,2.5 0 0 1 40,950.8711 L40,888.1582 " fill="#E0FFFF" style="stroke:none;stroke-width:1.0;"/><rect fill="#F8F8FF" filter="url(#f1wjfvp1r1flte)" height="67.873" rx="2.5" ry="2.5" style="stroke:#000000;stroke-width:1.5;" width="940.2705" x="464.0542" y="974.3711"/><line style="stroke:#181818;stroke-width:0.5;stroke-dasharray:5.0,5.0;" x1="84" x2="84" y1="69.6211" y2="1128.8262"/><line style="stroke:#181818;stroke-width:0.5;stroke-dasharray:5.0,5.0;" x1="292.064" x2="292.064" y1="69.6211" y2="1128.8262"/><line style="stroke:#181818;stroke-width:0.5;stroke-dasharray:5.0,5.0;" x1="528.0542" x2="528.0542" y1="69.6211" y2="1128.8262"/><line style="stroke:#181818;stroke-width:0.5;stroke-dasharray:5.0,5.0;" x1="819.3354" x2="819.3354" y1="69.6211" y2="1128.8262"/><line style="stroke:#181818;stroke-width:0.5;stroke-dasharray:5.0,5.0;" x1="915.728" x2="915.728" y1="69.6211" y2="1128.8262"/><line style="stroke:#181818;stroke-width:0.5;stroke-dasharray:5.0,5.0;" x1="1003.5347" x2="1003.5347" y1="69.6211" y2="1128.8262"/><rect fill="#FFF2CC" filter="url(#f1wjfvp1r1flte)" height="32.6211" rx="2.5" ry="2.5" style="stroke:#181818;stroke-width:0.5;" width="65.3721" x="50" y="33"/><text fill="#000000" font-family="sans-serif" font-size="14" lengthAdjust="spacing" textLength="51.3721" x="57" y="55.1074">frontend</text><rect fill="#FFF2CC" filter="url(#f1wjfvp1r1flte)" height="32.6211" rx="2.5" ry="2.5" style="stroke:#181818;stroke-width:0.5;" width="65.3721" x="50" y="1127.8262"/><text fill="#000000" font-family="sans-serif" font-size="14" lengthAdjust="spacing" textLength="51.3721" x="57" y="1149.9336">frontend</text><text fill="#000000" font-family="sans-serif" font-size="14" lengthAdjust="spacing" textLength="75.4893" x="252.064" y="66.1074">api-gateway</text><path d="M272.3086,23 L272.3086,47 M272.3086,35 L289.3086,35 " fill="none" filter="url(#f1wjfvp1r1flte)" style="stroke:#181818;stroke-width:0.5;"/><ellipse cx="301.3086" cy="35" fill="#FEF9E7" filter="url(#f1wjfvp1r1flte)" rx="12" ry="12" style="stroke:#181818;stroke-width:0.5;"/><text fill="#000000" font-family="sans-serif" font-size="14" lengthAdjust="spacing" textLength="75.4893" x="252.064" y="1142.9336">api-gateway</text><path d="M272.3086,1150.4473 L272.3086,1174.4473 M272.3086,1162.4473 L289.3086,1162.4473 " fill="none" filter="url(#f1wjfvp1r1flte)" style="stroke:#181818;stroke-width:0.5;"/><ellipse cx="301.3086" cy="1162.4473" fill="#FEF9E7" filter="url(#f1wjfvp1r1flte)" rx="12" ry="12" style="stroke:#181818;stroke-width:0.5;"/><rect fill="#F4ECF7" filter="url(#f1wjfvp1r1flte)" height="32.6211" rx="2.5" ry="2.5" style="stroke:#181818;stroke-width:0.5;" width="105.041" x="474.0542" y="33"/><text fill="#000000" font-family="sans-serif" font-size="14" lengthAdjust="spacing" textLength="91.041" x="481.0542" y="55.1074">patient-service</text><rect fill="#F4ECF7" filter="url(#f1wjfvp1r1flte)" height="32.6211" rx="2.5" ry="2.5" style="stroke:#181818;stroke-width:0.5;" width="105.041" x="474.0542" y="1127.8262"/><text fill="#000000" font-family="sans-serif" font-size="14" lengthAdjust="spacing" textLength="91.041" x="481.0542" y="1149.9336">patient-service</text><text fill="#000000" font-family="sans-serif" font-size="14" lengthAdjust="spacing" textLength="65.3926" x="784.3354" y="66.1074">patient_db</text><path d="M802.0317,15 C802.0317,5 820.0317,5 820.0317,5 C820.0317,5 838.0317,5 838.0317,15 L838.0317,41 C838.0317,51 820.0317,51 820.0317,51 C820.0317,51 802.0317,51 802.0317,41 L802.0317,15 " fill="#EBF5FB" filter="url(#f1wjfvp1r1flte)" style="stroke:#181818;stroke-width:1.5;"/><path d="M802.0317,15 C802.0317,25 820.0317,25 820.0317,25 C820.0317,25 838.0317,25 838.0317,15 " fill="none" style="stroke:#181818;stroke-width:1.5;"/><text fill="#000000" font-family="sans-serif" font-size="14" lengthAdjust="spacing" textLength="65.3926" x="784.3354" y="1142.9336">patient_db</text><path d="M802.0317,1156.4473 C802.0317,1146.4473 820.0317,1146.4473 820.0317,1146.4473 C820.0317,1146.4473 838.0317,1146.4473 838.0317,1156.4473 L838.0317,1182.4473 C838.0317,1192.4473 820.0317,1192.4473 820.0317,1192.4473 C820.0317,1192.4473 802.0317,1192.4473 802.0317,1182.4473 L802.0317,1156.4473 " fill="#EBF5FB" filter="url(#f1wjfvp1r1flte)" style="stroke:#181818;stroke-width:1.5;"/><path d="M802.0317,1156.4473 C802.0317,1166.4473 820.0317,1166.4473 820.0317,1166.4473 C820.0317,1166.4473 838.0317,1166.4473 838.0317,1156.4473 " fill="none" style="stroke:#181818;stroke-width:1.5;"/><rect fill="#D5F5E3" filter="url(#f1wjfvp1r1flte)" height="32.6211" rx="2.5" ry="2.5" style="stroke:#181818;stroke-width:0.5;" width="98.8066" x="865.728" y="33"/><text fill="#000000" font-family="sans-serif" font-size="14" lengthAdjust="spacing" textLength="84.8066" x="872.728" y="55.1074">billing-service</text><rect fill="#D5F5E3" filter="url(#f1wjfvp1r1flte)" height="32.6211" rx="2.5" ry="2.5" style="stroke:#181818;stroke-width:0.5;" width="98.8066" x="865.728" y="1127.8262"/><text fill="#000000" font-family="sans-serif" font-size="14" lengthAdjust="spacing" textLength="84.8066" x="872.728" y="1149.9336">billing-service</text><path d="M982.5347,41 L1025.9966,41 C1030.9966,41 1030.9966,55.3105 1030.9966,55.3105 C1030.9966,55.3105 1030.9966,69.6211 1025.9966,69.6211 L982.5347,69.6211 C977.5347,69.6211 977.5347,55.3105 977.5347,55.3105 C977.5347,55.3105 977.5347,41 982.5347,41 " fill="#FADBD8" filter="url(#f1wjfvp1r1flte)" style="stroke:#181818;stroke-width:0.5;"/><path d="M1025.9966,41 C1020.9966,41 1020.9966,55.3105 1020.9966,55.3105 C1020.9966,69.6211 1025.9966,69.6211 1025.9966,69.6211 " fill="none" style="stroke:#181818;stroke-width:0.5;"/><text fill="#000000" font-family="sans-serif" font-size="14" lengthAdjust="spacing" textLength="33.4619" x="982.5347" y="61.1074">kafka</text><path d="M982.5347,1127.8262 L1025.9966,1127.8262 C1030.9966,1127.8262 1030.9966,1142.1367 1030.9966,1142.1367 C1030.9966,1142.1367 1030.9966,1156.4473 1025.9966,1156.4473 L982.5347,1156.4473 C977.5347,1156.4473 977.5347,1142.1367 977.5347,1142.1367 C977.5347,1142.1367 977.5347,1127.8262 982.5347,1127.8262 " fill="#FADBD8" filter="url(#f1wjfvp1r1flte)" style="stroke:#181818;stroke-width:0.5;"/><path d="M1025.9966,1127.8262 C1020.9966,1127.8262 1020.9966,1142.1367 1020.9966,1142.1367 C1020.9966,1156.4473 1025.9966,1156.4473 1025.9966,1156.4473 " fill="none" style="stroke:#181818;stroke-width:0.5;"/><text fill="#000000" font-family="sans-serif" font-size="14" lengthAdjust="spacing" textLength="33.4619" x="982.5347" y="1147.9336">kafka</text><rect fill="#FFFFFF" filter="url(#f1wjfvp1r1flte)" height="989.623" style="stroke:#181818;stroke-width:1.0;" width="10" x="79.186" y="129.2031"/><rect fill="#FFFFFF" filter="url(#f1wjfvp1r1flte)" height="974.623" style="stroke:#181818;stroke-width:1.0;" width="10" x="287.8086" y="129.2031"/><rect fill="#FFFFFF" filter="url(#f1wjfvp1r1flte)" height="912.041" style="stroke:#181818;stroke-width:1.0;" width="10" x="523.0747" y="160.4941"/><rect fill="#FFFFFF" filter="url(#f1wjfvp1r1flte)" height="214.377" style="stroke:#181818;stroke-width:1.0;" width="10" x="815.0317" y="503.0352"/><rect fill="#FFFFFF" filter="url(#f1wjfvp1r1flte)" height="154.0859" style="stroke:#181818;stroke-width:1.0;" width="10" x="911.6313" y="791.2852"/><path d="M12.5,86.6211 L356.9263,86.6211 L356.9263,95.9121 L346.9263,105.9121 L10,105.9121 L10,89.1211 A2.5,2.5 0 0 1 12.5,86.6211 " fill="#EEEEEE" style="stroke:#000000;stroke-width:1.5;"/><rect fill="none" height="1025.2051" rx="2.5" ry="2.5" style="stroke:#000000;stroke-width:1.5;" width="1404.3247" x="10" y="86.6211"/><text fill="#000000" font-family="sans-serif" font-size="13" font-weight="bold" lengthAdjust="spacing" textLength="301.9263" x="25" y="101.6494">&#1040;&#1083;&#1075;&#1086;&#1088;&#1080;&#1090;&#1084; &#1088;&#1072;&#1073;&#1086;&#1090;&#1099; &#1084;&#1077;&#1090;&#1086;&#1076;&#1072; POST /api/v1/patients</text><polygon fill="#181818" points="275.8086,125.2031,285.8086,129.2031,275.8086,133.2031,279.8086,129.2031" style="stroke:#181818;stroke-width:1.0;"/><line style="stroke:#181818;stroke-width:1.0;" x1="89.186" x2="281.8086" y1="129.2031" y2="129.2031"/><text fill="#000000" font-family="sans-serif" font-size="13" font-weight="bold" lengthAdjust="spacing" textLength="7.23" x="96.186" y="123.9404">1</text><text fill="#000000" font-family="sans-serif" font-size="13" lengthAdjust="spacing" textLength="35.3945" x="107.416" y="123.9404">POST</text><text fill="#000000" font-family="sans-serif" font-size="13" lengthAdjust="spacing" textLength="3.6118" x="142.8105" y="123.9404">&#160;</text><text fill="#000000" font-family="sans-serif" font-size="13" lengthAdjust="spacing" textLength="87.4453" x="146.4224" y="123.9404">/api/v1/patients</text><text fill="#000000" font-family="sans-serif" font-size="13" lengthAdjust="spacing" textLength="3.6118" x="233.8677" y="123.9404">&#160;</text><text fill="#000000" font-family="sans-serif" font-size="13" lengthAdjust="spacing" textLength="43.3291" x="237.4795" y="123.9404">(JSON)</text><polygon fill="#181818" points="511.0747,156.4941,521.0747,160.4941,511.0747,164.4941,515.0747,160.4941" style="stroke:#181818;stroke-width:1.0;"/><line style="stroke:#181818;stroke-width:1.0;" x1="297.8086" x2="517.0747" y1="160.4941" y2="160.4941"/><text fill="#000000" font-family="sans-serif" font-size="13" font-weight="bold" lengthAdjust="spacing" textLength="7.23" x="304.8086" y="155.2314">2</text><text fill="#000000" font-family="sans-serif" font-size="13" lengthAdjust="spacing" textLength="93.52" x="316.0386" y="155.2314">&#1055;&#1088;&#1086;&#1082;&#1089;&#1080;&#1088;&#1086;&#1074;&#1072;&#1085;&#1080;&#1077;</text><text fill="#000000" font-family="sans-serif" font-size="13" lengthAdjust="spacing" textLength="3.6118" x="409.5586" y="155.2314">&#160;</text><text fill="#000000" font-family="sans-serif" font-size="13" lengthAdjust="spacing" textLength="48.4199" x="413.1704" y="155.2314">&#1079;&#1072;&#1087;&#1088;&#1086;&#1089;&#1072;</text><path d="M22.5,175.4941 L296.4863,175.4941 L296.4863,184.7852 L286.4863,194.7852 L20,194.7852 L20,177.9941 A2.5,2.5 0 0 1 22.5,175.4941 " fill="#EEEEEE" style="stroke:#000000;stroke-width:1.5;"/><rect fill="none" height="270.959" rx="2.5" ry="2.5" style="stroke:#000000;stroke-width:1.5;" width="774.6499" x="20" y="175.4941"/><text fill="#000000" font-family="sans-serif" font-size="13" font-weight="bold" lengthAdjust="spacing" textLength="231.4863" x="35" y="190.5225">&#1042;&#1072;&#1083;&#1080;&#1076;&#1072;&#1094;&#1080;&#1103; &#1080; &#1087;&#1072;&#1088;&#1089;&#1080;&#1085;&#1075; &#1076;&#1072;&#1085;&#1085;&#1099;&#1093; (DTO)</text><line style="stroke:#181818;stroke-width:1.0;" x1="533.0747" x2="575.0747" y1="235.3672" y2="235.3672"/><line style="stroke:#181818;stroke-width:1.0;" x1="575.0747" x2="575.0747" y1="235.3672" y2="248.3672"/><line style="stroke:#181818;stroke-width:1.0;" x1="534.0747" x2="575.0747" y1="248.3672" y2="248.3672"/><polygon fill="#181818" points="544.0747,244.3672,534.0747,248.3672,544.0747,252.3672,540.0747,248.3672" style="stroke:#181818;stroke-width:1.0;"/><text fill="#000000" font-family="sans-serif" font-size="13" font-weight="bold" lengthAdjust="spacing" textLength="7.23" x="540.0747" y="221.459">3</text><text fill="#000000" font-family="sans-serif" font-size="13" lengthAdjust="spacing" textLength="67.3105" x="551.3047" y="212.8135">&#1042;&#1072;&#1083;&#1080;&#1076;&#1072;&#1094;&#1080;&#1103;</text><text fill="#000000" font-family="sans-serif" font-size="13" lengthAdjust="spacing" textLength="3.6118" x="618.6152" y="212.8135">&#160;</text><text fill="#000000" font-family="sans-serif" font-size="13" lengthAdjust="spacing" textLength="116.3335" x="622.2271" y="212.8135">PatientRequestDTO</text><text fill="#000000" font-family="sans-serif" font-size="13" lengthAdjust="spacing" textLength="59.2363" x="551.3047" y="230.1045">(JSR-303)</text><path d="M32.5,263.3672 L90.1709,263.3672 L90.1709,272.6582 L80.1709,282.6582 L30,282.6582 L30,265.8672 A2.5,2.5 0 0 1 32.5,263.3672 " fill="#EEEEEE" style="stroke:#000000;stroke-width:1.5;"/><rect fill="none" height="176.0859" rx="2.5" ry="2.5" style="stroke:#000000;stroke-width:1.5;" width="754.6499" x="30" y="263.3672"/><text fill="#000000" font-family="sans-serif" font-size="13" font-weight="bold" lengthAdjust="spacing" textLength="15.1709" x="45" y="278.3955">alt</text><text fill="#000000" font-family="sans-serif" font-size="11" font-weight="bold" lengthAdjust="spacing" textLength="241.6616" x="105.1709" y="277.2373">[&#1054;&#1096;&#1080;&#1073;&#1082;&#1072; &#1074;&#1072;&#1083;&#1080;&#1076;&#1072;&#1094;&#1080;&#1080; (null, size, email format)]</text><polygon fill="#FF0000" points="100.186,301.9492,90.186,305.9492,100.186,309.9492,96.186,305.9492" style="stroke:#FF0000;stroke-width:1.0;"/><line style="stroke:#FF0000;stroke-width:1.0;stroke-dasharray:2.0,2.0;" x1="94.186" x2="522.0747" y1="305.9492" y2="305.9492"/><text fill="#FF0000" font-family="sans-serif" font-size="13" lengthAdjust="spacing" textLength="21.6899" x="106.186" y="300.6865">400</text><text fill="#FF0000" font-family="sans-serif" font-size="13" lengthAdjust="spacing" textLength="3.6118" x="127.876" y="300.6865">&#160;</text><text fill="#FF0000" font-family="sans-serif" font-size="13" lengthAdjust="spacing" textLength="26.73" x="131.4878" y="300.6865">BAD</text><text fill="#FF0000" font-family="sans-serif" font-size="13" lengthAdjust="spacing" textLength="3.6118" x="158.2178" y="300.6865">&#160;</text><text fill="#FF0000" font-family="sans-serif" font-size="13" lengthAdjust="spacing" textLength="62.8418" x="161.8296" y="300.6865">REQUEST</text><text fill="#FF0000" font-family="sans-serif" font-size="13" lengthAdjust="spacing" textLength="3.6118" x="224.6714" y="300.6865">&#160;</text><text fill="#FF0000" font-family="sans-serif" font-size="13" lengthAdjust="spacing" textLength="61.4263" x="228.2832" y="300.6865">(Validation</text><text fill="#FF0000" font-family="sans-serif" font-size="13" lengthAdjust="spacing" textLength="3.6118" x="289.7095" y="300.6865">&#160;</text><text fill="#FF0000" font-family="sans-serif" font-size="13" lengthAdjust="spacing" textLength="33.2173" x="293.3213" y="300.6865">Error)</text><line style="stroke:#000000;stroke-width:1.0;stroke-dasharray:2.0,2.0;" x1="30" x2="784.6499" y1="314.9492" y2="314.9492"/><text fill="#000000" font-family="sans-serif" font-size="11" font-weight="bold" lengthAdjust="spacing" textLength="124.126" x="35" y="326.8193">[&#1059;&#1089;&#1087;&#1077;&#1096;&#1085;&#1072;&#1103; &#1074;&#1072;&#1083;&#1080;&#1076;&#1072;&#1094;&#1080;&#1103;]</text><line style="stroke:#181818;stroke-width:1.0;" x1="533.0747" x2="575.0747" y1="353.8711" y2="353.8711"/><line style="stroke:#181818;stroke-width:1.0;" x1="575.0747" x2="575.0747" y1="353.8711" y2="366.8711"/><line style="stroke:#181818;stroke-width:1.0;" x1="534.0747" x2="575.0747" y1="366.8711" y2="366.8711"/><polygon fill="#181818" points="544.0747,362.8711,534.0747,366.8711,544.0747,370.8711,540.0747,366.8711" style="stroke:#181818;stroke-width:1.0;"/><text fill="#000000" font-family="sans-serif" font-size="13" font-weight="bold" lengthAdjust="spacing" textLength="7.23" x="540.0747" y="348.6084">4</text><text fill="#000000" font-family="sans-serif" font-size="13" lengthAdjust="spacing" textLength="49.4863" x="551.3047" y="348.6084">&#1055;&#1072;&#1088;&#1089;&#1080;&#1085;&#1075;</text><text fill="#000000" font-family="sans-serif" font-size="13" lengthAdjust="spacing" textLength="3.6118" x="600.791" y="348.6084">&#160;</text><text fill="#000000" font-family="sans-serif" font-size="13" lengthAdjust="spacing" textLength="69.3672" x="604.4028" y="348.6084">dateOfBirth,</text><text fill="#000000" font-family="sans-serif" font-size="13" lengthAdjust="spacing" textLength="3.6118" x="673.77" y="348.6084">&#160;</text><text fill="#000000" font-family="sans-serif" font-size="13" lengthAdjust="spacing" textLength="85.2681" x="677.3818" y="348.6084">registeredDate</text><path d="M42.5,381.8711 L100.1709,381.8711 L100.1709,391.1621 L90.1709,401.1621 L40,401.1621 L40,384.3711 A2.5,2.5 0 0 1 42.5,381.8711 " fill="#EEEEEE" style="stroke:#000000;stroke-width:1.5;"/><rect fill="none" height="50.582" rx="2.5" ry="2.5" style="stroke:#000000;stroke-width:1.5;" width="552.0952" x="40" y="381.8711"/><text fill="#000000" font-family="sans-serif" font-size="13" font-weight="bold" lengthAdjust="spacing" textLength="15.1709" x="55" y="396.8994">alt</text><text fill="#000000" font-family="sans-serif" font-size="11" font-weight="bold" lengthAdjust="spacing" textLength="258.2583" x="115.1709" y="395.7412">[&#1054;&#1096;&#1080;&#1073;&#1082;&#1072; &#1092;&#1086;&#1088;&#1084;&#1072;&#1090;&#1072; &#1076;&#1072;&#1090;&#1099; (&#1085;&#1077; ISO_LOCAL_DATE)]</text><polygon fill="#FF0000" points="100.186,420.4531,90.186,424.4531,100.186,428.4531,96.186,424.4531" style="stroke:#FF0000;stroke-width:1.0;"/><line style="stroke:#FF0000;stroke-width:1.0;stroke-dasharray:2.0,2.0;" x1="94.186" x2="522.0747" y1="424.4531" y2="424.4531"/><text fill="#FF0000" font-family="sans-serif" font-size="13" lengthAdjust="spacing" textLength="21.6899" x="106.186" y="419.1904">500</text><text fill="#FF0000" font-family="sans-serif" font-size="13" lengthAdjust="spacing" textLength="3.6118" x="127.876" y="419.1904">&#160;</text><text fill="#FF0000" font-family="sans-serif" font-size="13" lengthAdjust="spacing" textLength="64.2891" x="131.4878" y="419.1904">INTERNAL</text><text fill="#FF0000" font-family="sans-serif" font-size="13" lengthAdjust="spacing" textLength="3.6118" x="195.7769" y="419.1904">&#160;</text><text fill="#FF0000" font-family="sans-serif" font-size="13" lengthAdjust="spacing" textLength="53.46" x="199.3887" y="419.1904">SERVER</text><text fill="#FF0000" font-family="sans-serif" font-size="13" lengthAdjust="spacing" textLength="3.6118" x="252.8486" y="419.1904">&#160;</text><text fill="#FF0000" font-family="sans-serif" font-size="13" lengthAdjust="spacing" textLength="46.9473" x="256.4604" y="419.1904">ERROR</text><path d="M32.5,460.4531 L225.7061,460.4531 L225.7061,469.7441 L215.7061,479.7441 L30,479.7441 L30,462.9531 A2.5,2.5 0 0 1 32.5,460.4531 " fill="#EEEEEE" style="stroke:#000000;stroke-width:1.5;"/><rect fill="none" height="256.959" rx="2.5" ry="2.5" style="stroke:#000000;stroke-width:1.5;" width="845.728" x="30" y="460.4531"/><text fill="#000000" font-family="sans-serif" font-size="13" font-weight="bold" lengthAdjust="spacing" textLength="150.7061" x="45" y="475.4814">&#1056;&#1072;&#1073;&#1086;&#1090;&#1072; &#1089; &#1073;&#1072;&#1079;&#1086;&#1081; &#1076;&#1072;&#1085;&#1085;&#1099;&#1093;</text><polygon fill="#181818" points="803.0317,499.0352,813.0317,503.0352,803.0317,507.0352,807.0317,503.0352" style="stroke:#181818;stroke-width:1.0;"/><line style="stroke:#181818;stroke-width:1.0;" x1="533.0747" x2="809.0317" y1="503.0352" y2="503.0352"/><text fill="#000000" font-family="sans-serif" font-size="13" font-weight="bold" lengthAdjust="spacing" textLength="7.23" x="540.0747" y="497.7725">5</text><text fill="#000000" font-family="sans-serif" font-size="13" lengthAdjust="spacing" textLength="58.0874" x="551.3047" y="497.7725">&#1055;&#1088;&#1086;&#1074;&#1077;&#1088;&#1082;&#1072;</text><text fill="#000000" font-family="sans-serif" font-size="13" lengthAdjust="spacing" textLength="3.6118" x="609.3921" y="497.7725">&#160;</text><text fill="#000000" font-family="sans-serif" font-size="13" lengthAdjust="spacing" textLength="93.1328" x="613.0039" y="497.7725">&#1089;&#1091;&#1097;&#1077;&#1089;&#1090;&#1074;&#1086;&#1074;&#1072;&#1085;&#1080;&#1103;</text><text fill="#000000" font-family="sans-serif" font-size="13" lengthAdjust="spacing" textLength="3.6118" x="706.1367" y="497.7725">&#160;</text><text fill="#000000" font-family="sans-serif" font-size="13" lengthAdjust="spacing" textLength="31.0654" x="709.7485" y="497.7725">email</text><path d="M42.5,518.0352 L100.1709,518.0352 L100.1709,527.3262 L90.1709,537.3262 L40,537.3262 L40,520.5352 A2.5,2.5 0 0 1 42.5,518.0352 " fill="#EEEEEE" style="stroke:#000000;stroke-width:1.5;"/><rect fill="none" height="192.377" rx="2.5" ry="2.5" style="stroke:#000000;stroke-width:1.5;" width="825.728" x="40" y="518.0352"/><text fill="#000000" font-family="sans-serif" font-size="13" font-weight="bold" lengthAdjust="spacing" textLength="15.1709" x="55" y="533.0635">alt</text><text fill="#000000" font-family="sans-serif" font-size="11" font-weight="bold" lengthAdjust="spacing" textLength="78.998" x="115.1709" y="531.9053">[Email &#1085;&#1072;&#1081;&#1076;&#1077;&#1085;]</text><polygon fill="#181818" points="544.0747,556.6172,534.0747,560.6172,544.0747,564.6172,540.0747,560.6172" style="stroke:#181818;stroke-width:1.0;"/><line style="stroke:#181818;stroke-width:1.0;stroke-dasharray:2.0,2.0;" x1="538.0747" x2="814.0317" y1="560.6172" y2="560.6172"/><text fill="#000000" font-family="sans-serif" font-size="13" font-weight="bold" lengthAdjust="spacing" textLength="7.23" x="550.0747" y="555.3545">6</text><text fill="#000000" font-family="sans-serif" font-size="13" lengthAdjust="spacing" textLength="31.0654" x="561.3047" y="555.3545">email</text><text fill="#000000" font-family="sans-serif" font-size="13" lengthAdjust="spacing" textLength="3.6118" x="592.3701" y="555.3545">&#160;</text><text fill="#000000" font-family="sans-serif" font-size="13" lengthAdjust="spacing" textLength="33.23" x="595.9819" y="555.3545">exists</text><polygon fill="#FF0000" points="100.186,587.9082,90.186,591.9082,100.186,595.9082,96.186,591.9082" style="stroke:#FF0000;stroke-width:1.0;"/><line style="stroke:#FF0000;stroke-width:1.0;stroke-dasharray:2.0,2.0;" x1="94.186" x2="522.0747" y1="591.9082" y2="591.9082"/><text fill="#FF0000" font-family="sans-serif" font-size="13" lengthAdjust="spacing" textLength="21.6899" x="106.186" y="586.6455">400</text><text fill="#FF0000" font-family="sans-serif" font-size="13" lengthAdjust="spacing" textLength="3.6118" x="127.876" y="586.6455">&#160;</text><text fill="#FF0000" font-family="sans-serif" font-size="13" lengthAdjust="spacing" textLength="26.73" x="131.4878" y="586.6455">BAD</text><text fill="#FF0000" font-family="sans-serif" font-size="13" lengthAdjust="spacing" textLength="3.6118" x="158.2178" y="586.6455">&#160;</text><text fill="#FF0000" font-family="sans-serif" font-size="13" lengthAdjust="spacing" textLength="62.8418" x="161.8296" y="586.6455">REQUEST</text><text fill="#FF0000" font-family="sans-serif" font-size="13" lengthAdjust="spacing" textLength="3.6118" x="224.6714" y="586.6455">&#160;</text><text fill="#FF0000" font-family="sans-serif" font-size="13" lengthAdjust="spacing" textLength="36.8354" x="228.2832" y="586.6455">(Email</text><text fill="#FF0000" font-family="sans-serif" font-size="13" lengthAdjust="spacing" textLength="3.6118" x="265.1187" y="586.6455">&#160;</text><text fill="#FF0000" font-family="sans-serif" font-size="13" lengthAdjust="spacing" textLength="42.6372" x="268.7305" y="586.6455">already</text><text fill="#FF0000" font-family="sans-serif" font-size="13" lengthAdjust="spacing" textLength="3.6118" x="311.3677" y="586.6455">&#160;</text><text fill="#FF0000" font-family="sans-serif" font-size="13" lengthAdjust="spacing" textLength="37.5591" x="314.9795" y="586.6455">exists)</text><line style="stroke:#000000;stroke-width:1.0;stroke-dasharray:2.0,2.0;" x1="40" x2="865.728" y1="600.9082" y2="600.9082"/><text fill="#000000" font-family="sans-serif" font-size="11" font-weight="bold" lengthAdjust="spacing" textLength="90.6265" x="45" y="612.7783">[Email &#1091;&#1085;&#1080;&#1082;&#1072;&#1083;&#1077;&#1085;]</text><polygon fill="#181818" points="544.0747,635.8301,534.0747,639.8301,544.0747,643.8301,540.0747,639.8301" style="stroke:#181818;stroke-width:1.0;"/><line style="stroke:#181818;stroke-width:1.0;stroke-dasharray:2.0,2.0;" x1="538.0747" x2="814.0317" y1="639.8301" y2="639.8301"/><text fill="#000000" font-family="sans-serif" font-size="13" font-weight="bold" lengthAdjust="spacing" textLength="7.23" x="550.0747" y="634.5674">7</text><text fill="#000000" font-family="sans-serif" font-size="13" lengthAdjust="spacing" textLength="18.0718" x="561.3047" y="634.5674">not</text><text fill="#000000" font-family="sans-serif" font-size="13" lengthAdjust="spacing" textLength="3.6118" x="579.3765" y="634.5674">&#160;</text><text fill="#000000" font-family="sans-serif" font-size="13" lengthAdjust="spacing" textLength="32.5317" x="582.9883" y="634.5674">found</text><polygon fill="#181818" points="803.0317,667.1211,813.0317,671.1211,803.0317,675.1211,807.0317,671.1211" style="stroke:#181818;stroke-width:1.0;"/><line style="stroke:#181818;stroke-width:1.0;" x1="533.0747" x2="809.0317" y1="671.1211" y2="671.1211"/><text fill="#000000" font-family="sans-serif" font-size="13" font-weight="bold" lengthAdjust="spacing" textLength="7.23" x="540.0747" y="665.8584">8</text><text fill="#000000" font-family="sans-serif" font-size="13" lengthAdjust="spacing" textLength="73.6582" x="551.3047" y="665.8584">&#1057;&#1086;&#1093;&#1088;&#1072;&#1085;&#1077;&#1085;&#1080;&#1077;</text><text fill="#000000" font-family="sans-serif" font-size="13" lengthAdjust="spacing" textLength="3.6118" x="624.9629" y="665.8584">&#160;</text><text fill="#000000" font-family="sans-serif" font-size="13" lengthAdjust="spacing" textLength="40.4727" x="628.5747" y="665.8584">Patient</text><text fill="#000000" font-family="sans-serif" font-size="13" lengthAdjust="spacing" textLength="3.6118" x="669.0474" y="665.8584">&#160;</text><text fill="#000000" font-family="sans-serif" font-size="13" lengthAdjust="spacing" textLength="85.6553" x="672.6592" y="665.8584">(&#1075;&#1077;&#1085;&#1077;&#1088;&#1080;&#1088;&#1091;&#1077;&#1090;&#1089;&#1103;</text><text fill="#000000" font-family="sans-serif" font-size="13" lengthAdjust="spacing" textLength="3.6118" x="758.3145" y="665.8584">&#160;</text><text fill="#000000" font-family="sans-serif" font-size="13" lengthAdjust="spacing" textLength="36.1055" x="761.9263" y="665.8584">UUID)</text><polygon fill="#181818" points="544.0747,698.4121,534.0747,702.4121,544.0747,706.4121,540.0747,702.4121" style="stroke:#181818;stroke-width:1.0;"/><line style="stroke:#181818;stroke-width:1.0;stroke-dasharray:2.0,2.0;" x1="538.0747" x2="814.0317" y1="702.4121" y2="702.4121"/><text fill="#000000" font-family="sans-serif" font-size="13" font-weight="bold" lengthAdjust="spacing" textLength="7.23" x="550.0747" y="697.1494">9</text><text fill="#000000" font-family="sans-serif" font-size="13" lengthAdjust="spacing" textLength="40.4727" x="561.3047" y="697.1494">Patient</text><text fill="#000000" font-family="sans-serif" font-size="13" lengthAdjust="spacing" textLength="3.6118" x="601.7773" y="697.1494">&#160;</text><text fill="#000000" font-family="sans-serif" font-size="13" lengthAdjust="spacing" textLength="34.6899" x="605.3892" y="697.1494">saved</text><path d="M32.5,731.4121 L301.6494,731.4121 L301.6494,740.7031 L291.6494,750.7031 L30,750.7031 L30,733.9121 A2.5,2.5 0 0 1 32.5,731.4121 " fill="#EEEEEE" style="stroke:#000000;stroke-width:1.5;"/><rect fill="none" height="228.959" rx="2.5" ry="2.5" style="stroke:#000000;stroke-width:1.5;" width="957.5347" x="30" y="731.4121"/><text fill="#000000" font-family="sans-serif" font-size="13" font-weight="bold" lengthAdjust="spacing" textLength="226.6494" x="45" y="746.4404">&#1048;&#1085;&#1090;&#1077;&#1075;&#1088;&#1072;&#1094;&#1080;&#1103; &#1089; Billing Service (gRPC)</text><polygon fill="#181818" points="899.6313,787.2852,909.6313,791.2852,899.6313,795.2852,903.6313,791.2852" style="stroke:#181818;stroke-width:1.0;"/><line style="stroke:#181818;stroke-width:1.0;" x1="533.0747" x2="905.6313" y1="791.2852" y2="791.2852"/><text fill="#000000" font-family="sans-serif" font-size="13" font-weight="bold" lengthAdjust="spacing" textLength="14.46" x="540.0747" y="777.377">10</text><text fill="#000000" font-family="sans-serif" font-size="13" lengthAdjust="spacing" textLength="38.2891" x="558.5347" y="768.7314">gRPC:</text><text fill="#000000" font-family="sans-serif" font-size="13" lengthAdjust="spacing" textLength="3.6118" x="596.8237" y="768.7314">&#160;</text><text fill="#000000" font-family="sans-serif" font-size="13" lengthAdjust="spacing" textLength="178.4897" x="600.4355" y="768.7314">CreateBillingAccount(patientId,</text><text fill="#000000" font-family="sans-serif" font-size="13" lengthAdjust="spacing" textLength="36.1309" x="558.5347" y="786.0225">name,</text><text fill="#000000" font-family="sans-serif" font-size="13" lengthAdjust="spacing" textLength="3.6118" x="594.6655" y="786.0225">&#160;</text><text fill="#000000" font-family="sans-serif" font-size="13" lengthAdjust="spacing" textLength="35.3945" x="598.2773" y="786.0225">email)</text><path d="M42.5,806.2852 L100.1709,806.2852 L100.1709,815.5762 L90.1709,825.5762 L40,825.5762 L40,808.7852 A2.5,2.5 0 0 1 42.5,806.2852 " fill="#EEEEEE" style="stroke:#000000;stroke-width:1.5;"/><rect fill="none" height="147.0859" rx="2.5" ry="2.5" style="stroke:#000000;stroke-width:1.5;" width="937.5347" x="40" y="806.2852"/><text fill="#000000" font-family="sans-serif" font-size="13" font-weight="bold" lengthAdjust="spacing" textLength="15.1709" x="55" y="821.3135">alt</text><text fill="#000000" font-family="sans-serif" font-size="11" font-weight="bold" lengthAdjust="spacing" textLength="182.4292" x="115.1709" y="820.1553">[&#1054;&#1096;&#1080;&#1073;&#1082;&#1072; &#1089;&#1077;&#1088;&#1074;&#1080;&#1089;&#1072; / &#1057;&#1077;&#1090;&#1077;&#1074;&#1086;&#1081; &#1089;&#1073;&#1086;&#1081;]</text><polygon fill="#FF0000" points="544.0747,844.8672,534.0747,848.8672,544.0747,852.8672,540.0747,848.8672" style="stroke:#FF0000;stroke-width:1.0;"/><line style="stroke:#FF0000;stroke-width:1.0;stroke-dasharray:2.0,2.0;" x1="538.0747" x2="910.6313" y1="848.8672" y2="848.8672"/><text fill="#000000" font-family="sans-serif" font-size="13" font-weight="bold" lengthAdjust="spacing" textLength="14.46" x="550.0747" y="843.6045">11</text><text fill="#000000" font-family="sans-serif" font-size="13" lengthAdjust="spacing" textLength="34.6772" x="568.5347" y="843.6045">gRPC</text><text fill="#000000" font-family="sans-serif" font-size="13" lengthAdjust="spacing" textLength="3.6118" x="603.2119" y="843.6045">&#160;</text><text fill="#000000" font-family="sans-serif" font-size="13" lengthAdjust="spacing" textLength="28.8882" x="606.8237" y="843.6045">Error</text><text fill="#000000" font-family="sans-serif" font-size="13" lengthAdjust="spacing" textLength="3.6118" x="635.7119" y="843.6045">&#160;</text><text fill="#000000" font-family="sans-serif" font-size="13" lengthAdjust="spacing" textLength="3.6118" x="639.3237" y="843.6045">/</text><text fill="#000000" font-family="sans-serif" font-size="13" lengthAdjust="spacing" textLength="3.6118" x="642.9355" y="843.6045">&#160;</text><text fill="#000000" font-family="sans-serif" font-size="13" lengthAdjust="spacing" textLength="67.9326" x="646.5474" y="843.6045">Unavailable</text><polygon fill="#FF0000" points="100.186,876.1582,90.186,880.1582,100.186,884.1582,96.186,880.1582" style="stroke:#FF0000;stroke-width:1.0;"/><line style="stroke:#FF0000;stroke-width:1.0;stroke-dasharray:2.0,2.0;" x1="94.186" x2="522.0747" y1="880.1582" y2="880.1582"/><text fill="#FF0000" font-family="sans-serif" font-size="13" lengthAdjust="spacing" textLength="21.6899" x="106.186" y="874.8955">500</text><text fill="#FF0000" font-family="sans-serif" font-size="13" lengthAdjust="spacing" textLength="3.6118" x="127.876" y="874.8955">&#160;</text><text fill="#FF0000" font-family="sans-serif" font-size="13" lengthAdjust="spacing" textLength="64.2891" x="131.4878" y="874.8955">INTERNAL</text><text fill="#FF0000" font-family="sans-serif" font-size="13" lengthAdjust="spacing" textLength="3.6118" x="195.7769" y="874.8955">&#160;</text><text fill="#FF0000" font-family="sans-serif" font-size="13" lengthAdjust="spacing" textLength="53.46" x="199.3887" y="874.8955">SERVER</text><text fill="#FF0000" font-family="sans-serif" font-size="13" lengthAdjust="spacing" textLength="3.6118" x="252.8486" y="874.8955">&#160;</text><text fill="#FF0000" font-family="sans-serif" font-size="13" lengthAdjust="spacing" textLength="46.9473" x="256.4604" y="874.8955">ERROR</text><line style="stroke:#000000;stroke-width:1.0;stroke-dasharray:2.0,2.0;" x1="40" x2="977.5347" y1="889.1582" y2="889.1582"/><text fill="#000000" font-family="sans-serif" font-size="11" font-weight="bold" lengthAdjust="spacing" textLength="148.8652" x="45" y="901.0283">[&#1059;&#1089;&#1087;&#1077;&#1096;&#1085;&#1086;&#1077; &#1089;&#1086;&#1079;&#1076;&#1072;&#1085;&#1080;&#1077; &#1089;&#1095;&#1077;&#1090;&#1072;]</text><polygon fill="#181818" points="544.0747,941.3711,534.0747,945.3711,544.0747,949.3711,540.0747,945.3711" style="stroke:#181818;stroke-width:1.0;"/><line style="stroke:#181818;stroke-width:1.0;stroke-dasharray:2.0,2.0;" x1="538.0747" x2="915.6313" y1="945.3711" y2="945.3711"/><text fill="#000000" font-family="sans-serif" font-size="13" font-weight="bold" lengthAdjust="spacing" textLength="14.46" x="550.0747" y="931.4629">12</text><text fill="#000000" font-family="sans-serif" font-size="13" lengthAdjust="spacing" textLength="93.2217" x="568.5347" y="922.8174">BillingResponse</text><text fill="#000000" font-family="sans-serif" font-size="13" lengthAdjust="spacing" textLength="3.6118" x="661.7563" y="922.8174">&#160;</text><text fill="#000000" font-family="sans-serif" font-size="13" lengthAdjust="spacing" textLength="64.3145" x="665.3682" y="922.8174">(accountId:</text><text fill="#000000" font-family="sans-serif" font-size="13" lengthAdjust="spacing" textLength="3.6118" x="729.6826" y="922.8174">&#160;</text><text fill="#000000" font-family="sans-serif" font-size="13" lengthAdjust="spacing" textLength="48.9912" x="733.2944" y="922.8174">"12345",</text><text fill="#000000" font-family="sans-serif" font-size="13" lengthAdjust="spacing" textLength="38.2954" x="568.5347" y="940.1084">status:</text><text fill="#000000" font-family="sans-serif" font-size="13" lengthAdjust="spacing" textLength="3.6118" x="606.8301" y="940.1084">&#160;</text><text fill="#000000" font-family="sans-serif" font-size="13" lengthAdjust="spacing" textLength="60.5122" x="610.4419" y="940.1084">"ACTIVE")</text><path d="M466.5542,974.3711 L685.938,974.3711 L685.938,983.6621 L675.938,993.6621 L464.0542,993.6621 L464.0542,976.8711 A2.5,2.5 0 0 1 466.5542,974.3711 " fill="#EEEEEE" style="stroke:#000000;stroke-width:1.5;"/><rect fill="none" height="67.873" rx="2.5" ry="2.5" style="stroke:#000000;stroke-width:1.5;" width="940.2705" x="464.0542" y="974.3711"/><text fill="#000000" font-family="sans-serif" font-size="13" font-weight="bold" lengthAdjust="spacing" textLength="176.8838" x="479.0542" y="989.3994">&#1040;&#1089;&#1080;&#1085;&#1093;&#1088;&#1086;&#1085;&#1085;&#1086;&#1077; &#1091;&#1074;&#1077;&#1076;&#1086;&#1084;&#1083;&#1077;&#1085;&#1080;&#1077;</text><polygon fill="#181818" points="992.2656,1030.2441,1002.2656,1034.2441,992.2656,1038.2441,996.2656,1034.2441" style="stroke:#181818;stroke-width:1.0;"/><line style="stroke:#181818;stroke-width:1.0;" x1="533.0747" x2="998.2656" y1="1034.2441" y2="1034.2441"/><text fill="#000000" font-family="sans-serif" font-size="13" font-weight="bold" lengthAdjust="spacing" textLength="14.46" x="540.0747" y="1020.3359">13</text><text fill="#000000" font-family="sans-serif" font-size="13" lengthAdjust="spacing" textLength="36.8545" x="558.5347" y="1011.6904">Kafka:</text><text fill="#000000" font-family="sans-serif" font-size="13" lengthAdjust="spacing" textLength="3.6118" x="595.3892" y="1011.6904">&#160;</text><text fill="#000000" font-family="sans-serif" font-size="13" lengthAdjust="spacing" textLength="143.0889" x="599.001" y="1011.6904">sendEvent(PatientEvent:</text><text fill="#000000" font-family="sans-serif" font-size="13" lengthAdjust="spacing" textLength="128.5718" x="558.5347" y="1028.9814">PATIENT_CREATED)</text><path d="M1009,1005.3076 L1009,1027.3076 A2.5,2.5 0 0 0 1011.5,1029.8076 L1383.5,1029.8076 A2.5,2.5 0 0 0 1386,1027.3076 L1386,1012.8076 L1376,1002.8076 L1011.5,1002.8076 A2.5,2.5 0 0 0 1009,1005.3076 " fill="#FEFFDD" filter="url(#f1wjfvp1r1flte)" style="stroke:#181818;stroke-width:0.5;"/><path d="M1376,1002.8076 L1376,1011.5576 A1.25,1.25 0 0 0 1377.25,1012.8076 L1386,1012.8076 L1376,1002.8076 " fill="#FEFFDD" style="stroke:#181818;stroke-width:0.5;"/><text fill="#000000" font-family="sans-serif" font-size="13" lengthAdjust="spacing" textLength="356.0591" x="1015" y="1021.8359">&#1054;&#1096;&#1080;&#1073;&#1082;&#1072; &#1086;&#1090;&#1087;&#1088;&#1072;&#1074;&#1082;&#1080; &#1090;&#1086;&#1083;&#1100;&#1082;&#1086; &#1083;&#1086;&#1075;&#1080;&#1088;&#1091;&#1077;&#1090;&#1089;&#1103; &#1080; &#1085;&#1077; &#1087;&#1088;&#1077;&#1088;&#1099;&#1074;&#1072;&#1077;&#1090; &#1086;&#1090;&#1074;&#1077;&#1090;</text><polygon fill="#181818" points="308.8086,1068.5352,298.8086,1072.5352,308.8086,1076.5352,304.8086,1072.5352" style="stroke:#181818;stroke-width:1.0;"/><line style="stroke:#181818;stroke-width:1.0;stroke-dasharray:2.0,2.0;" x1="302.8086" x2="527.0747" y1="1072.5352" y2="1072.5352"/><text fill="#000000" font-family="sans-serif" font-size="13" font-weight="bold" lengthAdjust="spacing" textLength="14.46" x="314.8086" y="1067.2725">14</text><text fill="#000000" font-family="sans-serif" font-size="13" lengthAdjust="spacing" textLength="21.6899" x="333.2686" y="1067.2725">200</text><text fill="#000000" font-family="sans-serif" font-size="13" lengthAdjust="spacing" textLength="3.6118" x="354.9585" y="1067.2725">&#160;</text><text fill="#000000" font-family="sans-serif" font-size="13" lengthAdjust="spacing" textLength="18.7827" x="358.5703" y="1067.2725">OK</text><text fill="#000000" font-family="sans-serif" font-size="13" lengthAdjust="spacing" textLength="3.6118" x="377.353" y="1067.2725">&#160;</text><text fill="#000000" font-family="sans-serif" font-size="13" lengthAdjust="spacing" textLength="135.1099" x="380.9648" y="1067.2725">(PatientResponseDTO)</text><polygon fill="#181818" points="100.186,1099.8262,90.186,1103.8262,100.186,1107.8262,96.186,1103.8262" style="stroke:#181818;stroke-width:1.0;"/><line style="stroke:#181818;stroke-width:1.0;stroke-dasharray:2.0,2.0;" x1="94.186" x2="291.8086" y1="1103.8262" y2="1103.8262"/><text fill="#000000" font-family="sans-serif" font-size="13" font-weight="bold" lengthAdjust="spacing" textLength="14.46" x="106.186" y="1098.5635">15</text><text fill="#000000" font-family="sans-serif" font-size="13" lengthAdjust="spacing" textLength="93.52" x="124.646" y="1098.5635">&#1055;&#1088;&#1086;&#1082;&#1089;&#1080;&#1088;&#1086;&#1074;&#1072;&#1085;&#1080;&#1077;</text><text fill="#000000" font-family="sans-serif" font-size="13" lengthAdjust="spacing" textLength="3.6118" x="218.166" y="1098.5635">&#160;</text><text fill="#000000" font-family="sans-serif" font-size="13" lengthAdjust="spacing" textLength="40.5044" x="221.7778" y="1098.5635">&#1086;&#1090;&#1074;&#1077;&#1090;&#1072;</text><!--SRC=[jLPTJnj757tVNt5b7ceaB0ZWfhKeajTUfou4kskJF5GL6kF1h69stTsr4_e4f6bIfLBQgWzzwPVwqaSmGQ4XcBym-uzwPdPjTkr0wPTVF7jdvioTSy-zTxm7bjrXBjkXsZPhEWyjkqM-s-MQDvemdQxTB3YkpLtAnkntsQExtFDOYzUippdDP-SqxHqIFuh3O3yu2FR4GFmXNej32Xu7JqEZE1UdC0r4NmE6RsrQ7MRxbDfo7TldTZD5pAEIGLEbKcc-KD0QycZcxbAATQnCY_dy8TjLY-xSnoAZzBvnEudKORx5RJ_ZSRTdRNArjbh3saMZKBgjDPdF6ipZeuKRpOPQKzHfoj1BsPAUn6jOxJOuIU3fm2jcIrbZGVkioxi0Uy2s7Z0rjrB2MVcYNdnFqrZNT-pkJWEyfPOQotDBiutbbAQrNAVReQbLgxNj5tQPJU8RSIQEnG2KdOAZDuJ1eJY2uI1uJkADE85r85w2ocgbLgTPa37RkpKRNS7J23-mbba6BRcthw7qHxNAshHQoZPzgmSk5TFtjosV9yrtxclA08u1MQtbIFoimlaws8U7SjI7WpAM9oHUONWXZPWyJ09LQo4GLF4xLXtJhSmymBx3-0oRSQ7WIm2-875AuW9VU_8001-hRH5HvPu31Tna5yb93Cw3vy4JIXVhbV32yWSH32ypYLGDMJ8vukdvs2VfCZCBSmkN0ApjqzHTo_DtJGS24Zy5pu1nf1Ik-8X1mhEqtMstPyX3QimGts5McxOSTuVvbuWAzL8Zdkzq4dFIvSmdKovlVhgCMELeQGjfGfjEst4_IC6SMbwScoCzNoJJ-7ZTGDZJzrZRWiWjnoR3THrtUcbMRbg-wb2NUzqTFfhbRLmjBitVmEq51FWCj1vApllZv4suF9HC8ZBmYLUsTClrjsTmQ0iySjoWo7oUTEqQbeClL8wy0V2195sw83CaZHDEg5ohRAnM2ldLZMA-RYHP_YkcRyXs5coNr-g6kPPVfPfXtZDCCaopOhwDvEk9LcJRJMryBF-JERC0BdyPrWF9mZw9RyNtyGp9jr6Qz3OgqSJA8to_afKuaHjZML7KHodUHwptGhRtKRU_mgUis_tBd8S8b9ml4sEOxaNzgcGnbFwbXD0INeeJSPuW0iKt4yacp1J-25kz_pLHGfTOs-MikHiT-2-J9OGC7aTTJkR9DJUr7HyLeHlJm5X0VaKOdwXMS2vnLBMD2XKaVwni9wfdxE5Cz0X4wWMjhvUBqrUTETpkiHwVr9xyDVbuE2SLkPZ9vgXbLWkaXzqnhiKF7Pll5lb34Zz0QmVmybZU8Igqa6IqXsfXHwMqH1glqtejF2571GJ8vz6c_EOc6FFJKLShDsV8PZl30ZizAKczTgFwZJ8bcUp3HpGncfNadoZd-oftO3sIWmIlUbnrrSZXiEe2OTrcFVZ46ct-N-huRvMWVrZd1n0QFWSe72z7VHxYUgeuEPma8Rn-52EJUnt71doQXT4gDtEKkZM_i9XDeH_wpEzwCEGBzV8z8vMKQanziSXTNHlVpT6AV7h51NXds_5yzQh1mohiFogD1hBuXNTxBCiSxZP0BpaRvjQO0bTA4NQEF1nizA2tT9G_wWFPbA-NZRNwHi4qq75YMOVKvkHASdDZxmHPc2zKJlTXE2Nri3iBlfQFOe8l0-HrCf_b8qUsDxKD8WsUgqACwH1D5ko3A-YvhOwFhwc6uPBFn7aegR92wT7R9mpRwD4KYqMrDdeFPa9XNlSW77aLIIK6X9Ubz39cAHdQdm00]--></g></svg>