<svg xmlns="http://www.w3.org/2000/svg" xmlns:xlink="http://www.w3.org/1999/xlink" contentStyleType="text/css" height="850px" preserveAspectRatio="none" style="width:1288px;height:850px;background:#FFFFFF;" version="1.1" viewBox="0 0 1288 850" width="1288px" zoomAndPan="magnify"><defs><filter height="300%" id="f1pjidsslixpcu" width="300%" x="-1" y="-1"><feGaussianBlur result="blurOut" stdDeviation="2.0"/><feColorMatrix in="blurOut" result="blurOut2" type="matrix" values="0 0 0 0 0 0 0 0 0 0 0 0 0 0 0 0 0 0 .4 0"/><feOffset dx="4.0" dy="4.0" in="blurOut2" result="blurOut3"/><feBlend in="SourceGraphic" in2="blurOut3" mode="normal"/></filter></defs><g><rect fill="#FFFFFF" filter="url(#f1pjidsslixpcu)" height="631.2383" style="stroke:#181818;stroke-width:1.0;" width="10" x="49.186" y="129.2031"/><rect fill="#FFFFFF" filter="url(#f1pjidsslixpcu)" height="615.2383" style="stroke:#181818;stroke-width:1.0;" width="10" x="205.8213" y="129.2031"/><rect fill="#FFFFFF" filter="url(#f1pjidsslixpcu)" height="31.291" style="stroke:#181818;stroke-width:1.0;" width="10" x="358.062" y="160.4941"/><rect fill="#FFFFFF" filter="url(#f1pjidsslixpcu)" height="490.0742" style="stroke:#181818;stroke-width:1.0;" width="10" x="468.71" y="223.0762"/><rect fill="#FFFFFF" filter="url(#f1pjidsslixpcu)" height="138.1641" style="stroke:#181818;stroke-width:1.0;" width="10" x="711.936" y="298.6582"/><rect fill="#FFFFFF" filter="url(#f1pjidsslixpcu)" height="138.1641" style="stroke:#181818;stroke-width:1.0;" width="10" x="839.6528" y="468.1133"/><rect fill="#FFFFFF" filter="url(#f1pjidsslixpcu)" height="75.582" style="stroke:#181818;stroke-width:1.0;" width="10" x="1000.5581" y="499.4043"/><rect fill="#E0FFFF" filter="url(#f1pjidsslixpcu)" height="665.8203" rx="2.5" ry="2.5" style="stroke:#000000;stroke-width:1.5;" width="1266.0107" x="10" y="86.6211"/><line style="stroke:#181818;stroke-width:0.5;stroke-dasharray:5.0,5.0;" x1="54" x2="54" y1="69.6211" y2="769.4414"/><line style="stroke:#181818;stroke-width:0.5;stroke-dasharray:5.0,5.0;" x1="210.0767" x2="210.0767" y1="69.6211" y2="769.4414"/><line style="stroke:#181818;stroke-width:0.5;stroke-dasharray:5.0,5.0;" x1="362.4346" x2="362.4346" y1="69.6211" y2="769.4414"/><line style="stroke:#181818;stroke-width:0.5;stroke-dasharray:5.0,5.0;" x1="473.6895" x2="473.6895" y1="69.6211" y2="769.4414"/><line style="stroke:#181818;stroke-width:0.5;stroke-dasharray:5.0,5.0;" x1="716.8018" x2="716.8018" y1="69.6211" y2="769.4414"/><line style="stroke:#181818;stroke-width:0.5;stroke-dasharray:5.0,5.0;" x1="844.0703" x2="844.0703" y1="69.6211" y2="769.4414"/><line style="stroke:#181818;stroke-width:0.5;stroke-dasharray:5.0,5.0;" x1="1004.6548" x2="1004.6548" y1="69.6211" y2="769.4414"/><line style="stroke:#181818;stroke-width:0.5;stroke-dasharray:5.0,5.0;" x1="1240.5488" x2="1240.5488" y1="69.6211" y2="769.4414"/><rect fill="#FFF2CC" filter="url(#f1pjidsslixpcu)" height="32.6211" rx="2.5" ry="2.5" style="stroke:#181818;stroke-width:0.5;" width="65.3721" x="20" y="33"/><text fill="#000000" font-family="sans-serif" font-size="14" lengthAdjust="spacing" textLength="51.3721" x="27" y="55.1074">frontend</text><rect fill="#FFF2CC" filter="url(#f1pjidsslixpcu)" height="32.6211" rx="2.5" ry="2.5" style="stroke:#181818;stroke-width:0.5;" width="65.3721" x="20" y="768.4414"/><text fill="#000000" font-family="sans-serif" font-size="14" lengthAdjust="spacing" textLength="51.3721" x="27" y="790.5488">frontend</text><text fill="#000000" font-family="sans-serif" font-size="14" lengthAdjust="spacing" textLength="75.4893" x="170.0767" y="66.1074">api-gateway</text><path d="M190.3213,23 L190.3213,47 M190.3213,35 L207.3213,35 " fill="none" filter="url(#f1pjidsslixpcu)" style="stroke:#181818;stroke-width:0.5;"/><ellipse cx="219.3213" cy="35" fill="#FEF9E7" filter="url(#f1pjidsslixpcu)" rx="12" ry="12" style="stroke:#181818;stroke-width:0.5;"/><text fill="#000000" font-family="sans-serif" font-size="14" lengthAdjust="spacing" textLength="75.4893" x="170.0767" y="783.5488">api-gateway</text><path d="M190.3213,791.0625 L190.3213,815.0625 M190.3213,803.0625 L207.3213,803.0625 " fill="none" filter="url(#f1pjidsslixpcu)" style="stroke:#181818;stroke-width:0.5;"/><ellipse cx="219.3213" cy="803.0625" fill="#FEF9E7" filter="url(#f1pjidsslixpcu)" rx="12" ry="12" style="stroke:#181818;stroke-width:0.5;"/><rect fill="#EBF5FB" filter="url(#f1pjidsslixpcu)" height="32.6211" rx="2.5" ry="2.5" style="stroke:#181818;stroke-width:0.5;" width="90.2549" x="316.4346" y="33"/><text fill="#000000" font-family="sans-serif" font-size="14" lengthAdjust="spacing" textLength="76.2549" x="323.4346" y="55.1074">auth-service</text><rect fill="#EBF5FB" filter="url(#f1pjidsslixpcu)" height="32.6211" rx="2.5" ry="2.5" style="stroke:#181818;stroke-width:0.5;" width="90.2549" x="316.4346" y="768.4414"/><text fill="#000000" font-family="sans-serif" font-size="14" lengthAdjust="spacing" textLength="76.2549" x="323.4346" y="790.5488">auth-service</text><rect fill="#F4ECF7" filter="url(#f1pjidsslixpcu)" height="32.6211" rx="2.5" ry="2.5" style="stroke:#181818;stroke-width:0.5;" width="105.041" x="419.6895" y="33"/><text fill="#000000" font-family="sans-serif" font-size="14" lengthAdjust="spacing" textLength="91.041" x="426.6895" y="55.1074">patient-service</text><rect fill="#F4ECF7" filter="url(#f1pjidsslixpcu)" height="32.6211" rx="2.5" ry="2.5" style="stroke:#181818;stroke-width:0.5;" width="105.041" x="419.6895" y="768.4414"/><text fill="#000000" font-family="sans-serif" font-size="14" lengthAdjust="spacing" textLength="91.041" x="426.6895" y="790.5488">patient-service</text><text fill="#000000" font-family="sans-serif" font-size="14" lengthAdjust="spacing" textLength="62.2686" x="682.8018" y="66.1074">patient-db</text><path d="M698.936,15 C698.936,5 716.936,5 716.936,5 C716.936,5 734.936,5 734.936,15 L734.936,41 C734.936,51 716.936,51 716.936,51 C716.936,51 698.936,51 698.936,41 L698.936,15 " fill="#F4ECF7" filter="url(#f1pjidsslixpcu)" style="stroke:#181818;stroke-width:1.5;"/><path d="M698.936,15 C698.936,25 716.936,25 716.936,25 C716.936,25 734.936,25 734.936,15 " fill="none" style="stroke:#181818;stroke-width:1.5;"/><text fill="#000000" font-family="sans-serif" font-size="14" lengthAdjust="spacing" textLength="62.2686" x="682.8018" y="783.5488">patient-db</text><path d="M698.936,797.0625 C698.936,787.0625 716.936,787.0625 716.936,787.0625 C716.936,787.0625 734.936,787.0625 734.936,797.0625 L734.936,823.0625 C734.936,833.0625 716.936,833.0625 716.936,833.0625 C716.936,833.0625 698.936,833.0625 698.936,823.0625 L698.936,797.0625 " fill="#F4ECF7" filter="url(#f1pjidsslixpcu)" style="stroke:#181818;stroke-width:1.5;"/><path d="M698.936,797.0625 C698.936,807.0625 716.936,807.0625 716.936,807.0625 C716.936,807.0625 734.936,807.0625 734.936,797.0625 " fill="none" style="stroke:#181818;stroke-width:1.5;"/><rect fill="#F4ECF7" filter="url(#f1pjidsslixpcu)" height="32.6211" rx="2.5" ry="2.5" style="stroke:#181818;stroke-width:0.5;" width="164.165" x="761.0703" y="33"/><text fill="#000000" font-family="sans-serif" font-size="14" lengthAdjust="spacing" textLength="150.165" x="768.0703" y="55.1074">BillingServiceGrpcClient</text><rect fill="#F4ECF7" filter="url(#f1pjidsslixpcu)" height="32.6211" rx="2.5" ry="2.5" style="stroke:#181818;stroke-width:0.5;" width="164.165" x="761.0703" y="768.4414"/><text fill="#000000" font-family="sans-serif" font-size="14" lengthAdjust="spacing" textLength="150.165" x="768.0703" y="790.5488">BillingServiceGrpcClient</text><rect fill="#F4ECF7" filter="url(#f1pjidsslixpcu)" height="32.6211" rx="2.5" ry="2.5" style="stroke:#181818;stroke-width:0.5;" width="98.8066" x="954.6548" y="33"/><text fill="#000000" font-family="sans-serif" font-size="14" lengthAdjust="spacing" textLength="84.8066" x="961.6548" y="55.1074">billing-service</text><rect fill="#F4ECF7" filter="url(#f1pjidsslixpcu)" height="32.6211" rx="2.5" ry="2.5" style="stroke:#181818;stroke-width:0.5;" width="98.8066" x="954.6548" y="768.4414"/><text fill="#000000" font-family="sans-serif" font-size="14" lengthAdjust="spacing" textLength="84.8066" x="961.6548" y="790.5488">billing-service</text><rect fill="#F4ECF7" filter="url(#f1pjidsslixpcu)" height="32.6211" rx="2.5" ry="2.5" style="stroke:#181818;stroke-width:0.5;" width="47.4619" x="1215.5488" y="33"/><text fill="#000000" font-family="sans-serif" font-size="14" lengthAdjust="spacing" textLength="33.4619" x="1222.5488" y="55.1074">kafka</text><rect fill="#F4ECF7" filter="url(#f1pjidsslixpcu)" height="32.6211" rx="2.5" ry="2.5" style="stroke:#181818;stroke-width:0.5;" width="47.4619" x="1215.5488" y="768.4414"/><text fill="#000000" font-family="sans-serif" font-size="14" lengthAdjust="spacing" textLength="33.4619" x="1222.5488" y="790.5488">kafka</text><rect fill="#FFFFFF" filter="url(#f1pjidsslixpcu)" height="631.2383" style="stroke:#181818;stroke-width:1.0;" width="10" x="49.186" y="129.2031"/><rect fill="#FFFFFF" filter="url(#f1pjidsslixpcu)" height="615.2383" style="stroke:#181818;stroke-width:1.0;" width="10" x="205.8213" y="129.2031"/><rect fill="#FFFFFF" filter="url(#f1pjidsslixpcu)" height="31.291" style="stroke:#181818;stroke-width:1.0;" width="10" x="358.062" y="160.4941"/><rect fill="#FFFFFF" filter="url(#f1pjidsslixpcu)" height="490.0742" style="stroke:#181818;stroke-width:1.0;" width="10" x="468.71" y="223.0762"/><rect fill="#FFFFFF" filter="url(#f1pjidsslixpcu)" height="138.1641" style="stroke:#181818;stroke-width:1.0;" width="10" x="711.936" y="298.6582"/><rect fill="#FFFFFF" filter="url(#f1pjidsslixpcu)" height="138.1641" style="stroke:#181818;stroke-width:1.0;" width="10" x="839.6528" y="468.1133"/><rect fill="#FFFFFF" filter="url(#f1pjidsslixpcu)" height="75.582" style="stroke:#181818;stroke-width:1.0;" width="10" x="1000.5581" y="499.4043"/><path d="M12.5,86.6211 L248.6924,86.6211 L248.6924,95.9121 L238.6924,105.9121 L10,105.9121 L10,89.1211 A2.5,2.5 0 0 1 12.5,86.6211 " fill="#EEEEEE" style="stroke:#000000;stroke-width:1.5;"/><rect fill="none" height="665.8203" rx="2.5" ry="2.5" style="stroke:#000000;stroke-width:1.5;" width="1266.0107" x="10" y="86.6211"/><text fill="#000000" font-family="sans-serif" font-size="13" font-weight="bold" lengthAdjust="spacing" textLength="193.6924" x="25" y="101.6494">&#1056;&#1077;&#1075;&#1080;&#1089;&#1090;&#1088;&#1072;&#1094;&#1080;&#1103; &#1085;&#1086;&#1074;&#1086;&#1075;&#1086; &#1087;&#1072;&#1094;&#1080;&#1077;&#1085;&#1090;&#1072;</text><polygon fill="#181818" points="193.8213,125.2031,203.8213,129.2031,193.8213,133.2031,197.8213,129.2031" style="stroke:#181818;stroke-width:1.0;"/><line style="stroke:#181818;stroke-width:1.0;" x1="59.186" x2="199.8213" y1="129.2031" y2="129.2031"/><text fill="#000000" font-family="sans-serif" font-size="13" font-weight="bold" lengthAdjust="spacing" textLength="7.23" x="66.186" y="123.9404">1</text><text fill="#000000" font-family="sans-serif" font-size="13" lengthAdjust="spacing" textLength="35.3945" x="77.416" y="123.9404">POST</text><text fill="#000000" font-family="sans-serif" font-size="13" lengthAdjust="spacing" textLength="3.6118" x="112.8105" y="123.9404">&#160;</text><text fill="#000000" font-family="sans-serif" font-size="13" lengthAdjust="spacing" textLength="82.3989" x="116.4224" y="123.9404">{host}/patients</text><polygon fill="#181818" points="346.062,156.4941,356.062,160.4941,346.062,164.4941,350.062,160.4941" style="stroke:#181818;stroke-width:1.0;"/><line style="stroke:#181818;stroke-width:1.0;" x1="215.8213" x2="352.062" y1="160.4941" y2="160.4941"/><text fill="#000000" font-family="sans-serif" font-size="13" font-weight="bold" lengthAdjust="spacing" textLength="7.23" x="222.8213" y="155.2314">2</text><text fill="#000000" font-family="sans-serif" font-size="13" lengthAdjust="spacing" textLength="26.7236" x="234.0513" y="155.2314">GET</text><text fill="#000000" font-family="sans-serif" font-size="13" lengthAdjust="spacing" textLength="3.6118" x="260.7749" y="155.2314">&#160;</text><text fill="#000000" font-family="sans-serif" font-size="13" lengthAdjust="spacing" textLength="81.6753" x="264.3867" y="155.2314">{host}/validate</text><polygon fill="#181818" points="226.8213,187.7852,216.8213,191.7852,226.8213,195.7852,222.8213,191.7852" style="stroke:#181818;stroke-width:1.0;"/><line style="stroke:#181818;stroke-width:1.0;stroke-dasharray:2.0,2.0;" x1="220.8213" x2="362.062" y1="191.7852" y2="191.7852"/><text fill="#000000" font-family="sans-serif" font-size="13" lengthAdjust="spacing" textLength="21.6899" x="232.8213" y="186.5225">200</text><text fill="#000000" font-family="sans-serif" font-size="13" lengthAdjust="spacing" textLength="3.6118" x="254.5112" y="186.5225">&#160;</text><text fill="#000000" font-family="sans-serif" font-size="13" lengthAdjust="spacing" textLength="18.7827" x="258.123" y="186.5225">OK</text><polygon fill="#181818" points="456.71,219.0762,466.71,223.0762,456.71,227.0762,460.71,223.0762" style="stroke:#181818;stroke-width:1.0;"/><line style="stroke:#181818;stroke-width:1.0;" x1="215.8213" x2="462.71" y1="223.0762" y2="223.0762"/><text fill="#000000" font-family="sans-serif" font-size="13" font-weight="bold" lengthAdjust="spacing" textLength="7.23" x="222.8213" y="217.8135">3</text><text fill="#000000" font-family="sans-serif" font-size="13" lengthAdjust="spacing" textLength="35.3945" x="234.0513" y="217.8135">POST</text><text fill="#000000" font-family="sans-serif" font-size="13" lengthAdjust="spacing" textLength="3.6118" x="269.4458" y="217.8135">&#160;</text><text fill="#000000" font-family="sans-serif" font-size="13" lengthAdjust="spacing" textLength="82.3989" x="273.0576" y="217.8135">{host}/patients</text><line style="stroke:#181818;stroke-width:1.0;" x1="478.71" x2="520.71" y1="254.3672" y2="254.3672"/><line style="stroke:#181818;stroke-width:1.0;" x1="520.71" x2="520.71" y1="254.3672" y2="267.3672"/><line style="stroke:#181818;stroke-width:1.0;" x1="479.71" x2="520.71" y1="267.3672" y2="267.3672"/><polygon fill="#181818" points="489.71,263.3672,479.71,267.3672,489.71,271.3672,485.71,267.3672" style="stroke:#181818;stroke-width:1.0;"/><text fill="#000000" font-family="sans-serif" font-size="13" font-weight="bold" lengthAdjust="spacing" textLength="7.23" x="485.71" y="249.1045">4</text><text fill="#000000" font-family="sans-serif" font-size="13" lengthAdjust="spacing" textLength="67.3105" x="496.9399" y="249.1045">&#1042;&#1072;&#1083;&#1080;&#1076;&#1072;&#1094;&#1080;&#1103;</text><text fill="#000000" font-family="sans-serif" font-size="13" lengthAdjust="spacing" textLength="3.6118" x="564.2505" y="249.1045">&#160;</text><text fill="#000000" font-family="sans-serif" font-size="13" lengthAdjust="spacing" textLength="51.2446" x="567.8623" y="249.1045">&#1074;&#1093;&#1086;&#1076;&#1085;&#1099;&#1093;</text><text fill="#000000" font-family="sans-serif" font-size="13" lengthAdjust="spacing" textLength="3.6118" x="619.1069" y="249.1045">&#160;</text><text fill="#000000" font-family="sans-serif" font-size="13" lengthAdjust="spacing" textLength="72.2173" x="622.7188" y="249.1045">&#1087;&#1072;&#1088;&#1072;&#1084;&#1077;&#1090;&#1088;&#1086;&#1074;</text><polygon fill="#181818" points="699.936,294.6582,709.936,298.6582,699.936,302.6582,703.936,298.6582" style="stroke:#181818;stroke-width:1.0;"/><line style="stroke:#181818;stroke-width:1.0;" x1="478.71" x2="705.936" y1="298.6582" y2="298.6582"/><text fill="#000000" font-family="sans-serif" font-size="13" font-weight="bold" lengthAdjust="spacing" textLength="7.23" x="485.71" y="293.3955">5</text><text fill="#000000" font-family="sans-serif" font-size="13" lengthAdjust="spacing" textLength="36.0229" x="496.9399" y="293.3955">&#1055;&#1086;&#1080;&#1089;&#1082;</text><text fill="#000000" font-family="sans-serif" font-size="13" lengthAdjust="spacing" textLength="3.6118" x="532.9629" y="293.3955">&#160;</text><text fill="#000000" font-family="sans-serif" font-size="13" lengthAdjust="spacing" textLength="48.4834" x="536.5747" y="293.3955">&#1079;&#1072;&#1087;&#1080;&#1089;&#1077;&#1081;</text><text fill="#000000" font-family="sans-serif" font-size="13" lengthAdjust="spacing" textLength="3.6118" x="585.0581" y="293.3955">&#160;</text><text fill="#000000" font-family="sans-serif" font-size="13" lengthAdjust="spacing" textLength="14.2695" x="588.6699" y="293.3955">&#1087;&#1086;</text><text fill="#000000" font-family="sans-serif" font-size="13" lengthAdjust="spacing" textLength="3.6118" x="602.9395" y="293.3955">&#160;</text><text fill="#000000" font-family="sans-serif" font-size="13" lengthAdjust="spacing" textLength="31.605" x="606.5513" y="293.3955">&#1087;&#1086;&#1083;&#1102;</text><text fill="#000000" font-family="sans-serif" font-size="13" lengthAdjust="spacing" textLength="3.6118" x="638.1563" y="293.3955">&#160;</text><text fill="#000000" font-family="sans-serif" font-size="13" lengthAdjust="spacing" textLength="31.0654" x="641.7681" y="293.3955">email</text><polygon fill="#181818" points="489.71,325.9492,479.71,329.9492,489.71,333.9492,485.71,329.9492" style="stroke:#181818;stroke-width:1.0;"/><line style="stroke:#181818;stroke-width:1.0;stroke-dasharray:2.0,2.0;" x1="483.71" x2="710.936" y1="329.9492" y2="329.9492"/><text fill="#000000" font-family="sans-serif" font-size="13" lengthAdjust="spacing" textLength="43.145" x="495.71" y="324.6865">&#1047;&#1072;&#1087;&#1080;&#1089;&#1080;</text><text fill="#000000" font-family="sans-serif" font-size="13" lengthAdjust="spacing" textLength="3.6118" x="538.855" y="324.6865">&#160;</text><text fill="#000000" font-family="sans-serif" font-size="13" lengthAdjust="spacing" textLength="14.4092" x="542.4668" y="324.6865">&#1085;&#1077;</text><text fill="#000000" font-family="sans-serif" font-size="13" lengthAdjust="spacing" textLength="3.6118" x="556.876" y="324.6865">&#160;</text><text fill="#000000" font-family="sans-serif" font-size="13" lengthAdjust="spacing" textLength="53.0093" x="560.4878" y="324.6865">&#1085;&#1072;&#1081;&#1076;&#1077;&#1085;&#1099;</text><line style="stroke:#181818;stroke-width:1.0;" x1="478.71" x2="520.71" y1="361.2402" y2="361.2402"/><line style="stroke:#181818;stroke-width:1.0;" x1="520.71" x2="520.71" y1="361.2402" y2="374.2402"/><line style="stroke:#181818;stroke-width:1.0;" x1="479.71" x2="520.71" y1="374.2402" y2="374.2402"/><polygon fill="#181818" points="489.71,370.2402,479.71,374.2402,489.71,378.2402,485.71,374.2402" style="stroke:#181818;stroke-width:1.0;"/><text fill="#000000" font-family="sans-serif" font-size="13" lengthAdjust="spacing" textLength="64.8857" x="485.71" y="355.9775">&#1043;&#1077;&#1085;&#1077;&#1088;&#1072;&#1094;&#1080;&#1103;</text><text fill="#000000" font-family="sans-serif" font-size="13" lengthAdjust="spacing" textLength="3.6118" x="550.5957" y="355.9775">&#160;</text><text fill="#000000" font-family="sans-serif" font-size="13" lengthAdjust="spacing" textLength="31.7764" x="554.2075" y="355.9775">UUID</text><polygon fill="#181818" points="699.936,401.5313,709.936,405.5313,699.936,409.5313,703.936,405.5313" style="stroke:#181818;stroke-width:1.0;"/><line style="stroke:#181818;stroke-width:1.0;" x1="478.71" x2="705.936" y1="405.5313" y2="405.5313"/><text fill="#000000" font-family="sans-serif" font-size="13" lengthAdjust="spacing" textLength="37.7939" x="485.71" y="400.2686">&#1053;&#1086;&#1074;&#1072;&#1103;</text><text fill="#000000" font-family="sans-serif" font-size="13" lengthAdjust="spacing" textLength="3.6118" x="523.5039" y="400.2686">&#160;</text><text fill="#000000" font-family="sans-serif" font-size="13" lengthAdjust="spacing" textLength="40.7646" x="527.1157" y="400.2686">&#1079;&#1072;&#1087;&#1080;&#1089;&#1100;</text><polygon fill="#181818" points="489.71,432.8223,479.71,436.8223,489.71,440.8223,485.71,436.8223" style="stroke:#181818;stroke-width:1.0;"/><line style="stroke:#181818;stroke-width:1.0;stroke-dasharray:2.0,2.0;" x1="483.71" x2="715.936" y1="436.8223" y2="436.8223"/><text fill="#000000" font-family="sans-serif" font-size="13" lengthAdjust="spacing" textLength="46.9663" x="495.71" y="431.5596">&#1044;&#1072;&#1085;&#1085;&#1099;&#1077;</text><text fill="#000000" font-family="sans-serif" font-size="13" lengthAdjust="spacing" textLength="3.6118" x="542.6763" y="431.5596">&#160;</text><text fill="#000000" font-family="sans-serif" font-size="13" lengthAdjust="spacing" textLength="57.7446" x="546.2881" y="431.5596">&#1079;&#1072;&#1087;&#1080;&#1089;&#1072;&#1085;&#1099;</text><polygon fill="#181818" points="827.6528,464.1133,837.6528,468.1133,827.6528,472.1133,831.6528,468.1133" style="stroke:#181818;stroke-width:1.0;"/><line style="stroke:#181818;stroke-width:1.0;" x1="478.71" x2="833.6528" y1="468.1133" y2="468.1133"/><text fill="#000000" font-family="sans-serif" font-size="13" font-weight="bold" lengthAdjust="spacing" textLength="7.23" x="485.71" y="462.8506">6</text><text fill="#000000" font-family="sans-serif" font-size="13" lengthAdjust="spacing" textLength="54.2026" x="496.9399" y="462.8506">(patienId,</text><text fill="#000000" font-family="sans-serif" font-size="13" lengthAdjust="spacing" textLength="3.6118" x="551.1426" y="462.8506">&#160;</text><text fill="#000000" font-family="sans-serif" font-size="13" lengthAdjust="spacing" textLength="36.1309" x="554.7544" y="462.8506">name,</text><text fill="#000000" font-family="sans-serif" font-size="13" lengthAdjust="spacing" textLength="3.6118" x="590.8853" y="462.8506">&#160;</text><text fill="#000000" font-family="sans-serif" font-size="13" lengthAdjust="spacing" textLength="35.3945" x="594.4971" y="462.8506">email)</text><polygon fill="#181818" points="988.5581,495.4043,998.5581,499.4043,988.5581,503.4043,992.5581,499.4043" style="stroke:#181818;stroke-width:1.0;"/><line style="stroke:#181818;stroke-width:1.0;" x1="849.6528" x2="994.5581" y1="499.4043" y2="499.4043"/><text fill="#000000" font-family="sans-serif" font-size="13" font-weight="bold" lengthAdjust="spacing" textLength="7.23" x="856.6528" y="494.1416">7</text><text fill="#000000" font-family="sans-serif" font-size="13" lengthAdjust="spacing" textLength="120.6753" x="867.8828" y="494.1416">CreateBillingAccount</text><line style="stroke:#181818;stroke-width:1.0;" x1="1010.5581" x2="1052.5581" y1="530.6953" y2="530.6953"/><line style="stroke:#181818;stroke-width:1.0;" x1="1052.5581" x2="1052.5581" y1="530.6953" y2="543.6953"/><line style="stroke:#181818;stroke-width:1.0;" x1="1011.5581" x2="1052.5581" y1="543.6953" y2="543.6953"/><polygon fill="#181818" points="1021.5581,539.6953,1011.5581,543.6953,1021.5581,547.6953,1017.5581,543.6953" style="stroke:#181818;stroke-width:1.0;"/><text fill="#000000" font-family="sans-serif" font-size="13" font-weight="bold" lengthAdjust="spacing" textLength="7.23" x="1017.5581" y="525.4326">8</text><text fill="#000000" font-family="sans-serif" font-size="13" lengthAdjust="spacing" textLength="78.0317" x="1028.7881" y="525.4326">&#1051;&#1086;&#1075;&#1080;&#1088;&#1086;&#1074;&#1072;&#1085;&#1080;&#1077;</text><text fill="#000000" font-family="sans-serif" font-size="13" lengthAdjust="spacing" textLength="3.6118" x="1106.8198" y="525.4326">&#160;</text><text fill="#000000" font-family="sans-serif" font-size="13" lengthAdjust="spacing" textLength="59.7188" x="1110.4316" y="525.4326">&#1074;&#1093;&#1086;&#1076;&#1103;&#1097;&#1080;&#1093;</text><text fill="#000000" font-family="sans-serif" font-size="13" lengthAdjust="spacing" textLength="3.6118" x="1170.1504" y="525.4326">&#160;</text><text fill="#000000" font-family="sans-serif" font-size="13" lengthAdjust="spacing" textLength="45.0176" x="1173.7622" y="525.4326">&#1076;&#1072;&#1085;&#1085;&#1099;&#1093;</text><polygon fill="#181818" points="860.6528,570.9863,850.6528,574.9863,860.6528,578.9863,856.6528,574.9863" style="stroke:#181818;stroke-width:1.0;"/><line style="stroke:#181818;stroke-width:1.0;stroke-dasharray:2.0,2.0;" x1="854.6528" x2="1004.5581" y1="574.9863" y2="574.9863"/><text fill="#000000" font-family="sans-serif" font-size="13" lengthAdjust="spacing" textLength="93.2217" x="866.6528" y="569.7236">BillingResponse</text><polygon fill="#181818" points="489.71,602.2773,479.71,606.2773,489.71,610.2773,485.71,606.2773" style="stroke:#181818;stroke-width:1.0;"/><line style="stroke:#181818;stroke-width:1.0;stroke-dasharray:2.0,2.0;" x1="483.71" x2="843.6528" y1="606.2773" y2="606.2773"/><text fill="#000000" font-family="sans-serif" font-size="13" lengthAdjust="spacing" textLength="18.7827" x="495.71" y="601.0146">OK</text><line style="stroke:#181818;stroke-width:1.0;" x1="478.71" x2="520.71" y1="637.5684" y2="637.5684"/><line style="stroke:#181818;stroke-width:1.0;" x1="520.71" x2="520.71" y1="637.5684" y2="650.5684"/><line style="stroke:#181818;stroke-width:1.0;" x1="479.71" x2="520.71" y1="650.5684" y2="650.5684"/><polygon fill="#181818" points="489.71,646.5684,479.71,650.5684,489.71,654.5684,485.71,650.5684" style="stroke:#181818;stroke-width:1.0;"/><text fill="#000000" font-family="sans-serif" font-size="13" font-weight="bold" lengthAdjust="spacing" textLength="7.23" x="485.71" y="632.3057">9</text><text fill="#000000" font-family="sans-serif" font-size="13" lengthAdjust="spacing" textLength="50.5781" x="496.9399" y="632.3057">&#1057;&#1086;&#1079;&#1076;&#1072;&#1077;&#1090;</text><text fill="#000000" font-family="sans-serif" font-size="13" lengthAdjust="spacing" textLength="3.6118" x="547.5181" y="632.3057">&#160;</text><text fill="#000000" font-family="sans-serif" font-size="13" lengthAdjust="spacing" textLength="73.7153" x="551.1299" y="632.3057">PatientEvent</text><line style="stroke:#181818;stroke-width:1.0;" x1="1238.7798" x2="1228.7798" y1="681.8594" y2="677.8594"/><line style="stroke:#181818;stroke-width:1.0;" x1="1238.7798" x2="1228.7798" y1="681.8594" y2="685.8594"/><line style="stroke:#181818;stroke-width:1.0;" x1="478.71" x2="1239.7798" y1="681.8594" y2="681.8594"/><text fill="#000000" font-family="sans-serif" font-size="13" font-weight="bold" lengthAdjust="spacing" textLength="14.46" x="485.71" y="676.5967">10</text><text fill="#000000" font-family="sans-serif" font-size="13" lengthAdjust="spacing" textLength="73.7153" x="504.1699" y="676.5967">PatientEvent</text><polygon fill="#181818" points="226.8213,709.1504,216.8213,713.1504,226.8213,717.1504,222.8213,713.1504" style="stroke:#181818;stroke-width:1.0;"/><line style="stroke:#181818;stroke-width:1.0;stroke-dasharray:2.0,2.0;" x1="220.8213" x2="472.71" y1="713.1504" y2="713.1504"/><text fill="#000000" font-family="sans-serif" font-size="13" font-weight="bold" lengthAdjust="spacing" textLength="14.46" x="232.8213" y="707.8877">11</text><text fill="#000000" font-family="sans-serif" font-size="13" lengthAdjust="spacing" textLength="58.5381" x="251.2813" y="707.8877">Response</text><text fill="#000000" font-family="sans-serif" font-size="13" lengthAdjust="spacing" textLength="3.6118" x="309.8193" y="707.8877">&#160;</text><text fill="#000000" font-family="sans-serif" font-size="13" lengthAdjust="spacing" textLength="21.6899" x="313.4312" y="707.8877">200</text><text fill="#000000" font-family="sans-serif" font-size="13" lengthAdjust="spacing" textLength="3.6118" x="335.1211" y="707.8877">&#160;</text><text fill="#000000" font-family="sans-serif" font-size="13" lengthAdjust="spacing" textLength="18.7827" x="338.7329" y="707.8877">OK</text><text fill="#000000" font-family="sans-serif" font-size="13" lengthAdjust="spacing" textLength="3.6118" x="357.5156" y="707.8877">&#160;</text><text fill="#000000" font-family="sans-serif" font-size="13" lengthAdjust="spacing" textLength="7.5918" x="361.1274" y="707.8877">+</text><text fill="#000000" font-family="sans-serif" font-size="13" lengthAdjust="spacing" textLength="3.6118" x="368.7192" y="707.8877">&#160;</text><text fill="#000000" font-family="sans-serif" font-size="13" lengthAdjust="spacing" textLength="34.6709" x="372.3311" y="707.8877">JSON</text><polygon fill="#181818" points="70.186,740.4414,60.186,744.4414,70.186,748.4414,66.186,744.4414" style="stroke:#181818;stroke-width:1.0;"/><line style="stroke:#181818;stroke-width:1.0;stroke-dasharray:2.0,2.0;" x1="64.186" x2="209.8213" y1="744.4414" y2="744.4414"/><text fill="#000000" font-family="sans-serif" font-size="13" lengthAdjust="spacing" textLength="21.6899" x="76.186" y="739.1787">200</text><text fill="#000000" font-family="sans-serif" font-size="13" lengthAdjust="spacing" textLength="3.6118" x="97.876" y="739.1787">&#160;</text><text fill="#000000" font-family="sans-serif" font-size="13" lengthAdjust="spacing" textLength="18.7827" x="101.4878" y="739.1787">OK</text><text fill="#000000" font-family="sans-serif" font-size="13" lengthAdjust="spacing" textLength="3.6118" x="120.2705" y="739.1787">&#160;</text><text fill="#000000" font-family="sans-serif" font-size="13" lengthAdjust="spacing" textLength="7.5918" x="123.8823" y="739.1787">+</text><text fill="#000000" font-family="sans-serif" font-size="13" lengthAdjust="spacing" textLength="3.6118" x="131.4741" y="739.1787">&#160;</text><text fill="#000000" font-family="sans-serif" font-size="13" lengthAdjust="spacing" textLength="34.6709" x="135.0859" y="739.1787">JSON</text><!--SRC=[ZLHHQzDG57xFhpXqBueBAyCnBAEmf4cPSwuiZZxVj7TjM9k4vBPp3a474sJYG0KVHDH_KBQLTSvjV-7c7tdklJ5DPWKBJPjpltFETxxltXllUdv88j87fqlQmPxdTu150wh5sS9MCF3RPX3vD8AbN7o3FD-WSKmwrF5UK5XSAckumBoM5nAVGMad2dn6_NO9I0os1NEsRI-QfkQAUYJQXn89FRr36DqZ-n9KRoB8iXzPoyLAPC2wUaoZeTUY4hYA0PYp37l9DehGa32F-go0RZXOzg5bsijQcp3YafXEWMrNOcf6XYdKCxnU3pLnLBbw5BRCdiYJIOPJtsgOinDTbLWWOZYpiRjaPvT8n7e6m9a3Vz1tKVJIYbijhoourPBMYO9127DFl4wNcVl41_wTZ_aPdoIlayFa5HybR_3_2V1hViDFyNl6Ru3VgZWYhvD3Fj80FsY8NaN5Az3OT9x1GJU8sSk5L9LOGaYBUKEqHvhNx7gC5iFrfdn7rx2IiAG2TIihDIGz3-M-aoDWAZATBsP1A6FILZsbjLWkm-QwZBTfCJ-N6z5uqASv7WtdVoPgEFZUSFIgWFCFVCIlK9_pgNwdoH6gTuw27IT7Ia5Kb__YOwapYfiMg1bOu1i6q0B-4_W5ecxbovXVYaIf_ms_Iju3xHElf-Ler0njjX8rGq-vVSxgJOIhO_4OyKka9jmyrh8XFee0qfjkWktjjHfe6SclSakCn7GPoUITDctr2QFNegZeCfrZ9FlaF43MVpiWsgZpK85xIlIrzZpuf4_drU3tjQo20chgH-HLm8mehgJ7RRNLmak2GJu3qGh9lyXzFL4sICuJmJYrB3b9tk8YcdR-PvxaIBihCXQRyasxRj4u37oy7FB3oiQIfb89jsHXLGuoMmufwW_aT26fuCw1XjgDrX0V4bDThnI2qY-zAWv0HaUT17W0ZvtDf_dkk8llpbLlOhPjLVwT94yjNik_0G00]--></g></svg>