<svg xmlns="http://www.w3.org/2000/svg" xmlns:xlink="http://www.w3.org/1999/xlink" contentStyleType="text/css" height="453px" preserveAspectRatio="none" style="width:705px;height:453px;background:#FFFFFF;" version="1.1" viewBox="0 0 705 453" width="705px" zoomAndPan="magnify"><defs><filter height="300%" id="f118gt91ht3jp4" width="300%" x="-1" y="-1"><feGaussianBlur result="blurOut" stdDeviation="2.0"/><feColorMatrix in="blurOut" result="blurOut2" type="matrix" values="0 0 0 0 0 0 0 0 0 0 0 0 0 0 0 0 0 0 .4 0"/><feOffset dx="4.0" dy="4.0" in="blurOut2" result="blurOut3"/><feBlend in="SourceGraphic" in2="blurOut3" mode="normal"/></filter></defs><g><rect fill="#FFFFFF" filter="url(#f118gt91ht3jp4)" height="235.0371" style="stroke:#181818;stroke-width:1.0;" width="10" x="49.186" y="129.2031"/><rect fill="#FFFFFF" filter="url(#f118gt91ht3jp4)" height="219.0371" style="stroke:#181818;stroke-width:1.0;" width="10" x="197.1504" y="129.2031"/><rect fill="#FFFFFF" filter="url(#f118gt91ht3jp4)" height="31.291" style="stroke:#181818;stroke-width:1.0;" width="10" x="349.3911" y="160.4941"/><rect fill="#FFFFFF" filter="url(#f118gt91ht3jp4)" height="93.873" style="stroke:#181818;stroke-width:1.0;" width="10" x="460.0391" y="223.0762"/><rect fill="#FFFFFF" filter="url(#f118gt91ht3jp4)" height="31.291" style="stroke:#181818;stroke-width:1.0;" width="10" x="644.0371" y="254.3672"/><rect fill="#E0FFFF" filter="url(#f118gt91ht3jp4)" height="269.6191" rx="2.5" ry="2.5" style="stroke:#000000;stroke-width:1.5;" width="683.1714" x="10" y="86.6211"/><line style="stroke:#181818;stroke-width:0.5;stroke-dasharray:5.0,5.0;" x1="54" x2="54" y1="69.6211" y2="373.2402"/><line style="stroke:#181818;stroke-width:0.5;stroke-dasharray:5.0,5.0;" x1="201.4058" x2="201.4058" y1="69.6211" y2="373.2402"/><line style="stroke:#181818;stroke-width:0.5;stroke-dasharray:5.0,5.0;" x1="353.7637" x2="353.7637" y1="69.6211" y2="373.2402"/><line style="stroke:#181818;stroke-width:0.5;stroke-dasharray:5.0,5.0;" x1="465.0186" x2="465.0186" y1="69.6211" y2="373.2402"/><line style="stroke:#181818;stroke-width:0.5;stroke-dasharray:5.0,5.0;" x1="648.9028" x2="648.9028" y1="69.6211" y2="373.2402"/><rect fill="#FFF2CC" filter="url(#f118gt91ht3jp4)" height="32.6211" rx="2.5" ry="2.5" style="stroke:#181818;stroke-width:0.5;" width="65.3721" x="20" y="33"/><text fill="#000000" font-family="sans-serif" font-size="14" lengthAdjust="spacing" textLength="51.3721" x="27" y="55.1074">frontend</text><rect fill="#FFF2CC" filter="url(#f118gt91ht3jp4)" height="32.6211" rx="2.5" ry="2.5" style="stroke:#181818;stroke-width:0.5;" width="65.3721" x="20" y="372.2402"/><text fill="#000000" font-family="sans-serif" font-size="14" lengthAdjust="spacing" textLength="51.3721" x="27" y="394.3477">frontend</text><text fill="#000000" font-family="sans-serif" font-size="14" lengthAdjust="spacing" textLength="75.4893" x="161.4058" y="66.1074">api-gateway</text><path d="M181.6504,23 L181.6504,47 M181.6504,35 L198.6504,35 " fill="none" filter="url(#f118gt91ht3jp4)" style="stroke:#181818;stroke-width:0.5;"/><ellipse cx="210.6504" cy="35" fill="#FEF9E7" filter="url(#f118gt91ht3jp4)" rx="12" ry="12" style="stroke:#181818;stroke-width:0.5;"/><text fill="#000000" font-family="sans-serif" font-size="14" lengthAdjust="spacing" textLength="75.4893" x="161.4058" y="387.3477">api-gateway</text><path d="M181.6504,394.8613 L181.6504,418.8613 M181.6504,406.8613 L198.6504,406.8613 " fill="none" filter="url(#f118gt91ht3jp4)" style="stroke:#181818;stroke-width:0.5;"/><ellipse cx="210.6504" cy="406.8613" fill="#FEF9E7" filter="url(#f118gt91ht3jp4)" rx="12" ry="12" style="stroke:#181818;stroke-width:0.5;"/><rect fill="#EBF5FB" filter="url(#f118gt91ht3jp4)" height="32.6211" rx="2.5" ry="2.5" style="stroke:#181818;stroke-width:0.5;" width="90.2549" x="307.7637" y="33"/><text fill="#000000" font-family="sans-serif" font-size="14" lengthAdjust="spacing" textLength="76.2549" x="314.7637" y="55.1074">auth-service</text><rect fill="#EBF5FB" filter="url(#f118gt91ht3jp4)" height="32.6211" rx="2.5" ry="2.5" style="stroke:#181818;stroke-width:0.5;" width="90.2549" x="307.7637" y="372.2402"/><text fill="#000000" font-family="sans-serif" font-size="14" lengthAdjust="spacing" textLength="76.2549" x="314.7637" y="394.3477">auth-service</text><rect fill="#F4ECF7" filter="url(#f118gt91ht3jp4)" height="32.6211" rx="2.5" ry="2.5" style="stroke:#181818;stroke-width:0.5;" width="105.041" x="411.0186" y="33"/><text fill="#000000" font-family="sans-serif" font-size="14" lengthAdjust="spacing" textLength="91.041" x="418.0186" y="55.1074">patient-service</text><rect fill="#F4ECF7" filter="url(#f118gt91ht3jp4)" height="32.6211" rx="2.5" ry="2.5" style="stroke:#181818;stroke-width:0.5;" width="105.041" x="411.0186" y="372.2402"/><text fill="#000000" font-family="sans-serif" font-size="14" lengthAdjust="spacing" textLength="91.041" x="418.0186" y="394.3477">patient-service</text><text fill="#000000" font-family="sans-serif" font-size="14" lengthAdjust="spacing" textLength="62.2686" x="614.9028" y="66.1074">patient-db</text><path d="M631.0371,15 C631.0371,5 649.0371,5 649.0371,5 C649.0371,5 667.0371,5 667.0371,15 L667.0371,41 C667.0371,51 649.0371,51 649.0371,51 C649.0371,51 631.0371,51 631.0371,41 L631.0371,15 " fill="#F4ECF7" filter="url(#f118gt91ht3jp4)" style="stroke:#181818;stroke-width:1.5;"/><path d="M631.0371,15 C631.0371,25 649.0371,25 649.0371,25 C649.0371,25 667.0371,25 667.0371,15 " fill="none" style="stroke:#181818;stroke-width:1.5;"/><text fill="#000000" font-family="sans-serif" font-size="14" lengthAdjust="spacing" textLength="62.2686" x="614.9028" y="387.3477">patient-db</text><path d="M631.0371,400.8613 C631.0371,390.8613 649.0371,390.8613 649.0371,390.8613 C649.0371,390.8613 667.0371,390.8613 667.0371,400.8613 L667.0371,426.8613 C667.0371,436.8613 649.0371,436.8613 649.0371,436.8613 C649.0371,436.8613 631.0371,436.8613 631.0371,426.8613 L631.0371,400.8613 " fill="#F4ECF7" filter="url(#f118gt91ht3jp4)" style="stroke:#181818;stroke-width:1.5;"/><path d="M631.0371,400.8613 C631.0371,410.8613 649.0371,410.8613 649.0371,410.8613 C649.0371,410.8613 667.0371,410.8613 667.0371,400.8613 " fill="none" style="stroke:#181818;stroke-width:1.5;"/><rect fill="#FFFFFF" filter="url(#f118gt91ht3jp4)" height="235.0371" style="stroke:#181818;stroke-width:1.0;" width="10" x="49.186" y="129.2031"/><rect fill="#FFFFFF" filter="url(#f118gt91ht3jp4)" height="219.0371" style="stroke:#181818;stroke-width:1.0;" width="10" x="197.1504" y="129.2031"/><rect fill="#FFFFFF" filter="url(#f118gt91ht3jp4)" height="31.291" style="stroke:#181818;stroke-width:1.0;" width="10" x="349.3911" y="160.4941"/><rect fill="#FFFFFF" filter="url(#f118gt91ht3jp4)" height="93.873" style="stroke:#181818;stroke-width:1.0;" width="10" x="460.0391" y="223.0762"/><rect fill="#FFFFFF" filter="url(#f118gt91ht3jp4)" height="31.291" style="stroke:#181818;stroke-width:1.0;" width="10" x="644.0371" y="254.3672"/><path d="M12.5,86.6211 L331.9292,86.6211 L331.9292,95.9121 L321.9292,105.9121 L10,105.9121 L10,89.1211 A2.5,2.5 0 0 1 12.5,86.6211 " fill="#EEEEEE" style="stroke:#000000;stroke-width:1.5;"/><rect fill="none" height="269.6191" rx="2.5" ry="2.5" style="stroke:#000000;stroke-width:1.5;" width="683.1714" x="10" y="86.6211"/><text fill="#000000" font-family="sans-serif" font-size="13" font-weight="bold" lengthAdjust="spacing" textLength="276.9292" x="25" y="101.6494">&#1055;&#1088;&#1086;&#1089;&#1084;&#1086;&#1090;&#1088; &#1079;&#1072;&#1088;&#1077;&#1075;&#1080;&#1089;&#1090;&#1088;&#1080;&#1088;&#1086;&#1074;&#1072;&#1085;&#1085;&#1099;&#1093; &#1087;&#1072;&#1094;&#1080;&#1077;&#1085;&#1090;&#1086;&#1074;</text><polygon fill="#181818" points="185.1504,125.2031,195.1504,129.2031,185.1504,133.2031,189.1504,129.2031" style="stroke:#181818;stroke-width:1.0;"/><line style="stroke:#181818;stroke-width:1.0;" x1="59.186" x2="191.1504" y1="129.2031" y2="129.2031"/><text fill="#000000" font-family="sans-serif" font-size="13" font-weight="bold" lengthAdjust="spacing" textLength="7.23" x="66.186" y="123.9404">1</text><text fill="#000000" font-family="sans-serif" font-size="13" lengthAdjust="spacing" textLength="26.7236" x="77.416" y="123.9404">GET</text><text fill="#000000" font-family="sans-serif" font-size="13" lengthAdjust="spacing" textLength="3.6118" x="104.1396" y="123.9404">&#160;</text><text fill="#000000" font-family="sans-serif" font-size="13" lengthAdjust="spacing" textLength="82.3989" x="107.7515" y="123.9404">{host}/patients</text><polygon fill="#181818" points="337.3911,156.4941,347.3911,160.4941,337.3911,164.4941,341.3911,160.4941" style="stroke:#181818;stroke-width:1.0;"/><line style="stroke:#181818;stroke-width:1.0;" x1="207.1504" x2="343.3911" y1="160.4941" y2="160.4941"/><text fill="#000000" font-family="sans-serif" font-size="13" font-weight="bold" lengthAdjust="spacing" textLength="7.23" x="214.1504" y="155.2314">2</text><text fill="#000000" font-family="sans-serif" font-size="13" lengthAdjust="spacing" textLength="26.7236" x="225.3804" y="155.2314">GET</text><text fill="#000000" font-family="sans-serif" font-size="13" lengthAdjust="spacing" textLength="3.6118" x="252.104" y="155.2314">&#160;</text><text fill="#000000" font-family="sans-serif" font-size="13" lengthAdjust="spacing" textLength="81.6753" x="255.7158" y="155.2314">{host}/validate</text><polygon fill="#181818" points="218.1504,187.7852,208.1504,191.7852,218.1504,195.7852,214.1504,191.7852" style="stroke:#181818;stroke-width:1.0;"/><line style="stroke:#181818;stroke-width:1.0;stroke-dasharray:2.0,2.0;" x1="212.1504" x2="353.3911" y1="191.7852" y2="191.7852"/><text fill="#000000" font-family="sans-serif" font-size="13" lengthAdjust="spacing" textLength="21.6899" x="224.1504" y="186.5225">200</text><text fill="#000000" font-family="sans-serif" font-size="13" lengthAdjust="spacing" textLength="3.6118" x="245.8403" y="186.5225">&#160;</text><text fill="#000000" font-family="sans-serif" font-size="13" lengthAdjust="spacing" textLength="18.7827" x="249.4521" y="186.5225">OK</text><polygon fill="#181818" points="448.0391,219.0762,458.0391,223.0762,448.0391,227.0762,452.0391,223.0762" style="stroke:#181818;stroke-width:1.0;"/><line style="stroke:#181818;stroke-width:1.0;" x1="207.1504" x2="454.0391" y1="223.0762" y2="223.0762"/><text fill="#000000" font-family="sans-serif" font-size="13" font-weight="bold" lengthAdjust="spacing" textLength="7.23" x="214.1504" y="217.8135">3</text><text fill="#000000" font-family="sans-serif" font-size="13" lengthAdjust="spacing" textLength="26.7236" x="225.3804" y="217.8135">GET</text><text fill="#000000" font-family="sans-serif" font-size="13" lengthAdjust="spacing" textLength="7.2236" x="252.104" y="217.8135">&#160;&#160;</text><text fill="#000000" font-family="sans-serif" font-size="13" lengthAdjust="spacing" textLength="82.3989" x="259.3276" y="217.8135">{host}/patients</text><polygon fill="#181818" points="632.0371,250.3672,642.0371,254.3672,632.0371,258.3672,636.0371,254.3672" style="stroke:#181818;stroke-width:1.0;"/><line style="stroke:#181818;stroke-width:1.0;" x1="470.0391" x2="638.0371" y1="254.3672" y2="254.3672"/><text fill="#000000" font-family="sans-serif" font-size="13" font-weight="bold" lengthAdjust="spacing" textLength="7.23" x="477.0391" y="249.1045">4</text><text fill="#000000" font-family="sans-serif" font-size="13" lengthAdjust="spacing" textLength="50.5718" x="488.269" y="249.1045">SELECT</text><text fill="#000000" font-family="sans-serif" font-size="13" lengthAdjust="spacing" textLength="3.6118" x="538.8408" y="249.1045">&#160;</text><text fill="#000000" font-family="sans-serif" font-size="13" lengthAdjust="spacing" textLength="5.0591" x="542.4526" y="249.1045">*</text><text fill="#000000" font-family="sans-serif" font-size="13" lengthAdjust="spacing" textLength="3.6118" x="547.5117" y="249.1045">&#160;</text><text fill="#000000" font-family="sans-serif" font-size="13" lengthAdjust="spacing" textLength="38.27" x="551.1235" y="249.1045">FROM</text><text fill="#000000" font-family="sans-serif" font-size="13" lengthAdjust="spacing" textLength="3.6118" x="589.3936" y="249.1045">&#160;</text><text fill="#000000" font-family="sans-serif" font-size="13" lengthAdjust="spacing" textLength="39.0317" x="593.0054" y="249.1045">patient</text><polygon fill="#181818" points="481.0391,281.6582,471.0391,285.6582,481.0391,289.6582,477.0391,285.6582" style="stroke:#181818;stroke-width:1.0;"/><line style="stroke:#181818;stroke-width:1.0;stroke-dasharray:2.0,2.0;" x1="475.0391" x2="648.0371" y1="285.6582" y2="285.6582"/><text fill="#000000" font-family="sans-serif" font-size="13" lengthAdjust="spacing" textLength="46.9663" x="487.0391" y="280.3955">&#1044;&#1072;&#1085;&#1085;&#1099;&#1077;</text><text fill="#000000" font-family="sans-serif" font-size="13" lengthAdjust="spacing" textLength="3.6118" x="534.0054" y="280.3955">&#160;</text><text fill="#000000" font-family="sans-serif" font-size="13" lengthAdjust="spacing" textLength="63.4766" x="537.6172" y="280.3955">&#1087;&#1072;&#1094;&#1080;&#1077;&#1085;&#1090;&#1086;&#1074;</text><polygon fill="#181818" points="218.1504,312.9492,208.1504,316.9492,218.1504,320.9492,214.1504,316.9492" style="stroke:#181818;stroke-width:1.0;"/><line style="stroke:#181818;stroke-width:1.0;stroke-dasharray:2.0,2.0;" x1="212.1504" x2="464.0391" y1="316.9492" y2="316.9492"/><text fill="#000000" font-family="sans-serif" font-size="13" font-weight="bold" lengthAdjust="spacing" textLength="7.23" x="224.1504" y="311.6865">5</text><text fill="#000000" font-family="sans-serif" font-size="13" lengthAdjust="spacing" textLength="58.5381" x="235.3804" y="311.6865">Response</text><text fill="#000000" font-family="sans-serif" font-size="13" lengthAdjust="spacing" textLength="3.6118" x="293.9185" y="311.6865">&#160;</text><text fill="#000000" font-family="sans-serif" font-size="13" lengthAdjust="spacing" textLength="21.6899" x="297.5303" y="311.6865">200</text><text fill="#000000" font-family="sans-serif" font-size="13" lengthAdjust="spacing" textLength="3.6118" x="319.2202" y="311.6865">&#160;</text><text fill="#000000" font-family="sans-serif" font-size="13" lengthAdjust="spacing" textLength="18.7827" x="322.832" y="311.6865">OK</text><text fill="#000000" font-family="sans-serif" font-size="13" lengthAdjust="spacing" textLength="3.6118" x="341.6147" y="311.6865">&#160;</text><text fill="#000000" font-family="sans-serif" font-size="13" lengthAdjust="spacing" textLength="7.5918" x="345.2266" y="311.6865">+</text><text fill="#000000" font-family="sans-serif" font-size="13" lengthAdjust="spacing" textLength="3.6118" x="352.8184" y="311.6865">&#160;</text><text fill="#000000" font-family="sans-serif" font-size="13" lengthAdjust="spacing" textLength="34.6709" x="356.4302" y="311.6865">JSON</text><polygon fill="#181818" points="70.186,344.2402,60.186,348.2402,70.186,352.2402,66.186,348.2402" style="stroke:#181818;stroke-width:1.0;"/><line style="stroke:#181818;stroke-width:1.0;stroke-dasharray:2.0,2.0;" x1="64.186" x2="201.1504" y1="348.2402" y2="348.2402"/><text fill="#000000" font-family="sans-serif" font-size="13" lengthAdjust="spacing" textLength="21.6899" x="76.186" y="342.9775">200</text><text fill="#000000" font-family="sans-serif" font-size="13" lengthAdjust="spacing" textLength="3.6118" x="97.876" y="342.9775">&#160;</text><text fill="#000000" font-family="sans-serif" font-size="13" lengthAdjust="spacing" textLength="18.7827" x="101.4878" y="342.9775">OK</text><text fill="#000000" font-family="sans-serif" font-size="13" lengthAdjust="spacing" textLength="3.6118" x="120.2705" y="342.9775">&#160;</text><text fill="#000000" font-family="sans-serif" font-size="13" lengthAdjust="spacing" textLength="7.5918" x="123.8823" y="342.9775">+</text><text fill="#000000" font-family="sans-serif" font-size="13" lengthAdjust="spacing" textLength="3.6118" x="131.4741" y="342.9775">&#160;</text><text fill="#000000" font-family="sans-serif" font-size="13" lengthAdjust="spacing" textLength="34.6709" x="135.0859" y="342.9775">JSON</text><!--SRC=[VPF1Qjj048RlUef1lhM865CJQeAWahM6DgwD5V1vPMsb9V5AQ5TEtL980iabrzxx2g4bD8UwVONL6tMqTXCfQQk3XFxzPlQVNrfvp4LE2xg4CALnTif50geecINl5sPPAM8_AmGheD_Gn_Jzc4b94nRo3mnw_Qw52uelU4w50ljTaGd5H6m3bK02w112UhvlHNK_Mgp1fZbt4ghOALqRQ3H7A20lW_rs9rggr96iMF45C-0h5A0JUAHFl3QQKyMPK2rw6cBR5u5FzgsOAXfHoHx0E3BCqBjdSBTCbCi8nxKF8hTxi1UvjfKKMPb3vv0dgVBNL83-KftfdzMv_e7tY-eCz7TzWzAj_gRlglDQmYSY-gk-qHkzgQwhIz2_4BhITuXjgejwqGAyC1x7nVa7C0gEu6EQIVLfRsTH6e8k55zXLYR9USeLQykZkNd72B5HdK-hrOgUS9pzKKsDRPM7aQNASgEPZ9sTgrwt2vCtHezPkxvHMp1PBbd3npJSklZ_HDFGceQEE_G640Q7WNy4pu3C9cFOuLQ37NhMKxj33ttMU-dFVwBMjt-Bkk4T6prrZZOSjvvtncIU2VnFjeF3StWTJjuswz7qOnkZELQJOF3l8lEHy4Zy1W00]--></g></svg>