<svg xmlns="http://www.w3.org/2000/svg" xmlns:xlink="http://www.w3.org/1999/xlink" contentStyleType="text/css" height="532px" preserveAspectRatio="none" style="width:793px;height:532px;background:#FFFFFF;" version="1.1" viewBox="0 0 793 532" width="793px" zoomAndPan="magnify"><defs><filter height="300%" id="f7s1x7kcwpsto" width="300%" x="-1" y="-1"><feGaussianBlur result="blurOut" stdDeviation="2.0"/><feColorMatrix in="blurOut" result="blurOut2" type="matrix" values="0 0 0 0 0 0 0 0 0 0 0 0 0 0 0 0 0 0 .4 0"/><feOffset dx="4.0" dy="4.0" in="blurOut2" result="blurOut3"/><feBlend in="SourceGraphic" in2="blurOut3" mode="normal"/></filter></defs><g><rect fill="#FFFFFF" filter="url(#f7s1x7kcwpsto)" height="296.6191" style="stroke:#181818;stroke-width:1.0;" width="10" x="49.186" y="146.4941"/><rect fill="#FFFFFF" filter="url(#f7s1x7kcwpsto)" height="280.6191" style="stroke:#181818;stroke-width:1.0;" width="10" x="274.4521" y="146.4941"/><rect fill="#FFFFFF" filter="url(#f7s1x7kcwpsto)" height="31.291" style="stroke:#181818;stroke-width:1.0;" width="10" x="484.8301" y="239.3672"/><rect fill="#FFFFFF" filter="url(#f7s1x7kcwpsto)" height="93.873" style="stroke:#181818;stroke-width:1.0;" width="10" x="595.478" y="301.9492"/><rect fill="#FFFFFF" filter="url(#f7s1x7kcwpsto)" height="31.291" style="stroke:#181818;stroke-width:1.0;" width="10" x="732.4844" y="333.2402"/><rect fill="#E0FFFF" filter="url(#f7s1x7kcwpsto)" height="348.4922" rx="2.5" ry="2.5" style="stroke:#000000;stroke-width:1.5;" width="771.6187" x="10" y="86.6211"/><line style="stroke:#181818;stroke-width:0.5;stroke-dasharray:5.0,5.0;" x1="54" x2="54" y1="69.6211" y2="452.1133"/><line style="stroke:#181818;stroke-width:0.5;stroke-dasharray:5.0,5.0;" x1="278.7075" x2="278.7075" y1="69.6211" y2="452.1133"/><line style="stroke:#181818;stroke-width:0.5;stroke-dasharray:5.0,5.0;" x1="489.2026" x2="489.2026" y1="69.6211" y2="452.1133"/><line style="stroke:#181818;stroke-width:0.5;stroke-dasharray:5.0,5.0;" x1="600.4575" x2="600.4575" y1="69.6211" y2="452.1133"/><line style="stroke:#181818;stroke-width:0.5;stroke-dasharray:5.0,5.0;" x1="737.3501" x2="737.3501" y1="69.6211" y2="452.1133"/><rect fill="#FFF2CC" filter="url(#f7s1x7kcwpsto)" height="32.6211" rx="2.5" ry="2.5" style="stroke:#181818;stroke-width:0.5;" width="65.3721" x="20" y="33"/><text fill="#000000" font-family="sans-serif" font-size="14" lengthAdjust="spacing" textLength="51.3721" x="27" y="55.1074">frontend</text><rect fill="#FFF2CC" filter="url(#f7s1x7kcwpsto)" height="32.6211" rx="2.5" ry="2.5" style="stroke:#181818;stroke-width:0.5;" width="65.3721" x="20" y="451.1133"/><text fill="#000000" font-family="sans-serif" font-size="14" lengthAdjust="spacing" textLength="51.3721" x="27" y="473.2207">frontend</text><text fill="#000000" font-family="sans-serif" font-size="14" lengthAdjust="spacing" textLength="75.4893" x="238.7075" y="66.1074">api-gateway</text><path d="M258.9521,23 L258.9521,47 M258.9521,35 L275.9521,35 " fill="none" filter="url(#f7s1x7kcwpsto)" style="stroke:#181818;stroke-width:0.5;"/><ellipse cx="287.9521" cy="35" fill="#FEF9E7" filter="url(#f7s1x7kcwpsto)" rx="12" ry="12" style="stroke:#181818;stroke-width:0.5;"/><text fill="#000000" font-family="sans-serif" font-size="14" lengthAdjust="spacing" textLength="75.4893" x="238.7075" y="466.2207">api-gateway</text><path d="M258.9521,473.7344 L258.9521,497.7344 M258.9521,485.7344 L275.9521,485.7344 " fill="none" filter="url(#f7s1x7kcwpsto)" style="stroke:#181818;stroke-width:0.5;"/><ellipse cx="287.9521" cy="485.7344" fill="#FEF9E7" filter="url(#f7s1x7kcwpsto)" rx="12" ry="12" style="stroke:#181818;stroke-width:0.5;"/><rect fill="#EBF5FB" filter="url(#f7s1x7kcwpsto)" height="32.6211" rx="2.5" ry="2.5" style="stroke:#181818;stroke-width:0.5;" width="90.2549" x="443.2026" y="33"/><text fill="#000000" font-family="sans-serif" font-size="14" lengthAdjust="spacing" textLength="76.2549" x="450.2026" y="55.1074">auth-service</text><rect fill="#EBF5FB" filter="url(#f7s1x7kcwpsto)" height="32.6211" rx="2.5" ry="2.5" style="stroke:#181818;stroke-width:0.5;" width="90.2549" x="443.2026" y="451.1133"/><text fill="#000000" font-family="sans-serif" font-size="14" lengthAdjust="spacing" textLength="76.2549" x="450.2026" y="473.2207">auth-service</text><rect fill="#F4ECF7" filter="url(#f7s1x7kcwpsto)" height="32.6211" rx="2.5" ry="2.5" style="stroke:#181818;stroke-width:0.5;" width="105.041" x="546.4575" y="33"/><text fill="#000000" font-family="sans-serif" font-size="14" lengthAdjust="spacing" textLength="91.041" x="553.4575" y="55.1074">patient-service</text><rect fill="#F4ECF7" filter="url(#f7s1x7kcwpsto)" height="32.6211" rx="2.5" ry="2.5" style="stroke:#181818;stroke-width:0.5;" width="105.041" x="546.4575" y="451.1133"/><text fill="#000000" font-family="sans-serif" font-size="14" lengthAdjust="spacing" textLength="91.041" x="553.4575" y="473.2207">patient-service</text><text fill="#000000" font-family="sans-serif" font-size="14" lengthAdjust="spacing" textLength="62.2686" x="703.3501" y="66.1074">patient-db</text><path d="M719.4844,15 C719.4844,5 737.4844,5 737.4844,5 C737.4844,5 755.4844,5 755.4844,15 L755.4844,41 C755.4844,51 737.4844,51 737.4844,51 C737.4844,51 719.4844,51 719.4844,41 L719.4844,15 " fill="#F4ECF7" filter="url(#f7s1x7kcwpsto)" style="stroke:#181818;stroke-width:1.5;"/><path d="M719.4844,15 C719.4844,25 737.4844,25 737.4844,25 C737.4844,25 755.4844,25 755.4844,15 " fill="none" style="stroke:#181818;stroke-width:1.5;"/><text fill="#000000" font-family="sans-serif" font-size="14" lengthAdjust="spacing" textLength="62.2686" x="703.3501" y="466.2207">patient-db</text><path d="M719.4844,479.7344 C719.4844,469.7344 737.4844,469.7344 737.4844,469.7344 C737.4844,469.7344 755.4844,469.7344 755.4844,479.7344 L755.4844,505.7344 C755.4844,515.7344 737.4844,515.7344 737.4844,515.7344 C737.4844,515.7344 719.4844,515.7344 719.4844,505.7344 L719.4844,479.7344 " fill="#F4ECF7" filter="url(#f7s1x7kcwpsto)" style="stroke:#181818;stroke-width:1.5;"/><path d="M719.4844,479.7344 C719.4844,489.7344 737.4844,489.7344 737.4844,489.7344 C737.4844,489.7344 755.4844,489.7344 755.4844,479.7344 " fill="none" style="stroke:#181818;stroke-width:1.5;"/><rect fill="#FFFFFF" filter="url(#f7s1x7kcwpsto)" height="296.6191" style="stroke:#181818;stroke-width:1.0;" width="10" x="49.186" y="146.4941"/><rect fill="#FFFFFF" filter="url(#f7s1x7kcwpsto)" height="280.6191" style="stroke:#181818;stroke-width:1.0;" width="10" x="274.4521" y="146.4941"/><rect fill="#FFFFFF" filter="url(#f7s1x7kcwpsto)" height="31.291" style="stroke:#181818;stroke-width:1.0;" width="10" x="484.8301" y="239.3672"/><rect fill="#FFFFFF" filter="url(#f7s1x7kcwpsto)" height="93.873" style="stroke:#181818;stroke-width:1.0;" width="10" x="595.478" y="301.9492"/><rect fill="#FFFFFF" filter="url(#f7s1x7kcwpsto)" height="31.291" style="stroke:#181818;stroke-width:1.0;" width="10" x="732.4844" y="333.2402"/><path d="M12.5,86.6211 L331.9292,86.6211 L331.9292,95.9121 L321.9292,105.9121 L10,105.9121 L10,89.1211 A2.5,2.5 0 0 1 12.5,86.6211 " fill="#EEEEEE" style="stroke:#000000;stroke-width:1.5;"/><rect fill="none" height="348.4922" rx="2.5" ry="2.5" style="stroke:#000000;stroke-width:1.5;" width="771.6187" x="10" y="86.6211"/><text fill="#000000" font-family="sans-serif" font-size="13" font-weight="bold" lengthAdjust="spacing" textLength="276.9292" x="25" y="101.6494">&#1055;&#1088;&#1086;&#1089;&#1084;&#1086;&#1090;&#1088; &#1079;&#1072;&#1088;&#1077;&#1075;&#1080;&#1089;&#1090;&#1088;&#1080;&#1088;&#1086;&#1074;&#1072;&#1085;&#1085;&#1099;&#1093; &#1087;&#1072;&#1094;&#1080;&#1077;&#1085;&#1090;&#1086;&#1074;</text><polygon fill="#181818" points="262.4521,142.4941,272.4521,146.4941,262.4521,150.4941,266.4521,146.4941" style="stroke:#181818;stroke-width:1.0;"/><line style="stroke:#181818;stroke-width:1.0;" x1="59.186" x2="268.4521" y1="146.4941" y2="146.4941"/><text fill="#000000" font-family="sans-serif" font-size="13" font-weight="bold" lengthAdjust="spacing" textLength="15.8882" x="66.186" y="132.5859">[1]</text><text fill="#000000" font-family="sans-serif" font-size="13" lengthAdjust="spacing" textLength="26.7236" x="86.0742" y="123.9404">GET</text><text fill="#000000" font-family="sans-serif" font-size="13" lengthAdjust="spacing" textLength="3.6118" x="112.7979" y="123.9404">&#160;</text><text fill="#000000" font-family="sans-serif" font-size="13" lengthAdjust="spacing" textLength="66.4917" x="116.4097" y="123.9404">api/patients</text><text fill="#000000" font-family="sans-serif" font-size="13" lengthAdjust="spacing" textLength="83.8208" x="86.0742" y="141.2314">(Authorization:</text><text fill="#000000" font-family="sans-serif" font-size="13" lengthAdjust="spacing" textLength="3.6118" x="169.895" y="141.2314">&#160;</text><text fill="#000000" font-family="sans-serif" font-size="13" lengthAdjust="spacing" textLength="39.019" x="173.5068" y="141.2314">Bearer</text><text fill="#000000" font-family="sans-serif" font-size="13" lengthAdjust="spacing" textLength="3.6118" x="212.5259" y="141.2314">&#160;</text><text fill="#000000" font-family="sans-serif" font-size="13" lengthAdjust="spacing" textLength="51.3145" x="216.1377" y="141.2314">&lt;token&gt;)</text><line style="stroke:#181818;stroke-width:1.0;" x1="284.4521" x2="326.4521" y1="177.7852" y2="177.7852"/><line style="stroke:#181818;stroke-width:1.0;" x1="326.4521" x2="326.4521" y1="177.7852" y2="190.7852"/><line style="stroke:#181818;stroke-width:1.0;" x1="285.4521" x2="326.4521" y1="190.7852" y2="190.7852"/><polygon fill="#181818" points="295.4521,186.7852,285.4521,190.7852,295.4521,194.7852,291.4521,190.7852" style="stroke:#181818;stroke-width:1.0;"/><text fill="#000000" font-family="sans-serif" font-size="13" font-weight="bold" lengthAdjust="spacing" textLength="15.8882" x="291.4521" y="172.5225">[2]</text><text fill="#000000" font-family="sans-serif" font-size="13" lengthAdjust="spacing" textLength="58.0874" x="311.3403" y="172.5225">&#1055;&#1088;&#1086;&#1074;&#1077;&#1088;&#1082;&#1072;</text><text fill="#000000" font-family="sans-serif" font-size="13" lengthAdjust="spacing" textLength="3.6118" x="369.4277" y="172.5225">&#160;</text><text fill="#000000" font-family="sans-serif" font-size="13" lengthAdjust="spacing" textLength="40.5107" x="373.0396" y="172.5225">&#1090;&#1086;&#1082;&#1077;&#1085;&#1072;</text><polygon fill="#181818" points="472.8301,235.3672,482.8301,239.3672,472.8301,243.3672,476.8301,239.3672" style="stroke:#181818;stroke-width:1.0;"/><line style="stroke:#181818;stroke-width:1.0;" x1="284.4521" x2="478.8301" y1="239.3672" y2="239.3672"/><text fill="#000000" font-family="sans-serif" font-size="13" lengthAdjust="spacing" textLength="26.7236" x="291.4521" y="216.8135">GET</text><text fill="#000000" font-family="sans-serif" font-size="13" lengthAdjust="spacing" textLength="3.6118" x="318.1758" y="216.8135">&#160;</text><text fill="#000000" font-family="sans-serif" font-size="13" lengthAdjust="spacing" textLength="48.4199" x="321.7876" y="216.8135">/validate</text><text fill="#000000" font-family="sans-serif" font-size="13" lengthAdjust="spacing" textLength="83.8208" x="291.4521" y="234.1045">(Authorization:</text><text fill="#000000" font-family="sans-serif" font-size="13" lengthAdjust="spacing" textLength="3.6118" x="375.2729" y="234.1045">&#160;</text><text fill="#000000" font-family="sans-serif" font-size="13" lengthAdjust="spacing" textLength="39.019" x="378.8848" y="234.1045">Bearer</text><text fill="#000000" font-family="sans-serif" font-size="13" lengthAdjust="spacing" textLength="3.6118" x="417.9038" y="234.1045">&#160;</text><text fill="#000000" font-family="sans-serif" font-size="13" lengthAdjust="spacing" textLength="51.3145" x="421.5156" y="234.1045">&lt;token&gt;)</text><polygon fill="#008000" points="295.4521,266.6582,285.4521,270.6582,295.4521,274.6582,291.4521,270.6582" style="stroke:#008000;stroke-width:1.0;"/><line style="stroke:#008000;stroke-width:1.0;stroke-dasharray:2.0,2.0;" x1="289.4521" x2="488.8301" y1="270.6582" y2="270.6582"/><text fill="#000000" font-family="sans-serif" font-size="13" lengthAdjust="spacing" textLength="21.6899" x="301.4521" y="265.3955">200</text><text fill="#000000" font-family="sans-serif" font-size="13" lengthAdjust="spacing" textLength="3.6118" x="323.1421" y="265.3955">&#160;</text><text fill="#000000" font-family="sans-serif" font-size="13" lengthAdjust="spacing" textLength="18.7827" x="326.7539" y="265.3955">OK</text><polygon fill="#181818" points="583.478,297.9492,593.478,301.9492,583.478,305.9492,587.478,301.9492" style="stroke:#181818;stroke-width:1.0;"/><line style="stroke:#181818;stroke-width:1.0;" x1="284.4521" x2="589.478" y1="301.9492" y2="301.9492"/><text fill="#000000" font-family="sans-serif" font-size="13" font-weight="bold" lengthAdjust="spacing" textLength="15.8882" x="291.4521" y="296.6865">[3]</text><text fill="#000000" font-family="sans-serif" font-size="13" lengthAdjust="spacing" textLength="26.7236" x="311.3403" y="296.6865">GET</text><text fill="#000000" font-family="sans-serif" font-size="13" lengthAdjust="spacing" textLength="3.6118" x="338.064" y="296.6865">&#160;</text><text fill="#000000" font-family="sans-serif" font-size="13" lengthAdjust="spacing" textLength="49.1436" x="341.6758" y="296.6865">/patients</text><polygon fill="#181818" points="720.4844,329.2402,730.4844,333.2402,720.4844,337.2402,724.4844,333.2402" style="stroke:#181818;stroke-width:1.0;"/><line style="stroke:#181818;stroke-width:1.0;" x1="605.478" x2="726.4844" y1="333.2402" y2="333.2402"/><text fill="#000000" font-family="sans-serif" font-size="13" font-weight="bold" lengthAdjust="spacing" textLength="15.8882" x="612.478" y="327.9775">[4]</text><text fill="#000000" font-family="sans-serif" font-size="13" lengthAdjust="spacing" textLength="36.0229" x="632.3662" y="327.9775">&#1055;&#1086;&#1080;&#1089;&#1082;</text><text fill="#000000" font-family="sans-serif" font-size="13" lengthAdjust="spacing" textLength="3.6118" x="668.3892" y="327.9775">&#160;</text><text fill="#000000" font-family="sans-serif" font-size="13" lengthAdjust="spacing" textLength="48.4834" x="672.001" y="327.9775">&#1079;&#1072;&#1087;&#1080;&#1089;&#1077;&#1081;</text><polygon fill="#181818" points="616.478,360.5313,606.478,364.5313,616.478,368.5313,612.478,364.5313" style="stroke:#181818;stroke-width:1.0;"/><line style="stroke:#181818;stroke-width:1.0;stroke-dasharray:2.0,2.0;" x1="610.478" x2="736.4844" y1="364.5313" y2="364.5313"/><text fill="#000000" font-family="sans-serif" font-size="13" lengthAdjust="spacing" textLength="22.4009" x="622.478" y="359.2686">&#1042;&#1089;&#1077;</text><text fill="#000000" font-family="sans-serif" font-size="13" lengthAdjust="spacing" textLength="3.6118" x="644.8789" y="359.2686">&#160;</text><text fill="#000000" font-family="sans-serif" font-size="13" lengthAdjust="spacing" textLength="41.2534" x="648.4907" y="359.2686">&#1079;&#1072;&#1087;&#1080;&#1089;&#1080;</text><polygon fill="#008000" points="295.4521,391.8223,285.4521,395.8223,295.4521,399.8223,291.4521,395.8223" style="stroke:#008000;stroke-width:1.0;"/><line style="stroke:#008000;stroke-width:1.0;stroke-dasharray:2.0,2.0;" x1="289.4521" x2="599.478" y1="395.8223" y2="395.8223"/><text fill="#000000" font-family="sans-serif" font-size="13" font-weight="bold" lengthAdjust="spacing" textLength="15.8882" x="301.4521" y="390.5596">[5]</text><text fill="#000000" font-family="sans-serif" font-size="13" lengthAdjust="spacing" textLength="21.6899" x="321.3403" y="390.5596">200</text><text fill="#000000" font-family="sans-serif" font-size="13" lengthAdjust="spacing" textLength="3.6118" x="343.0303" y="390.5596">&#160;</text><text fill="#000000" font-family="sans-serif" font-size="13" lengthAdjust="spacing" textLength="18.7827" x="346.6421" y="390.5596">OK</text><text fill="#000000" font-family="sans-serif" font-size="13" lengthAdjust="spacing" textLength="3.6118" x="365.4248" y="390.5596">&#160;</text><text fill="#000000" font-family="sans-serif" font-size="13" lengthAdjust="spacing" textLength="43.3291" x="369.0366" y="390.5596">(JSON)</text><polygon fill="#008000" points="70.186,423.1133,60.186,427.1133,70.186,431.1133,66.186,427.1133" style="stroke:#008000;stroke-width:1.0;"/><line style="stroke:#008000;stroke-width:1.0;stroke-dasharray:2.0,2.0;" x1="64.186" x2="278.4521" y1="427.1133" y2="427.1133"/><text fill="#000000" font-family="sans-serif" font-size="13" font-weight="bold" lengthAdjust="spacing" textLength="15.8882" x="76.186" y="421.8506">[6]</text><text fill="#000000" font-family="sans-serif" font-size="13" lengthAdjust="spacing" textLength="21.6899" x="96.0742" y="421.8506">200</text><text fill="#000000" font-family="sans-serif" font-size="13" lengthAdjust="spacing" textLength="3.6118" x="117.7642" y="421.8506">&#160;</text><text fill="#000000" font-family="sans-serif" font-size="13" lengthAdjust="spacing" textLength="18.7827" x="121.376" y="421.8506">OK</text><text fill="#000000" font-family="sans-serif" font-size="13" lengthAdjust="spacing" textLength="3.6118" x="140.1587" y="421.8506">&#160;</text><text fill="#000000" font-family="sans-serif" font-size="13" lengthAdjust="spacing" textLength="43.3291" x="143.7705" y="421.8506">(JSON)</text><!--SRC=[bPF1Qjj048RlUeh1lYG7OMDgGeCHLB9aQ9l6L04VqXnMrbPUKg_4QkNKEIM1zj9RNg2lO5fCNLEthx1weywktLWYj50T97Rsdvbl_a7v9UCP4MGAuOJ4wHNZ2KXHK2j_k7YT5ZpsKi6fW6ubVaBUdz0y9maDsJM5JhTjuOLaOvOHBg7nLgHSKXutWEGG-D0CWg3ZULQawn4nXmR9c9qGIQ_8t8W68nJvmLF_g5w9579YvrJCs9WQuJCCGDDtWsxWrgKPaOnoMLCFGopxnFU28oicaaGaftjX71bDtttGOBUK5zC8nstq8kUyVT5hHKx3IaHQPD1yoPA9zEQ4W_fStgYVvQtwWU-xyWRKDxN0q59zLQloLeVmYnBrHItKHctAJ-K7KBzGz56jKBOfx_Ib1VYWGRQ33Xp3m3y3TAQr8ypVy0CzRohODKPIVWmk9GBfUZAzfDmvDFbaBDaClJHEZoPCqdfuC39dj7ZNPakFQ4lyhjK23CnQOwd5DdTlH2xJh9AlURQWhHbvnz1L-f-KMllN9cQzjdtUJ0Ib_6BBssctuVI5kOzflKwbXg1vCQKLr66u0_rZPvrZ65h3q7RwhZO4vyUzgRLP9Ev97vRgkrNHzrthCNFVjMr7DrBtEgEQlh8gi9Zy61NRxoVT3me7pyFJLuVLT6GTZ2hYmF-7sEmR_xxV]--></g></svg>