<svg xmlns="http://www.w3.org/2000/svg" xmlns:xlink="http://www.w3.org/1999/xlink" contentStyleType="text/css" height="705.6px" preserveAspectRatio="none" style="width:648px;height:705px;background:#FFFFFF;" version="1.1" viewBox="0 0 648 705" width="648px" zoomAndPan="magnify"><defs/><g><rect fill="none" height="492.1008" style="stroke:#000000;stroke-width:0.8999999999999999;" width="637.8091" x="6" y="153.6457"/><rect fill="none" height="320.9508" style="stroke:#000000;stroke-width:0.8999999999999999;" width="569.3212" x="12" y="320.5957"/><rect fill="none" height="197.7246" style="stroke:#000000;stroke-width:0.8999999999999999;" width="505.8952" x="18" y="439.6219"/><line style="stroke:#181818;stroke-width:0.3;stroke-dasharray:5.0,5.0;" x1="34.2" x2="34.2" y1="50.1727" y2="655.9465"/><line style="stroke:#181818;stroke-width:0.3;stroke-dasharray:5.0,5.0;" x1="180.0735" x2="180.0735" y1="50.1727" y2="655.9465"/><line style="stroke:#181818;stroke-width:0.3;stroke-dasharray:5.0,5.0;" x1="335.3142" x2="335.3142" y1="50.1727" y2="655.9465"/><line style="stroke:#181818;stroke-width:0.3;stroke-dasharray:5.0,5.0;" x1="443.8825" x2="443.8825" y1="50.1727" y2="655.9465"/><line style="stroke:#181818;stroke-width:0.3;stroke-dasharray:5.0,5.0;" x1="580.06" x2="580.06" y1="50.1727" y2="655.9465"/><text fill="#000000" font-family="sans-serif" font-size="8.4" lengthAdjust="spacing" textLength="17.7352" x="24" y="48.0645">User</text><ellipse cx="34.6676" cy="8.1" fill="#E3E3E3" rx="4.8" ry="4.8" style="stroke:#181818;stroke-width:0.3;"/><path d="M34.6676,12.9 L34.6676,29.1 M26.8676,17.7 L42.4676,17.7 M34.6676,29.1 L26.8676,38.1 M34.6676,29.1 L42.4676,38.1 " fill="none" style="stroke:#181818;stroke-width:0.3;"/><text fill="#000000" font-family="sans-serif" font-size="8.4" lengthAdjust="spacing" textLength="17.7352" x="24" y="664.4109">User</text><ellipse cx="34.6676" cy="671.6191" fill="#E3E3E3" rx="4.8" ry="4.8" style="stroke:#181818;stroke-width:0.3;"/><path d="M34.6676,676.4191 L34.6676,692.6191 M26.8676,681.2191 L42.4676,681.2191 M34.6676,692.6191 L26.8676,701.6191 M34.6676,692.6191 L42.4676,701.6191 " fill="none" style="stroke:#181818;stroke-width:0.3;"/><rect fill="#E3E3E3" height="19.5727" rx="1.5" ry="1.5" style="stroke:#181818;stroke-width:0.3;" width="42.0205" x="159.0735" y="30"/><text fill="#000000" font-family="sans-serif" font-size="8.4" lengthAdjust="spacing" textLength="33.6205" x="163.2735" y="43.2645">Frontend</text><rect fill="#E3E3E3" height="19.5727" rx="1.5" ry="1.5" style="stroke:#181818;stroke-width:0.3;" width="42.0205" x="159.0735" y="655.3465"/><text fill="#000000" font-family="sans-serif" font-size="8.4" lengthAdjust="spacing" textLength="33.6205" x="163.2735" y="668.6109">Frontend</text><rect fill="#E3E3E3" height="19.5727" rx="1.5" ry="1.5" style="stroke:#181818;stroke-width:0.3;" width="57.4219" x="307.1142" y="30"/><text fill="#000000" font-family="sans-serif" font-size="8.4" lengthAdjust="spacing" textLength="49.0219" x="311.3142" y="43.2645">API Gateway</text><rect fill="#E3E3E3" height="19.5727" rx="1.5" ry="1.5" style="stroke:#181818;stroke-width:0.3;" width="57.4219" x="307.1142" y="655.3465"/><text fill="#000000" font-family="sans-serif" font-size="8.4" lengthAdjust="spacing" textLength="49.0219" x="311.3142" y="668.6109">API Gateway</text><rect fill="#E3E3E3" height="19.5727" rx="1.5" ry="1.5" style="stroke:#181818;stroke-width:0.3;" width="56.0232" x="416.2825" y="30"/><text fill="#000000" font-family="sans-serif" font-size="8.4" lengthAdjust="spacing" textLength="47.6232" x="420.4825" y="43.2645">Auth Service</text><rect fill="#E3E3E3" height="19.5727" rx="1.5" ry="1.5" style="stroke:#181818;stroke-width:0.3;" width="56.0232" x="416.2825" y="655.3465"/><text fill="#000000" font-family="sans-serif" font-size="8.4" lengthAdjust="spacing" textLength="47.6232" x="420.4825" y="668.6109">Auth Service</text><text fill="#000000" font-family="sans-serif" font-size="8.4" lengthAdjust="spacing" textLength="31.2826" x="562.66" y="48.0645">Auth DB</text><path d="M569.3013,17.4 C569.3013,11.4 580.1013,11.4 580.1013,11.4 C580.1013,11.4 590.9013,11.4 590.9013,17.4 L590.9013,33 C590.9013,39 580.1013,39 580.1013,39 C580.1013,39 569.3013,39 569.3013,33 L569.3013,17.4 " fill="#E3E3E3" style="stroke:#181818;stroke-width:0.8999999999999999;"/><path d="M569.3013,17.4 C569.3013,23.4 580.1013,23.4 580.1013,23.4 C580.1013,23.4 590.9013,23.4 590.9013,17.4 " fill="none" style="stroke:#181818;stroke-width:0.8999999999999999;"/><text fill="#000000" font-family="sans-serif" font-size="8.4" lengthAdjust="spacing" textLength="31.2826" x="562.66" y="664.4109">Auth DB</text><path d="M569.3013,672.5191 C569.3013,666.5191 580.1013,666.5191 580.1013,666.5191 C580.1013,666.5191 590.9013,666.5191 590.9013,672.5191 L590.9013,688.1191 C590.9013,694.1191 580.1013,694.1191 580.1013,694.1191 C580.1013,694.1191 569.3013,694.1191 569.3013,688.1191 L569.3013,672.5191 " fill="#E3E3E3" style="stroke:#181818;stroke-width:0.8999999999999999;"/><path d="M569.3013,672.5191 C569.3013,678.5191 580.1013,678.5191 580.1013,678.5191 C580.1013,678.5191 590.9013,678.5191 590.9013,672.5191 " fill="none" style="stroke:#181818;stroke-width:0.8999999999999999;"/><polygon fill="#181818" points="172.8838,78.1219,178.8838,80.5219,172.8838,82.9219,175.2838,80.5219" style="stroke:#181818;stroke-width:0.6;"/><line style="stroke:#181818;stroke-width:0.6;" x1="34.6676" x2="176.4838" y1="80.5219" y2="80.5219"/><text fill="#000000" font-family="sans-serif" font-size="7.8" font-weight="bold" lengthAdjust="spacing" textLength="4.338" x="38.8676" y="72.177">1</text><text fill="#000000" font-family="sans-serif" font-size="7.8" lengthAdjust="spacing" textLength="78.9179" x="45.6056" y="66.9896">&#1042;&#1074;&#1086;&#1076;&#1080;&#1090; &#1083;&#1086;&#1075;&#1080;&#1085;/&#1087;&#1072;&#1088;&#1086;&#1083;&#1100;,</text><text fill="#000000" font-family="sans-serif" font-size="7.8" lengthAdjust="spacing" textLength="91.1244" x="45.6056" y="77.3643">&#1085;&#1072;&#1078;&#1080;&#1084;&#1072;&#1077;&#1090; &#1082;&#1085;&#1086;&#1087;&#1082;&#1091; "&#1042;&#1086;&#1081;&#1090;&#1080;"</text><polygon fill="#181818" points="328.6251,96.8965,334.6251,99.2965,328.6251,101.6965,331.0251,99.2965" style="stroke:#181818;stroke-width:0.6;"/><line style="stroke:#181818;stroke-width:0.6;" x1="180.0838" x2="332.2251" y1="99.2965" y2="99.2965"/><text fill="#000000" font-family="sans-serif" font-size="7.8" font-weight="bold" lengthAdjust="spacing" textLength="4.338" x="184.2838" y="96.1389">2</text><text fill="#000000" font-family="sans-serif" font-size="7.8" lengthAdjust="spacing" textLength="134.6033" x="191.0218" y="96.1389">HTTP POST /api/v1/auth/login + JSON</text><polygon fill="#181818" points="437.0941,115.6711,443.0941,118.0711,437.0941,120.4711,439.4941,118.0711" style="stroke:#181818;stroke-width:0.6;"/><line style="stroke:#181818;stroke-width:0.6;" x1="335.8251" x2="440.6941" y1="118.0711" y2="118.0711"/><text fill="#000000" font-family="sans-serif" font-size="7.8" font-weight="bold" lengthAdjust="spacing" textLength="4.338" x="340.0251" y="114.9135">3</text><text fill="#000000" font-family="sans-serif" font-size="7.8" lengthAdjust="spacing" textLength="87.3311" x="346.7631" y="114.9135">&#1055;&#1088;&#1086;&#1082;&#1089;&#1080;&#1088;&#1086;&#1074;&#1072;&#1085;&#1080;&#1077; &#1079;&#1072;&#1087;&#1088;&#1086;&#1089;&#1072;</text><line style="stroke:#181818;stroke-width:0.6;" x1="444.2941" x2="469.4941" y1="136.8457" y2="136.8457"/><line style="stroke:#181818;stroke-width:0.6;" x1="469.4941" x2="469.4941" y1="136.8457" y2="144.6457"/><line style="stroke:#181818;stroke-width:0.6;" x1="444.8941" x2="469.4941" y1="144.6457" y2="144.6457"/><polygon fill="#181818" points="450.8941,142.2457,444.8941,144.6457,450.8941,147.0457,448.4941,144.6457" style="stroke:#181818;stroke-width:0.6;"/><text fill="#000000" font-family="sans-serif" font-size="7.8" font-weight="bold" lengthAdjust="spacing" textLength="4.338" x="448.4941" y="133.6881">4</text><text fill="#000000" font-family="sans-serif" font-size="7.8" lengthAdjust="spacing" textLength="118.7977" x="455.2321" y="133.6881">&#1042;&#1072;&#1083;&#1080;&#1076;&#1072;&#1094;&#1080;&#1103; &#1074;&#1093;&#1086;&#1076;&#1085;&#1099;&#1093; &#1087;&#1072;&#1088;&#1072;&#1084;&#1077;&#1090;&#1088;&#1086;&#1074;</text><path d="M6,153.6457 L42.1025,153.6457 L42.1025,159.2203 L36.1025,165.2203 L6,165.2203 L6,153.6457 " fill="#EEEEEE" style="stroke:#000000;stroke-width:0.8999999999999999;"/><rect fill="none" height="492.1008" style="stroke:#000000;stroke-width:0.8999999999999999;" width="637.8091" x="6" y="153.6457"/><text fill="#000000" font-family="sans-serif" font-size="7.8" font-weight="bold" lengthAdjust="spacing" textLength="9.1025" x="15" y="162.6627">alt</text><text fill="#000000" font-family="sans-serif" font-size="6.6" font-weight="bold" lengthAdjust="spacing" textLength="112.2741" x="51.1025" y="161.9678">[&#1042;&#1093;&#1086;&#1076;&#1085;&#1099;&#1077; &#1087;&#1072;&#1088;&#1072;&#1084;&#1077;&#1090;&#1088;&#1099; &#1085;&#1077;&#1074;&#1072;&#1083;&#1080;&#1076;&#1085;&#1099;]</text><polygon fill="#181818" points="342.4251,176.7949,336.4251,179.1949,342.4251,181.5949,340.0251,179.1949" style="stroke:#181818;stroke-width:0.6;"/><line style="stroke:#181818;stroke-width:0.6;" x1="338.8251" x2="443.6941" y1="179.1949" y2="179.1949"/><text fill="#000000" font-family="sans-serif" font-size="7.8" font-weight="bold" lengthAdjust="spacing" textLength="4.338" x="346.0251" y="176.0373">5</text><text fill="#000000" font-family="sans-serif" font-size="7.8" lengthAdjust="spacing" textLength="71.0912" x="352.7631" y="176.0373">400 BAD REQUEST</text><polygon fill="#181818" points="186.6838,195.5695,180.6838,197.9695,186.6838,200.3695,184.2838,197.9695" style="stroke:#181818;stroke-width:0.6;"/><line style="stroke:#181818;stroke-width:0.6;" x1="183.0838" x2="335.2251" y1="197.9695" y2="197.9695"/><text fill="#000000" font-family="sans-serif" font-size="7.8" font-weight="bold" lengthAdjust="spacing" textLength="4.338" x="190.2838" y="194.8119">6</text><text fill="#000000" font-family="sans-serif" font-size="7.8" lengthAdjust="spacing" textLength="71.0912" x="197.0218" y="194.8119">400 BAD REQUEST</text><polygon fill="#181818" points="41.2676,214.3441,35.2676,216.7441,41.2676,219.1441,38.8676,216.7441" style="stroke:#181818;stroke-width:0.6;"/><line style="stroke:#181818;stroke-width:0.6;" x1="37.6676" x2="179.4838" y1="216.7441" y2="216.7441"/><text fill="#000000" font-family="sans-serif" font-size="7.8" font-weight="bold" lengthAdjust="spacing" textLength="4.338" x="44.8676" y="213.5865">7</text><text fill="#000000" font-family="sans-serif" font-size="7.8" lengthAdjust="spacing" textLength="113.2181" x="51.6056" y="213.5865">&#1054;&#1090;&#1086;&#1073;&#1088;&#1072;&#1079;&#1080;&#1090;&#1100; &#1086;&#1096;&#1080;&#1073;&#1082;&#1091; &#1074;&#1072;&#1083;&#1080;&#1076;&#1072;&#1094;&#1080;&#1080;</text><line style="stroke:#000000;stroke-width:0.6;stroke-dasharray:2.0,2.0;" x1="6" x2="643.8091" y1="222.1441" y2="222.1441"/><text fill="#000000" font-family="sans-serif" font-size="6.6" font-weight="bold" lengthAdjust="spacing" textLength="73.5894" x="9" y="229.2662">[&#1055;&#1072;&#1088;&#1072;&#1084;&#1077;&#1090;&#1088;&#1099; &#1074;&#1072;&#1083;&#1080;&#1076;&#1085;&#1099;]</text><polygon fill="#181818" points="572.9013,253.4719,578.9013,255.8719,572.9013,258.2719,575.3013,255.8719" style="stroke:#181818;stroke-width:0.6;"/><line style="stroke:#181818;stroke-width:0.6;" x1="444.2941" x2="576.5013" y1="255.8719" y2="255.8719"/><text fill="#000000" font-family="sans-serif" font-size="7.8" font-weight="bold" lengthAdjust="spacing" textLength="4.338" x="448.4941" y="247.527">8</text><text fill="#000000" font-family="sans-serif" font-size="7.8" lengthAdjust="spacing" textLength="81.9152" x="455.2321" y="242.3396">SELECT * FROM users</text><text fill="#000000" font-family="sans-serif" font-size="7.8" lengthAdjust="spacing" textLength="114.6691" x="455.2321" y="252.7143">WHERE username = {username}</text><line style="stroke:#181818;stroke-width:0.6;" x1="580.1013" x2="605.3013" y1="285.0211" y2="285.0211"/><line style="stroke:#181818;stroke-width:0.6;" x1="605.3013" x2="605.3013" y1="285.0211" y2="292.8211"/><line style="stroke:#181818;stroke-width:0.6;" x1="580.7013" x2="605.3013" y1="292.8211" y2="292.8211"/><polygon fill="#181818" points="586.7013,290.4211,580.7013,292.8211,586.7013,295.2211,584.3013,292.8211" style="stroke:#181818;stroke-width:0.6;"/><text fill="#000000" font-family="sans-serif" font-size="7.8" font-weight="bold" lengthAdjust="spacing" textLength="4.338" x="584.3013" y="276.6762">9</text><text fill="#000000" font-family="sans-serif" font-size="7.8" lengthAdjust="spacing" textLength="45.5698" x="591.0393" y="271.4889">&#1042;&#1099;&#1087;&#1086;&#1083;&#1085;&#1077;&#1085;&#1080;&#1077;</text><text fill="#000000" font-family="sans-serif" font-size="7.8" lengthAdjust="spacing" textLength="29.052" x="591.0393" y="281.8635">&#1079;&#1072;&#1087;&#1088;&#1086;&#1089;&#1072;</text><polygon fill="#181818" points="450.8941,309.1957,444.8941,311.5957,450.8941,313.9957,448.4941,311.5957" style="stroke:#181818;stroke-width:0.6;"/><line style="stroke:#181818;stroke-width:0.6;" x1="447.2941" x2="579.5013" y1="311.5957" y2="311.5957"/><text fill="#000000" font-family="sans-serif" font-size="7.8" font-weight="bold" lengthAdjust="spacing" textLength="8.676" x="454.4941" y="308.4381">10</text><text fill="#000000" font-family="sans-serif" font-size="7.8" lengthAdjust="spacing" textLength="21.6937" x="465.5701" y="308.4381">&#1054;&#1090;&#1074;&#1077;&#1090;</text><path d="M12,320.5957 L48.1025,320.5957 L48.1025,326.1703 L42.1025,332.1703 L12,332.1703 L12,320.5957 " fill="#EEEEEE" style="stroke:#000000;stroke-width:0.8999999999999999;"/><rect fill="none" height="320.9508" style="stroke:#000000;stroke-width:0.8999999999999999;" width="569.3212" x="12" y="320.5957"/><text fill="#000000" font-family="sans-serif" font-size="7.8" font-weight="bold" lengthAdjust="spacing" textLength="9.1025" x="21" y="329.6127">alt</text><text fill="#000000" font-family="sans-serif" font-size="6.6" font-weight="bold" lengthAdjust="spacing" textLength="86.4993" x="57.1025" y="328.9178">[&#1055;&#1086;&#1083;&#1100;&#1079;&#1086;&#1074;&#1072;&#1090;&#1077;&#1083;&#1100; &#1085;&#1077; &#1085;&#1072;&#1081;&#1076;&#1077;&#1085;]</text><polygon fill="#181818" points="342.4251,343.7449,336.4251,346.1449,342.4251,348.5449,340.0251,346.1449" style="stroke:#181818;stroke-width:0.6;"/><line style="stroke:#181818;stroke-width:0.6;" x1="338.8251" x2="443.6941" y1="346.1449" y2="346.1449"/><text fill="#000000" font-family="sans-serif" font-size="7.8" font-weight="bold" lengthAdjust="spacing" textLength="8.676" x="346.0251" y="342.9873">11</text><text fill="#000000" font-family="sans-serif" font-size="7.8" lengthAdjust="spacing" textLength="77.1469" x="357.1011" y="342.9873">401 UNAUTHORIZED</text><polygon fill="#181818" points="186.6838,362.5195,180.6838,364.9195,186.6838,367.3195,184.2838,364.9195" style="stroke:#181818;stroke-width:0.6;"/><line style="stroke:#181818;stroke-width:0.6;" x1="183.0838" x2="335.2251" y1="364.9195" y2="364.9195"/><text fill="#000000" font-family="sans-serif" font-size="7.8" font-weight="bold" lengthAdjust="spacing" textLength="8.676" x="190.2838" y="361.7619">12</text><text fill="#000000" font-family="sans-serif" font-size="7.8" lengthAdjust="spacing" textLength="77.1469" x="201.3598" y="361.7619">401 UNAUTHORIZED</text><polygon fill="#181818" points="41.2676,381.2941,35.2676,383.6941,41.2676,386.0941,38.8676,383.6941" style="stroke:#181818;stroke-width:0.6;"/><line style="stroke:#181818;stroke-width:0.6;" x1="37.6676" x2="179.4838" y1="383.6941" y2="383.6941"/><text fill="#000000" font-family="sans-serif" font-size="7.8" font-weight="bold" lengthAdjust="spacing" textLength="8.676" x="44.8676" y="380.5365">13</text><text fill="#000000" font-family="sans-serif" font-size="7.8" lengthAdjust="spacing" textLength="119.9402" x="55.9436" y="380.5365">&#1054;&#1090;&#1086;&#1073;&#1088;&#1072;&#1079;&#1080;&#1090;&#1100; &#1086;&#1096;&#1080;&#1073;&#1082;&#1091; &#1072;&#1074;&#1090;&#1086;&#1088;&#1080;&#1079;&#1072;&#1094;&#1080;&#1080;</text><line style="stroke:#000000;stroke-width:0.6;stroke-dasharray:2.0,2.0;" x1="12" x2="581.3212" y1="389.0941" y2="389.0941"/><text fill="#000000" font-family="sans-serif" font-size="6.6" font-weight="bold" lengthAdjust="spacing" textLength="77.0086" x="15" y="396.2162">[&#1055;&#1086;&#1083;&#1100;&#1079;&#1086;&#1074;&#1072;&#1090;&#1077;&#1083;&#1100; &#1085;&#1072;&#1081;&#1076;&#1077;&#1085;]</text><line style="stroke:#181818;stroke-width:0.6;" x1="444.2941" x2="469.4941" y1="422.8219" y2="422.8219"/><line style="stroke:#181818;stroke-width:0.6;" x1="469.4941" x2="469.4941" y1="422.8219" y2="430.6219"/><line style="stroke:#181818;stroke-width:0.6;" x1="444.8941" x2="469.4941" y1="430.6219" y2="430.6219"/><polygon fill="#181818" points="450.8941,428.2219,444.8941,430.6219,450.8941,433.0219,448.4941,430.6219" style="stroke:#181818;stroke-width:0.6;"/><text fill="#000000" font-family="sans-serif" font-size="7.8" font-weight="bold" lengthAdjust="spacing" textLength="8.676" x="448.4941" y="414.477">14</text><text fill="#000000" font-family="sans-serif" font-size="7.8" lengthAdjust="spacing" textLength="114.5511" x="459.5701" y="409.2896">BCrypt: &#1089;&#1088;&#1072;&#1074;&#1085;&#1077;&#1085;&#1080;&#1077; &#1087;&#1088;&#1080;&#1089;&#1083;&#1072;&#1085;&#1085;&#1086;&#1075;&#1086;</text><text fill="#000000" font-family="sans-serif" font-size="7.8" lengthAdjust="spacing" textLength="75.8481" x="459.5701" y="419.6643">&#1087;&#1072;&#1088;&#1086;&#1083;&#1103; &#1080; &#1093;&#1101;&#1096;&#1072; &#1080;&#1079; &#1041;&#1044;</text><path d="M18,439.6219 L54.1025,439.6219 L54.1025,445.1965 L48.1025,451.1965 L18,451.1965 L18,439.6219 " fill="#EEEEEE" style="stroke:#000000;stroke-width:0.8999999999999999;"/><rect fill="none" height="197.7246" style="stroke:#000000;stroke-width:0.8999999999999999;" width="505.8952" x="18" y="439.6219"/><text fill="#000000" font-family="sans-serif" font-size="7.8" font-weight="bold" lengthAdjust="spacing" textLength="9.1025" x="27" y="448.6389">alt</text><text fill="#000000" font-family="sans-serif" font-size="6.6" font-weight="bold" lengthAdjust="spacing" textLength="52.8773" x="63.1025" y="447.9439">[&#1061;&#1101;&#1096; &#1085;&#1077; &#1089;&#1086;&#1074;&#1087;&#1072;&#1083;]</text><polygon fill="#181818" points="342.4251,462.7711,336.4251,465.1711,342.4251,467.5711,340.0251,465.1711" style="stroke:#181818;stroke-width:0.6;"/><line style="stroke:#181818;stroke-width:0.6;" x1="338.8251" x2="443.6941" y1="465.1711" y2="465.1711"/><text fill="#000000" font-family="sans-serif" font-size="7.8" font-weight="bold" lengthAdjust="spacing" textLength="8.676" x="346.0251" y="462.0135">15</text><text fill="#000000" font-family="sans-serif" font-size="7.8" lengthAdjust="spacing" textLength="77.1469" x="357.1011" y="462.0135">401 UNAUTHORIZED</text><polygon fill="#181818" points="186.6838,481.5457,180.6838,483.9457,186.6838,486.3457,184.2838,483.9457" style="stroke:#181818;stroke-width:0.6;"/><line style="stroke:#181818;stroke-width:0.6;" x1="183.0838" x2="335.2251" y1="483.9457" y2="483.9457"/><text fill="#000000" font-family="sans-serif" font-size="7.8" font-weight="bold" lengthAdjust="spacing" textLength="8.676" x="190.2838" y="480.7881">16</text><text fill="#000000" font-family="sans-serif" font-size="7.8" lengthAdjust="spacing" textLength="77.1469" x="201.3598" y="480.7881">401 UNAUTHORIZED</text><polygon fill="#181818" points="41.2676,510.6949,35.2676,513.0949,41.2676,515.4949,38.8676,513.0949" style="stroke:#181818;stroke-width:0.6;"/><line style="stroke:#181818;stroke-width:0.6;" x1="37.6676" x2="179.4838" y1="513.0949" y2="513.0949"/><text fill="#000000" font-family="sans-serif" font-size="7.8" font-weight="bold" lengthAdjust="spacing" textLength="8.676" x="44.8676" y="504.75">17</text><text fill="#000000" font-family="sans-serif" font-size="7.8" lengthAdjust="spacing" textLength="42.6905" x="55.9436" y="499.5627">&#1054;&#1090;&#1086;&#1073;&#1088;&#1072;&#1079;&#1080;&#1090;&#1100;</text><text fill="#000000" font-family="sans-serif" font-size="7.8" lengthAdjust="spacing" textLength="108.6173" x="55.9436" y="509.9373">"&#1053;&#1077;&#1074;&#1077;&#1088;&#1085;&#1099;&#1081; &#1083;&#1086;&#1075;&#1080;&#1085; &#1080;&#1083;&#1080; &#1087;&#1072;&#1088;&#1086;&#1083;&#1100;"</text><line style="stroke:#000000;stroke-width:0.6;stroke-dasharray:2.0,2.0;" x1="18" x2="523.8952" y1="518.4949" y2="518.4949"/><text fill="#000000" font-family="sans-serif" font-size="6.6" font-weight="bold" lengthAdjust="spacing" textLength="56.3965" x="21" y="525.617">[&#1055;&#1072;&#1088;&#1086;&#1083;&#1100; &#1074;&#1077;&#1088;&#1085;&#1099;&#1081;]</text><line style="stroke:#181818;stroke-width:0.6;" x1="444.2941" x2="469.4941" y1="541.848" y2="541.848"/><line style="stroke:#181818;stroke-width:0.6;" x1="469.4941" x2="469.4941" y1="541.848" y2="549.648"/><line style="stroke:#181818;stroke-width:0.6;" x1="444.8941" x2="469.4941" y1="549.648" y2="549.648"/><polygon fill="#181818" points="450.8941,547.248,444.8941,549.648,450.8941,552.048,448.4941,549.648" style="stroke:#181818;stroke-width:0.6;"/><text fill="#000000" font-family="sans-serif" font-size="7.8" font-weight="bold" lengthAdjust="spacing" textLength="8.676" x="448.4941" y="538.6904">18</text><text fill="#000000" font-family="sans-serif" font-size="7.8" lengthAdjust="spacing" textLength="57.1251" x="459.5701" y="538.6904">&#1043;&#1077;&#1085;&#1077;&#1088;&#1072;&#1094;&#1080;&#1103; JWT</text><polygon fill="#181818" points="342.4251,566.0227,336.4251,568.4227,342.4251,570.8227,340.0251,568.4227" style="stroke:#181818;stroke-width:0.6;"/><line style="stroke:#181818;stroke-width:0.6;" x1="338.8251" x2="443.6941" y1="568.4227" y2="568.4227"/><text fill="#000000" font-family="sans-serif" font-size="7.8" font-weight="bold" lengthAdjust="spacing" textLength="8.676" x="346.0251" y="565.265">19</text><text fill="#000000" font-family="sans-serif" font-size="7.8" lengthAdjust="spacing" textLength="82.1628" x="357.1011" y="565.265">200 OK + JwtResponse</text><polygon fill="#181818" points="186.6838,584.7973,180.6838,587.1973,186.6838,589.5973,184.2838,587.1973" style="stroke:#181818;stroke-width:0.6;"/><line style="stroke:#181818;stroke-width:0.6;" x1="183.0838" x2="335.2251" y1="587.1973" y2="587.1973"/><text fill="#000000" font-family="sans-serif" font-size="7.8" font-weight="bold" lengthAdjust="spacing" textLength="8.676" x="190.2838" y="584.0396">20</text><text fill="#000000" font-family="sans-serif" font-size="7.8" lengthAdjust="spacing" textLength="82.1628" x="201.3598" y="584.0396">200 OK + JwtResponse</text><line style="stroke:#181818;stroke-width:0.6;" x1="180.0838" x2="205.2838" y1="605.9719" y2="605.9719"/><line style="stroke:#181818;stroke-width:0.6;" x1="205.2838" x2="205.2838" y1="605.9719" y2="613.7719"/><line style="stroke:#181818;stroke-width:0.6;" x1="180.6838" x2="205.2838" y1="613.7719" y2="613.7719"/><polygon fill="#181818" points="186.6838,611.3719,180.6838,613.7719,186.6838,616.1719,184.2838,613.7719" style="stroke:#181818;stroke-width:0.6;"/><text fill="#000000" font-family="sans-serif" font-size="7.8" font-weight="bold" lengthAdjust="spacing" textLength="8.676" x="184.2838" y="602.8143">21</text><text fill="#000000" font-family="sans-serif" font-size="7.8" lengthAdjust="spacing" textLength="114.2273" x="195.3598" y="602.8143">&#1057;&#1086;&#1093;&#1088;&#1072;&#1085;&#1077;&#1085;&#1080;&#1077; JWT &#1074; localStorage</text><polygon fill="#181818" points="41.2676,630.1465,35.2676,632.5465,41.2676,634.9465,38.8676,632.5465" style="stroke:#181818;stroke-width:0.6;"/><line style="stroke:#181818;stroke-width:0.6;" x1="37.6676" x2="179.4838" y1="632.5465" y2="632.5465"/><text fill="#000000" font-family="sans-serif" font-size="7.8" font-weight="bold" lengthAdjust="spacing" textLength="8.676" x="44.8676" y="629.3889">22</text><text fill="#000000" font-family="sans-serif" font-size="7.8" lengthAdjust="spacing" textLength="112.3726" x="55.9436" y="629.3889">&#1056;&#1077;&#1076;&#1080;&#1088;&#1077;&#1082;&#1090; &#1085;&#1072; &#1075;&#1083;&#1072;&#1074;&#1085;&#1091;&#1102; &#1089;&#1090;&#1088;&#1072;&#1085;&#1080;&#1094;&#1091;</text><!--SRC=[bLLTRn9157sVNt73ezhG6f-Qs0GA_L9BPI4afYzJM5iYx99bQTCO4qj3OzAgiVggrGVVAHPBYy1VcFb7dhdBLsj9AmbXTk-vzvvxvimWAxxhL8eRjYVAh_9EINgoI4NNSRDRdbkqoVSgzbYal2LpxaxUsQINib2sXP1Pt_Keb2xRNeXacT82G3-VpPUaurDemNCTttPo75k8Nmr6rfPfKVhsZjpb-6BcMhpYRv5bUzlvhCs0Y2LoqfSRicptex4e1s9H8T8qDOSMD4lgM3LKLvsfbgwIQcFvIxLK9wnwggxVuh6jZnwiEwgZwket8d_mspJGIxpg0dMfzoc4AbrreQkg5H8eY-AB6HHVIgNMQ2rXfIWiI_dmzanOWaYuu6xc7RfFArPYLG08UCGoN4wuuwNU0nkpQg1P1qsRfCwnx9cN2DQ5Y5Z3f6D4sW2TWV014Z-IQkWQpzJHXxf6_L7gu0xcGM4X2pvIHpZJunfE7nAwDvb5q00uGVYWyM34HzFJ58t4A1b_devRAGu78x6yDuK3WTA6-pT8rbMdtFNSR84-8epu3jrEMTcnvZoTQWaRNe9K_tATn3CMHIih_ZG-dw9xj91CFACAB5XUTp9ByMIS7nm9_pwcruFr6ywFHQVcOb6ZCGJg6JEm8BmbyCJLFGaIHfjfPciOTe93BFX9O2XaykO2qJJFh3Ennov07nquvH-fPoYz6acdbXB9vHVns11pHUy9cFyIlGu70GD4ompP5vvh3TIVECTD8qpDHQnPYivxkoL_blGUjswCj2IMiGKPs-pu3X_3BYGUdKBOkaMwfj-3Q9qCCLAVr1SnRCC2_pJnG4vKC-HwnXL3q5qblQkijqkxxeJKLpv5JRms9-rYx9unWy2pD7xTX8RLnwtU3GGUAtDjgA7nFhEi1ZQu45OogKaAFCG1JJmnbz6EdxJB9TV1JJr1XLknWHB1lVe3_gcn4ADj1WzCG0KtAmiM_WlafZr9oUz8EkDhi0bFLjbP1CtQWNFqllvWZ5JjTsZf0xq_qit9YS6l-Vu5]--></g></svg>