<svg xmlns="http://www.w3.org/2000/svg" xmlns:xlink="http://www.w3.org/1999/xlink" contentStyleType="text/css" height="518px" preserveAspectRatio="none" style="width:779px;height:518px;background:#FFFFFF;" version="1.1" viewBox="0 0 779 518" width="779px" zoomAndPan="magnify"><defs/><g><line style="stroke:#181818;stroke-width:0.5;stroke-dasharray:5.0,5.0;" x1="54" x2="54" y1="83.6211" y2="435.5313"/><line style="stroke:#181818;stroke-width:0.5;stroke-dasharray:5.0,5.0;" x1="218.6299" x2="218.6299" y1="83.6211" y2="435.5313"/><line style="stroke:#181818;stroke-width:0.5;stroke-dasharray:5.0,5.0;" x1="440.1133" x2="440.1133" y1="83.6211" y2="435.5313"/><line style="stroke:#181818;stroke-width:0.5;stroke-dasharray:5.0,5.0;" x1="547.4854" x2="547.4854" y1="83.6211" y2="435.5313"/><line style="stroke:#181818;stroke-width:0.5;stroke-dasharray:5.0,5.0;" x1="743.6997" x2="743.6997" y1="83.6211" y2="435.5313"/><text fill="#000000" font-family="sans-serif" font-size="14" lengthAdjust="spacing" textLength="92.4014" x="5" y="80.1074">&#1055;&#1086;&#1083;&#1100;&#1079;&#1086;&#1074;&#1072;&#1090;&#1077;&#1083;&#1100;</text><ellipse cx="54.2007" cy="13.5" fill="#E2E2F0" rx="8" ry="8" style="stroke:#181818;stroke-width:0.5;"/><path d="M54.2007,21.5 L54.2007,48.5 M41.2007,29.5 L67.2007,29.5 M54.2007,48.5 L41.2007,63.5 M54.2007,48.5 L67.2007,63.5 " fill="none" style="stroke:#181818;stroke-width:0.5;"/><text fill="#000000" font-family="sans-serif" font-size="14" lengthAdjust="spacing" textLength="92.4014" x="5" y="449.6387">&#1055;&#1086;&#1083;&#1100;&#1079;&#1086;&#1074;&#1072;&#1090;&#1077;&#1083;&#1100;</text><ellipse cx="54.2007" cy="461.6523" fill="#E2E2F0" rx="8" ry="8" style="stroke:#181818;stroke-width:0.5;"/><path d="M54.2007,469.6523 L54.2007,496.6523 M41.2007,477.6523 L67.2007,477.6523 M54.2007,496.6523 L41.2007,511.6523 M54.2007,496.6523 L67.2007,511.6523 " fill="none" style="stroke:#181818;stroke-width:0.5;"/><rect fill="#E2E2F0" height="32.6211" rx="2.5" ry="2.5" style="stroke:#181818;stroke-width:0.5;" width="95.7031" x="171.6299" y="50"/><text fill="#000000" font-family="sans-serif" font-size="14" lengthAdjust="spacing" textLength="81.7031" x="178.6299" y="72.1074">API Gateway</text><rect fill="#E2E2F0" height="32.6211" rx="2.5" ry="2.5" style="stroke:#181818;stroke-width:0.5;" width="95.7031" x="171.6299" y="434.5313"/><text fill="#000000" font-family="sans-serif" font-size="14" lengthAdjust="spacing" textLength="81.7031" x="178.6299" y="456.6387">API Gateway</text><rect fill="#E2E2F0" height="32.6211" rx="2.5" ry="2.5" style="stroke:#181818;stroke-width:0.5;" width="93.3721" x="394.1133" y="50"/><text fill="#000000" font-family="sans-serif" font-size="14" lengthAdjust="spacing" textLength="79.3721" x="401.1133" y="72.1074">Auth Service</text><rect fill="#E2E2F0" height="32.6211" rx="2.5" ry="2.5" style="stroke:#181818;stroke-width:0.5;" width="93.3721" x="394.1133" y="434.5313"/><text fill="#000000" font-family="sans-serif" font-size="14" lengthAdjust="spacing" textLength="79.3721" x="401.1133" y="456.6387">Auth Service</text><rect fill="#E2E2F0" height="32.6211" rx="2.5" ry="2.5" style="stroke:#181818;stroke-width:0.5;" width="101.9238" x="497.4854" y="50"/><text fill="#000000" font-family="sans-serif" font-size="14" lengthAdjust="spacing" textLength="87.9238" x="504.4854" y="72.1074">Billing Service</text><rect fill="#E2E2F0" height="32.6211" rx="2.5" ry="2.5" style="stroke:#181818;stroke-width:0.5;" width="101.9238" x="497.4854" y="434.5313"/><text fill="#000000" font-family="sans-serif" font-size="14" lengthAdjust="spacing" textLength="87.9238" x="504.4854" y="456.6387">Billing Service</text><text fill="#000000" font-family="sans-serif" font-size="14" lengthAdjust="spacing" textLength="60.6895" x="710.6997" y="80.1074">Billing DB</text><path d="M726.0444,29 C726.0444,19 744.0444,19 744.0444,19 C744.0444,19 762.0444,19 762.0444,29 L762.0444,55 C762.0444,65 744.0444,65 744.0444,65 C744.0444,65 726.0444,65 726.0444,55 L726.0444,29 " fill="#E2E2F0" style="stroke:#181818;stroke-width:1.5;"/><path d="M726.0444,29 C726.0444,39 744.0444,39 744.0444,39 C744.0444,39 762.0444,39 762.0444,29 " fill="none" style="stroke:#181818;stroke-width:1.5;"/><text fill="#000000" font-family="sans-serif" font-size="14" lengthAdjust="spacing" textLength="60.6895" x="710.6997" y="449.6387">Billing DB</text><path d="M726.0444,463.1523 C726.0444,453.1523 744.0444,453.1523 744.0444,453.1523 C744.0444,453.1523 762.0444,453.1523 762.0444,463.1523 L762.0444,489.1523 C762.0444,499.1523 744.0444,499.1523 744.0444,499.1523 C744.0444,499.1523 726.0444,499.1523 726.0444,489.1523 L726.0444,463.1523 " fill="#E2E2F0" style="stroke:#181818;stroke-width:1.5;"/><path d="M726.0444,463.1523 C726.0444,473.1523 744.0444,473.1523 744.0444,473.1523 C744.0444,473.1523 762.0444,473.1523 762.0444,463.1523 " fill="none" style="stroke:#181818;stroke-width:1.5;"/><polygon fill="#181818" points="207.4814,112.9121,217.4814,116.9121,207.4814,120.9121,211.4814,116.9121" style="stroke:#181818;stroke-width:1.0;"/><line style="stroke:#181818;stroke-width:1.0;" x1="54.2007" x2="213.4814" y1="116.9121" y2="116.9121"/><text fill="#000000" font-family="sans-serif" font-size="13" font-weight="bold" lengthAdjust="spacing" textLength="7.23" x="61.2007" y="111.6494">1</text><text fill="#000000" font-family="sans-serif" font-size="13" lengthAdjust="spacing" textLength="104.7681" x="72.4307" y="111.6494">GET /api/billing/all</text><path d="M224,129.9121 L224,156.9121 L407,156.9121 L407,139.9121 L397,129.9121 L224,129.9121 " fill="#FEFFDD" style="stroke:#181818;stroke-width:0.5;"/><path d="M397,129.9121 L397,139.9121 L407,139.9121 L397,129.9121 " fill="#FEFFDD" style="stroke:#181818;stroke-width:0.5;"/><text fill="#000000" font-family="sans-serif" font-size="13" lengthAdjust="spacing" textLength="162.3413" x="230" y="148.9404">&#1055;&#1088;&#1086;&#1074;&#1077;&#1088;&#1082;&#1072; JWT &#1074; &#1079;&#1072;&#1075;&#1086;&#1083;&#1086;&#1074;&#1082;&#1077;</text><polygon fill="#181818" points="428.7993,181.4941,438.7993,185.4941,428.7993,189.4941,432.7993,185.4941" style="stroke:#181818;stroke-width:1.0;"/><line style="stroke:#181818;stroke-width:1.0;" x1="219.4814" x2="434.7993" y1="185.4941" y2="185.4941"/><text fill="#000000" font-family="sans-serif" font-size="13" font-weight="bold" lengthAdjust="spacing" textLength="7.23" x="226.4814" y="180.2314">2</text><text fill="#000000" font-family="sans-serif" font-size="13" lengthAdjust="spacing" textLength="186.0879" x="237.7114" y="180.2314">GET /api/auth/validate?token=...</text><polygon fill="#181818" points="230.4814,212.7852,220.4814,216.7852,230.4814,220.7852,226.4814,216.7852" style="stroke:#181818;stroke-width:1.0;"/><line style="stroke:#181818;stroke-width:1.0;stroke-dasharray:2.0,2.0;" x1="224.4814" x2="439.7993" y1="216.7852" y2="216.7852"/><text fill="#000000" font-family="sans-serif" font-size="13" font-weight="bold" lengthAdjust="spacing" textLength="7.23" x="236.4814" y="211.5225">3</text><text fill="#000000" font-family="sans-serif" font-size="13" lengthAdjust="spacing" textLength="114.8862" x="247.7114" y="211.5225">200 OK (Valid: true)</text><polygon fill="#181818" points="536.4473,244.0762,546.4473,248.0762,536.4473,252.0762,540.4473,248.0762" style="stroke:#181818;stroke-width:1.0;"/><line style="stroke:#181818;stroke-width:1.0;" x1="219.4814" x2="542.4473" y1="248.0762" y2="248.0762"/><text fill="#000000" font-family="sans-serif" font-size="13" font-weight="bold" lengthAdjust="spacing" textLength="7.23" x="226.4814" y="242.8135">4</text><text fill="#000000" font-family="sans-serif" font-size="13" lengthAdjust="spacing" textLength="104.7681" x="237.7114" y="242.8135">GET /api/billing/all</text><polygon fill="#181818" points="732.0444,275.3672,742.0444,279.3672,732.0444,283.3672,736.0444,279.3672" style="stroke:#181818;stroke-width:1.0;"/><line style="stroke:#181818;stroke-width:1.0;" x1="548.4473" x2="738.0444" y1="279.3672" y2="279.3672"/><text fill="#000000" font-family="sans-serif" font-size="13" font-weight="bold" lengthAdjust="spacing" textLength="7.23" x="555.4473" y="274.1045">5</text><text fill="#000000" font-family="sans-serif" font-size="13" lengthAdjust="spacing" textLength="160.3672" x="566.6772" y="274.1045">SQL: SELECT * FROM bills</text><polygon fill="#181818" points="559.4473,306.6582,549.4473,310.6582,559.4473,314.6582,555.4473,310.6582" style="stroke:#181818;stroke-width:1.0;"/><line style="stroke:#181818;stroke-width:1.0;stroke-dasharray:2.0,2.0;" x1="553.4473" x2="743.0444" y1="310.6582" y2="310.6582"/><text fill="#000000" font-family="sans-serif" font-size="13" font-weight="bold" lengthAdjust="spacing" textLength="7.23" x="565.4473" y="305.3955">6</text><text fill="#000000" font-family="sans-serif" font-size="13" lengthAdjust="spacing" textLength="114.8735" x="576.6772" y="305.3955">Result Set (Entities)</text><line style="stroke:#181818;stroke-width:1.0;" x1="548.4473" x2="590.4473" y1="341.9492" y2="341.9492"/><line style="stroke:#181818;stroke-width:1.0;" x1="590.4473" x2="590.4473" y1="341.9492" y2="354.9492"/><line style="stroke:#181818;stroke-width:1.0;" x1="549.4473" x2="590.4473" y1="354.9492" y2="354.9492"/><polygon fill="#181818" points="559.4473,350.9492,549.4473,354.9492,559.4473,358.9492,555.4473,354.9492" style="stroke:#181818;stroke-width:1.0;"/><text fill="#000000" font-family="sans-serif" font-size="13" font-weight="bold" lengthAdjust="spacing" textLength="7.23" x="555.4473" y="336.6865">7</text><text fill="#000000" font-family="sans-serif" font-size="13" lengthAdjust="spacing" textLength="135.1099" x="566.6772" y="336.6865">Mapping: Entity to DTO</text><polygon fill="#181818" points="230.4814,382.2402,220.4814,386.2402,230.4814,390.2402,226.4814,386.2402" style="stroke:#181818;stroke-width:1.0;"/><line style="stroke:#181818;stroke-width:1.0;stroke-dasharray:2.0,2.0;" x1="224.4814" x2="547.4473" y1="386.2402" y2="386.2402"/><text fill="#000000" font-family="sans-serif" font-size="13" font-weight="bold" lengthAdjust="spacing" textLength="7.23" x="236.4814" y="380.9775">8</text><text fill="#000000" font-family="sans-serif" font-size="13" lengthAdjust="spacing" textLength="125.6963" x="247.7114" y="380.9775">200 OK (JSON Array)</text><polygon fill="#181818" points="65.2007,413.5313,55.2007,417.5313,65.2007,421.5313,61.2007,417.5313" style="stroke:#181818;stroke-width:1.0;"/><line style="stroke:#181818;stroke-width:1.0;stroke-dasharray:2.0,2.0;" x1="59.2007" x2="218.4814" y1="417.5313" y2="417.5313"/><text fill="#000000" font-family="sans-serif" font-size="13" font-weight="bold" lengthAdjust="spacing" textLength="7.23" x="71.2007" y="412.2686">9</text><text fill="#000000" font-family="sans-serif" font-size="13" lengthAdjust="spacing" textLength="130.0508" x="82.4307" y="412.2686">200 OK (Data Display)</text><!--SRC=[TP7FJW8n4CRlVOe99pG1Z4SIDIoBHFo3igkSPx52mxAxwSvgk1dFleElG33411EVeRoHqo91JBoqcNw_VlDDYmMbIJ69f1RvM2KPQfn0X8FnKAT5SjzCurJ3qqYH5087n4N9l9alyxbwDH-ypyrizM8MjYu1vd2RinExa1ge31E2KkFw3Df8yWcdZcZt_-W5ZI2G-b4Df0FimIxYgJXMoN27yW9nZuGHvd8B-DvQypqXR1Ae77C_g4Ex5K8DCrMBrcGDurWaAKdGQZWYI1_Md7bRFRkf5hmlpGmw_H3C77ZMcNctSpjrQHP2y0MsT_5_DK2kQuyOAqudJoWTo-IeMgqAnrKsUGuF3g1x3kKx2zQ1T27tDevUy5zWLgpkUmm4DnUyj2vQpH3suRJNlGIBviBAbOrDJ-P5JFnm1ELMGegKpBdHZv4bBZ7BsByEJfu2fU27NKVy3Ti9kbVGq1gdUougw-wHjuJFFmA-ohEOcMy0]--></g></svg>