<svg xmlns="http://www.w3.org/2000/svg" xmlns:xlink="http://www.w3.org/1999/xlink" contentStyleType="text/css" height="962px" preserveAspectRatio="none" style="width:995px;height:962px;background:#FFFFFF;" version="1.1" viewBox="0 0 995 962" width="995px" zoomAndPan="magnify"><defs><filter height="300%" id="fd89qpbwo32ny" width="300%" x="-1" y="-1"><feGaussianBlur result="blurOut" stdDeviation="2.0"/><feColorMatrix in="blurOut" result="blurOut2" type="matrix" values="0 0 0 0 0 0 0 0 0 0 0 0 0 0 0 0 0 0 .4 0"/><feOffset dx="4.0" dy="4.0" in="blurOut2" result="blurOut3"/><feBlend in="SourceGraphic" in2="blurOut3" mode="normal"/></filter></defs><g><rect fill="#EBF5FB" height="943.4883" rx="2.5" ry="2.5" style="stroke:#181818;stroke-width:0.5;" width="594.083" x="243.7769" y="6"/><text fill="#000000" font-family="sans-serif" font-size="13" font-weight="bold" lengthAdjust="spacing" textLength="76.5908" x="502.5229" y="20.0283">auth-service</text><rect fill="#FFFFFF" filter="url(#fd89qpbwo32ny)" height="678.082" style="stroke:#181818;stroke-width:1.0;" width="10" x="296.0215" y="129.2031"/><rect fill="#FFFFFF" filter="url(#fd89qpbwo32ny)" height="398.7539" style="stroke:#181818;stroke-width:1.0;" width="10" x="569.563" y="286.6582"/><rect fill="#FFFFFF" filter="url(#fd89qpbwo32ny)" height="199.377" style="stroke:#181818;stroke-width:1.0;" width="10" x="779.1392" y="454.7441"/><rect fill="#FFFFFF" filter="url(#fd89qpbwo32ny)" height="31.291" style="stroke:#181818;stroke-width:1.0;" width="10" x="903.7354" y="317.9492"/><rect fill="#E0FFFF" filter="url(#fd89qpbwo32ny)" height="713.6641" rx="2.5" ry="2.5" style="stroke:#000000;stroke-width:1.5;" width="973.6108" x="10" y="86.6211"/><rect fill="#FFE4E1" filter="url(#fd89qpbwo32ny)" height="50.582" rx="2.5" ry="2.5" style="stroke:#000000;stroke-width:1.5;" width="334.2661" x="30" y="205.7852"/><rect fill="#FFE4E1" filter="url(#fd89qpbwo32ny)" height="429.0449" rx="2.5" ry="2.5" style="stroke:#000000;stroke-width:1.5;" width="833.8599" x="20" y="364.2402"/><path d="M20,414.8223 L853.8599,414.8223 L853.8599,790.7852 A2.5,2.5 0 0 1 851.3599,793.2852 L22.5,793.2852 A2.5,2.5 0 0 1 20,790.7852 L20,414.8223 " fill="#E0FFFF" style="stroke:none;stroke-width:1.0;"/><rect fill="#FFE4E1" filter="url(#fd89qpbwo32ny)" height="316.541" rx="2.5" ry="2.5" style="stroke:#000000;stroke-width:1.5;" width="813.8599" x="30" y="469.7441"/><path d="M30,551.6172 L843.8599,551.6172 L843.8599,783.7852 A2.5,2.5 0 0 1 841.3599,786.2852 L32.5,786.2852 A2.5,2.5 0 0 1 30,783.7852 L30,551.6172 " fill="#90EE90" style="stroke:none;stroke-width:1.0;"/><rect fill="#F5F5F5" filter="url(#fd89qpbwo32ny)" height="50.582" rx="2.5" ry="2.5" style="stroke:#000000;stroke-width:1.5;" width="600.8042" x="30" y="814.2852"/><line style="stroke:#181818;stroke-width:0.5;stroke-dasharray:5.0,5.0;" x1="88" x2="88" y1="69.6211" y2="881.8672"/><line style="stroke:#181818;stroke-width:0.5;stroke-dasharray:5.0,5.0;" x1="300.7769" x2="300.7769" y1="69.6211" y2="881.8672"/><line style="stroke:#181818;stroke-width:0.5;stroke-dasharray:5.0,5.0;" x1="574.3218" x2="574.3218" y1="69.6211" y2="881.8672"/><line style="stroke:#181818;stroke-width:0.5;stroke-dasharray:5.0,5.0;" x1="783.4185" x2="783.4185" y1="69.6211" y2="881.8672"/><line style="stroke:#181818;stroke-width:0.5;stroke-dasharray:5.0,5.0;" x1="907.8599" x2="907.8599" y1="69.6211" y2="881.8672"/><text fill="#000000" font-family="sans-serif" font-size="14" lengthAdjust="spacing" textLength="91.0342" x="40" y="66.1074">API Consumer</text><path d="M68.0171,23 L68.0171,47 M68.0171,35 L85.0171,35 " fill="none" filter="url(#fd89qpbwo32ny)" style="stroke:#181818;stroke-width:0.5;"/><ellipse cx="97.0171" cy="35" fill="#FEF9E7" filter="url(#fd89qpbwo32ny)" rx="12" ry="12" style="stroke:#181818;stroke-width:0.5;"/><text fill="#000000" font-family="sans-serif" font-size="14" lengthAdjust="spacing" textLength="91.0342" x="40" y="895.9746">API Consumer</text><path d="M68.0171,903.4883 L68.0171,927.4883 M68.0171,915.4883 L85.0171,915.4883 " fill="none" filter="url(#fd89qpbwo32ny)" style="stroke:#181818;stroke-width:0.5;"/><ellipse cx="97.0171" cy="915.4883" fill="#FEF9E7" filter="url(#fd89qpbwo32ny)" rx="12" ry="12" style="stroke:#181818;stroke-width:0.5;"/><rect fill="#E2E2F0" filter="url(#fd89qpbwo32ny)" height="32.6211" rx="2.5" ry="2.5" style="stroke:#181818;stroke-width:0.5;" width="103.4893" x="247.7769" y="33"/><text fill="#000000" font-family="sans-serif" font-size="14" lengthAdjust="spacing" textLength="89.4893" x="254.7769" y="55.1074">AuthController</text><rect fill="#E2E2F0" filter="url(#fd89qpbwo32ny)" height="32.6211" rx="2.5" ry="2.5" style="stroke:#181818;stroke-width:0.5;" width="103.4893" x="247.7769" y="880.8672"/><text fill="#000000" font-family="sans-serif" font-size="14" lengthAdjust="spacing" textLength="89.4893" x="254.7769" y="902.9746">AuthController</text><rect fill="#E2E2F0" filter="url(#fd89qpbwo32ny)" height="32.6211" rx="2.5" ry="2.5" style="stroke:#181818;stroke-width:0.5;" width="89.4824" x="528.3218" y="33"/><text fill="#000000" font-family="sans-serif" font-size="14" lengthAdjust="spacing" textLength="75.4824" x="535.3218" y="55.1074">AuthService</text><rect fill="#E2E2F0" filter="url(#fd89qpbwo32ny)" height="32.6211" rx="2.5" ry="2.5" style="stroke:#181818;stroke-width:0.5;" width="89.4824" x="528.3218" y="880.8672"/><text fill="#000000" font-family="sans-serif" font-size="14" lengthAdjust="spacing" textLength="75.4824" x="535.3218" y="902.9746">AuthService</text><rect fill="#E2E2F0" filter="url(#fd89qpbwo32ny)" height="32.6211" rx="2.5" ry="2.5" style="stroke:#181818;stroke-width:0.5;" width="96.4414" x="734.4185" y="33"/><text fill="#000000" font-family="sans-serif" font-size="14" lengthAdjust="spacing" textLength="82.4414" x="741.4185" y="55.1074">BCrypt/JJWT</text><rect fill="#E2E2F0" filter="url(#fd89qpbwo32ny)" height="32.6211" rx="2.5" ry="2.5" style="stroke:#181818;stroke-width:0.5;" width="96.4414" x="734.4185" y="880.8672"/><text fill="#000000" font-family="sans-serif" font-size="14" lengthAdjust="spacing" textLength="82.4414" x="741.4185" y="902.9746">BCrypt/JJWT</text><text fill="#000000" font-family="sans-serif" font-size="14" lengthAdjust="spacing" textLength="123.751" x="843.8599" y="66.1074">Database (auth_db)</text><path d="M890.7354,15 C890.7354,5 908.7354,5 908.7354,5 C908.7354,5 926.7354,5 926.7354,15 L926.7354,41 C926.7354,51 908.7354,51 908.7354,51 C908.7354,51 890.7354,51 890.7354,41 L890.7354,15 " fill="#EAFAF1" filter="url(#fd89qpbwo32ny)" style="stroke:#181818;stroke-width:1.5;"/><path d="M890.7354,15 C890.7354,25 908.7354,25 908.7354,25 C908.7354,25 926.7354,25 926.7354,15 " fill="none" style="stroke:#181818;stroke-width:1.5;"/><text fill="#000000" font-family="sans-serif" font-size="14" lengthAdjust="spacing" textLength="123.751" x="843.8599" y="895.9746">Database (auth_db)</text><path d="M890.7354,909.4883 C890.7354,899.4883 908.7354,899.4883 908.7354,899.4883 C908.7354,899.4883 926.7354,899.4883 926.7354,909.4883 L926.7354,935.4883 C926.7354,945.4883 908.7354,945.4883 908.7354,945.4883 C908.7354,945.4883 890.7354,945.4883 890.7354,935.4883 L890.7354,909.4883 " fill="#EAFAF1" filter="url(#fd89qpbwo32ny)" style="stroke:#181818;stroke-width:1.5;"/><path d="M890.7354,909.4883 C890.7354,919.4883 908.7354,919.4883 908.7354,919.4883 C908.7354,919.4883 926.7354,919.4883 926.7354,909.4883 " fill="none" style="stroke:#181818;stroke-width:1.5;"/><rect fill="#FFFFFF" filter="url(#fd89qpbwo32ny)" height="678.082" style="stroke:#181818;stroke-width:1.0;" width="10" x="296.0215" y="129.2031"/><rect fill="#FFFFFF" filter="url(#fd89qpbwo32ny)" height="398.7539" style="stroke:#181818;stroke-width:1.0;" width="10" x="569.563" y="286.6582"/><rect fill="#FFFFFF" filter="url(#fd89qpbwo32ny)" height="199.377" style="stroke:#181818;stroke-width:1.0;" width="10" x="779.1392" y="454.7441"/><rect fill="#FFFFFF" filter="url(#fd89qpbwo32ny)" height="31.291" style="stroke:#181818;stroke-width:1.0;" width="10" x="903.7354" y="317.9492"/><path d="M12.5,86.6211 L220.8643,86.6211 L220.8643,95.9121 L210.8643,105.9121 L10,105.9121 L10,89.1211 A2.5,2.5 0 0 1 12.5,86.6211 " fill="#EEEEEE" style="stroke:#000000;stroke-width:1.5;"/><rect fill="none" height="713.6641" rx="2.5" ry="2.5" style="stroke:#000000;stroke-width:1.5;" width="973.6108" x="10" y="86.6211"/><text fill="#000000" font-family="sans-serif" font-size="13" font-weight="bold" lengthAdjust="spacing" textLength="165.8643" x="25" y="101.6494">&#1055;&#1088;&#1086;&#1094;&#1077;&#1089;&#1089; &#1072;&#1091;&#1090;&#1077;&#1085;&#1090;&#1080;&#1092;&#1080;&#1082;&#1072;&#1094;&#1080;&#1080;</text><polygon fill="#181818" points="284.0215,125.2031,294.0215,129.2031,284.0215,133.2031,288.0215,129.2031" style="stroke:#181818;stroke-width:1.0;"/><line style="stroke:#181818;stroke-width:1.0;" x1="88.5171" x2="290.0215" y1="129.2031" y2="129.2031"/><text fill="#000000" font-family="sans-serif" font-size="13" lengthAdjust="spacing" textLength="35.3945" x="95.5171" y="123.9404">POST</text><text fill="#000000" font-family="sans-serif" font-size="13" lengthAdjust="spacing" textLength="3.6118" x="130.9116" y="123.9404">&#160;</text><text fill="#000000" font-family="sans-serif" font-size="13" lengthAdjust="spacing" textLength="31.0781" x="134.5234" y="123.9404">/login</text><text fill="#000000" font-family="sans-serif" font-size="13" lengthAdjust="spacing" textLength="3.6118" x="165.6016" y="123.9404">&#160;</text><text fill="#000000" font-family="sans-serif" font-size="13" lengthAdjust="spacing" textLength="39" x="169.2134" y="123.9404">(JSON</text><text fill="#000000" font-family="sans-serif" font-size="13" lengthAdjust="spacing" textLength="3.6118" x="208.2134" y="123.9404">&#160;</text><text fill="#000000" font-family="sans-serif" font-size="13" lengthAdjust="spacing" textLength="33.96" x="211.8252" y="123.9404">Body)</text><line style="stroke:#181818;stroke-width:1.0;" x1="306.0215" x2="348.0215" y1="177.7852" y2="177.7852"/><line style="stroke:#181818;stroke-width:1.0;" x1="348.0215" x2="348.0215" y1="177.7852" y2="190.7852"/><line style="stroke:#181818;stroke-width:1.0;" x1="307.0215" x2="348.0215" y1="190.7852" y2="190.7852"/><polygon fill="#181818" points="317.0215,186.7852,307.0215,190.7852,317.0215,194.7852,313.0215,190.7852" style="stroke:#181818;stroke-width:1.0;"/><text fill="#000000" font-family="sans-serif" font-size="13" font-weight="bold" lengthAdjust="spacing" textLength="15.8882" x="313.0215" y="155.2314">[1]</text><text fill="#000000" font-family="sans-serif" font-size="13" lengthAdjust="spacing" textLength="3.6118" x="328.9097" y="155.2314">&#160;</text><text fill="#000000" font-family="sans-serif" font-size="13" lengthAdjust="spacing" textLength="101.2705" x="332.5215" y="155.2314">&#1044;&#1077;&#1089;&#1077;&#1088;&#1080;&#1072;&#1083;&#1080;&#1079;&#1072;&#1094;&#1080;&#1103;</text><text fill="#000000" font-family="sans-serif" font-size="13" lengthAdjust="spacing" textLength="3.6118" x="433.792" y="155.2314">&#160;</text><text fill="#000000" font-family="sans-serif" font-size="13" lengthAdjust="spacing" textLength="34.6709" x="437.4038" y="155.2314">JSON</text><text fill="#000000" font-family="sans-serif" font-size="13" lengthAdjust="spacing" textLength="3.6118" x="472.0747" y="155.2314">&#160;</text><text fill="#000000" font-family="sans-serif" font-size="13" lengthAdjust="spacing" textLength="7.2617" x="475.6865" y="155.2314">&#1080;</text><text fill="#000000" font-family="sans-serif" font-size="13" lengthAdjust="spacing" textLength="3.6118" x="482.9482" y="155.2314">&#160;</text><text fill="#000000" font-family="sans-serif" font-size="13" lengthAdjust="spacing" textLength="65.5459" x="486.5601" y="155.2314">&#1074;&#1072;&#1083;&#1080;&#1076;&#1072;&#1094;&#1080;&#1103;</text><text fill="#000000" font-family="sans-serif" font-size="13" lengthAdjust="spacing" textLength="107.6689" x="313.0215" y="172.5225">LoginRequestDTO</text><path d="M32.5,205.7852 L90.1709,205.7852 L90.1709,215.0762 L80.1709,225.0762 L30,225.0762 L30,208.2852 A2.5,2.5 0 0 1 32.5,205.7852 " fill="#EEEEEE" style="stroke:#000000;stroke-width:1.5;"/><rect fill="none" height="50.582" rx="2.5" ry="2.5" style="stroke:#000000;stroke-width:1.5;" width="334.2661" x="30" y="205.7852"/><text fill="#000000" font-family="sans-serif" font-size="13" font-weight="bold" lengthAdjust="spacing" textLength="15.1709" x="45" y="220.8135">alt</text><text fill="#000000" font-family="sans-serif" font-size="11" font-weight="bold" lengthAdjust="spacing" textLength="181.8008" x="105.1709" y="219.6553">[&#1054;&#1096;&#1080;&#1073;&#1082;&#1072; &#1074;&#1072;&#1083;&#1080;&#1076;&#1072;&#1094;&#1080;&#1080; &#1087;&#1072;&#1088;&#1072;&#1084;&#1077;&#1090;&#1088;&#1086;&#1074;]</text><polygon fill="#FF0000" points="99.5171,244.3672,89.5171,248.3672,99.5171,252.3672,95.5171,248.3672" style="stroke:#FF0000;stroke-width:1.0;"/><line style="stroke:#FF0000;stroke-width:1.0;stroke-dasharray:2.0,2.0;" x1="93.5171" x2="295.0215" y1="248.3672" y2="248.3672"/><text fill="#FF0000" font-family="sans-serif" font-size="13" lengthAdjust="spacing" textLength="21.6899" x="105.5171" y="243.1045">400</text><text fill="#FF0000" font-family="sans-serif" font-size="13" lengthAdjust="spacing" textLength="3.6118" x="127.207" y="243.1045">&#160;</text><text fill="#FF0000" font-family="sans-serif" font-size="13" lengthAdjust="spacing" textLength="26.73" x="130.8188" y="243.1045">BAD</text><text fill="#FF0000" font-family="sans-serif" font-size="13" lengthAdjust="spacing" textLength="3.6118" x="157.5488" y="243.1045">&#160;</text><text fill="#FF0000" font-family="sans-serif" font-size="13" lengthAdjust="spacing" textLength="62.8418" x="161.1606" y="243.1045">REQUEST</text><text fill="#FF0000" font-family="sans-serif" font-size="13" lengthAdjust="spacing" textLength="3.6118" x="224.0024" y="243.1045">&#160;</text><text fill="#FF0000" font-family="sans-serif" font-size="13" lengthAdjust="spacing" textLength="61.4072" x="227.6143" y="243.1045">(Message)</text><polygon fill="#181818" points="557.563,282.6582,567.563,286.6582,557.563,290.6582,561.563,286.6582" style="stroke:#181818;stroke-width:1.0;"/><line style="stroke:#181818;stroke-width:1.0;" x1="306.0215" x2="563.563" y1="286.6582" y2="286.6582"/><text fill="#000000" font-family="sans-serif" font-size="13" font-weight="bold" lengthAdjust="spacing" textLength="15.8882" x="313.0215" y="281.3955">[2]</text><text fill="#000000" font-family="sans-serif" font-size="13" lengthAdjust="spacing" textLength="3.6118" x="328.9097" y="281.3955">&#160;</text><text fill="#000000" font-family="sans-serif" font-size="13" lengthAdjust="spacing" textLength="143.7935" x="332.5215" y="281.3955">login(LoginRequestDTO)</text><polygon fill="#181818" points="891.7354,313.9492,901.7354,317.9492,891.7354,321.9492,895.7354,317.9492" style="stroke:#181818;stroke-width:1.0;"/><line style="stroke:#181818;stroke-width:1.0;" x1="579.563" x2="897.7354" y1="317.9492" y2="317.9492"/><text fill="#000000" font-family="sans-serif" font-size="13" font-weight="bold" lengthAdjust="spacing" textLength="15.8882" x="586.563" y="312.6865">[3]</text><text fill="#000000" font-family="sans-serif" font-size="13" lengthAdjust="spacing" textLength="3.6118" x="602.4512" y="312.6865">&#160;</text><text fill="#000000" font-family="sans-serif" font-size="13" lengthAdjust="spacing" textLength="108.3608" x="606.063" y="312.6865">findByEmail(email)</text><polygon fill="#181818" points="590.563,345.2402,580.563,349.2402,590.563,353.2402,586.563,349.2402" style="stroke:#181818;stroke-width:1.0;"/><line style="stroke:#181818;stroke-width:1.0;stroke-dasharray:2.0,2.0;" x1="584.563" x2="907.7354" y1="349.2402" y2="349.2402"/><text fill="#000000" font-family="sans-serif" font-size="13" lengthAdjust="spacing" textLength="27.4473" x="596.563" y="343.9775">User</text><text fill="#000000" font-family="sans-serif" font-size="13" lengthAdjust="spacing" textLength="3.6118" x="624.0103" y="343.9775">&#160;</text><text fill="#000000" font-family="sans-serif" font-size="13" lengthAdjust="spacing" textLength="32.5127" x="627.6221" y="343.9775">Entity</text><text fill="#000000" font-family="sans-serif" font-size="13" lengthAdjust="spacing" textLength="3.6118" x="660.1348" y="343.9775">&#160;</text><text fill="#000000" font-family="sans-serif" font-size="13" lengthAdjust="spacing" textLength="3.6118" x="663.7466" y="343.9775">/</text><text fill="#000000" font-family="sans-serif" font-size="13" lengthAdjust="spacing" textLength="3.6118" x="667.3584" y="343.9775">&#160;</text><text fill="#000000" font-family="sans-serif" font-size="13" lengthAdjust="spacing" textLength="20.2363" x="670.9702" y="343.9775">null</text><path d="M22.5,364.2402 L80.1709,364.2402 L80.1709,373.5313 L70.1709,383.5313 L20,383.5313 L20,366.7402 A2.5,2.5 0 0 1 22.5,364.2402 " fill="#EEEEEE" style="stroke:#000000;stroke-width:1.5;"/><rect fill="none" height="429.0449" rx="2.5" ry="2.5" style="stroke:#000000;stroke-width:1.5;" width="833.8599" x="20" y="364.2402"/><text fill="#000000" font-family="sans-serif" font-size="13" font-weight="bold" lengthAdjust="spacing" textLength="15.1709" x="35" y="379.2686">alt</text><text fill="#000000" font-family="sans-serif" font-size="11" font-weight="bold" lengthAdjust="spacing" textLength="144.1655" x="95.1709" y="378.1104">[&#1055;&#1086;&#1083;&#1100;&#1079;&#1086;&#1074;&#1072;&#1090;&#1077;&#1083;&#1100; &#1085;&#1077; &#1085;&#1072;&#1081;&#1076;&#1077;&#1085;]</text><polygon fill="#FF0000" points="99.5171,402.8223,89.5171,406.8223,99.5171,410.8223,95.5171,406.8223" style="stroke:#FF0000;stroke-width:1.0;"/><line style="stroke:#FF0000;stroke-width:1.0;stroke-dasharray:2.0,2.0;" x1="93.5171" x2="568.563" y1="406.8223" y2="406.8223"/><text fill="#FF0000" font-family="sans-serif" font-size="13" lengthAdjust="spacing" textLength="21.6899" x="105.5171" y="401.5596">401</text><text fill="#FF0000" font-family="sans-serif" font-size="13" lengthAdjust="spacing" textLength="3.6118" x="127.207" y="401.5596">&#160;</text><text fill="#FF0000" font-family="sans-serif" font-size="13" lengthAdjust="spacing" textLength="103.2764" x="130.8188" y="401.5596">UNAUTHORIZED</text><line style="stroke:#000000;stroke-width:1.0;stroke-dasharray:2.0,2.0;" x1="20" x2="853.8599" y1="415.8223" y2="415.8223"/><text fill="#000000" font-family="sans-serif" font-size="11" font-weight="bold" lengthAdjust="spacing" textLength="95.063" x="25" y="427.6924">[&#1047;&#1072;&#1087;&#1080;&#1089;&#1100; &#1085;&#1072;&#1081;&#1076;&#1077;&#1085;&#1072;]</text><polygon fill="#181818" points="767.1392,450.7441,777.1392,454.7441,767.1392,458.7441,771.1392,454.7441" style="stroke:#181818;stroke-width:1.0;"/><line style="stroke:#181818;stroke-width:1.0;" x1="579.563" x2="773.1392" y1="454.7441" y2="454.7441"/><text fill="#000000" font-family="sans-serif" font-size="13" font-weight="bold" lengthAdjust="spacing" textLength="15.8882" x="586.563" y="449.4814">[4]</text><text fill="#000000" font-family="sans-serif" font-size="13" lengthAdjust="spacing" textLength="3.6118" x="602.4512" y="449.4814">&#160;</text><text fill="#000000" font-family="sans-serif" font-size="13" lengthAdjust="spacing" textLength="112.709" x="606.063" y="449.4814">matches(password,</text><text fill="#000000" font-family="sans-serif" font-size="13" lengthAdjust="spacing" textLength="3.6118" x="718.772" y="449.4814">&#160;</text><text fill="#000000" font-family="sans-serif" font-size="13" lengthAdjust="spacing" textLength="32.519" x="722.3838" y="449.4814">hash)</text><path d="M32.5,469.7441 L90.1709,469.7441 L90.1709,479.0352 L80.1709,489.0352 L30,489.0352 L30,472.2441 A2.5,2.5 0 0 1 32.5,469.7441 " fill="#EEEEEE" style="stroke:#000000;stroke-width:1.5;"/><rect fill="none" height="316.541" rx="2.5" ry="2.5" style="stroke:#000000;stroke-width:1.5;" width="813.8599" x="30" y="469.7441"/><text fill="#000000" font-family="sans-serif" font-size="13" font-weight="bold" lengthAdjust="spacing" textLength="15.1709" x="45" y="484.7725">alt</text><text fill="#000000" font-family="sans-serif" font-size="11" font-weight="bold" lengthAdjust="spacing" textLength="106.7935" x="105.1709" y="483.6143">[&#1053;&#1077;&#1074;&#1077;&#1088;&#1085;&#1099;&#1081; &#1087;&#1072;&#1088;&#1086;&#1083;&#1100;]</text><polygon fill="#181818" points="590.563,508.3262,580.563,512.3262,590.563,516.3262,586.563,512.3262" style="stroke:#181818;stroke-width:1.0;"/><line style="stroke:#181818;stroke-width:1.0;stroke-dasharray:2.0,2.0;" x1="584.563" x2="778.1392" y1="512.3262" y2="512.3262"/><text fill="#000000" font-family="sans-serif" font-size="13" lengthAdjust="spacing" textLength="27.46" x="596.563" y="507.0635">false</text><polygon fill="#FF0000" points="99.5171,539.6172,89.5171,543.6172,99.5171,547.6172,95.5171,543.6172" style="stroke:#FF0000;stroke-width:1.0;"/><line style="stroke:#FF0000;stroke-width:1.0;stroke-dasharray:2.0,2.0;" x1="93.5171" x2="568.563" y1="543.6172" y2="543.6172"/><text fill="#FF0000" font-family="sans-serif" font-size="13" lengthAdjust="spacing" textLength="21.6899" x="105.5171" y="538.3545">401</text><text fill="#FF0000" font-family="sans-serif" font-size="13" lengthAdjust="spacing" textLength="3.6118" x="127.207" y="538.3545">&#160;</text><text fill="#FF0000" font-family="sans-serif" font-size="13" lengthAdjust="spacing" textLength="103.2764" x="130.8188" y="538.3545">UNAUTHORIZED</text><line style="stroke:#000000;stroke-width:1.0;stroke-dasharray:2.0,2.0;" x1="30" x2="843.8599" y1="552.6172" y2="552.6172"/><text fill="#000000" font-family="sans-serif" font-size="11" font-weight="bold" lengthAdjust="spacing" textLength="138.7676" x="35" y="564.4873">[&#1059;&#1089;&#1087;&#1077;&#1096;&#1085;&#1072;&#1103; &#1074;&#1077;&#1088;&#1080;&#1092;&#1080;&#1082;&#1072;&#1094;&#1080;&#1103;]</text><polygon fill="#181818" points="590.563,587.5391,580.563,591.5391,590.563,595.5391,586.563,591.5391" style="stroke:#181818;stroke-width:1.0;"/><line style="stroke:#181818;stroke-width:1.0;stroke-dasharray:2.0,2.0;" x1="584.563" x2="778.1392" y1="591.5391" y2="591.5391"/><text fill="#000000" font-family="sans-serif" font-size="13" lengthAdjust="spacing" textLength="22.4009" x="596.563" y="586.2764">true</text><polygon fill="#181818" points="767.1392,618.8301,777.1392,622.8301,767.1392,626.8301,771.1392,622.8301" style="stroke:#181818;stroke-width:1.0;"/><line style="stroke:#181818;stroke-width:1.0;" x1="579.563" x2="773.1392" y1="622.8301" y2="622.8301"/><text fill="#000000" font-family="sans-serif" font-size="13" font-weight="bold" lengthAdjust="spacing" textLength="15.8882" x="586.563" y="617.5674">[5]</text><text fill="#000000" font-family="sans-serif" font-size="13" lengthAdjust="spacing" textLength="3.6118" x="602.4512" y="617.5674">&#160;</text><text fill="#000000" font-family="sans-serif" font-size="13" lengthAdjust="spacing" textLength="126.458" x="606.063" y="617.5674">generateToken(email,</text><text fill="#000000" font-family="sans-serif" font-size="13" lengthAdjust="spacing" textLength="3.6118" x="732.521" y="617.5674">&#160;</text><text fill="#000000" font-family="sans-serif" font-size="13" lengthAdjust="spacing" textLength="26.0063" x="736.1328" y="617.5674">role)</text><polygon fill="#181818" points="590.563,650.1211,580.563,654.1211,590.563,658.1211,586.563,654.1211" style="stroke:#181818;stroke-width:1.0;"/><line style="stroke:#181818;stroke-width:1.0;stroke-dasharray:2.0,2.0;" x1="584.563" x2="783.1392" y1="654.1211" y2="654.1211"/><text fill="#000000" font-family="sans-serif" font-size="13" lengthAdjust="spacing" textLength="26.7109" x="596.563" y="648.8584">JWT</text><text fill="#000000" font-family="sans-serif" font-size="13" lengthAdjust="spacing" textLength="3.6118" x="623.2739" y="648.8584">&#160;</text><text fill="#000000" font-family="sans-serif" font-size="13" lengthAdjust="spacing" textLength="33.96" x="626.8857" y="648.8584">String</text><polygon fill="#181818" points="317.0215,681.4121,307.0215,685.4121,317.0215,689.4121,313.0215,685.4121" style="stroke:#181818;stroke-width:1.0;"/><line style="stroke:#181818;stroke-width:1.0;stroke-dasharray:2.0,2.0;" x1="311.0215" x2="573.563" y1="685.4121" y2="685.4121"/><text fill="#000000" font-family="sans-serif" font-size="13" lengthAdjust="spacing" textLength="117.7871" x="323.0215" y="680.1494">LoginResponseDTO</text><text fill="#000000" font-family="sans-serif" font-size="13" lengthAdjust="spacing" textLength="3.6118" x="440.8086" y="680.1494">&#160;</text><text fill="#000000" font-family="sans-serif" font-size="13" lengthAdjust="spacing" textLength="40.46" x="444.4204" y="680.1494">(token)</text><line style="stroke:#181818;stroke-width:1.0;" x1="306.0215" x2="348.0215" y1="733.9941" y2="733.9941"/><line style="stroke:#181818;stroke-width:1.0;" x1="348.0215" x2="348.0215" y1="733.9941" y2="746.9941"/><line style="stroke:#181818;stroke-width:1.0;" x1="307.0215" x2="348.0215" y1="746.9941" y2="746.9941"/><polygon fill="#181818" points="317.0215,742.9941,307.0215,746.9941,317.0215,750.9941,313.0215,746.9941" style="stroke:#181818;stroke-width:1.0;"/><text fill="#000000" font-family="sans-serif" font-size="13" font-weight="bold" lengthAdjust="spacing" textLength="15.8882" x="313.0215" y="711.4404">[6]</text><text fill="#000000" font-family="sans-serif" font-size="13" lengthAdjust="spacing" textLength="3.6118" x="328.9097" y="711.4404">&#160;</text><text fill="#000000" font-family="sans-serif" font-size="13" lengthAdjust="spacing" textLength="88.1245" x="332.5215" y="711.4404">&#1057;&#1077;&#1088;&#1080;&#1072;&#1083;&#1080;&#1079;&#1072;&#1094;&#1080;&#1103;</text><text fill="#000000" font-family="sans-serif" font-size="13" lengthAdjust="spacing" textLength="3.6118" x="420.646" y="711.4404">&#160;</text><text fill="#000000" font-family="sans-serif" font-size="13" lengthAdjust="spacing" textLength="117.7871" x="424.2578" y="711.4404">LoginResponseDTO</text><text fill="#000000" font-family="sans-serif" font-size="13" lengthAdjust="spacing" textLength="3.6118" x="542.0449" y="711.4404">&#160;</text><text fill="#000000" font-family="sans-serif" font-size="13" lengthAdjust="spacing" textLength="6.9063" x="545.6567" y="711.4404">&#1074;</text><text fill="#000000" font-family="sans-serif" font-size="13" lengthAdjust="spacing" textLength="34.6709" x="313.0215" y="728.7314">JSON</text><polygon fill="#181818" points="99.5171,774.2852,89.5171,778.2852,99.5171,782.2852,95.5171,778.2852" style="stroke:#181818;stroke-width:1.0;"/><line style="stroke:#181818;stroke-width:1.0;stroke-dasharray:2.0,2.0;" x1="93.5171" x2="295.0215" y1="778.2852" y2="778.2852"/><text fill="#000000" font-family="sans-serif" font-size="13" font-weight="bold" lengthAdjust="spacing" textLength="15.8882" x="105.5171" y="773.0225">[6]</text><text fill="#000000" font-family="sans-serif" font-size="13" lengthAdjust="spacing" textLength="3.6118" x="121.4053" y="773.0225">&#160;</text><text fill="#000000" font-family="sans-serif" font-size="13" lengthAdjust="spacing" textLength="21.6899" x="125.0171" y="773.0225">200</text><text fill="#000000" font-family="sans-serif" font-size="13" lengthAdjust="spacing" textLength="3.6118" x="146.707" y="773.0225">&#160;</text><text fill="#000000" font-family="sans-serif" font-size="13" lengthAdjust="spacing" textLength="18.7827" x="150.3188" y="773.0225">OK</text><text fill="#000000" font-family="sans-serif" font-size="13" lengthAdjust="spacing" textLength="3.6118" x="169.1016" y="773.0225">&#160;</text><text fill="#000000" font-family="sans-serif" font-size="13" lengthAdjust="spacing" textLength="39" x="172.7134" y="773.0225">(JSON</text><text fill="#000000" font-family="sans-serif" font-size="13" lengthAdjust="spacing" textLength="3.6118" x="211.7134" y="773.0225">&#160;</text><text fill="#000000" font-family="sans-serif" font-size="13" lengthAdjust="spacing" textLength="33.96" x="215.3252" y="773.0225">Body)</text><path d="M32.5,814.2852 L183.8115,814.2852 L183.8115,823.5762 L173.8115,833.5762 L30,833.5762 L30,816.7852 A2.5,2.5 0 0 1 32.5,814.2852 " fill="#EEEEEE" style="stroke:#000000;stroke-width:1.5;"/><rect fill="none" height="50.582" rx="2.5" ry="2.5" style="stroke:#000000;stroke-width:1.5;" width="600.8042" x="30" y="814.2852"/><text fill="#000000" font-family="sans-serif" font-size="13" font-weight="bold" lengthAdjust="spacing" textLength="108.8115" x="45" y="829.3135">&#1057;&#1080;&#1089;&#1090;&#1077;&#1084;&#1085;&#1099;&#1077; &#1089;&#1073;&#1086;&#1080;</text><polygon fill="#FF0000" points="99.5171,852.8672,89.5171,856.8672,99.5171,860.8672,95.5171,856.8672" style="stroke:#FF0000;stroke-width:1.0;"/><line style="stroke:#FF0000;stroke-width:1.0;stroke-dasharray:2.0,2.0;" x1="93.5171" x2="573.563" y1="856.8672" y2="856.8672"/><text fill="#FF0000" font-family="sans-serif" font-size="13" lengthAdjust="spacing" textLength="21.6899" x="105.5171" y="851.6045">500</text><text fill="#FF0000" font-family="sans-serif" font-size="13" lengthAdjust="spacing" textLength="3.6118" x="127.207" y="851.6045">&#160;</text><text fill="#FF0000" font-family="sans-serif" font-size="13" lengthAdjust="spacing" textLength="64.2891" x="130.8188" y="851.6045">INTERNAL</text><text fill="#FF0000" font-family="sans-serif" font-size="13" lengthAdjust="spacing" textLength="3.6118" x="195.1079" y="851.6045">&#160;</text><text fill="#FF0000" font-family="sans-serif" font-size="13" lengthAdjust="spacing" textLength="53.46" x="198.7197" y="851.6045">SERVER</text><text fill="#FF0000" font-family="sans-serif" font-size="13" lengthAdjust="spacing" textLength="3.6118" x="252.1797" y="851.6045">&#160;</text><text fill="#FF0000" font-family="sans-serif" font-size="13" lengthAdjust="spacing" textLength="46.9473" x="255.7915" y="851.6045">ERROR</text><!--SRC=[fLJRJjj047ttLuoIbmGHSIbfLOGYvUAqK23KIOfKXAebNX8Bnqxj3P0-0QqGKYlnKgbFBQhw0u2A6ihj5zP_rDcrO-84IgLQYksiPy_Cd3rpt0t3QX67DA7S8BgzPLXrO4wRAcxuGRFRbfwt7OiwaEvRNo3R2zHrIPsMZNSK9jFZYh8cOedJWLXsQHRojkMsczI90N4XcuTuKIq-LPzWr3R4I9irKYvrDeqQZK5SpHNJnPm2U24yCsf6YrWCSJ0CSPXZcsQ0b6UEUNTWkGU7KS7xS60kxtHQR6nkRhaY0wlCC5s5MZfWNOfE65aZBeLOeVUM4AM-qTUIChoGmsApnMnnGb7gZjrkGNpUg3TOlaCiu4VU3h_szlcPj-lj0Z_stdjx_8nVuRthVU1T_XlNzl7PbOKXAQcCR6WQbahb2eoPTjsm835NBYr2pjOxIHb7QipO98pwlSibyNQxUMHaPM9rP0JuPv4QVpkOuvXVuFsNdz4x10dAky1FWqy_mq_p8gr6txQfomgLaf-2c0pY2uRBEfgDFF1ltW5kEX4z3648s1jytS7bIyo_9uZWfnBdjjpKIjoX-ce66v-6cPfjsiwqMCbCZOz3Bbi0JNrPLP67H22jvCoOZCf883oaQFF18Sl-9qN_ahx4G3S37FQK8LU3FmAia9CuZmJEkc7fkOxQ98QPeE8-W57mfOfYIFMNKKL1WsenWtLW3AoswGjLf_qRx-Js2Dcwy3xXQLqBQgLgy3_mAtucRiVy7Ab69OMCXfN_XTG9g2vcgvNd9MtsjLg8ScbYsdxfVi4SDoY6NJzhc90V3wVC-5CZ-PeIV3K9gpMecsWHrzso7NqK6iHj9CETOV_-jDsk3z3m5JEUIlbUUH_vUKzJafjmaxWaJfJyTO8jHOB-aw81cfuvb29FFt2-Rh340q4DZavGRsIylSE7YfKcUtUn_UIc1RbrYjwBv5Ni3MhvSXm5D4IQV2WBUXoKcOEk7ediq-F0UKHPwxbBC4zk2msTua11WebIalU1HYOiwW1zXlLO6jRtUyngA2S_bGPs1sRAFzSUv2HwIUd5a8Vs3AJtb6RILxHlhO6bBpSCHijDx59KA8P23EIbLEKPe09EK9DTvTz4biQ2PXShghQOdOUoghrIDL0rhQI5QiDQ_W00]--></g></svg>