<svg xmlns="http://www.w3.org/2000/svg" xmlns:xlink="http://www.w3.org/1999/xlink" contentStyleType="text/css" height="1509px" preserveAspectRatio="none" style="width:1582px;height:1509px;background:#FFFFFF;" version="1.1" viewBox="0 0 1582 1509" width="1582px" zoomAndPan="magnify"><title>&#1056;&#1077;&#1075;&#1080;&#1089;&#1090;&#1088;&#1072;&#1094;&#1080;&#1103; &#1087;&#1072;&#1094;&#1080;&#1077;&#1085;&#1090;&#1072; &#1080; &#1089;&#1086;&#1079;&#1076;&#1072;&#1085;&#1080;&#1077; &#1089;&#1095;&#1077;&#1090;&#1072; (Sequence Diagram)</title><defs/><g><text fill="#000000" font-family="sans-serif" font-size="14" font-weight="bold" lengthAdjust="spacing" textLength="418.8516" x="582.8428" y="30.1074">&#1056;&#1077;&#1075;&#1080;&#1089;&#1090;&#1088;&#1072;&#1094;&#1080;&#1103; &#1087;&#1072;&#1094;&#1080;&#1077;&#1085;&#1090;&#1072; &#1080; &#1089;&#1086;&#1079;&#1076;&#1072;&#1085;&#1080;&#1077; &#1089;&#1095;&#1077;&#1090;&#1072; (Sequence Diagram)</text><rect fill="#FFFFFF" height="1259.6309" style="stroke:#181818;stroke-width:1.0;" width="10" x="327.373" y="156.5332"/><rect fill="#FFFFFF" height="326.8809" style="stroke:#181818;stroke-width:1.0;" width="10" x="599.2036" y="187.8242"/><rect fill="#FFFFFF" height="751.6641" style="stroke:#181818;stroke-width:1.0;" width="10" x="932.9536" y="612.209"/><rect fill="#FFFFFF" height="189.0859" style="stroke:#181818;stroke-width:1.0;" width="10" x="1297.3379" y="946.75"/><rect fill="none" height="304.8809" style="stroke:#000000;stroke-width:1.5;" width="863.8745" x="20" y="202.8242"/><rect fill="none" height="129.7949" style="stroke:#000000;stroke-width:1.5;" width="630.8896" x="30" y="370.9102"/><rect fill="none" height="887.459" style="stroke:#000000;stroke-width:1.5;" width="1565.5371" x="10" y="521.7051"/><rect fill="none" height="50.582" style="stroke:#000000;stroke-width:1.5;" width="972.0327" x="30" y="627.209"/><rect fill="none" height="129.7949" style="stroke:#000000;stroke-width:1.5;" width="1196.0967" x="30" y="760.373"/><rect fill="none" height="231.668" style="stroke:#000000;stroke-width:1.5;" width="1378.5791" x="20" y="904.168"/><rect fill="none" height="167.0859" style="stroke:#000000;stroke-width:1.5;" width="1358.5791" x="30" y="961.75"/><rect fill="none" height="183.7461" style="stroke:#000000;stroke-width:1.5;" width="1545.5371" x="20" y="1149.8359"/><rect fill="none" height="119.1641" style="stroke:#000000;stroke-width:1.5;" width="1525.5371" x="30" y="1207.418"/><line style="stroke:#181818;stroke-width:0.5;stroke-dasharray:5.0,5.0;" x1="57" x2="57" y1="123.2422" y2="1426.1641"/><line style="stroke:#181818;stroke-width:0.5;stroke-dasharray:5.0,5.0;" x1="331.5215" x2="331.5215" y1="123.2422" y2="1426.1641"/><line style="stroke:#181818;stroke-width:0.5;stroke-dasharray:5.0,5.0;" x1="603.5176" x2="603.5176" y1="123.2422" y2="1426.1641"/><line style="stroke:#181818;stroke-width:0.5;stroke-dasharray:5.0,5.0;" x1="846.3921" x2="846.3921" y1="123.2422" y2="1426.1641"/><line style="stroke:#181818;stroke-width:0.5;stroke-dasharray:5.0,5.0;" x1="937.8745" x2="937.8745" y1="123.2422" y2="1426.1641"/><line style="stroke:#181818;stroke-width:0.5;stroke-dasharray:5.0,5.0;" x1="1181.8281" x2="1181.8281" y1="123.2422" y2="1426.1641"/><line style="stroke:#181818;stroke-width:0.5;stroke-dasharray:5.0,5.0;" x1="1302.0967" x2="1302.0967" y1="123.2422" y2="1426.1641"/><line style="stroke:#181818;stroke-width:0.5;stroke-dasharray:5.0,5.0;" x1="1466.5791" x2="1466.5791" y1="123.2422" y2="1426.1641"/><text fill="#000000" font-family="sans-serif" font-size="14" lengthAdjust="spacing" textLength="29.5586" x="40" y="119.7285">User</text><ellipse cx="57.7793" cy="53.1211" fill="#E2E2F0" rx="8" ry="8" style="stroke:#181818;stroke-width:0.5;"/><path d="M57.7793,61.1211 L57.7793,88.1211 M44.7793,69.1211 L70.7793,69.1211 M57.7793,88.1211 L44.7793,103.1211 M57.7793,88.1211 L70.7793,103.1211 " fill="none" style="stroke:#181818;stroke-width:0.5;"/><text fill="#000000" font-family="sans-serif" font-size="14" lengthAdjust="spacing" textLength="29.5586" x="40" y="1440.2715">User</text><ellipse cx="57.7793" cy="1452.2852" fill="#E2E2F0" rx="8" ry="8" style="stroke:#181818;stroke-width:0.5;"/><path d="M57.7793,1460.2852 L57.7793,1487.2852 M44.7793,1468.2852 L70.7793,1468.2852 M57.7793,1487.2852 L44.7793,1502.2852 M57.7793,1487.2852 L70.7793,1502.2852 " fill="none" style="stroke:#181818;stroke-width:0.5;"/><rect fill="#E2E2F0" height="32.6211" rx="2.5" ry="2.5" style="stroke:#181818;stroke-width:0.5;" width="95.7031" x="284.5215" y="89.6211"/><text fill="#000000" font-family="sans-serif" font-size="14" lengthAdjust="spacing" textLength="81.7031" x="291.5215" y="111.7285">API Gateway</text><rect fill="#E2E2F0" height="32.6211" rx="2.5" ry="2.5" style="stroke:#181818;stroke-width:0.5;" width="95.7031" x="284.5215" y="1425.1641"/><text fill="#000000" font-family="sans-serif" font-size="14" lengthAdjust="spacing" textLength="81.7031" x="291.5215" y="1447.2715">API Gateway</text><rect fill="#E2E2F0" height="32.6211" rx="2.5" ry="2.5" style="stroke:#181818;stroke-width:0.5;" width="93.3721" x="557.5176" y="89.6211"/><text fill="#000000" font-family="sans-serif" font-size="14" lengthAdjust="spacing" textLength="79.3721" x="564.5176" y="111.7285">Auth Service</text><rect fill="#E2E2F0" height="32.6211" rx="2.5" ry="2.5" style="stroke:#181818;stroke-width:0.5;" width="93.3721" x="557.5176" y="1425.1641"/><text fill="#000000" font-family="sans-serif" font-size="14" lengthAdjust="spacing" textLength="79.3721" x="564.5176" y="1447.2715">Auth Service</text><text fill="#000000" font-family="sans-serif" font-size="14" lengthAdjust="spacing" textLength="47.4824" x="820.3921" y="119.7285">auth-db</text><path d="M829.1333,68.6211 C829.1333,58.6211 847.1333,58.6211 847.1333,58.6211 C847.1333,58.6211 865.1333,58.6211 865.1333,68.6211 L865.1333,94.6211 C865.1333,104.6211 847.1333,104.6211 847.1333,104.6211 C847.1333,104.6211 829.1333,104.6211 829.1333,94.6211 L829.1333,68.6211 " fill="#E2E2F0" style="stroke:#181818;stroke-width:1.5;"/><path d="M829.1333,68.6211 C829.1333,78.6211 847.1333,78.6211 847.1333,78.6211 C847.1333,78.6211 865.1333,78.6211 865.1333,68.6211 " fill="none" style="stroke:#181818;stroke-width:1.5;"/><text fill="#000000" font-family="sans-serif" font-size="14" lengthAdjust="spacing" textLength="47.4824" x="820.3921" y="1440.2715">auth-db</text><path d="M829.1333,1453.7852 C829.1333,1443.7852 847.1333,1443.7852 847.1333,1443.7852 C847.1333,1443.7852 865.1333,1443.7852 865.1333,1453.7852 L865.1333,1479.7852 C865.1333,1489.7852 847.1333,1489.7852 847.1333,1489.7852 C847.1333,1489.7852 829.1333,1489.7852 829.1333,1479.7852 L829.1333,1453.7852 " fill="#E2E2F0" style="stroke:#181818;stroke-width:1.5;"/><path d="M829.1333,1453.7852 C829.1333,1463.7852 847.1333,1463.7852 847.1333,1463.7852 C847.1333,1463.7852 865.1333,1463.7852 865.1333,1453.7852 " fill="none" style="stroke:#181818;stroke-width:1.5;"/><rect fill="#E2E2F0" height="32.6211" rx="2.5" ry="2.5" style="stroke:#181818;stroke-width:0.5;" width="108.1582" x="883.8745" y="89.6211"/><text fill="#000000" font-family="sans-serif" font-size="14" lengthAdjust="spacing" textLength="94.1582" x="890.8745" y="111.7285">Patient Service</text><rect fill="#E2E2F0" height="32.6211" rx="2.5" ry="2.5" style="stroke:#181818;stroke-width:0.5;" width="108.1582" x="883.8745" y="1425.1641"/><text fill="#000000" font-family="sans-serif" font-size="14" lengthAdjust="spacing" textLength="94.1582" x="890.8745" y="1447.2715">Patient Service</text><text fill="#000000" font-family="sans-serif" font-size="14" lengthAdjust="spacing" textLength="62.2686" x="1147.8281" y="119.7285">patient-db</text><path d="M1163.9624,68.6211 C1163.9624,58.6211 1181.9624,58.6211 1181.9624,58.6211 C1181.9624,58.6211 1199.9624,58.6211 1199.9624,68.6211 L1199.9624,94.6211 C1199.9624,104.6211 1181.9624,104.6211 1181.9624,104.6211 C1181.9624,104.6211 1163.9624,104.6211 1163.9624,94.6211 L1163.9624,68.6211 " fill="#E2E2F0" style="stroke:#181818;stroke-width:1.5;"/><path d="M1163.9624,68.6211 C1163.9624,78.6211 1181.9624,78.6211 1181.9624,78.6211 C1181.9624,78.6211 1199.9624,78.6211 1199.9624,68.6211 " fill="none" style="stroke:#181818;stroke-width:1.5;"/><text fill="#000000" font-family="sans-serif" font-size="14" lengthAdjust="spacing" textLength="62.2686" x="1147.8281" y="1440.2715">patient-db</text><path d="M1163.9624,1453.7852 C1163.9624,1443.7852 1181.9624,1443.7852 1181.9624,1443.7852 C1181.9624,1443.7852 1199.9624,1443.7852 1199.9624,1453.7852 L1199.9624,1479.7852 C1199.9624,1489.7852 1181.9624,1489.7852 1181.9624,1489.7852 C1181.9624,1489.7852 1163.9624,1489.7852 1163.9624,1479.7852 L1163.9624,1453.7852 " fill="#E2E2F0" style="stroke:#181818;stroke-width:1.5;"/><path d="M1163.9624,1453.7852 C1163.9624,1463.7852 1181.9624,1463.7852 1181.9624,1463.7852 C1181.9624,1463.7852 1199.9624,1463.7852 1199.9624,1453.7852 " fill="none" style="stroke:#181818;stroke-width:1.5;"/><rect fill="#E2E2F0" height="32.6211" rx="2.5" ry="2.5" style="stroke:#181818;stroke-width:0.5;" width="152.4824" x="1226.0967" y="89.6211"/><text fill="#000000" font-family="sans-serif" font-size="14" lengthAdjust="spacing" textLength="138.4824" x="1233.0967" y="111.7285">Billing Service (gRPC)</text><rect fill="#E2E2F0" height="32.6211" rx="2.5" ry="2.5" style="stroke:#181818;stroke-width:0.5;" width="152.4824" x="1226.0967" y="1425.1641"/><text fill="#000000" font-family="sans-serif" font-size="14" lengthAdjust="spacing" textLength="138.4824" x="1233.0967" y="1447.2715">Billing Service (gRPC)</text><path d="M1393.5791,94.6211 L1540.5371,94.6211 C1545.5371,94.6211 1545.5371,108.9316 1545.5371,108.9316 C1545.5371,108.9316 1545.5371,123.2422 1540.5371,123.2422 L1393.5791,123.2422 C1388.5791,123.2422 1388.5791,108.9316 1388.5791,108.9316 C1388.5791,108.9316 1388.5791,94.6211 1393.5791,94.6211 " fill="#E2E2F0" style="stroke:#181818;stroke-width:0.5;"/><path d="M1540.5371,94.6211 C1535.5371,94.6211 1535.5371,108.9316 1535.5371,108.9316 C1535.5371,123.2422 1540.5371,123.2422 1540.5371,123.2422 " fill="none" style="stroke:#181818;stroke-width:0.5;"/><text fill="#000000" font-family="sans-serif" font-size="14" lengthAdjust="spacing" textLength="136.958" x="1393.5791" y="114.7285">Kafka (patient-events)</text><path d="M1393.5791,1425.1641 L1540.5371,1425.1641 C1545.5371,1425.1641 1545.5371,1439.4746 1545.5371,1439.4746 C1545.5371,1439.4746 1545.5371,1453.7852 1540.5371,1453.7852 L1393.5791,1453.7852 C1388.5791,1453.7852 1388.5791,1439.4746 1388.5791,1439.4746 C1388.5791,1439.4746 1388.5791,1425.1641 1393.5791,1425.1641 " fill="#E2E2F0" style="stroke:#181818;stroke-width:0.5;"/><path d="M1540.5371,1425.1641 C1535.5371,1425.1641 1535.5371,1439.4746 1535.5371,1439.4746 C1535.5371,1453.7852 1540.5371,1453.7852 1540.5371,1453.7852 " fill="none" style="stroke:#181818;stroke-width:0.5;"/><text fill="#000000" font-family="sans-serif" font-size="14" lengthAdjust="spacing" textLength="136.958" x="1393.5791" y="1445.2715">Kafka (patient-events)</text><rect fill="#FFFFFF" height="1259.6309" style="stroke:#181818;stroke-width:1.0;" width="10" x="327.373" y="156.5332"/><rect fill="#FFFFFF" height="326.8809" style="stroke:#181818;stroke-width:1.0;" width="10" x="599.2036" y="187.8242"/><rect fill="#FFFFFF" height="751.6641" style="stroke:#181818;stroke-width:1.0;" width="10" x="932.9536" y="612.209"/><rect fill="#FFFFFF" height="189.0859" style="stroke:#181818;stroke-width:1.0;" width="10" x="1297.3379" y="946.75"/><polygon fill="#181818" points="315.373,152.5332,325.373,156.5332,315.373,160.5332,319.373,156.5332" style="stroke:#181818;stroke-width:1.0;"/><line style="stroke:#181818;stroke-width:1.0;" x1="57.7793" x2="321.373" y1="156.5332" y2="156.5332"/><text fill="#000000" font-family="sans-serif" font-size="13" font-weight="bold" lengthAdjust="spacing" textLength="7.23" x="64.7793" y="151.2705">1</text><text fill="#000000" font-family="sans-serif" font-size="13" lengthAdjust="spacing" textLength="239.3638" x="76.0093" y="151.2705">POST /api/v1/patients (JWT &#1074; &#1079;&#1072;&#1075;&#1086;&#1083;&#1086;&#1074;&#1082;&#1077;)</text><polygon fill="#181818" points="587.2036,183.8242,597.2036,187.8242,587.2036,191.8242,591.2036,187.8242" style="stroke:#181818;stroke-width:1.0;"/><line style="stroke:#181818;stroke-width:1.0;" x1="337.373" x2="593.2036" y1="187.8242" y2="187.8242"/><text fill="#000000" font-family="sans-serif" font-size="13" font-weight="bold" lengthAdjust="spacing" textLength="7.23" x="344.373" y="182.5615">2</text><text fill="#000000" font-family="sans-serif" font-size="13" lengthAdjust="spacing" textLength="231.6006" x="355.603" y="182.5615">GET /api/v1/auth/validate (JWT &#1074; query)</text><path d="M20,202.8242 L80.1709,202.8242 L80.1709,212.1152 L70.1709,222.1152 L20,222.1152 L20,202.8242 " fill="#EEEEEE" style="stroke:#000000;stroke-width:1.5;"/><rect fill="none" height="304.8809" style="stroke:#000000;stroke-width:1.5;" width="863.8745" x="20" y="202.8242"/><text fill="#000000" font-family="sans-serif" font-size="13" font-weight="bold" lengthAdjust="spacing" textLength="15.1709" x="35" y="217.8525">alt</text><text fill="#000000" font-family="sans-serif" font-size="11" font-weight="bold" lengthAdjust="spacing" textLength="163.5928" x="95.1709" y="216.6943">[JWT &#1086;&#1090;&#1089;&#1091;&#1090;&#1089;&#1090;&#1074;&#1091;&#1077;&#1090; &#1080;&#1083;&#1080; &#1087;&#1091;&#1089;&#1090;&#1086;&#1081;]</text><polygon fill="#181818" points="348.373,241.4063,338.373,245.4063,348.373,249.4063,344.373,245.4063" style="stroke:#181818;stroke-width:1.0;"/><line style="stroke:#181818;stroke-width:1.0;stroke-dasharray:2.0,2.0;" x1="342.373" x2="598.2036" y1="245.4063" y2="245.4063"/><text fill="#000000" font-family="sans-serif" font-size="13" font-weight="bold" lengthAdjust="spacing" textLength="7.23" x="354.373" y="240.1436">3</text><text fill="#000000" font-family="sans-serif" font-size="13" lengthAdjust="spacing" textLength="100.4644" x="365.603" y="240.1436">400 Bad Request</text><polygon fill="#181818" points="68.7793,272.6973,58.7793,276.6973,68.7793,280.6973,64.7793,276.6973" style="stroke:#181818;stroke-width:1.0;"/><line style="stroke:#181818;stroke-width:1.0;stroke-dasharray:2.0,2.0;" x1="62.7793" x2="326.373" y1="276.6973" y2="276.6973"/><text fill="#000000" font-family="sans-serif" font-size="13" font-weight="bold" lengthAdjust="spacing" textLength="7.23" x="74.7793" y="271.4346">4</text><text fill="#000000" font-family="sans-serif" font-size="13" lengthAdjust="spacing" textLength="100.4644" x="86.0093" y="271.4346">400 Bad Request</text><line style="stroke:#000000;stroke-width:1.0;stroke-dasharray:2.0,2.0;" x1="20" x2="883.8745" y1="285.6973" y2="285.6973"/><text fill="#000000" font-family="sans-serif" font-size="11" font-weight="bold" lengthAdjust="spacing" textLength="110.9185" x="25" y="297.5674">[JWT &#1087;&#1088;&#1077;&#1076;&#1086;&#1089;&#1090;&#1072;&#1074;&#1083;&#1077;&#1085;]</text><polygon fill="#181818" points="835.1333,320.6191,845.1333,324.6191,835.1333,328.6191,839.1333,324.6191" style="stroke:#181818;stroke-width:1.0;"/><line style="stroke:#181818;stroke-width:1.0;" x1="609.2036" x2="841.1333" y1="324.6191" y2="324.6191"/><text fill="#000000" font-family="sans-serif" font-size="13" font-weight="bold" lengthAdjust="spacing" textLength="7.23" x="616.2036" y="319.3564">5</text><text fill="#000000" font-family="sans-serif" font-size="13" lengthAdjust="spacing" textLength="202.6997" x="627.4336" y="319.3564">&#1055;&#1086;&#1080;&#1089;&#1082; &#1087;&#1086;&#1083;&#1100;&#1079;&#1086;&#1074;&#1072;&#1090;&#1077;&#1083;&#1103; &#1087;&#1086; username</text><polygon fill="#181818" points="620.2036,351.9102,610.2036,355.9102,620.2036,359.9102,616.2036,355.9102" style="stroke:#181818;stroke-width:1.0;"/><line style="stroke:#181818;stroke-width:1.0;stroke-dasharray:2.0,2.0;" x1="614.2036" x2="846.1333" y1="355.9102" y2="355.9102"/><text fill="#000000" font-family="sans-serif" font-size="13" font-weight="bold" lengthAdjust="spacing" textLength="7.23" x="626.2036" y="350.6475">6</text><text fill="#000000" font-family="sans-serif" font-size="13" lengthAdjust="spacing" textLength="165.4136" x="637.4336" y="350.6475">&#1044;&#1072;&#1085;&#1085;&#1099;&#1077; &#1087;&#1086;&#1083;&#1100;&#1079;&#1086;&#1074;&#1072;&#1090;&#1077;&#1083;&#1103; / null</text><path d="M30,370.9102 L90.1709,370.9102 L90.1709,380.2012 L80.1709,390.2012 L30,390.2012 L30,370.9102 " fill="#EEEEEE" style="stroke:#000000;stroke-width:1.5;"/><rect fill="none" height="129.7949" style="stroke:#000000;stroke-width:1.5;" width="630.8896" x="30" y="370.9102"/><text fill="#000000" font-family="sans-serif" font-size="13" font-weight="bold" lengthAdjust="spacing" textLength="15.1709" x="45" y="385.9385">alt</text><text fill="#000000" font-family="sans-serif" font-size="11" font-weight="bold" lengthAdjust="spacing" textLength="313.9243" x="105.1709" y="384.7803">[&#1058;&#1086;&#1082;&#1077;&#1085; &#1085;&#1077;&#1074;&#1072;&#1083;&#1080;&#1076;&#1077;&#1085; / &#1087;&#1088;&#1086;&#1089;&#1088;&#1086;&#1095;&#1077;&#1085; / &#1087;&#1086;&#1083;&#1100;&#1079;&#1086;&#1074;&#1072;&#1090;&#1077;&#1083;&#1100; &#1085;&#1077; &#1085;&#1072;&#1081;&#1076;&#1077;&#1085;]</text><polygon fill="#181818" points="348.373,409.4922,338.373,413.4922,348.373,417.4922,344.373,413.4922" style="stroke:#181818;stroke-width:1.0;"/><line style="stroke:#181818;stroke-width:1.0;stroke-dasharray:2.0,2.0;" x1="342.373" x2="598.2036" y1="413.4922" y2="413.4922"/><text fill="#000000" font-family="sans-serif" font-size="13" font-weight="bold" lengthAdjust="spacing" textLength="7.23" x="354.373" y="408.2295">7</text><text fill="#000000" font-family="sans-serif" font-size="13" lengthAdjust="spacing" textLength="102.6289" x="365.603" y="408.2295">401 Unauthorized</text><polygon fill="#181818" points="68.7793,440.7832,58.7793,444.7832,68.7793,448.7832,64.7793,444.7832" style="stroke:#181818;stroke-width:1.0;"/><line style="stroke:#181818;stroke-width:1.0;stroke-dasharray:2.0,2.0;" x1="62.7793" x2="326.373" y1="444.7832" y2="444.7832"/><text fill="#000000" font-family="sans-serif" font-size="13" font-weight="bold" lengthAdjust="spacing" textLength="7.23" x="74.7793" y="439.5205">8</text><text fill="#000000" font-family="sans-serif" font-size="13" lengthAdjust="spacing" textLength="102.6289" x="86.0093" y="439.5205">401 Unauthorized</text><line style="stroke:#000000;stroke-width:1.0;stroke-dasharray:2.0,2.0;" x1="30" x2="660.8896" y1="453.7832" y2="453.7832"/><text fill="#000000" font-family="sans-serif" font-size="11" font-weight="bold" lengthAdjust="spacing" textLength="124.126" x="35" y="465.6533">[&#1059;&#1089;&#1087;&#1077;&#1096;&#1085;&#1072;&#1103; &#1074;&#1072;&#1083;&#1080;&#1076;&#1072;&#1094;&#1080;&#1103;]</text><polygon fill="#181818" points="348.373,488.7051,338.373,492.7051,348.373,496.7051,344.373,492.7051" style="stroke:#181818;stroke-width:1.0;"/><line style="stroke:#181818;stroke-width:1.0;stroke-dasharray:2.0,2.0;" x1="342.373" x2="598.2036" y1="492.7051" y2="492.7051"/><text fill="#000000" font-family="sans-serif" font-size="13" font-weight="bold" lengthAdjust="spacing" textLength="7.23" x="354.373" y="487.4424">9</text><text fill="#000000" font-family="sans-serif" font-size="13" lengthAdjust="spacing" textLength="93.5708" x="365.603" y="487.4424">200 OK + JSON</text><path d="M10,521.7051 L70.1709,521.7051 L70.1709,530.9961 L60.1709,540.9961 L10,540.9961 L10,521.7051 " fill="#EEEEEE" style="stroke:#000000;stroke-width:1.5;"/><rect fill="none" height="887.459" style="stroke:#000000;stroke-width:1.5;" width="1565.5371" x="10" y="521.7051"/><text fill="#000000" font-family="sans-serif" font-size="13" font-weight="bold" lengthAdjust="spacing" textLength="15.1709" x="25" y="536.7334">alt</text><text fill="#000000" font-family="sans-serif" font-size="11" font-weight="bold" lengthAdjust="spacing" textLength="265.1011" x="85.1709" y="535.5752">[&#1048;&#1085;&#1089;&#1090;&#1072;&#1085;&#1089;&#1099; Patient Service &#1086;&#1090;&#1089;&#1091;&#1090;&#1089;&#1090;&#1074;&#1091;&#1102;&#1090; &#1074; Eureka]</text><polygon fill="#181818" points="68.7793,560.2871,58.7793,564.2871,68.7793,568.2871,64.7793,564.2871" style="stroke:#181818;stroke-width:1.0;"/><line style="stroke:#181818;stroke-width:1.0;stroke-dasharray:2.0,2.0;" x1="62.7793" x2="326.373" y1="564.2871" y2="564.2871"/><text fill="#000000" font-family="sans-serif" font-size="13" font-weight="bold" lengthAdjust="spacing" textLength="14.46" x="74.7793" y="559.0244">10</text><text fill="#000000" font-family="sans-serif" font-size="13" lengthAdjust="spacing" textLength="140.1943" x="93.2393" y="559.0244">503 Service Unavailable</text><line style="stroke:#000000;stroke-width:1.0;stroke-dasharray:2.0,2.0;" x1="10" x2="1575.5371" y1="573.2871" y2="573.2871"/><text fill="#000000" font-family="sans-serif" font-size="11" font-weight="bold" lengthAdjust="spacing" textLength="207.0181" x="15" y="585.1572">[&#1055;&#1077;&#1088;&#1077;&#1089;&#1099;&#1083;&#1082;&#1072; &#1079;&#1072;&#1087;&#1088;&#1086;&#1089;&#1072; &#1074; Patient Service]</text><polygon fill="#181818" points="920.9536,608.209,930.9536,612.209,920.9536,616.209,924.9536,612.209" style="stroke:#181818;stroke-width:1.0;"/><line style="stroke:#181818;stroke-width:1.0;" x1="337.373" x2="926.9536" y1="612.209" y2="612.209"/><text fill="#000000" font-family="sans-serif" font-size="13" font-weight="bold" lengthAdjust="spacing" textLength="14.46" x="344.373" y="606.9463">11</text><text fill="#000000" font-family="sans-serif" font-size="13" lengthAdjust="spacing" textLength="85.2617" x="362.833" y="606.9463">Proxy Request</text><path d="M30,627.209 L90.1709,627.209 L90.1709,636.5 L80.1709,646.5 L30,646.5 L30,627.209 " fill="#EEEEEE" style="stroke:#000000;stroke-width:1.5;"/><rect fill="none" height="50.582" style="stroke:#000000;stroke-width:1.5;" width="972.0327" x="30" y="627.209"/><text fill="#000000" font-family="sans-serif" font-size="13" font-weight="bold" lengthAdjust="spacing" textLength="15.1709" x="45" y="642.2373">alt</text><text fill="#000000" font-family="sans-serif" font-size="11" font-weight="bold" lengthAdjust="spacing" textLength="187.1235" x="105.1709" y="641.0791">[&#1042;&#1093;&#1086;&#1076;&#1085;&#1099;&#1077; &#1087;&#1072;&#1088;&#1072;&#1084;&#1077;&#1090;&#1088;&#1099; &#1085;&#1077;&#1074;&#1072;&#1083;&#1080;&#1076;&#1085;&#1099;]</text><polygon fill="#181818" points="68.7793,665.791,58.7793,669.791,68.7793,673.791,64.7793,669.791" style="stroke:#181818;stroke-width:1.0;"/><line style="stroke:#181818;stroke-width:1.0;stroke-dasharray:2.0,2.0;" x1="62.7793" x2="931.9536" y1="669.791" y2="669.791"/><text fill="#000000" font-family="sans-serif" font-size="13" font-weight="bold" lengthAdjust="spacing" textLength="14.46" x="74.7793" y="664.5283">12</text><text fill="#000000" font-family="sans-serif" font-size="13" lengthAdjust="spacing" textLength="100.4644" x="93.2393" y="664.5283">400 Bad Request</text><path d="M896,689.791 L896,716.791 L1223,716.791 L1223,699.791 L1213,689.791 L896,689.791 " fill="#FEFFDD" style="stroke:#181818;stroke-width:0.5;"/><path d="M1213,689.791 L1213,699.791 L1223,699.791 L1213,689.791 " fill="#FEFFDD" style="stroke:#181818;stroke-width:0.5;"/><text fill="#000000" font-family="sans-serif" font-size="13" lengthAdjust="spacing" textLength="220.9937" x="944.6143" y="708.8193">&#1053;&#1072;&#1095;&#1072;&#1083;&#1086; &#1090;&#1088;&#1072;&#1085;&#1079;&#1072;&#1082;&#1094;&#1080;&#1080; (@Transactional)</text><polygon fill="#181818" points="1169.9624,741.373,1179.9624,745.373,1169.9624,749.373,1173.9624,745.373" style="stroke:#181818;stroke-width:1.0;"/><line style="stroke:#181818;stroke-width:1.0;" x1="942.9536" x2="1175.9624" y1="745.373" y2="745.373"/><text fill="#000000" font-family="sans-serif" font-size="13" font-weight="bold" lengthAdjust="spacing" textLength="14.46" x="949.9536" y="740.1104">13</text><text fill="#000000" font-family="sans-serif" font-size="13" lengthAdjust="spacing" textLength="189.5093" x="968.4136" y="740.1104">&#1055;&#1088;&#1086;&#1074;&#1077;&#1088;&#1082;&#1072; &#1089;&#1091;&#1097;&#1077;&#1089;&#1090;&#1074;&#1086;&#1074;&#1072;&#1085;&#1080;&#1103; email</text><path d="M30,760.373 L90.1709,760.373 L90.1709,769.6641 L80.1709,779.6641 L30,779.6641 L30,760.373 " fill="#EEEEEE" style="stroke:#000000;stroke-width:1.5;"/><rect fill="none" height="129.7949" style="stroke:#000000;stroke-width:1.5;" width="1196.0967" x="30" y="760.373"/><text fill="#000000" font-family="sans-serif" font-size="13" font-weight="bold" lengthAdjust="spacing" textLength="15.1709" x="45" y="775.4014">alt</text><text fill="#000000" font-family="sans-serif" font-size="11" font-weight="bold" lengthAdjust="spacing" textLength="126.3442" x="105.1709" y="774.2432">[Email &#1091;&#1078;&#1077; &#1089;&#1091;&#1097;&#1077;&#1089;&#1090;&#1074;&#1091;&#1077;&#1090;]</text><polygon fill="#181818" points="68.7793,798.9551,58.7793,802.9551,68.7793,806.9551,64.7793,802.9551" style="stroke:#181818;stroke-width:1.0;"/><line style="stroke:#181818;stroke-width:1.0;stroke-dasharray:2.0,2.0;" x1="62.7793" x2="931.9536" y1="802.9551" y2="802.9551"/><text fill="#000000" font-family="sans-serif" font-size="13" font-weight="bold" lengthAdjust="spacing" textLength="14.46" x="74.7793" y="797.6924">14</text><text fill="#000000" font-family="sans-serif" font-size="13" lengthAdjust="spacing" textLength="100.4644" x="93.2393" y="797.6924">400 Bad Request</text><line style="stroke:#000000;stroke-width:1.0;stroke-dasharray:2.0,2.0;" x1="30" x2="1226.0967" y1="811.9551" y2="811.9551"/><text fill="#000000" font-family="sans-serif" font-size="11" font-weight="bold" lengthAdjust="spacing" textLength="92.5869" x="35" y="823.8252">[Email &#1089;&#1074;&#1086;&#1073;&#1086;&#1076;&#1077;&#1085;]</text><polygon fill="#181818" points="1169.9624,846.877,1179.9624,850.877,1169.9624,854.877,1173.9624,850.877" style="stroke:#181818;stroke-width:1.0;"/><line style="stroke:#181818;stroke-width:1.0;" x1="942.9536" x2="1175.9624" y1="850.877" y2="850.877"/><text fill="#000000" font-family="sans-serif" font-size="13" font-weight="bold" lengthAdjust="spacing" textLength="14.46" x="949.9536" y="845.6143">15</text><text fill="#000000" font-family="sans-serif" font-size="13" lengthAdjust="spacing" textLength="196.5488" x="968.4136" y="845.6143">&#1057;&#1086;&#1093;&#1088;&#1072;&#1085;&#1077;&#1085;&#1080;&#1077; &#1079;&#1072;&#1087;&#1080;&#1089;&#1080; (Save Entity)</text><polygon fill="#181818" points="953.9536,878.168,943.9536,882.168,953.9536,886.168,949.9536,882.168" style="stroke:#181818;stroke-width:1.0;"/><line style="stroke:#181818;stroke-width:1.0;stroke-dasharray:2.0,2.0;" x1="947.9536" x2="1180.9624" y1="882.168" y2="882.168"/><text fill="#000000" font-family="sans-serif" font-size="13" font-weight="bold" lengthAdjust="spacing" textLength="14.46" x="959.9536" y="876.9053">16</text><text fill="#000000" font-family="sans-serif" font-size="13" lengthAdjust="spacing" textLength="93.9199" x="978.4136" y="876.9053">patientId (UUID)</text><path d="M20,904.168 L241.7759,904.168 L241.7759,913.459 L231.7759,923.459 L20,923.459 L20,904.168 " fill="#EEEEEE" style="stroke:#000000;stroke-width:1.5;"/><rect fill="none" height="231.668" style="stroke:#000000;stroke-width:1.5;" width="1378.5791" x="20" y="904.168"/><text fill="#000000" font-family="sans-serif" font-size="13" font-weight="bold" lengthAdjust="spacing" textLength="176.7759" x="35" y="919.1963">&#1048;&#1085;&#1090;&#1077;&#1075;&#1088;&#1072;&#1094;&#1080;&#1103; &#1089; Billing (gRPC)</text><polygon fill="#181818" points="1285.3379,942.75,1295.3379,946.75,1285.3379,950.75,1289.3379,946.75" style="stroke:#181818;stroke-width:1.0;"/><line style="stroke:#181818;stroke-width:1.0;" x1="942.9536" x2="1291.3379" y1="946.75" y2="946.75"/><text fill="#000000" font-family="sans-serif" font-size="13" font-weight="bold" lengthAdjust="spacing" textLength="14.46" x="949.9536" y="941.4873">17</text><text fill="#000000" font-family="sans-serif" font-size="13" lengthAdjust="spacing" textLength="295.5278" x="968.4136" y="941.4873">gRPC CreateBillingAccount(patientId, name, email)</text><path d="M30,961.75 L90.1709,961.75 L90.1709,971.041 L80.1709,981.041 L30,981.041 L30,961.75 " fill="#EEEEEE" style="stroke:#000000;stroke-width:1.5;"/><rect fill="none" height="167.0859" style="stroke:#000000;stroke-width:1.5;" width="1358.5791" x="30" y="961.75"/><text fill="#000000" font-family="sans-serif" font-size="13" font-weight="bold" lengthAdjust="spacing" textLength="15.1709" x="45" y="976.7783">alt</text><text fill="#000000" font-family="sans-serif" font-size="11" font-weight="bold" lengthAdjust="spacing" textLength="199.9175" x="105.1709" y="975.6201">[Billing Service &#1085;&#1077;&#1076;&#1086;&#1089;&#1090;&#1091;&#1087;&#1077;&#1085; / &#1086;&#1096;&#1080;&#1073;&#1082;&#1072;]</text><polygon fill="#FF0000" points="953.9536,1000.332,943.9536,1004.332,953.9536,1008.332,949.9536,1004.332" style="stroke:#FF0000;stroke-width:1.0;"/><line style="stroke:#FF0000;stroke-width:1.0;stroke-dasharray:2.0,2.0;" x1="947.9536" x2="1296.3379" y1="1004.332" y2="1004.332"/><text fill="#000000" font-family="sans-serif" font-size="13" font-weight="bold" lengthAdjust="spacing" textLength="14.46" x="959.9536" y="999.0693">18</text><text fill="#000000" font-family="sans-serif" font-size="13" lengthAdjust="spacing" textLength="142.3525" x="978.4136" y="999.0693">StatusRuntimeException</text><polygon fill="#FF0000" points="68.7793,1031.623,58.7793,1035.623,68.7793,1039.623,64.7793,1035.623" style="stroke:#FF0000;stroke-width:1.0;"/><line style="stroke:#FF0000;stroke-width:1.0;stroke-dasharray:2.0,2.0;" x1="62.7793" x2="931.9536" y1="1035.623" y2="1035.623"/><text fill="#000000" font-family="sans-serif" font-size="13" font-weight="bold" lengthAdjust="spacing" textLength="14.46" x="74.7793" y="1030.3604">19</text><text fill="#000000" font-family="sans-serif" font-size="13" lengthAdjust="spacing" textLength="143.0635" x="93.2393" y="1030.3604">500 Internal Server Error</text><path d="M896,1048.623 L896,1075.623 L1223,1075.623 L1223,1058.623 L1213,1048.623 L896,1048.623 " fill="#FEFFDD" style="stroke:#181818;stroke-width:0.5;"/><path d="M1213,1048.623 L1213,1058.623 L1223,1058.623 L1213,1048.623 " fill="#FEFFDD" style="stroke:#181818;stroke-width:0.5;"/><text fill="#000000" font-family="sans-serif" font-size="13" font-weight="bold" lengthAdjust="spacing" textLength="131.3584" x="989.4319" y="1067.6514">Rollback &#1090;&#1088;&#1072;&#1085;&#1079;&#1072;&#1082;&#1094;&#1080;&#1080;</text><line style="stroke:#000000;stroke-width:1.0;stroke-dasharray:2.0,2.0;" x1="30" x2="1388.5791" y1="1081.9141" y2="1081.9141"/><text fill="#000000" font-family="sans-serif" font-size="11" font-weight="bold" lengthAdjust="spacing" textLength="39.166" x="35" y="1093.7842">[&#1059;&#1089;&#1087;&#1077;&#1093;]</text><polygon fill="#181818" points="953.9536,1116.8359,943.9536,1120.8359,953.9536,1124.8359,949.9536,1120.8359" style="stroke:#181818;stroke-width:1.0;"/><line style="stroke:#181818;stroke-width:1.0;stroke-dasharray:2.0,2.0;" x1="947.9536" x2="1296.3379" y1="1120.8359" y2="1120.8359"/><text fill="#000000" font-family="sans-serif" font-size="13" font-weight="bold" lengthAdjust="spacing" textLength="14.46" x="959.9536" y="1115.5732">20</text><text fill="#000000" font-family="sans-serif" font-size="13" lengthAdjust="spacing" textLength="214.4683" x="978.4136" y="1115.5732">BillingResponse (accountId: "12345")</text><path d="M20,1149.8359 L193.7813,1149.8359 L193.7813,1159.127 L183.7813,1169.127 L20,1169.127 L20,1149.8359 " fill="#EEEEEE" style="stroke:#000000;stroke-width:1.5;"/><rect fill="none" height="183.7461" style="stroke:#000000;stroke-width:1.5;" width="1545.5371" x="20" y="1149.8359"/><text fill="#000000" font-family="sans-serif" font-size="13" font-weight="bold" lengthAdjust="spacing" textLength="128.7813" x="35" y="1164.8643">&#1055;&#1091;&#1073;&#1083;&#1080;&#1082;&#1072;&#1094;&#1080;&#1103; &#1074; Kafka</text><polygon fill="#181818" points="1455.0581,1188.418,1465.0581,1192.418,1455.0581,1196.418,1459.0581,1192.418" style="stroke:#181818;stroke-width:1.0;"/><line style="stroke:#181818;stroke-width:1.0;" x1="942.9536" x2="1461.0581" y1="1192.418" y2="1192.418"/><text fill="#000000" font-family="sans-serif" font-size="13" font-weight="bold" lengthAdjust="spacing" textLength="14.46" x="949.9536" y="1187.1553">21</text><text fill="#000000" font-family="sans-serif" font-size="13" lengthAdjust="spacing" textLength="300.917" x="968.4136" y="1187.1553">&#1054;&#1090;&#1087;&#1088;&#1072;&#1074;&#1082;&#1072; PatientEvent (patientEventSupplier-out-0)</text><path d="M30,1207.418 L90.1709,1207.418 L90.1709,1216.709 L80.1709,1226.709 L30,1226.709 L30,1207.418 " fill="#EEEEEE" style="stroke:#000000;stroke-width:1.5;"/><rect fill="none" height="119.1641" style="stroke:#000000;stroke-width:1.5;" width="1525.5371" x="30" y="1207.418"/><text fill="#000000" font-family="sans-serif" font-size="13" font-weight="bold" lengthAdjust="spacing" textLength="15.1709" x="45" y="1222.4463">alt</text><text fill="#000000" font-family="sans-serif" font-size="11" font-weight="bold" lengthAdjust="spacing" textLength="103.834" x="105.1709" y="1221.2881">[Kafka &#1085;&#1077;&#1076;&#1086;&#1089;&#1090;&#1091;&#1087;&#1077;&#1085;]</text><polygon fill="#FF0000" points="953.9536,1246,943.9536,1250,953.9536,1254,949.9536,1250" style="stroke:#FF0000;stroke-width:1.0;"/><line style="stroke:#FF0000;stroke-width:1.0;stroke-dasharray:2.0,2.0;" x1="947.9536" x2="1466.0581" y1="1250" y2="1250"/><text fill="#000000" font-family="sans-serif" font-size="13" font-weight="bold" lengthAdjust="spacing" textLength="14.46" x="959.9536" y="1244.7373">22</text><text fill="#000000" font-family="sans-serif" font-size="13" lengthAdjust="spacing" textLength="57.0908" x="978.4136" y="1244.7373">Exception</text><polygon fill="#FF0000" points="68.7793,1277.291,58.7793,1281.291,68.7793,1285.291,64.7793,1281.291" style="stroke:#FF0000;stroke-width:1.0;"/><line style="stroke:#FF0000;stroke-width:1.0;stroke-dasharray:2.0,2.0;" x1="62.7793" x2="931.9536" y1="1281.291" y2="1281.291"/><text fill="#000000" font-family="sans-serif" font-size="13" font-weight="bold" lengthAdjust="spacing" textLength="14.46" x="74.7793" y="1276.0283">23</text><text fill="#000000" font-family="sans-serif" font-size="13" lengthAdjust="spacing" textLength="143.0635" x="93.2393" y="1276.0283">500 Internal Server Error</text><path d="M896,1294.291 L896,1321.291 L1223,1321.291 L1223,1304.291 L1213,1294.291 L896,1294.291 " fill="#FEFFDD" style="stroke:#181818;stroke-width:0.5;"/><path d="M1213,1294.291 L1213,1304.291 L1223,1304.291 L1213,1294.291 " fill="#FEFFDD" style="stroke:#181818;stroke-width:0.5;"/><text fill="#000000" font-family="sans-serif" font-size="13" font-weight="bold" lengthAdjust="spacing" textLength="131.3584" x="989.4319" y="1313.3193">Rollback &#1090;&#1088;&#1072;&#1085;&#1079;&#1072;&#1082;&#1094;&#1080;&#1080;</text><polygon fill="#181818" points="68.7793,1359.873,58.7793,1363.873,68.7793,1367.873,64.7793,1363.873" style="stroke:#181818;stroke-width:1.0;"/><line style="stroke:#181818;stroke-width:1.0;stroke-dasharray:2.0,2.0;" x1="62.7793" x2="936.9536" y1="1363.873" y2="1363.873"/><text fill="#000000" font-family="sans-serif" font-size="13" font-weight="bold" lengthAdjust="spacing" textLength="14.46" x="74.7793" y="1358.6104">24</text><text fill="#000000" font-family="sans-serif" font-size="13" lengthAdjust="spacing" textLength="249.6089" x="93.2393" y="1358.6104">201 Created + JSON (&#1055;&#1088;&#1086;&#1092;&#1080;&#1083;&#1100; &#1087;&#1072;&#1094;&#1080;&#1077;&#1085;&#1090;&#1072;)</text><path d="M896,1376.873 L896,1403.873 L1223,1403.873 L1223,1386.873 L1213,1376.873 L896,1376.873 " fill="#FEFFDD" style="stroke:#181818;stroke-width:0.5;"/><path d="M1213,1376.873 L1213,1386.873 L1223,1386.873 L1213,1376.873 " fill="#FEFFDD" style="stroke:#181818;stroke-width:0.5;"/><text fill="#000000" font-family="sans-serif" font-size="13" lengthAdjust="spacing" textLength="187.4082" x="961.407" y="1395.9014">&#1060;&#1080;&#1082;&#1089;&#1072;&#1094;&#1080;&#1103; (Commit) &#1090;&#1088;&#1072;&#1085;&#1079;&#1072;&#1082;&#1094;&#1080;&#1080;</text><!--SRC=[pLRDRjj64BxpAGRgXN8jI7QIYmz6Ori8d02r8TdeeUXX9MuT8XIfKairxYbowhf5WXOeUkYbTVyUG56YLb5gwHMMRzIPtULlfRJegGP4axiptyv-y-tC2bTu7EHFSYfVobayYY_Y9t8SVu7ltu1SwbUSl8alv1Za3EAHNCW_v2ivbZSqWmFnbPogQRlDFucut-LmuBApaFMgbiKY4VXHhyD3VE-A88JAwO275M03sFTSxWkhpqBXTjq-ymLKxXuVmZqc-AViNDcOzv9H91v2cuT3jykL5GrO3XEimmOSAhZemvhJIQSEzeh-nqpGoWK8CvP3wUkH1CWObB7sNCzp_RC42-oprl5-LNcOAGj9YH3l0Vlu4GCxWUL3V0wqfPgoB4q8r7QJRSCE71-rJw3E-cvzk5KtlWEmxtzm0d82c8enPcuXt-1l8kToMYMQtI7wfznP2He2A-fsu5up0oMswaFckGuv9SWOT7YU0rCKCq-0cb-WK4RnK_Mya9FuAKa0zO5np50tE4FZ2_dQ0lnJYzOAsxhTQC0USw15aXa8PPQ6YPQ6YhyRSWzpes9OebIdgCI5MckCstz3Iisjk6koZp3o6gD1WSivoHhvYfyZTyJP69sd-Atqle08rUcp7azXqBsM4IU_Kyg_YP-XzjSYrS6FF4z146No5voVKt20lbCo9Q8mTXggwwtGDkXvbGwk17-k8EWnbgyrWbfdBSzRSEfJYeFG_OmxgUqQibTOAyRbhyZT4hFy9QrCP6MRCFNYRM5iOnQF7i2xSBzzzBv6zHsBVWulIanfJ7wF3EkiqlzdK3gnAmGOVqq2d40p2ZcUfRLRlDEubQBWLeVCzLZ7urfNg98fgOhMnCtDgURH2JFveSz9EPRYKhlfD1xTC7XyNb1ukjMascGI-JQ-n3o_ofGrfaei_wI35Jz12ahAGRkKy6J9jnwSX7JruWSOH33aOUAxcTKtKlaFkFoLMci1kYVWyiJ4N3M46TZldOJC7z260fzvLGsR1h9RXBic_Z1u8fT8LQdxIl6CoTFwfdw2kk8zp4XAIvE-0ClBxxhLvBnqpVaF752Y3Uv8BVv24Py_IElsyJEguDAmCJKDK0j4rHQafSs6YEuBLs3nBC6PIf89n9JpGmViqzF3WsenHsTX4FNrKQ2Z_pBNcUDHqbnClraLUMAn0sG2-o57vPd1kzrk4Fd2JYFO12fwcvh-32uLRDBBqWbCJhdrAL9CFSRiB9D2ji2YCKEMCVEfF_qb_hNQX- -4tFaeJqrRC14DMXYZs-FDnrtU9w4LtBEC9-wvGzw0GrzG9VTKU2ZqPXW6OG7W7mx1naOhyBmEwpvQUGGsDbAmOeMyNBF9_FRCQ8iF-e6FpZRJ2JbqTg2ojNthzfrAbWHIHFAUAvVvb9H5Sutylr2LOfvTvoRcdh52A_fkWWh_4RMsL9kTg9DgR9fqMKdlBkgh7VNxo7TO2o9HQrGBoj1mg_HGu4QRhKh__pxZ9YKfxolBppQsKtti7DFwmDQrCFwSxahKp4jtxEg_Ai-_KMAf7vdKslj1h-UAwigmhP9kajwZOi-D9zV5lm00]--></g></svg>